<svg xmlns="http://www.w3.org/2000/svg" width="200" height="200" viewBox="0 0 200 200">
  <defs>
    <linearGradient id="aston-martin-a" x1="28.898%" x2="71.096%" y1="47.035%" y2="52.963%">
      <stop offset="0%" stop-color="#396"/>
      <stop offset="100%" stop-color="#004F32"/>
      <stop offset="100%" stop-color="#004F32"/>
    </linearGradient>
  </defs>
  <g fill="none" transform="translate(0 55)">
    <path fill="#000" d="M100.155352,36.635474 C99.7914373,36.635474 99.524159,36.9076453 99.5211009,36.9137615 C99.5051988,36.9266055 93.0629969,43.0740061 93.0629969,43.0740061 C90.6874618,45.3669725 87.5333333,44.4073394 87.1963303,44.2954128 C87.1963303,44.2954128 59.6593272,36.7834862 59.6556575,36.7810398 C54.4006116,35.1957187 53.3565749,33.4856269 52.5522936,31.4085627 C52.5522936,31.4085627 52.0850153,30.1174312 50.9412844,29.7792049 C50.9412844,29.7792049 17.2795107,19.8972477 17.2764526,19.8972477 C15.9027523,19.4733945 15.146789,19.0856269 14.6067278,18.0397554 C14.6067278,18.0397554 12.7590214,14.7865443 12.7529052,14.77737 C12.3431193,13.9975535 11.6006116,13.9149847 11.5577982,13.9088685 C9.0116208,13.5651376 8.26544343,12.1455657 7.94984709,11.5412844 L6.44831804,8.90397554 C5.97859327,8.08685015 5.30703364,8.017737 5.28623853,8.01529052 C3.83853211,7.9235474 3.14984709,7.55840979 2.55107034,6.57553517 C2.55107034,6.57553517 1.08318043,4.13394495 1.07706422,4.12171254 C0.355351682,2.7883792 0.604892966,1.83425076 0.937614679,1.26788991 C1.63975535,0.106422018 2.92293578,0.0183486239 3.43792049,0 L83.9296636,0 C86.2085627,0 88.0501529,0.690519878 89.4116208,2.05626911 C90.3896024,3.03058104 91.0629969,4.30214067 91.4116208,5.83363914 C91.417737,5.86972477 91.5125382,6.18960245 92.2012232,6.18960245 L108.110703,6.18960245 C108.8,6.18960245 108.89419,5.87033639 108.900306,5.83363914 C109.24893,4.30214067 109.922324,3.03058104 110.900306,2.05626911 C112.261774,0.690519878 114.102752,0 116.382875,0 L196.874618,0 C197.389602,0.0177370031 198.672171,0.106422018 199.3737,1.26727829 C199.707034,1.83363914 199.955963,2.78776758 199.234251,4.12110092 C199.228135,4.13333333 197.760245,6.57492355 197.760245,6.57492355 C197.161468,7.55779817 196.473394,7.92293578 195.025076,8.0146789 C195.004893,8.01712538 194.33211,8.08623853 193.862997,8.90336391 L192.361468,11.5406728 C192.045872,12.1449541 191.299694,13.564526 188.754128,13.9082569 C188.711315,13.9143731 187.968807,13.9969419 187.55841,14.7767584 C187.552294,14.7859327 185.705199,18.0391437 185.705199,18.0391437 C185.165138,19.0850153 184.409174,19.4733945 183.036086,19.8966361 C183.033639,19.8966361 149.371254,29.7785933 149.371254,29.7785933 C148.227523,30.1168196 147.760245,31.4079511 147.760245,31.4079511 C146.956575,33.4850153 145.912538,35.195107 140.656881,36.7804281 C140.653823,36.7828746 113.116208,44.2948012 113.116208,44.2948012 C112.779205,44.4067278 109.625076,45.3663609 107.249541,43.0733945 C107.249541,43.0733945 100.807951,36.9253823 100.790826,36.9131498 C100.788379,36.9070336 100.521101,36.6348624 100.157187,36.6348624 L100.155352,36.6348624 L100.155352,36.635474 L100.155352,36.635474 Z"/>
    <path fill="#FFF" d="M110.362691,6.16024465 C110.644648,4.91314985 111.182875,3.89051988 111.955963,3.11681957 C113.0263,2.04464832 114.517431,1.49908257 116.379205,1.49908257 L153.355963,1.49908257 C152.085015,2.45015291 151.417737,3.65321101 151.373089,3.73333333 C150.865057,4.67857191 150.331735,5.60999831 149.7737,6.5266055 L110.232416,6.5266055 C110.314373,6.38287462 110.363303,6.16024465 110.362691,6.16024465 L110.362691,6.16024465 Z M197.916208,3.40428135 L196.472783,5.80489297 C196.203058,6.25015291 196.036086,6.45137615 194.926606,6.52171254 L151.13578,6.52782875 C151.571745,5.79072076 151.992627,5.04479597 152.398165,4.29051988 C152.410398,4.26788991 153.961468,1.50336391 156.715596,1.50336391 L196.831804,1.49969419 C197.252599,1.51743119 197.799388,1.56452599 198.088685,2.04220183 C198.123547,2.10642202 198.206116,2.23975535 198.206116,2.48012232 C198.206116,2.69296636 198.138226,2.99571865 197.916208,3.40428135 L197.916208,3.40428135 Z M192.560856,8.16330275 L191.031804,10.8477064 C190.823242,11.2446483 190.501529,11.858104 189.480122,12.2110092 C188.6263,12.4244648 186.927217,12.288685 186.338838,12.2171254 L149.091743,9.74250765 C149.573089,9.02874618 150.020183,8.34189602 150.4263,7.68990826 L192.882569,7.68990826 C192.771254,7.83119266 192.662385,7.98470948 192.560856,8.16330275 L192.560856,8.16330275 Z M186.228746,14.0770642 C186.238532,14.0654434 184.763914,16.6617737 184.457492,17.2006116 C184.382263,17.3015291 183.962691,17.7571865 182.598777,17.5761468 L146.907034,12.7883792 C147.39633,12.1486239 147.859939,11.5137615 148.294801,10.9003058 L186.209174,13.4159021 C186.264832,13.42263 186.424465,13.440367 186.652599,13.4605505 C186.487628,13.6487231 186.345366,13.8556498 186.228746,14.0770642 L186.228746,14.0770642 Z M173.953517,21.004893 C172.609786,21.3608563 169.981651,20.9577982 169.069113,20.7681957 L144.543731,15.7272171 C145.080734,15.0966361 145.595719,14.4715596 146.084404,13.8525994 L181.927829,18.6636086 L173.953517,21.004893 Z M161.79633,24.5724771 C160.07156,25.0342508 157.820795,24.2874618 157.799388,24.2813456 L157.772477,24.2727829 C157.772477,24.2727829 157.769419,24.2697248 157.766361,24.2697248 L141.35107,19.2061162 C142.144324,18.4029649 142.916254,17.579029 143.666055,16.7351682 L168.834251,21.9082569 C168.889297,21.9168196 169.404893,22.0232416 170.12844,22.1247706 L161.79633,24.5724771 L161.79633,24.5724771 Z M148.973089,28.3388379 C147.807951,28.6556575 146.089908,27.9828746 145.519878,27.6954128 C145.519878,27.6954128 141.127217,25.6391437 136.616514,23.529052 C137.930115,22.4525325 139.197511,21.3208344 140.415291,20.1370031 L157.438532,25.3902141 C157.47156,25.4024465 157.78104,25.5033639 158.255046,25.6097859 L148.973089,28.3388379 L148.973089,28.3388379 Z M146.345566,30.9076453 C145.849541,32.1785933 145.331498,33.4880734 141.839755,34.8 C140.398165,35.2477064 138.683792,33.9730887 138.669113,33.9590214 C138.662997,33.9529052 134.775535,31.1706422 130.348624,28.0030581 C132.166934,26.8798768 133.921328,25.6563745 135.60367,24.3382263 L145.009786,28.7412844 C145.061774,28.7675841 146.031804,29.2574924 147.206728,29.4764526 C146.64526,30.116208 146.390826,30.77737 146.345566,30.9076453 L146.345566,30.9076453 Z M133.188379,37.2666667 L131.877676,37.6220183 C130.7737,37.8862385 129.426911,36.7926606 128.99633,36.3382263 C128.99633,36.3382263 126.880734,34.1370031 124.16208,31.2984709 C125.906002,30.5079798 127.607407,29.6268589 129.259327,28.6587156 L137.97737,34.8960245 C138.012844,34.9253823 138.510703,35.2984709 139.242202,35.6159021 C137.30581,36.1431193 133.188379,37.266055 133.188379,37.2666667 L133.188379,37.2666667 Z M121.662385,40.4103976 C120.741896,40.5553517 119.674006,39.0446483 119.364526,38.4813456 L116.735168,34.0311927 C118.875254,33.4168031 120.975288,32.6706281 123.023242,31.7969419 L128.151682,37.1486239 C128.196942,37.1932722 128.764526,37.782263 129.587768,38.2477064 L121.662385,40.4103976 L121.662385,40.4103976 Z M112.933945,42.7889908 C112.314373,42.9314985 111.791437,42.8691131 111.341896,42.5975535 C110.37737,42.0073394 110.056269,40.6501529 110.038532,40.5706422 L108.697248,35.7314985 C111.014504,35.4116494 113.31025,34.9516832 115.571865,34.3541284 L118.353517,39.0629969 C118.44893,39.2311927 119.013456,40.2152905 119.859327,40.9027523 L112.933945,42.7889908 L112.933945,42.7889908 Z M107.277064,41.0330275 C107.277064,41.0330275 103.547401,37.4740061 102.282569,36.2703364 C104.057492,36.2085627 105.809174,36.0782875 107.529052,35.8764526 L108.900306,40.8244648 C108.93945,40.9963303 109.213456,42.0813456 109.974924,42.9437309 C108.924159,42.6446483 108.605505,42.3333333 107.277064,41.0330275 L107.277064,41.0330275 Z M100.738838,35.1382263 L100.738838,20.0629969 L103.144954,20.0629969 L107.213456,34.741896 C105.096024,34.9847095 102.938226,35.1180428 100.738838,35.1382263 L100.738838,35.1382263 Z M93.0960245,34.741896 L97.1669725,20.0629969 L99.5737003,20.0629969 L99.5737003,35.1363914 C97.3700306,35.1180428 95.212844,34.982263 93.0960245,34.741896 L93.0960245,34.741896 Z M92.0275229,41.9896024 C91.5548125,42.4486206 90.971381,42.7775251 90.333945,42.9443425 C91.1009174,42.0788991 91.3675841,40.9914373 91.4079511,40.82263 L92.7798165,35.8831804 C94.4996942,36.0813456 96.2513761,36.2116208 98.0256881,36.270948 C96.604893,37.6214067 92.0275229,41.9896024 92.0275229,41.9896024 L92.0275229,41.9896024 Z M90.270948,40.5614679 C90.270948,40.5761468 89.9547401,41.9926606 88.9651376,42.5975535 C88.516208,42.8691131 87.995107,42.9321101 87.3755352,42.7889908 L80.4495413,40.9021407 C81.2954128,40.2110092 81.866055,39.2275229 81.9639144,39.0470948 C81.9608563,39.0501529 83.1370031,37.0617737 84.7327217,34.3565749 C86.9954112,34.9549842 89.2926966,35.4139511 91.6116208,35.7308869 L90.270948,40.5614679 L90.270948,40.5614679 Z M78.6464832,40.4103976 L70.7217125,38.2470948 C71.5437309,37.7792049 72.1137615,37.1896024 72.1571865,37.1455657 C72.1571865,37.1455657 74.42263,34.7798165 77.2850153,31.7963303 C79.3327526,32.669826 81.4321011,33.4169963 83.5712538,34.0336391 L80.9529052,38.4697248 C80.6342508,39.0440367 79.5663609,40.5553517 78.6464832,40.4103976 L78.6464832,40.4103976 Z M68.4293578,37.6220183 L61.066055,35.6159021 C61.5178182,35.4217091 61.9462181,35.1771436 62.3431193,34.8868502 C62.3370031,34.8929664 66.4568807,31.9443425 71.0489297,28.6593272 C72.7023511,29.6264639 74.4047312,30.5073573 76.1492355,31.2984709 L71.3119266,36.3382263 C70.8819572,36.7926606 69.5345566,37.8862385 68.4293578,37.6220183 Z M58.4605505,34.8006116 C54.9828746,33.4880734 54.4617737,32.182263 53.9675841,30.9143731 C53.7666735,30.387713 53.4736217,29.9010192 53.1021407,29.4770642 C53.8692832,29.3251407 54.6136427,29.0749652 55.3168196,28.7327217 C55.3070336,28.7357798 60.0201835,26.5345566 64.7076453,24.3382263 C66.3872011,25.6584174 68.1404916,26.8820043 69.9590214,28.0030581 L61.6513761,33.9474006 C61.6244648,33.9743119 59.9021407,35.2544343 58.4605505,34.8006116 L58.4605505,34.8006116 Z M51.3388379,28.3388379 C50.9877676,28.2342508 47.0850153,27.0880734 42.0544343,25.6097859 C42.3350349,25.549068 42.6122729,25.4737361 42.8850153,25.3840979 C42.8703364,25.3902141 56.6795107,21.1296636 59.8954128,20.1370031 C61.1136737,21.3195393 62.3810488,22.4504027 63.6941896,23.5266055 L54.8061162,27.6868502 C54.2183486,27.9828746 52.5039755,28.6556575 51.3388379,28.3388379 Z M38.5223242,24.5749235 C35.7407218,23.7594282 32.9594779,22.9427105 30.1785933,22.1247706 C30.6139,22.0657702 31.0471594,21.9925403 31.4776758,21.9051988 C31.4752294,21.9088685 49.2458716,18.2550459 56.6458716,16.7357798 C57.3965968,17.5780321 58.1676703,18.4019245 58.9584098,19.2067278 L42.5247706,24.2764526 C42.4874618,24.2874618 40.2464832,25.0318043 38.5223242,24.5749235 L38.5223242,24.5749235 Z M26.3675841,21.0085627 C23.7068259,20.2234572 21.04505,19.4418052 18.382263,18.6636086 L54.230581,13.8525994 C54.7198777,14.4685015 55.2324159,15.093578 55.7688073,15.7253823 L31.240367,20.7688073 C30.3302752,20.9577982 27.7137615,21.3608563 26.3675841,21.0085627 L26.3675841,21.0085627 Z M17.7143731,17.5767584 C16.3584098,17.7577982 15.9327217,17.3100917 15.8544343,17.2036697 L14.0703364,14.0623853 C13.9567998,13.8465081 13.8180078,13.6448901 13.6568807,13.4617737 C13.8856269,13.4409786 52.0220183,10.9009174 52.0220183,10.9009174 C52.4725411,11.5379514 52.9339752,12.1671982 53.4061162,12.7883792 L17.7143731,17.5767584 L17.7143731,17.5767584 Z M10.8324159,12.2103976 C9.80978593,11.858104 9.48562691,11.2446483 9.2764526,10.8470948 C8.65137615,9.78409786 7.82874618,8.19510703 7.42446483,7.68868502 L49.8874618,7.68868502 C50.3197256,8.38112131 50.764859,9.06543997 51.22263,9.7412844 L13.9700306,12.2159021 C13.3853211,12.2880734 11.6856269,12.4238532 10.8324159,12.2103976 L10.8324159,12.2103976 Z M5.39510703,6.5266055 C4.37247706,6.45015291 4.15474006,6.32905199 3.83302752,5.80061162 C3.83669725,5.80428135 2.49847095,3.57981651 2.39204893,3.40428135 C2.17003058,2.99571865 2.09663609,2.69296636 2.10642202,2.4795107 C2.13088685,1.93394495 2.50214067,1.51376147 3.47828746,1.49847095 L43.5963303,1.50214067 C46.3119266,1.50214067 47.9131498,4.28990826 47.9131498,4.28990826 C48.3192575,5.04425181 48.741165,5.78998203 49.1785933,6.5266055 L5.39510703,6.5266055 L5.39510703,6.5266055 Z M83.929052,1.49847095 C85.7944954,1.49847095 87.2813456,2.0440367 88.3529052,3.11681957 C89.1266055,3.88990826 89.6629969,4.91253823 89.9486239,6.16024465 C89.9486239,6.16024465 90.0061162,6.37370031 90.0795107,6.52721713 L50.5388379,6.52721713 C49.9345566,5.5351682 48.9382263,3.73394495 48.9382263,3.73394495 C48.8948012,3.65443425 48.2262997,2.45076453 46.9547401,1.49969419 L83.929052,1.49847095 Z M141.187156,9.22079511 L141.187156,7.68868502 L149.04893,7.68868502 C148.62597,8.35135384 148.191036,9.00630337 147.744343,9.65321101 L141.187156,9.22079511 L141.187156,9.22079511 Z M141.187156,12.0232416 L141.187156,10.4299694 L146.927829,10.8091743 C146.503976,11.3981651 146.050153,11.9993884 145.57737,12.6134557 L141.187156,12.0232416 Z M141.187156,15.040367 L141.187156,13.1969419 L144.737615,13.6740061 C144.261162,14.2642202 143.760245,14.8593272 143.238532,15.4605505 C142.322936,15.2715596 141.617125,15.129052 141.187156,15.040367 Z M141.187156,16.2287462 L142.346177,16.4648318 C141.96673,16.8852776 141.580337,17.2994018 141.187156,17.7070336 L141.187156,16.2287462 L141.187156,16.2287462 Z M129.210398,20.0629969 L138.805505,20.0629969 C137.827523,21.0348624 135.519266,22.9155963 135.443425,22.9785933 C133.110703,21.8844037 130.835474,20.8238532 129.210398,20.0629969 L129.210398,20.0629969 Z M119.251988,20.0629969 L126.462997,20.0629969 L134.416514,23.7847095 C132.78146,25.0378675 131.079234,26.2008608 129.317431,27.2685015 C125.478899,24.5192661 121.434862,21.6244648 119.251988,20.0629969 L119.251988,20.0629969 Z M113.385321,20.0629969 L117.253823,20.0629969 L128.218349,27.9149847 C126.624523,28.828881 124.984403,29.6595569 123.304587,30.4036697 C119.69419,26.6409786 115.344954,22.1039755 113.385321,20.0629969 L113.385321,20.0629969 Z M108.485015,20.0629969 L111.770031,20.0629969 L122.159021,30.8960245 C120.189918,31.7142869 118.173929,32.4148081 116.121713,32.9938838 L108.485015,20.0629969 L108.485015,20.0629969 Z M107.131498,20.0629969 L114.957798,33.3070336 C112.793527,33.8671109 110.597786,34.2976404 108.382263,34.5963303 L104.352905,20.0623853 L107.131498,20.0623853 L107.131498,20.0629969 Z M93.1779817,20.0629969 L95.9565749,20.0629969 L91.9272171,34.5969419 C89.7119815,34.2978999 87.5163208,33.8684073 85.351682,33.3107034 C88.283792,28.3510703 92.1963303,21.7247706 93.1779817,20.0629969 L93.1779817,20.0629969 Z M88.5388379,20.0629969 L91.8250765,20.0629969 L84.1877676,32.9938838 C82.1342545,32.4162059 80.1177019,31.7144056 78.1492355,30.8923547 C82.3149847,26.551682 87.3284404,21.3247706 88.5388379,20.0629969 L88.5388379,20.0629969 Z M83.0556575,20.0629969 L86.924159,20.0629969 L77.0085627,30.4036697 C75.3273258,29.6592007 73.6855947,28.8285362 72.0899083,27.9149847 C76.848318,24.5076453 81.8085627,20.9547401 83.0556575,20.0629969 L83.0556575,20.0629969 Z M64.8654434,22.9785933 C64.7779817,22.9076453 62.4795107,20.9761468 61.5033639,20.0629969 L71.0972477,20.0629969 L64.8654434,22.9785933 L64.8654434,22.9785933 Z M73.8464832,20.0629969 L81.0556575,20.0629969 L70.9908257,27.266055 C69.2288645,26.2004605 67.5271835,25.0382373 65.893578,23.7847095 C69.6715596,22.0152905 73.1706422,20.3798165 73.8464832,20.0629969 L73.8464832,20.0629969 Z M59.1125382,16.2287462 L59.1125382,17.6948012 C58.7236121,17.2908679 58.3412983,16.8806197 57.9657492,16.4642202 C58.4262997,16.3681957 58.8116208,16.2905199 59.1125382,16.2287462 L59.1125382,16.2287462 Z M59.1125382,13.1969419 L59.1125382,15.0397554 L57.070948,15.4605505 C56.5626938,14.8732934 56.0641552,14.2776977 55.5755352,13.6740061 L59.1125382,13.1969419 L59.1125382,13.1969419 Z M59.1125382,10.4299694 L59.1125382,12.0232416 L54.7345566,12.6134557 C54.2757574,12.019459 53.826767,11.4179504 53.3877676,10.8091743 L59.1125382,10.4299694 L59.1125382,10.4299694 Z M59.1125382,9.22079511 L52.5718654,9.65321101 C52.1235158,9.00715767 51.6881583,8.35218417 51.266055,7.68868502 L59.1125382,7.68868502 L59.1125382,9.22079511 L59.1125382,9.22079511 Z"/>
    <path fill="url(#aston-martin-a)" d="M60.2960245,18.8984709 L60.2788991,18.8807339 L60.2788991,7.69480122 L140.025076,7.69480122 L140.025076,18.8862385 C140.02263,18.8923547 140.01896,18.8923547 140.016514,18.8954128 L60.2960245,18.8984709 L60.2960245,18.8984709 Z"/>
    <path fill="#FFF" d="M65.57737,9.48134557 L65.2446483,9.48134557 L61.8366972,17.1051988 L62.759633,17.1051988 L62.7743119,17.0611621 C63.0501529,16.1333333 63.4055046,15.2446483 63.7504587,14.3920489 L63.8220183,14.2110092 L66.4574924,14.2110092 C66.8640626,15.1474011 67.2347704,16.0989592 67.5688073,17.0636086 L67.5840979,17.1051988 L68.858104,17.1051988 L65.57737,9.48134557 L65.57737,9.48134557 Z M64.0801223,13.6293578 C64.1498471,13.4611621 65.0440367,11.3657492 65.1504587,11.1174312 C65.2556575,11.3657492 66.1675841,13.4611621 66.2391437,13.6293578 L64.0801223,13.6293578 Z M69.2250765,16.5626911 L69.253211,16.5920489 C69.6556575,17.0311927 70.5633028,17.2360856 71.0513761,17.2360856 C72.6501529,17.2360856 73.7700306,16.2042813 73.7700306,14.724159 C73.7700306,13.4966361 72.8409786,13.1351682 71.9431193,12.7798165 C71.1455657,12.4623853 70.387156,12.169419 70.387156,11.2629969 C70.387156,10.5749235 70.9296636,10.0776758 71.6733945,10.0776758 C72.2678899,10.0776758 72.7168196,10.3914373 72.9443425,10.9657492 L72.959633,11.0067278 L73.1626911,11.0067278 L73.4813456,10.0446483 L73.4458716,10.0116208 C73.0116208,9.62018349 72.3431193,9.48134557 71.8672783,9.48134557 C70.3767584,9.48134557 69.4152905,10.3137615 69.4152905,11.6061162 C69.4152905,12.9217125 70.3963303,13.3033639 71.2599388,13.6477064 C72.0409786,13.9498471 72.7737003,14.240367 72.7737003,15.1443425 C72.7737003,15.9828746 72.1486239,16.6434251 71.3522936,16.6434251 C70.62263,16.6434251 70.1388379,16.329052 69.6672783,15.5590214 L69.6489297,15.5296636 L69.4458716,15.5296636 L69.2250765,16.5626911 L69.2250765,16.5626911 Z M79.787156,9.63853211 L74.1810398,9.63853211 L74.1810398,10.4238532 L74.253211,10.417737 C75.0097453,10.3309042 75.770609,10.2872046 76.5321101,10.2868502 L76.5321101,17.129052 L77.6091743,17.129052 L77.6091743,10.2905199 C78.3706422,10.2905199 79.0978593,10.333945 79.7779817,10.417737 L79.8538226,10.4262997 L79.8538226,9.63853211 L79.787156,9.63853211 L79.787156,9.63853211 Z M83.6495413,9.48134557 C81.2715596,9.48134557 79.6079511,11.0844037 79.6079511,13.3749235 C79.6079511,15.6856269 81.2256881,17.235474 83.6287462,17.235474 C86.1131498,17.235474 87.7853212,15.6171254 87.7853212,13.2116208 C87.7859327,10.6336391 85.7070336,9.48134557 83.6495413,9.48134557 Z M85.640367,15.9051988 C85.111315,16.4648318 84.4477064,16.7498471 83.658104,16.7498471 C81.9174312,16.7498471 80.7914373,15.4764526 80.7914373,13.5058104 C80.7914373,11.3223242 81.929052,9.9675841 83.7559633,9.9675841 C84.617737,9.9675841 85.4311927,10.346789 85.933945,10.9804281 C86.4862385,11.6856269 86.5987768,12.4207951 86.5987768,13.3009174 C86.6018349,13.3486239 86.604893,13.4018349 86.604893,13.4525994 C86.604893,14.1688073 86.3131498,15.1853211 85.640367,15.9051988 L85.640367,15.9051988 Z M95.2525994,9.63853211 L94.5847095,9.63853211 L94.5847095,15.164526 L94.5724771,15.164526 C94.533945,15.1198777 89.4715596,9.63853211 89.4715596,9.63853211 L88.9565749,9.63853211 L88.9565749,17.1051988 L89.6911315,17.1051988 L89.6911315,11.3272171 L89.706422,11.3272171 C89.7455657,11.3718654 94.3204893,16.4360856 94.3204893,16.4360856 L94.8941896,17.1058104 L95.3192661,17.1058104 L95.3192661,9.63853211 L95.2525994,9.63853211 Z M107.317431,9.63853211 L107.053211,9.63853211 L105.244648,12.9180428 C105.244648,12.9180428 104.100306,15.0042813 103.99633,15.1914373 C102.880734,13.3302752 101.875841,11.3718654 101.020795,9.67400612 L101.003058,9.63853211 L100.623242,9.63853211 L100.617125,9.70091743 C100.510703,10.8036697 99.8685015,15.2978593 99.5877676,17.0311927 L99.5730887,17.1051988 L100.478287,17.1051988 L100.478287,17.0409786 C100.478287,15.9889908 100.664832,14.4207951 100.862997,12.7584098 L100.982263,11.7302752 C101.108869,11.9724771 102.513761,14.640367 103.050153,15.7394495 L103.657492,16.9902141 L103.86055,16.9902141 L103.877676,16.9486239 C104.502141,15.5137615 105.384098,13.875841 106.590826,11.7186544 C106.761468,13.004893 106.987768,15.5737003 107.11315,17.0458716 L107.119878,17.1058104 L108.263609,17.1058104 L108.253823,17.0318043 C107.995719,15.2207951 107.713761,12.8238532 107.384098,9.70152905 L107.37737,9.63914373 L107.317431,9.63914373 L107.317431,9.63853211 Z M112.43792,9.48134557 L112.102752,9.48134557 L108.693578,17.1051988 L109.622018,17.1051988 L109.634251,17.0611621 C109.911315,16.1247706 110.268502,15.2330275 110.615291,14.3730887 C110.615291,14.3730887 110.658104,14.2666667 110.678899,14.2103976 L113.316208,14.2103976 C113.721939,15.1469065 114.092031,16.0984559 114.425688,17.0629969 L114.440367,17.1045872 L115.715596,17.1045872 L112.43792,9.48134557 L112.43792,9.48134557 Z M110.938838,13.6293578 C111.008563,13.4611621 111.903364,11.3657492 112.010398,11.1174312 L113.099083,13.6293578 L110.938838,13.6293578 Z M118.994495,13.4165138 C120.341896,13.1443425 121.148012,12.3767584 121.148012,11.3394495 C121.148012,10.1993884 120.347401,9.63914373 118.697859,9.63914373 L116.357798,9.63914373 L116.357798,17.1058104 L117.432416,17.1058104 L117.432416,13.5266055 L117.746177,13.5266055 C118.024156,13.8560601 118.302852,14.184909 118.582263,14.5131498 C118.578593,14.5094801 119.847706,16.151682 119.847706,16.151682 L120.542508,17.1058104 L121.949847,17.1058104 C121.949847,17.1051988 119.122324,13.5737003 118.994495,13.4165138 L118.994495,13.4165138 Z M117.432416,12.9902141 L117.432416,10.169419 C117.875229,10.1486239 118.56208,10.1192661 118.934557,10.1792049 C119.680122,10.2996942 120.058716,10.7351682 120.058716,11.4666667 C120.058716,12.2171254 119.566361,12.764526 118.736391,12.9314985 C118.269725,13.0250765 117.70581,13.0079511 117.432416,12.9902141 L117.432416,12.9902141 Z M127.363914,9.63853211 L121.755352,9.63853211 L121.755352,10.4238532 L121.828746,10.417737 C122.584473,10.331031 123.344515,10.2873317 124.105199,10.2868502 L124.105199,17.129052 L125.187768,17.129052 L125.187768,10.2905199 C125.946177,10.2905199 126.675229,10.333945 127.355963,10.417737 L127.431193,10.4262997 L127.431193,9.63853211 L127.363914,9.63853211 L127.363914,9.63853211 Z M128.316208,17.1051988 L129.33211,17.1051988 L129.33211,9.63853211 L128.316208,9.63853211 L128.316208,17.1051988 Z M136.544343,9.63853211 L136.544343,15.164526 L136.535168,15.164526 C136.495413,15.1198777 131.434251,9.63853211 131.434251,9.63853211 L130.918043,9.63853211 L130.918043,17.1051988 L131.653211,17.1051988 L131.653211,11.3272171 L131.666055,11.3272171 C131.705199,11.3718654 136.286239,16.4360856 136.286239,16.4360856 L136.859939,17.1058104 L137.278899,17.1058104 L137.278899,9.63853211 L136.544343,9.63853211 Z"/>
    <path fill="#000" d="M38.9651376,88.7651376 C38.5626911,88.7406728 38.2201835,88.6996942 37.8556575,88.6996942 C37.4513761,88.6996942 37.088685,88.7406728 36.7235474,88.7651376 C36.1070336,86.9926606 35.3370031,84.9480122 34.4819572,83.0073394 L29.0623853,83.0073394 C28.3149847,84.8825688 27.5455657,86.7584098 26.9492355,88.7651376 C26.6495413,88.7406728 26.4159021,88.6996942 26.1577982,88.6996942 C25.8807339,88.6996942 25.6452599,88.7406728 25.4110092,88.7651376 L32.070948,73.8666667 L32.5626911,73.8666667 L38.9651376,88.7651376 Z M174.148012,88.7651376 L173.503976,88.7651376 C173.148122,88.3200984 172.778734,87.8860523 172.39633,87.4636086 L163.171865,77.2703364 L162.962691,77.2703364 L162.962691,88.764526 C162.748624,88.7406728 162.556575,88.6996942 162.361468,88.6996942 C162.149847,88.6996942 161.955963,88.7406728 161.764526,88.764526 L161.764526,74.1828746 L162.598165,74.1828746 L172.736391,85.1608563 L172.951682,85.1608563 L172.951682,74.1828746 C173.142508,74.2006116 173.333333,74.2458716 173.550459,74.2458716 C173.743731,74.2458716 173.93578,74.2012232 174.147401,74.1828746 L174.148012,88.7651376 Z M156.864832,74.1828746 C157.164526,74.2006116 157.486239,74.2458716 157.804281,74.2458716 C158.102752,74.2458716 158.403058,74.2012232 158.742508,74.1828746 L158.742508,88.7651376 C158.402446,88.7406728 158.102141,88.6996942 157.804281,88.6996942 C157.485627,88.6996942 157.164526,88.7406728 156.864832,88.7651376 L156.864832,74.1828746 L156.864832,74.1828746 Z M150.025076,88.8061162 C149.682569,88.7853211 149.382263,88.7406728 149.081346,88.7406728 C148.763303,88.7406728 148.444648,88.7853211 148.144954,88.8061162 L148.144954,75.2055046 C145.991437,75.2055046 144.689908,75.3327217 143.467278,75.4599388 C143.494801,75.2464832 143.533945,75.0336391 143.533945,74.82263 C143.533945,74.6067278 143.494801,74.4171254 143.467278,74.1828746 L154.485015,74.1828746 C154.463609,74.4171254 154.423853,74.6067278 154.423853,74.82263 C154.423853,75.0336391 154.462997,75.2464832 154.485015,75.4599388 C153.004961,75.286453 151.51587,75.2014904 150.025688,75.2055046 L150.025688,88.8061162 L150.025076,88.8061162 L150.025076,88.8061162 Z M132.731498,74.1828746 L137.256881,74.1828746 C140.546789,74.1828746 141.996942,75.2672783 141.996942,77.4220183 C141.996942,79.8929664 139.778593,81.0905199 137.621407,81.4721713 L142.01896,87.0366972 L143.044648,88.230581 L143.447095,88.7651376 C143.001223,88.7406728 142.615902,88.6996942 142.209786,88.6996942 C141.806116,88.6996942 141.379817,88.7406728 140.989602,88.7651376 C140.552246,88.137856 140.104064,87.5181913 139.64526,86.906422 L137.129664,83.6477064 L135.422018,81.6470948 L134.614067,81.6470948 L134.614067,88.7657492 C134.270336,88.7412844 133.971865,88.7003058 133.672783,88.7003058 C133.351682,88.7003058 133.031193,88.7412844 132.73211,88.7657492 L132.73211,74.1828746 L132.731498,74.1828746 L132.731498,74.1828746 Z M134.613456,80.8318043 C134.908869,80.8525994 136.275229,80.9388379 137.364526,80.7253823 C138.927217,80.4073394 140.097859,79.3388379 140.097859,77.6788991 C140.097859,76.2067278 139.347401,75.2464832 137.749235,74.9889908 C136.961468,74.8654434 135.505199,74.9272171 134.613456,74.9718654 L134.613456,80.8318043 L134.613456,80.8318043 Z M131.253211,88.7651376 C130.844648,88.7406728 130.507645,88.6996942 130.140061,88.6996942 C129.736391,88.6996942 129.373089,88.7406728 129.014679,88.7651376 C128.392049,86.9926606 127.622018,84.9480122 126.768807,83.0073394 L121.350459,83.0073394 C120.600612,84.8825688 119.830581,86.7584098 119.234862,88.7651376 C118.93578,88.7406728 118.702141,88.6996942 118.446483,88.6996942 C118.169419,88.6996942 117.931498,88.7406728 117.699694,88.7651376 L124.357187,73.8666667 L124.848318,73.8666667 L131.253211,88.7651376 Z M124.081346,76.6574924 L121.753517,82.1119266 L126.450153,82.1119266 L124.081346,76.6574924 Z M114.990214,74.1828746 C115.545566,79.4452599 116.145566,84.693578 116.718654,88.7651376 C116.333945,88.7406728 116.034251,88.6996942 115.716208,88.6996942 C115.372477,88.6996942 115.033028,88.7406728 114.713761,88.7651376 C114.352905,84.4770642 113.918043,79.8752294 113.620795,77.7657492 C111.145566,82.1779817 109.30948,85.5853211 108.028746,88.5308869 L107.795107,88.5308869 L106.622018,86.1192661 C105.252599,83.3100917 103.759021,80.5370031 102.308869,77.7663609 C101.838532,81.9204893 101.262385,86.1394495 101.262385,88.7657492 C100.987768,88.7412844 100.749847,88.7003058 100.518654,88.7003058 C100.240979,88.7003058 100.00367,88.7412844 99.7486239,88.7657492 C100.300917,85.333945 101.581651,76.4201835 101.79633,74.1834862 L102.351682,74.1834862 C104.059939,77.5767584 106.10948,81.5792049 108.390214,85.3547401 C110.423242,81.7039755 112.385933,78.0012232 114.540673,74.1834862 L114.990214,74.1834862 L114.990214,74.1828746 L114.990214,74.1828746 Z M90.9357798,88.7651376 L90.2917431,88.7651376 C89.9370441,88.3193218 89.5678349,87.8852459 89.1847095,87.4636086 L79.9608563,77.2703364 L79.7486239,77.2703364 L79.7486239,88.764526 C79.5351682,88.7406728 79.3412844,88.6996942 79.1498471,88.6996942 C78.9382263,88.6996942 78.7474006,88.7406728 78.5529052,88.764526 L78.5529052,74.1828746 L79.387156,74.1828746 L89.524159,85.1608563 L89.7400612,85.1608563 L89.7400612,74.1828746 C89.9308869,74.2006116 90.1223242,74.2458716 90.3345566,74.2458716 C90.5253823,74.2458716 90.7198777,74.2012232 90.9357798,74.1828746 L90.9357798,88.7651376 L90.9357798,88.7651376 Z M60.3204893,81.4721713 C60.3204893,76.8024465 63.7975535,73.866055 68.2183486,73.866055 C72.2330275,73.866055 76.3076453,76.0342508 76.3076453,81.151682 C76.3076453,85.9045872 72.9370031,89.0214068 68.1798165,89.0214068 C63.4617737,89.0220183 60.3204893,86.035474 60.3204893,81.4721713 Z M72.8733945,76.6330275 C71.8079511,75.2917431 70.1425076,74.5657492 68.4299694,74.5657492 C64.6776758,74.5657492 62.4140673,77.4012232 62.4140673,81.7266055 C62.4140673,86.0587156 65.0593272,88.3143731 68.2409786,88.3143731 C72.7461774,88.3143731 74.3681957,83.6678899 74.2171254,81.324159 C74.2165138,79.5577982 73.9828746,78.0617737 72.8733945,76.6330275 L72.8733945,76.6330275 Z M56.1094801,88.8061162 C55.7663609,88.7853211 55.4697248,88.7406728 55.169419,88.7406728 C54.8477064,88.7406728 54.5259939,88.7853211 54.2311927,88.8061162 L54.2311927,75.2055046 C52.0740061,75.2055046 50.769419,75.3327217 49.5553517,75.4599388 C49.5761468,75.2464832 49.6189602,75.0336391 49.6189602,74.82263 C49.6189602,74.6067278 49.5761468,74.4171254 49.5553517,74.1828746 L60.5688073,74.1828746 C60.5455657,74.4171254 60.5051988,74.6067278 60.5051988,74.82263 C60.5051988,75.0336391 60.5455657,75.2464832 60.5688073,75.4599388 C59.0885484,75.2864562 57.5992532,75.2014937 56.1088685,75.2055046 L56.1088685,88.8061162 L56.1094801,88.8061162 L56.1094801,88.8061162 Z M40.4617737,85.8844037 C41.2923547,87.2501529 42.2513761,88.1033639 43.9211009,88.1033639 C45.6470948,88.1033639 46.8856269,86.6721713 46.8856269,84.9902141 C46.8856269,81.0250765 40.2036697,82.7761468 40.2036697,77.9553517 C40.2036697,75.2055046 42.3816514,73.866055 44.9437309,73.866055 C45.9651376,73.866055 47.2073394,74.1828746 47.9926606,74.8856269 C47.7376147,75.4391437 47.5889908,76.0342508 47.4189602,76.6330275 L47.2073394,76.6330275 C46.7584098,75.4801223 45.8201835,74.7785933 44.5608563,74.7785933 C43.0868502,74.7785933 41.8721713,75.7614679 41.8721713,77.2703364 C41.8721713,81.1963303 48.5938838,79.6171254 48.5938838,84.159633 C48.5938838,87.2085627 46.2201835,89.0214067 43.3198777,89.0214067 C42.2764526,89.0214067 40.5681957,88.5743119 39.8422018,87.7834862 C40.0525994,87.1639144 40.1608563,86.5235474 40.2464832,85.8844037 L40.4617737,85.8844037 L40.4617737,85.8844037 Z M31.7932722,76.6574924 L29.4691131,82.1119266 L34.1626911,82.1119266 L31.7932722,76.6574924 L31.7932722,76.6574924 Z"/>
  </g>
</svg>
