<svg xmlns="http://www.w3.org/2000/svg" width="200" height="200" viewBox="0 0 200 200">
  <g fill="none" transform="translate(0 69)">
    <path fill="#000" d="M102.07234,60.987234 C103.2,63.1120567 106.479433,62.5092199 106.947518,60.3730496 C108.296454,62.3390071 111.419858,61.4212766 111.71773,59.3531915 C113.024113,60.777305 115.615603,60.2070922 116.202837,58.3631206 C116.211348,58.3361702 116.194326,58.3900709 116.202837,58.3631206 C125.815603,54.4099291 132.851064,47.258156 135.602837,38.7205674 C136.186876,38.4764164 136.697597,38.0849449 137.085106,37.5843972 C140.058156,38.2836879 143.380142,39.6822695 144.604255,36.3602837 C147.228369,37.0595745 152.730496,38.8907801 154.395745,34.4382979 C158.242553,34.9631206 163.836879,35.3120567 164.537589,31.2907801 C167.859574,31.2907801 173.628369,30.7659574 173.628369,26.9191489 C176.951773,26.9191489 182.720567,24.6453901 182.021277,22.022695 C184.994326,21.6737589 189.017021,18.5262411 189.017021,16.4283688 C191.988652,15.5546099 195.312057,13.2808511 194.611348,10.3092199 C196.358865,9.25957447 199.331915,8.03546099 199.331915,6.28794326 C199.331915,4.54042553 197.933333,3.14042553 196.358865,3.14042553 C194.784397,3.14042553 188.839716,3.50070922 186.741844,3.50070922 C184.64539,3.50070922 159.29078,3.15035461 153.346099,3.50070922 C147.401418,3.84964539 139.88227,4.0141844 136.209929,3.66524823 C133.504965,3.40425532 124.289362,2.87659574 118.756028,4.35602837 C107.036879,-1.45106383 92.2978723,-1.45248227 80.5758865,4.35602837 C75.0439716,2.87801418 65.8269504,3.40567376 63.1205674,3.66241135 C59.448227,4.01276596 51.9304965,3.84680851 45.9843972,3.49787234 C40.0397163,3.14751773 14.6851064,3.49787234 12.587234,3.49787234 C10.4893617,3.49787234 4.54468085,3.13758865 2.97021277,3.13758865 C1.39574468,3.13758865 0,4.53758865 0,6.28510638 C0,8.03404255 2.97304965,9.25815603 4.72198582,10.306383 C4.0212766,13.2794326 7.34468085,15.551773 10.3163121,16.4255319 C10.3163121,18.5234043 14.3375887,21.670922 17.3106383,22.0198582 C16.6113475,24.6439716 22.3815603,26.9163121 25.7035461,26.9163121 C25.7035461,30.7617021 31.4737589,31.2879433 34.7957447,31.2879433 C35.4950355,35.3092199 41.0907801,34.9602837 44.9375887,34.435461 C46.6028369,38.8893617 52.106383,37.058156 54.729078,36.3574468 C55.9531915,39.6808511 59.2751773,38.2808511 62.248227,37.5815603 C62.6539007,38.1092199 63.164539,38.4751773 63.7304965,38.7177305 C66.4822695,47.2567376 73.5191489,54.4085106 83.1304965,58.3617021 C83.1375887,58.3886525 83.1219858,58.3347518 83.1304965,58.3617021 C83.7177305,60.2056738 86.3092199,60.7758865 87.6156028,59.351773 C87.9134752,61.4198582 91.0368794,62.3361702 92.3858156,60.3716312 C92.8524823,62.5078014 96.1333333,63.1106383 97.2595745,60.9858156 C97.5276596,62.9730496 101.804255,62.9730496 102.07234,60.987234 L102.07234,60.987234 Z"/>
    <path fill="#FFF" d="M69.4170213,38.2836879 C70.4453901,40.6340426 73.6950355,40.1446809 75.6411348,39.4113475 C78.2368794,43.3602837 82.5546099,46.5744681 87.870922,48.5163121 L83.648227,55.6737589 C75.4397163,52.0978723 69.3631206,46.1120567 66.6851064,39.0638298 C67.6330768,38.9589587 68.5566242,38.695225 69.4170213,38.2836879 L69.4170213,38.2836879 Z"/>
    <path fill="#FFF" d="M83.0368794,57.5319149 C73.9744681,53.7049645 67.3134752,47.0099291 64.5546099,38.9843972 C65.0099291,39.0836879 65.4822695,39.1219858 65.9546099,39.1134752 C68.6567376,46.4141844 74.8964539,52.6184397 83.3361702,56.3021277 C83.1662837,56.6917467 83.0650293,57.1078017 83.0368794,57.5319149 L83.0368794,57.5319149 Z M87.7787234,57.7460993 C87.7775437,57.7504305 87.7761231,57.7546925 87.7744681,57.7588652 C86.4312057,61.0638298 82.4468085,59.151773 84.2496454,56.0312057 L88.5432624,48.7546099 C89.3304965,49.0212766 90.1375887,49.2595745 90.9631892,49.4723404 C90.9801418,49.5843972 87.8255319,57.5957447 87.7787234,57.7460993 L87.7787234,57.7460993 Z M92.3191489,58.7744681 C91.4879433,62.0808511 87.5021277,61.0723404 88.4397163,57.977305 L91.8524823,49.6851064 C92.6638298,49.8695035 93.4907801,50.0255319 94.3319417,50.151773 C94.3404255,50.1829787 92.3191489,58.7744681 92.3191489,58.7744681 L92.3191489,58.7744681 Z M96.9985816,59.2964539 C96.7021277,62.8539007 92.3347518,62.2368794 93.1177305,58.693617 C93.1177305,58.6964539 95.0680851,50.2751773 95.0751773,50.2567376 C95.8950355,50.3602837 96.7262411,50.4397163 97.5702128,50.4879433 C97.6,50.564539 97.0014184,59.2255319 96.9985816,59.2964539 L96.9985816,59.2964539 Z M97.7588652,59.2425532 C97.7588652,59.2439716 98.2241135,50.6312057 98.2312057,50.6099291 C99.048227,50.6439716 100.255319,50.6680851 101.096454,50.5829787 C101.13617,50.6567376 101.678014,59.1531915 101.686525,59.222695 C101.950355,62.7049645 97.5503546,62.7758865 97.7588652,59.2425532 L97.7588652,59.2425532 Z M2.87659574,5.22978723 C3.26808511,4.93049645 4.1106383,4.94609929 5.17588652,4.88652482 C10.5957447,4.88652482 23.1858156,5.23687943 25.6340426,5.23687943 C28.0822695,5.23687943 45.3929078,7.16028369 48.1021277,8.03546099 C49.3262411,8.3858156 49.5886525,9.60851064 48.1021277,9.6964539 C46.6156028,9.78439716 28.1361702,10.048227 25.5134752,10.048227 C23.4794326,10.048227 12.8992908,10.012766 6.78439716,8.8 C3.47659574,8.14326241 1.70070922,6.12624113 2.87659574,5.22978723 L2.87659574,5.22978723 Z M8.82978723,11.7049645 C11.977305,11.7929078 27.7134752,11.8808511 29.5503546,11.7929078 C31.3858156,11.7049645 45.6368794,10.9191489 47.2978723,10.8312057 C50.8907801,10.6425532 52.0539007,12.2425532 48.2595745,13.1049645 C46.3361702,13.5432624 28.5886525,15.5531915 15.1248227,15.2907801 C12.5886525,15.3787234 9.18014184,14.0666667 8.30496454,12.8425532 C7.43120567,11.6184397 8.3929078,11.7049645 8.82978723,11.7049645 L8.82978723,11.7049645 Z M14.9503546,17.4765957 C17.1361702,17.4765957 42.9262411,15.5531915 48.3475177,14.4170213 C53.0624113,13.6992908 51.9985816,16.1219858 50.0950355,16.5148936 C48.4950355,16.8453901 29.3744681,20.5361702 19.670922,20.7106383 C16.435461,20.6241135 12.6765957,17.5631206 14.9503546,17.4765957 L14.9503546,17.4765957 Z M21.506383,22.8964539 C24.5673759,22.5460993 44.9375887,19.3120567 50.4453901,17.8255319 C55.4269504,16.5347518 54.4212766,19.8453901 52.6312057,20.3617021 C51.0368794,20.8212766 33.6765957,25.0468085 29.7248227,25.258156 C28.0492386,25.3462765 26.3691344,25.2329361 24.7205674,24.9205674 C19.1375887,23.8042553 21.506383,22.8964539 21.506383,22.8964539 Z M29.7248227,27.4425532 C31.9106383,27.0056738 49.658156,22.9829787 54.729078,21.0609929 C57.2,20.2 57.9432624,22.6269504 56.3900709,23.3333333 C55.4283688,23.7702128 41.7900709,29.4524823 35.3205674,29.8028369 C32.9602837,29.8028369 28.5943262,28.5319149 29.7248227,27.4425532 Z M58.6624113,23.7702128 C56.6524823,24.7319149 44.412766,29.8907801 39.6907801,30.9404255 C39.035461,31.1148936 38.3432624,31.4042553 38.3985816,31.7687943 C38.8184397,34.5602837 47.5078014,32.1858156 48.1106383,31.9929078 C51.4524823,30.9219858 58.2652482,28.4212766 61.1546099,25.6056738 C60.4553191,25.2567376 58.8382979,24.1205674 58.6624113,23.7702128 Z M62.3347518,26.7432624 C61.0241135,27.6170213 52.4553191,32.0780142 48.5219858,33.3007092 C46.4666667,33.9858156 48.6297872,36.0992908 52.6439716,34.9546099 C57.0808511,34.2666667 63.5588652,29.0170213 64.6085106,28.0553191 C64.0836879,27.7929078 62.9475177,27.093617 62.3347518,26.7432624 Z M66.3574468,29.1049645 C64.7730496,30.1886525 61.7234043,32.2141844 59.787234,33.506383 C58.9886525,34.0397163 57.0822695,35.093617 57.1234043,35.9361702 C57.1432624,36.3390071 57.9092199,37.1035461 61.4085106,35.8326241 C63.5843972,34.941844 66.2184397,33.1304965 68.4553191,29.8921986 C68.0184397,29.7588652 66.8808511,29.3659574 66.3574468,29.1049645 L66.3574468,29.1049645 Z M70.2907801,30.4156028 C69.470922,31.235461 68.4113475,32.3560284 67.3744681,33.3886525 C66.4198582,34.6198582 64.2921986,35.506383 65.0241135,36.929078 C65.8170213,38.4695035 68.3134752,36.2524823 69.212766,35.4042553 C70.4836879,34.2028369 71.7106383,32.6156028 72.1716312,31.0269504 C71.5588652,30.8524823 70.8595745,30.6780142 70.2907801,30.4156028 Z"/>
    <path fill="#FFF" d="M39.8666667,4.53758865 C42.1404255,4.53758865 49.8326241,5.06241135 52.6312057,5.06241135 C60.670922,5.06241135 71.5503546,3.64397163 79.0283688,5.18014184 C83.6765957,6.13475177 84.3432624,7.48085106 84.3432624,8.92765957 C84.3432624,10.8099291 82.7702128,11.9404255 81.6553191,12.7574468 C80.3446809,13.7191489 76.3219858,16.0794326 76.1475177,22.2 C75.0992908,21.7631206 73.612766,21.5007092 74.6624113,19.3148936 C76.493617,15.6510638 80.6113475,11.1886525 73.5687943,9.28794326 C72.458156,8.98865248 71.0893617,8.7929078 69.4170213,8.73617021 C64.2595745,8.56170213 56.7801418,8.52340426 54.2439716,8.08652482 C51.7092199,7.64964539 42.1390071,5.4141844 40.129078,5.15319149 C39.2539007,5.06099291 39.2539007,4.62411348 39.8666667,4.53758865 Z"/>
    <path fill="#FFF" d="M60.0780142,9.85390071 C61.9134752,9.85390071 67.5347518,9.81560284 69.4198582,9.90496454 C74.6340426,10.1531915 78.3574468,12.693617 74.5914894,17.4609929 C73.8539007,18.3929078 71.8822695,20.3460993 71.0950355,21.0453901 C70.3957447,21.5702128 69.0836879,20.6950355 70.2198582,19.3843972 C68.7333333,20.258156 66.8978723,20.0836879 67.7716312,18.0737589 C66.4595745,19.1234043 64.2751773,19.2099291 65.5858156,16.5007092 C64.7120567,17.2 62.2638298,17.1134752 63.8368794,15.0141844 C62.5262411,15.4510638 61.0397163,14.6638298 62.0014184,13.3531915 C60.3404255,13.6170213 59.3787234,12.3914894 61.1276596,11.4312057 C59.4666667,11.8638298 59.0297872,9.94042553 60.0780142,9.85390071 L60.0780142,9.85390071 Z M54.9489362,8.9248227 C54.2411348,8.87943262 51.1702128,8.38014184 51.2439716,10.035461 C51.3177305,11.6921986 54.729078,11.0666667 55.4297872,10.9361702 C56.7205674,10.6964539 57.751773,10.3021277 57.7219858,9.76737589 C57.6921986,9.21843972 56.3475177,9.01276596 54.9489362,8.9248227 Z M55.0737589,11.7631206 C54.3276596,11.8198582 51.6453901,11.6879433 52.0638298,13.2028369 C52.1957447,13.6794326 53.1815603,14.6439716 56.4794326,13.8425532 C57.9248227,13.4907801 58.6737589,12.7163121 58.6737589,12.1007092 C58.6737589,11.5631206 56.7304965,11.6368794 55.0737589,11.7631206 L55.0737589,11.7631206 Z M57.1914894,14.222695 C56.6609929,14.3106383 53.5858156,14.5205674 54.1007092,16.070922 C54.4609929,17.151773 55.0141844,16.8099291 55.951773,16.9219858 C56.5702128,16.9957447 61.151773,15.7049645 60.435461,14.235461 C60.222695,13.7985816 58.8751773,13.9460993 57.1914894,14.222695 L57.1914894,14.222695 Z M58.7120567,16.4198582 C55.6624113,17.658156 55.7021277,18.4964539 55.8411348,18.9489362 C55.9787234,19.4028369 57.377305,19.9631206 60.270922,18.5489362 C61.7361702,17.8326241 61.7546099,17.0184397 61.3943262,16.4425532 C60.9446809,15.7205674 59.8070922,15.9744681 58.7120567,16.4198582 Z M60.8468085,18.5021277 C57.6723404,19.6085106 57.8539007,20.6184397 58.1049645,21.2113475 C58.3815603,21.8666667 59.3843972,22.564539 62.0340426,20.8765957 C63.6340426,19.858156 64.6751773,19.0042553 64.3900709,18.3262411 C64.1319149,17.7106383 62.6184397,17.870922 60.8468085,18.5021277 L60.8468085,18.5021277 Z M62.0893617,21.6822695 C61.2567376,22.187234 60.8780142,22.870922 61.4028369,23.6496454 C62.341844,25.0453901 65.1106383,22.5829787 65.8056738,21.8297872 C66.3219858,21.270922 66.6524823,20.6836879 66.3602837,20.2539007 C66.058156,19.8113475 65.1191489,19.8453901 62.0893617,21.6822695 L62.0893617,21.6822695 Z M67.1021277,21.9191489 C63.4056738,23.8042553 63.7602837,24.7177305 64.2751773,25.1078014 C64.8439716,25.5390071 66.1843972,25.9914894 68.4255319,23.4014184 C69.4085106,22.2666667 68.8680851,21.0241135 67.1021277,21.9191489 L67.1021277,21.9191489 Z M68.9475177,23.8964539 C68.1673759,24.7687943 66.3390071,26.0836879 67.7546099,27.0638298 C68.9475177,27.8893617 69.6468085,26.9829787 70.2340426,26.4212766 C73.6297872,23.1546099 72.506383,21.0865248 68.9475177,23.8964539 L68.9475177,23.8964539 Z"/>
    <path fill="#000" d="M80.1021277,6.77304965 C82.6978723,8.07092199 83.7716312,9.44964539 81.106383,11.3333333 C80.7801418,11.5631206 81.1829787,12.1347518 81.5092199,11.9049645 C84.4425532,9.83404255 83.8113475,7.68510638 80.4156028,6.14751773 C80.058156,5.96879433 79.7460993,6.59432624 80.1021277,6.77304965 Z"/>
    <path fill="#FFF" d="M115.730496,36.3659574 C115.730496,33.577305 112.858156,30.7886525 109.668085,29.8269504 C108.815603,29.6340426 108.950355,28.8765957 109.614184,28.577305 C110.252482,28.2879433 113.975887,25.6921986 113.923404,22.422695 C113.923404,19.2496454 110.198582,14.4411348 99.3475177,14.4411348 C92.964539,14.4411348 87.6453901,15.8836879 84.4539007,18.577305 C85.1971631,19.1546099 86.0496454,20.0198582 86.0496454,20.9815603 L86.0496454,38.5801418 C85.9432624,39.6382979 85.4113475,40.5035461 84.5588652,41.4652482 C87.4241135,43.4992908 92.5546099,45.4397163 99.9205674,45.4158253 C107.792908,45.222695 115.730496,42.9049645 115.730496,36.3659574 Z"/>
    <ellipse cx="99.887" cy="22.999" fill="#000" rx="6.13" ry="4.896"/>
    <ellipse cx="100.677" cy="36.27" fill="#000" rx="6.872" ry="5.169"/>
    <path fill="#FFF" d="M73.2539007,27.8255319 C73.493617,26.6326241 73.8780142,25.4737589 74.3914894,24.3602837 C74.3617021,24.3163121 73.4524823,23.1531915 71.212766,26.3900709 C69.9758865,28.1758865 72.1602837,28.8950355 73.2539007,27.8255319 Z M73.1815603,33.3234043 C72.2595745,34.3943262 71.3900709,35.293617 70.8156028,36.0113475 C69.6156028,37.5120567 72.7375887,39.3617021 74.4198582,37.2283688 C73.8369104,35.9869322 73.4205415,34.6739156 73.1815603,33.3234043 Z M116.211348,5.34893617 C116.70606,5.06869669 117.22668,4.83688787 117.765957,4.65673759 C106.571631,-0.619858156 92.7602837,-0.619858156 81.5673759,4.65673759 C82.1489362,4.85815603 82.670922,5.08794326 83.1205674,5.34893617 C93.4865248,0.834042553 105.93617,0.873758865 116.211348,5.34893617 L116.211348,5.34893617 Z"/>
    <path fill="#FFF" d="M121.364539,19.2312057 C120.107801,14.8595745 116.970213,13.0808511 115.753191,12.2297872 C113.306383,10.5205674 113.439716,7.99432624 115.530496,5.81702128 C105.540426,1.60567376 93.6751773,1.65390071 83.8028369,5.81702128 C85.893617,7.99432624 86.0255319,10.5205674 83.5801418,12.2297872 C82.3631206,13.0808511 79.2241135,14.8595745 77.9687943,19.2312057 C88.6397163,8.23404255 110.693617,8.23262411 121.364539,19.2312057 L121.364539,19.2312057 Z M129.916312,38.2836879 C128.886525,40.6340426 125.636879,40.1446809 123.692199,39.4113475 C121.096454,43.3602837 116.778723,46.5744681 111.460993,48.5163121 L115.685106,55.6737589 C123.893617,52.0978723 129.968794,46.1120567 132.649645,39.0638298 C131.701143,38.9593547 130.777064,38.6956062 129.916312,38.2836879 L129.916312,38.2836879 Z"/>
    <path fill="#FFF" d="M116.296454,57.5319149 C125.358865,53.7049645 132.021277,47.0099291 134.778723,38.9843972 C134.31863,39.081497 133.848814,39.1248134 133.378723,39.1134752 C130.676596,46.4141844 124.436879,52.6184397 115.997163,56.3021277 C116.16705,56.6917467 116.268304,57.1078017 116.296454,57.5319149 L116.296454,57.5319149 Z M111.553191,57.7460993 L111.558865,57.7588652 C112.902128,61.0638298 116.886525,59.151773 115.083688,56.0312057 L110.790071,48.7546099 C110.002837,49.0212766 109.197163,49.2595745 108.370144,49.4723404 C108.353191,49.5843972 111.507801,57.5957447 111.553191,57.7460993 L111.553191,57.7460993 Z M107.012766,58.7744681 C107.84539,62.0808511 111.829787,61.0723404 110.892199,57.977305 C110.892199,57.977305 107.658156,50.1148936 107.479433,49.6851064 C106.669504,49.8695035 105.842553,50.0255319 105.001392,50.151773 C104.992908,50.1829787 107.012766,58.7744681 107.012766,58.7744681 L107.012766,58.7744681 Z M102.334752,59.2964539 C102.631206,62.8539007 106.997163,62.2368794 106.214184,58.693617 C106.215603,58.6964539 104.265248,50.2751773 104.256738,50.2567376 C103.436879,50.3602837 102.604255,50.4397163 101.761702,50.4879433 C101.733333,50.564539 102.331915,59.2255319 102.334752,59.2964539 Z M196.456738,5.22978723 C196.065248,4.93049645 195.222695,4.94609929 194.157447,4.88652482 C188.737589,4.88652482 176.147518,5.23687943 173.699291,5.23687943 C171.251064,5.23687943 153.940426,7.16028369 151.231206,8.03546099 C150.007092,8.3858156 149.744681,9.60851064 151.231206,9.6964539 C152.71773,9.78439716 171.195745,10.048227 173.81844,10.048227 C175.853901,10.048227 186.434043,10.012766 192.547518,8.8 C195.858156,8.14326241 197.634043,6.12624113 196.456738,5.22978723 L196.456738,5.22978723 Z M190.502128,11.7049645 C187.35461,11.7929078 171.619858,11.8808511 169.782979,11.7929078 C167.947518,11.7049645 153.696454,10.9191489 152.035461,10.8312057 C148.442553,10.6425532 147.278014,12.2425532 151.073759,13.1049645 C152.995745,13.5432624 170.744681,15.5531915 184.207092,15.2907801 C186.741844,15.3787234 190.151773,14.0666667 191.02695,12.8425532 C191.902128,11.6184397 190.940426,11.7049645 190.502128,11.7049645 L190.502128,11.7049645 Z M184.382979,17.4765957 C182.197163,17.4765957 156.407092,15.5531915 150.985816,14.4170213 C146.270922,13.6992908 147.334752,16.1219858 149.238298,16.5148936 C150.838298,16.8453901 169.957447,20.5361702 179.662411,20.7106383 C182.896454,20.6241135 186.655319,17.5631206 184.382979,17.4765957 L184.382979,17.4765957 Z M177.82695,22.8964539 C174.767376,22.5460993 154.395745,19.3120567 148.889362,17.8255319 C143.907801,16.5347518 144.912057,19.8453901 146.703546,20.3617021 C148.296454,20.8212766 165.656738,25.0468085 169.608511,25.258156 C171.284095,25.3462765 172.964199,25.2329361 174.612766,24.9205674 C180.195745,23.8042553 177.82695,22.8964539 177.82695,22.8964539 L177.82695,22.8964539 Z M169.608511,27.4425532 C167.422695,27.0056738 149.675177,22.9829787 144.604255,21.0609929 C142.134752,20.2 141.390071,22.6269504 142.943262,23.3333333 C143.904965,23.7702128 157.543262,29.4524823 164.012766,29.8028369 C166.37305,29.8028369 170.739007,28.5319149 169.608511,27.4425532 L169.608511,27.4425532 Z M140.669504,23.7702128 C142.679433,24.7319149 154.920567,29.8907801 159.641135,30.9404255 C160.296454,31.1148936 160.988652,31.4042553 160.933333,31.7687943 C160.513475,34.5602837 151.824113,32.1858156 151.221277,31.9929078 C147.880851,30.9219858 141.066667,28.4212766 138.177305,25.6056738 C138.878014,25.2567376 140.495035,24.1205674 140.669504,23.7702128 L140.669504,23.7702128 Z M136.997163,26.7432624 C138.307801,27.6170213 146.876596,32.0780142 150.809929,33.3007092 C152.865248,33.9858156 150.702128,36.0992908 146.687943,34.9546099 C142.251064,34.2666667 135.77305,29.0170213 134.723404,28.0553191 C135.249645,27.7929078 136.385816,27.093617 136.997163,26.7432624 L136.997163,26.7432624 Z M132.977305,29.1049645 C134.560284,30.1886525 137.611348,32.2141844 139.547518,33.506383 C140.346099,34.0397163 142.252482,35.093617 142.211348,35.9361702 C142.191489,36.3390071 141.425532,37.1035461 137.926241,35.8326241 C135.750355,34.941844 133.116312,33.1304965 130.879433,29.8921986 C131.314894,29.7588652 132.451064,29.3659574 132.977305,29.1049645 L132.977305,29.1049645 Z M129.041135,30.4156028 C129.860993,31.235461 130.921986,32.3560284 131.958865,33.3886525 C132.914894,34.6198582 135.042553,35.506383 134.30922,36.929078 C133.516312,38.4695035 131.019858,36.2524823 130.121986,35.4042553 C128.851064,34.2028369 127.622695,32.6156028 127.161702,31.0269504 C127.774468,30.8524823 128.473759,30.6780142 129.041135,30.4156028 Z"/>
    <path fill="#FFF" d="M159.466667,4.53758865 C157.192908,4.53758865 149.500709,5.06241135 146.702128,5.06241135 C138.660993,5.06241135 127.78156,3.64397163 120.304965,5.18014184 C115.656738,6.13475177 114.990071,7.48085106 114.990071,8.92765957 C114.990071,10.8099291 116.561702,11.9404255 117.676596,12.7574468 C118.988652,13.7191489 123.011348,16.0794326 123.185816,22.2 C124.234043,21.7631206 125.720567,21.5007092 124.67234,19.3148936 C122.839716,15.6510638 118.723404,11.1886525 125.765957,9.28794326 C126.876596,8.98865248 128.24539,8.7929078 129.919149,8.73617021 C135.076596,8.56170213 142.556028,8.52340426 145.09078,8.08652482 C147.625532,7.64964539 157.195745,5.4141844 159.205674,5.15319149 C160.079433,5.06099291 160.079433,4.62411348 159.466667,4.53758865 Z"/>
    <path fill="#FFF" d="M139.253901,9.85390071 C137.41844,9.85390071 131.797163,9.81560284 129.912057,9.90496454 C124.697872,10.1531915 120.974468,12.693617 124.740426,17.4609929 C125.478014,18.3929078 127.449645,20.3460993 128.236879,21.0453901 C128.93617,21.5702128 130.248227,20.6950355 129.110638,19.3843972 C130.598582,20.258156 132.434043,20.0836879 131.560284,18.0737589 C132.870922,19.1234043 135.056738,19.2099291 133.746099,16.5007092 C134.619858,17.2 137.068085,17.1134752 135.493617,15.0141844 C136.805674,15.4510638 138.292199,14.6638298 137.329078,13.3531915 C138.991489,13.6170213 139.953191,12.3914894 138.202837,11.4312057 C139.866667,11.8638298 140.303546,9.94042553 139.253901,9.85390071 Z M144.384397,8.9248227 C145.092199,8.87943262 148.163121,8.38014184 148.089362,10.035461 C148.015603,11.6921986 144.604255,11.0666667 143.903546,10.9361702 C142.612766,10.6964539 141.58156,10.3021277 141.611348,9.76737589 C141.641135,9.21843972 142.985816,9.01276596 144.384397,8.9248227 Z M144.260993,11.7631206 C145.005674,11.8198582 147.689362,11.6879433 147.269504,13.2028369 C147.137589,13.6794326 146.153191,14.6439716 142.855319,13.8425532 C141.408511,13.4907801 140.660993,12.7163121 140.660993,12.1007092 C140.660993,11.5631206 142.602837,11.6368794 144.260993,11.7631206 L144.260993,11.7631206 Z M142.140426,14.222695 C142.670922,14.3106383 145.746099,14.5205674 145.231206,16.070922 C144.870922,17.151773 144.31773,16.8099291 143.380142,16.9219858 C142.761702,16.9957447 138.180142,15.7049645 138.896454,14.235461 C139.110638,13.7985816 140.458156,13.9460993 142.140426,14.222695 L142.140426,14.222695 Z M140.621277,16.4198582 C143.669504,17.658156 143.629787,18.4964539 143.492199,18.9489362 C143.353191,19.4028369 141.956028,19.9631206 139.062411,18.5489362 C137.597163,17.8326241 137.577305,17.0184397 137.937589,16.4425532 C138.388652,15.7205674 139.526241,15.9744681 140.621277,16.4198582 L140.621277,16.4198582 Z M138.485106,18.5021277 C141.659574,19.6085106 141.478014,20.6184397 141.22695,21.2113475 C140.950355,21.8666667 139.947518,22.564539 137.296454,20.8765957 C135.696454,19.858156 134.655319,19.0042553 134.941844,18.3262411 C135.201418,17.7106383 136.713475,17.870922 138.485106,18.5021277 L138.485106,18.5021277 Z M137.242553,21.6822695 C138.075177,22.187234 138.453901,22.870922 137.929078,23.6496454 C136.991489,25.0453901 134.221277,22.5829787 133.526241,21.8297872 C133.011348,21.270922 132.679433,20.6836879 132.971631,20.2539007 C133.273759,19.8113475 134.214184,19.8453901 137.242553,21.6822695 L137.242553,21.6822695 Z M132.231206,21.9191489 C135.92766,23.8042553 135.57305,24.7177305 135.058156,25.1078014 C134.489362,25.5390071 133.148936,25.9914894 130.907801,23.4014184 C129.924823,22.2666667 130.465248,21.0241135 132.231206,21.9191489 L132.231206,21.9191489 Z M130.384397,23.8964539 C131.164539,24.7687943 132.992908,26.0836879 131.578723,27.0638298 C130.384397,27.8893617 129.685106,26.9829787 129.099291,26.4212766 C125.703546,23.1546099 126.82695,21.0865248 130.384397,23.8964539 Z"/>
    <path fill="#000" d="M119.231206,6.77304965 C116.635461,8.07092199 115.561702,9.44964539 118.228369,11.3333333 C118.553191,11.5631206 118.150355,12.1347518 117.824113,11.9049645 C114.892199,9.83404255 115.523404,7.68510638 118.919149,6.14751773 C119.275177,5.96879433 119.587234,6.59432624 119.231206,6.77304965 L119.231206,6.77304965 Z"/>
    <path fill="#FFF" d="M126.079433,27.8255319 C125.838298,26.6326241 125.455319,25.4737589 124.940426,24.3602837 C124.970213,24.3163121 125.879433,23.1531915 128.119149,26.3900709 C129.357447,28.1758865 127.17305,28.8950355 126.079433,27.8255319 Z M126.150355,33.3234043 C127.07234,34.3943262 127.943262,35.293617 128.51773,36.0113475 C129.71773,37.5120567 126.595745,39.3617021 124.913475,37.2283688 C125.496454,35.9787234 125.916312,34.670922 126.150355,33.3234043 Z"/>
  </g>
</svg>
