<svg xmlns="http://www.w3.org/2000/svg" width="200" height="200" viewBox="0 0 200 200">
  <g fill="none" transform="translate(0 41)">
    <path fill="#000" d="M17.8961749,117.300546 C8.43060109,117.300546 0.732240437,109.556284 0.732240437,99.9551913 C0.732240437,90.4010929 8.43060109,82.6120219 17.8961749,82.6120219 C24.1464481,82.6120219 29.6251366,85.9628415 32.6601093,91.0349727 L26.5912568,94.6120219 C24.8710383,91.7584699 21.5191257,89.6743169 17.8961749,89.6743169 C12.4612022,89.6743169 7.70601093,94.4754098 7.70601093,99.9540984 C7.70601093,105.480874 12.4612022,110.236066 17.8961749,110.236066 C21.5191257,110.236066 24.915847,108.197814 26.5912568,105.208743 L32.704918,108.830601 C29.6710383,113.904918 24.1901639,117.300546 17.8961749,117.300546 L17.8961749,117.300546 Z M42.8491803,116.485246 L35.5125683,116.485246 L35.5125683,83.5169399 L42.8491803,83.5169399 L42.8491803,116.485246 Z M62.7300546,116.500546 L55.3934426,116.500546 L55.3934426,90.4907104 L44.9770492,90.4907104 L44.9770492,83.5169399 L73.1453552,83.5169399 L73.1453552,90.4907104 L62.7289617,90.4907104 L62.7289617,116.500546 L62.7300546,116.500546 Z M82.295082,98.642623 L90.220765,98.642623 C92.9836066,98.642623 95.3836066,97.5114754 95.3836066,94.2939891 C95.3836066,91.0797814 93.1639344,89.810929 90.220765,89.810929 L82.295082,89.810929 L82.295082,98.642623 Z M82.295082,104.666667 L82.295082,116.485246 L75.1857923,116.485246 L75.1857923,83.5169399 L91.2622951,83.5169399 C98.326776,83.5169399 102.537705,87.4568306 102.537705,94.2043716 C102.537705,99.5945355 99.820765,102.990164 95.3377049,104.168306 L103.986885,116.485246 L95.6546448,116.485246 L88.0010929,104.666667 L82.295082,104.666667 Z M122.148634,117.481967 C112.547541,117.481967 104.75847,109.603279 104.75847,100.091803 C104.75847,90.5355191 112.547541,82.7016393 122.148634,82.7016393 C131.794536,82.7016393 139.765027,90.4907104 139.765027,100.091803 C139.765027,109.603279 131.794536,117.481967 122.148634,117.481967 Z M122.148634,89.9934426 C116.53224,89.9934426 112.050273,94.568306 112.050273,100.183607 C112.050273,105.708197 116.625137,110.190164 122.148634,110.190164 C127.720219,110.190164 132.246995,105.707104 132.246995,100.183607 C132.246995,94.5672131 127.808743,89.9934426 122.148634,89.9934426 Z M152.627322,79.8032787 C152.627322,81.389071 151.178142,82.6568306 149.59235,82.6568306 C147.961749,82.6568306 146.785779,81.389071 146.785779,79.8032787 C146.783461,79.0338733 147.088074,78.2953084 147.632128,77.7512541 C148.176183,77.2071998 148.914748,76.9025865 149.684153,76.9049047 C151.26776,76.9038251 152.627322,78.2185792 152.627322,79.8032787 Z M163.179235,79.8032787 C163.179235,81.389071 161.777049,82.6568306 160.146448,82.6568306 C158.560656,82.6568306 157.384699,81.389071 157.384699,79.8032787 C157.384699,78.2196721 158.652459,76.9049174 160.236066,76.9049174 C161.820765,76.9038251 163.179235,78.2185792 163.179235,79.8032787 L163.179235,79.8032787 Z M149.639344,90.0830601 L149.639344,96.2885246 L165.354098,96.2885246 L165.354098,102.312568 L149.639344,102.312568 L149.639344,109.64918 L167.437158,109.64918 L167.437158,116.486339 L142.57377,116.486339 L142.57377,83.5180328 L167.437158,83.5180328 L167.437158,90.084153 L149.639344,90.084153 L149.639344,90.0830601 L149.639344,90.0830601 Z M177.217486,94.7934426 L177.217486,116.485246 L170.062295,116.485246 L170.062295,83.5169399 L178.711475,83.5169399 L191.801093,105.797814 L191.801093,83.5169399 L199.001093,83.5169399 L199.001093,116.485246 L190.170492,116.485246 L177.217486,94.7934426 L177.217486,94.7934426 Z"/>
    <polygon fill="#CC2132" points="132.908 66.949 132.908 .833 66.793 .833 66.793 66.949 132.908 66.949"/>
    <polygon fill="#FFF" points="69 64.748 99.851 38.297 130.708 64.748 99.851 24.104"/>
    <polygon fill="#FFF" points="99.851 3.039 69 43.681 99.851 17.233 130.713 43.681"/>
  </g>
</svg>
