<svg xmlns="http://www.w3.org/2000/svg" width="200" height="200" viewBox="0 0 200 200">
  <g fill="none" transform="translate(3)">
    <path fill="#000" d="M178.114831,4.93743372 C169.768217,3.08316922 131.535222,0.222996516 97.8336616,0.222996516 C63.6521739,0.222996516 25.0568096,3.08316922 16.7101954,4.93743372 C12.6502045,5.84032722 0.294500833,8.58536585 0.294500833,22.9262233 C0.294500833,41.377973 0.775640055,134.085139 10.272383,147.081957 C26.6674746,169.517346 93.0925617,198.395395 95.9115286,199.614604 C96.8529479,200.02196 97.9195476,200.02896 98.8662324,199.633995 C101.796697,198.412362 170.785033,169.474928 184.719891,146.832298 C193.799727,132.07817 194.531738,24.0072716 194.531738,22.9274352 C194.531738,8.58536585 182.17361,5.84032722 178.114831,4.93743372 L178.114831,4.93743372 Z"/>
    <path fill="#FFF" d="M178.276019,142.866838 C166.651113,161.758521 107.57158,187.678231 97.4397819,192.019391 C87.515225,187.616422 30.3081351,161.673686 16.3829723,142.615967 C10.175428,134.122709 7.86305105,64.6944402 7.86305105,22.9262233 C7.86305105,16.8980458 10.7062566,14.0245417 18.3535828,12.3241933 C25.5209817,10.7317073 63.1201333,7.7903348 97.8348735,7.7903348 C132.055143,7.7903348 169.307681,10.7317073 176.47508,12.3241933 C184.121194,14.0245417 186.963187,16.8968338 186.963187,22.9262233 C186.963187,44.4647781 184.69444,132.432056 178.276019,142.866838 L178.276019,142.866838 Z"/>
    <path fill="#000" d="M100.481745,52.8804727 C101.532495,49.3076807 109.342221,44.1593698 110.504469,45.2561733 C110.509317,43.9351613 116.186032,38.737161 118.240267,39.6642933 C117.771247,38.0681715 125.559158,33.1973943 127.431601,34.5753674 C127.831541,32.5914255 139.10862,31.0983184 141.343433,32.9998485 C142.630511,31.5382518 152.636267,33.962127 152.837449,36.5144675 C154.719588,34.8625966 164.924102,45.6488411 164.932588,51.0940767 C164.937434,53.1931526 155.341312,44.6344493 149.293743,46.4911377 C139.287987,49.5621875 126.550523,60.2151189 115.491592,76.212695 C112.449629,80.6156643 104.559915,82.2045145 102.88017,75.0577185 C102.88017,75.0589305 99.4309953,56.4544766 100.481745,52.8804727 Z"/>
    <path fill="#000" d="M99.6200576,152.310256 C98.0542342,149.663384 98.5499167,146.471141 99.8782003,145.20709 C101.731253,143.443721 107.069838,144.887138 107.5025,143.270414 C108.538706,139.418876 105.82639,138.069989 106.292986,132.762915 C106.456597,130.907438 109.971216,117.450083 110.865626,116.259961 C111.61824,115.2589 116.108468,113.689441 117.297379,113.230117 C118.06696,112.338131 118.586881,111.320103 118.643842,109.532495 C112.757461,107.744887 111.18073,113.210726 110.339646,112.999849 C109.498561,112.788971 110.772307,107.017725 111.509165,106.388729 C112.242388,105.757309 119.131041,104.227844 119.905469,103.015907 C120.719891,101.737313 123.898803,89.456749 119.905469,89.2470838 C120.22542,89.3185881 119.699439,88.4326617 120.009696,88.505378 C128.264202,90.4384184 133.842751,50.9341009 154.169368,51.0923874 C174.352977,51.2504166 173.299803,80.4823512 172.080594,81.573095 C169.817906,83.5982427 166.472959,82.8492653 166.36146,84.7265566 C165.31071,102.594152 149.334949,121.724587 144.499318,120.041206 C141.608847,119.035298 144.079988,109.953037 145.445842,109.74216 C144.184215,109.216179 145.445842,99.8624451 146.918346,99.6515679 C145.760945,98.8104833 146.811695,90.1923951 148.284199,90.0869565 C147.57158,89.4337222 147.647932,83.5315861 146.137858,80.5974852 C144.97561,78.3384336 139.969096,77.125284 139.666111,82.6250568 C142.712922,81.1537646 142.923799,91.0334798 141.66096,92.7156491 C140.399333,94.3978185 132.306014,98.1814877 129.785184,100.281775 C129.996061,104.488411 126.000303,120.673837 123.057719,125.299803 C120.115134,129.922133 117.171338,132.656264 115.49038,136.860476 C113.806999,141.064687 114.886835,148.232086 111.075292,151.470383 C109.389486,152.902894 100.34722,153.541585 99.6200576,152.310256 L99.6200576,152.310256 Z"/>
    <path fill="#000" d="M168.990153,86.0948341 C169.934252,84.4829571 173.813665,83.845478 175.213453,84.6235419 C176.858052,85.5385548 178.072413,98.3923648 176.390244,98.8129071 C177.862748,99.5618846 176,109.311922 174.1421,109.324042 C175.614604,109.955461 172.565369,119.518861 170.778973,119.203757 C171.829723,120.676261 166.889865,128.454477 165.524012,128.032722 C165.102257,136.021815 141.014998,139.834571 141.56037,133.076807 C141.82336,129.823966 145.425239,134.606272 161.634904,109.32283 C168.784124,98.1730041 167.575822,88.505378 168.990153,86.0948341 L168.990153,86.0948341 Z M94.4911377,52.9434934 C92.8089683,49.2640509 85.9057719,44.3266172 84.7435237,45.4234207 C84.737464,44.1024087 79.0619603,38.9044084 77.0065142,39.8303287 C77.4743221,38.2342069 69.688835,33.3634298 67.8163915,34.7426148 C67.4152401,32.757461 56.1381609,31.2655658 53.903348,33.165884 C52.6162703,31.7042872 42.6117255,34.1281624 42.4105439,36.680503 C40.5271928,35.028632 30.3238903,45.8148765 30.3129818,51.2601121 C30.3093471,53.359188 39.9066808,44.8004848 45.9518255,46.6571732 C55.9575822,49.728223 68.6962581,60.3811544 79.7551886,76.3799424 C82.7971519,80.7816997 90.5171944,82.3705499 92.2005757,75.223754 C92.2005757,75.2261779 96.1733071,56.621724 94.4911377,52.9434934 Z"/>
    <path fill="#000" d="M95.3116195,152.478715 C96.8774428,149.624602 96.5938494,146.535373 95.2643539,145.271323 C93.4100894,143.507953 88.1781548,145.055598 87.7442812,143.438873 C86.7080745,139.587335 89.4191789,138.240873 88.9550068,132.931374 C88.7926072,131.075898 85.2755643,117.618543 84.3811544,116.42842 C83.6285411,115.424936 79.1383124,113.8579 77.9494016,113.398576 C77.1810332,112.509014 76.661112,111.490986 76.6029389,109.700954 C82.4893198,107.913346 84.0660506,113.379185 84.9071353,113.168308 C85.74822,112.957431 84.4744736,107.186184 83.7388275,106.557188 C83.0031813,105.925769 76.2211786,104.292077 75.3425239,103.184366 C74.3996364,101.996667 71.3479776,89.6252083 75.3425239,89.4155431 C75.0213604,89.4870474 75.5473413,88.601121 75.2382972,88.6738373 C66.9837903,90.6068777 61.4040297,51.1025602 41.0774125,51.2608468 C20.892592,51.4188759 21.9481897,80.6508105 23.1673989,81.7415543 C25.4300864,83.766702 28.7750341,83.0177246 28.8853204,84.8950159 C29.9360703,102.762612 45.9118315,121.893047 50.7474625,120.209665 C53.6379336,119.203757 51.1680048,110.119073 49.8021512,109.91062 C51.0637782,109.384639 49.8021512,100.030904 48.330859,99.8200273 C49.4870474,98.9789426 48.4362975,90.3608544 46.9650053,90.2554158 C47.6776246,89.6021815 47.6012725,83.7000454 49.1113468,80.7647326 C50.2735949,78.5068929 55.281321,77.2937434 55.5843054,82.7923042 C52.5350704,81.3198 52.3266172,91.2007272 53.5882442,92.8828965 C54.8486593,94.5650659 62.9419785,98.348735 65.4652325,100.449023 C65.2543554,104.655658 69.2489017,120.841085 72.1914861,125.464627 C75.1340706,130.08938 78.0766551,132.823512 79.7588244,137.027723 C81.455537,141.269505 82.2408726,149.658537 84.2781397,151.533404 C86.1808817,153.283442 94.6244508,153.733071 95.3116195,152.478715 L95.3116195,152.478715 Z M97.6227844,160.592637 C91.3170732,160.699288 85.7833662,156.201788 86.9031965,155.001969 C89.0665051,152.679897 92.8416907,156.074534 97.359794,154.076049 C101.776095,155.967884 105.451901,152.688381 108.342372,154.83351 C109.983336,156.050295 103.93092,160.489623 97.6227844,160.592637 Z"/>
    <path fill="#000" d="M26.2566278,86.2620815 C25.3113165,84.6514165 21.4331162,84.4332677 20.0345402,85.2113316 C18.3911529,86.1263445 17.1755795,98.5596122 18.8565369,98.9801545 C17.3852447,99.72792 19.2492047,109.47917 21.105893,109.490077 C19.6346008,110.120285 22.6826238,119.684896 24.4690198,119.369792 C23.41827,120.842297 28.3581276,128.620512 29.7239812,128.198758 C30.1445236,136.18785 54.232995,140.000606 53.6876231,133.242842 C53.4258446,129.990002 49.8239661,134.772307 33.611877,109.488865 C26.4638691,98.3414634 27.6721709,88.6750492 26.2566278,86.2620815 L26.2566278,86.2620815 Z"/>
  </g>
</svg>
