<svg xmlns="http://www.w3.org/2000/svg" width="200" height="200" viewBox="0 0 200 200">
  <path fill="#DF0B1E" fill-rule="evenodd" d="M176.617457 91.1514231L116.078558 91.1514231C113.820873 91.1514231 111.973814 89.3085389 111.973814 87.055408L111.973814 70.7244782 111.972296 70.6891841 111.972296 68.8671727C111.883112 65.3165085 113.866793 63.6755218 117.919924 63.940797L170.444402 63.940797C171.250854 63.940797 171.908918 63.4918406 171.908918 62.9419355L171.908918 59.7499051C171.908918 59.198482 171.250854 58.7495256 170.444402 58.7495256L112.679317 58.7495256C109.919165 63.9973435 107.189753 69.2808349 104.428083 74.5939279 93.1347249 91.6895636 78.9848197 104.641366 61.059203 103.987856 58.0808349 103.879696 55.4478178 103.547628 53.1339658 103.034535 50.0994307 103.770019 46.944592 104.10778 43.6626186 103.987856 6.15673624 102.619355 23.2523719 66.0535104 44.9878558 75.9191651 33.0037951 78.1457306 29.5969639 94.5282732 41.6880455 99.9259962 43.3051233 100.497913 44.9521822 100.775332 46.6318786 100.744213 29.3893738 91.716129 44.2717268 67.6975332 62.3844402 75.9191651 51.7256167 77.8998102 47.8519924 91.0800759 55.6364326 97.7673624 64.1396584 92.4174573 73.4151803 79.6948767 83.5950664 58.3267552L23.5396584 58.3267552C21.3074004 58.3267552 19.4808349 56.5821632 19.4808349 54.4504744L19.4808349 44.0330171 19.4808349 44.0330171 19.4808349 23.2819734C19.4808349 20.3673624 21.9757116 17.9836812 25.0265655 17.9836812L85.5639469 17.9836812C87.8231499 17.9836812 89.6702087 19.7491461 89.6702087 21.9062619L89.6702087 39.3176471C89.7593928 42.716888 87.7772296 44.2880455 83.7240987 44.0330171L31.1981025 44.0330171C30.3931689 44.0330171 29.7335863 44.4645161 29.7335863 44.9908918L29.7335863 48.0474383C29.7335863 48.573814 30.3931689 49.0053131 31.1981025 49.0053131L87.8603416 49.0053131C99.143074 23.9487666 112.197723 7.28766603 127.990133 2.07248577 135.494118-.40455408 141.926755-.15256167 146.326376 1.78481973 164.555977-3.54459203 175.999241 8.5256167 165.38482 19.6603416L152.011765 19.1783681C165.072106 10.6011385 158.692979.374952562 149.543454 3.80683112 153.833776 7.60189753 153.898672 13.945351 147.348008 20.2622391L137.464516 19.7802657C138.816319 18.4963947 140.118027 16.4952562 140.804554 15.0394687 142.132827 12.2227704 139.320304 13.8504744 139.590133 13.1552182 131.459203 24.8459203 124.481214 36.8208729 117.870968 49.0125237L178.104364 49.0125237C180.335484 49.0125237 182.16167 50.8330171 182.16167 53.0611006L182.16167 85.6185958C182.16167 88.6622391 179.666793 91.1514231 176.617457 91.1514231zM60.5593928 100.360152C72.2500949 103.170778 85.5388994 90.6944972 100.886528 58.5476281L95.9529412 58.5476281C93.0664137 63.8979127 90.1343454 69.258444 87.029981 74.5939279 79.5495256 85.9184061 70.8151803 95.4235294 60.5593928 100.360152zM100.588615 49.9301708L104.841746 49.9301708 104.910057 49.7776091C114.827324 27.5305503 126.082353 11.6907021 139.424288 4.60455408 137.160531 1.33434535 131.393928 1.97609108 122.93055 13.1552182 114.29222 24.8842505 107.388615 37.314611 100.588615 49.9301708zM30.8409867 29.0409867L79.5791271 29.0409867C80.1886148 29.0409867 80.6865275 29.4724858 80.6865275 29.9988615L80.6865275 33.0557875C80.6865275 33.5817837 80.1886148 34.0132827 79.5791271 34.0132827L30.8409867 34.0132827C30.2314991 34.0132827 29.7335863 33.5817837 29.7335863 33.0557875L29.7335863 29.9988615C29.7335863 29.4724858 30.2314991 29.0409867 30.8409867 29.0409867zM170.801518 79.601518L122.063378 79.601518C121.45389 79.601518 120.955977 79.1506641 120.955977 78.602277L120.955977 75.4091082C120.955977 74.859203 121.45389 74.4083491 122.063378 74.4083491L170.801518 74.4083491C171.411006 74.4083491 171.908918 74.859203 171.908918 75.4091082L171.908918 78.602277C171.908918 79.1506641 171.411006 79.601518 170.801518 79.601518zM144.252372 123.710436L144.252372 116.999241 148.110057 116.999241 149.245541 121.087666 150.469829 116.999241 154.274004 116.999241 154.274004 123.710436 151.863378 123.710436 151.863378 118.468311 150.265275 123.710436 148.236053 123.710436 146.658444 118.468311 146.658444 123.710436 144.252372 123.710436zM158.144592 120.357116C158.144592 120.941176 158.291461 121.387097 158.587856 121.695636 158.881214 122.003795 159.308159 122.158254 159.864137 122.158254 160.420114 122.158254 160.845541 122.003795 161.140417 121.695636 161.437192 121.387097 161.583681 120.941176 161.583681 120.357116 161.583681 119.770019 161.437192 119.320683 161.140417 119.009488 160.845541 118.698292 160.420114 118.540797 159.864137 118.540797 159.308159 118.540797 158.881214 118.698292 158.587856 119.009488 158.291461 119.320683 158.144592 119.770019 158.144592 120.357116zM155.348767 120.357116C155.348767 119.188615 155.728273 118.306641 156.487287 117.713852 157.247818 117.119165 158.372676 116.821252 159.864137 116.821252 161.355598 116.821252 162.480835 117.119165 163.241366 117.713852 164.00038 118.306641 164.379886 119.188615 164.379886 120.357116 164.379886 121.522201 164.00038 122.401139 163.241366 122.995825 162.480835 123.590133 161.355598 123.888046 159.864137 123.888046 158.372676 123.888046 157.247818 123.590133 156.487287 122.995825 155.728273 122.401139 155.348767 121.522201 155.348767 120.357116zM167.169639 123.710436L167.169639 118.700949 164.743074 118.700949 164.743074 116.999241 172.207211 116.999241 172.207211 118.700949 169.770019 118.700949 169.770019 123.710436 167.169639 123.710436zM175.367742 120.357116C175.367742 120.941176 175.514231 121.387097 175.811006 121.695636 176.104364 122.003795 176.531309 122.158254 177.087287 122.158254 177.643264 122.158254 178.068691 122.003795 178.363567 121.695636 178.658824 121.387097 178.806831 120.941176 178.806831 120.357116 178.806831 119.770019 178.658824 119.320683 178.363567 119.009488 178.068691 118.698292 177.643264 118.540797 177.087287 118.540797 176.531309 118.540797 176.104364 118.698292 175.811006 119.009488 175.514231 119.320683 175.367742 119.770019 175.367742 120.357116zM172.571917 120.357116C172.571917 119.188615 172.951423 118.306641 173.710436 117.713852 174.470588 117.119165 175.594307 116.821252 177.087287 116.821252 178.578748 116.821252 179.703985 117.119165 180.464137 117.713852 181.22315 118.306641 181.602657 119.188615 181.602657 120.357116 181.602657 121.522201 181.22315 122.401139 180.464137 122.995825 179.703985 123.590133 178.578748 123.888046 177.087287 123.888046 175.594307 123.888046 174.470588 123.590133 173.710436 122.995825 172.951423 122.401139 172.571917 121.522201 172.571917 120.357116zM187.79203 116.999241C188.376091 116.999241 188.843264 117.025806 189.194307 117.082353 189.544213 117.13852 189.818596 117.224668 190.01556 117.344592 190.266414 117.491461 190.458824 117.691461 190.590892 117.940417 190.72296 118.189753 190.786717 118.478558 190.786717 118.804934 190.786717 119.202277 190.690323 119.550664 190.492979 119.850095 190.296015 120.152562 190.024668 120.36888 189.679317 120.502087 189.975712 120.626945 190.18482 120.779507 190.303226 120.963188 190.423529 121.145731 190.492979 121.468691 190.51537 121.932827 190.518406 121.983302 190.521063 122.054269 190.524099 122.144972 190.565844 123.022391 190.682732 123.510057 190.878558 123.606452L190.878558 123.710436 187.987856 123.710436C187.90019 123.568121 187.851233 123.293738 187.842505 122.88463 187.836433 122.64592 187.824668 122.462239 187.809867 122.331689 187.781784 122.085389 187.70019 121.913472 187.562429 121.814042 187.425806 121.713472 187.194687 121.664516 186.871347 121.664516L185.319165 121.664516 185.319165 123.710436 182.681973 123.710436 182.681973 116.999241 187.79203 116.999241zM185.319165 119.899051L186.834535 119.899051C187.230361 119.899051 187.510436 119.851613 187.672106 119.757875 187.834915 119.664516 187.914991 119.505882 187.914991 119.286528 187.914991 119.068691 187.839469 118.916129 187.685389 118.829981 187.532448 118.744213 187.227324 118.700949 186.770778 118.700949L185.319165 118.700949 185.319165 119.899051zM191.477419 121.66907L194.626186 121.664516C194.651233 121.845161 194.763947 121.98482 194.966983 122.083871 195.170019 122.181784 195.44592 122.23074 195.797343 122.23074 196.148767 122.23074 196.411006 122.190892 196.585958 122.110816 196.759393 122.032258 196.845541 121.910436 196.845541 121.750285 196.845541 121.608349 196.769639 121.494118 196.618596 121.406452 196.467173 121.322201 196.234535 121.258444 195.920304 121.219734L193.97685 120.979507C193.173435 120.881594 192.566983 120.666793 192.159393 120.330171 191.753321 119.995446 191.549905 119.544592 191.549905 118.982922 191.549905 118.23112 191.858444 117.68425 192.472106 117.340038 193.088805 116.993169 194.070209 116.821252 195.416319 116.821252 196.814042 116.821252 197.855028 116.993169 198.533966 117.340038 199.215939 117.68425 199.583302 118.220873 199.636812 118.950285L196.61556 118.950285C196.581404 118.73814 196.45389 118.579507 196.233017 118.471347 196.012144 118.364706 195.702467 118.311195 195.303605 118.311195 195.011385 118.311195 194.78482 118.351044 194.617078 118.43112 194.451233 118.509677 194.366603 118.619355 194.366603 118.755977 194.366603 118.881973 194.431879 118.979886 194.560911 119.046679 194.689943 119.113093 194.956736 119.175332 195.36129 119.231879L197.73055 119.566983C198.473245 119.673624 199.026186 119.888425 199.39203 120.214801 199.758254 120.539279 199.940797 120.977989 199.940797 121.528273 199.940797 122.351044 199.576091 122.95408 198.842125 123.339658 198.110057 123.723719 196.956357 123.914991 195.379127 123.914991 194.126376 123.914991 193.164326 123.722201 192.496015 123.333586 191.825806 122.946869 191.486148 122.39241 191.477419 121.66907zM38.4087287 116.145351L36.1806452 119.294118 25.0709677 119.294118C21.1070209 119.294118 17.8398482 119.670588 16.3631879 121.354839L33.9582543 121.354839 32.2136622 124.334345 13.7836812 124.334345C12.6542694 126.688425 18.7499051 125.862619 19.9965844 125.862619L30.3370019 125.862619 28.2079696 129.998861 17.5001898 129.998861C14.597723 129.998861 12.0880455 129.932068 9.97836812 129.804554 6.64895636 129.603036 3.17988615 129.066414 1.75521822 128.173814-.268311195 126.905123-.500948767 125.173435 1.03757116 122.997343 2.74686907 120.579507 6.90967742 118.377989 11.9840607 117.042125 13.7127135 116.588615 15.7643264 116.593169 17.4899431 116.41518 19.2288425 116.235674 21.4333966 116.145351 24.1343454 116.145351L38.4087287 116.145351zM101.203795 121.808349L99.2485769 124.607211 81.8163188 124.607211 77.2800759 129.998861 64.4626186 129.998861 70.2 122.76167C71.9001898 120.686148 73.5278937 119.317647 75.0652751 118.664137 77.0474383 117.755218 79.4030361 117.1074 82.1203036 116.72334 84.8462998 116.339658 88.3939279 116.145351 92.7612903 116.145351L105.694118 116.145351 103.108539 120.042505 91.1867173 120.042505C86.8121442 120.211765 84.4075901 120.813662 84.3795066 121.938899L101.203795 121.808349zM67.4455408 121.808349L65.4899431 124.607211 48.0580645 124.607211 43.5218216 129.998861 30.7043643 129.998861 36.4413662 122.76167C38.1419355 120.686148 39.7681214 119.317647 41.3070209 118.664137 43.2888046 117.755218 45.6444023 117.1074 48.3620493 116.72334 51.0880455 116.339658 54.6356736 116.145351 59.0030361 116.145351L71.9358634 116.145351 69.3502846 120.042505 57.426945 120.042505C53.0538899 120.211765 50.6493359 120.813662 50.6212524 121.938899L67.4455408 121.808349zM97.4648956 130.095256L110.442505 130.095256 114.485009 124.878558 119.050854 124.878558 114.941556 130.421252 128.440607 130.421252 138.810626 116.922201 117.420114 116.53093C112.259962 116.437192 107.320304 118.06945 104.573435 121.421252L97.4648956 130.095256zM117.17723 122.110816L121.37685 122.078178C121.464516 122.07666 121.540038 122.034915 121.588994 121.962429L122.478178 120.613283C122.527135 120.539279 122.534725 120.45351 122.500569 120.371917 122.464896 120.290323 122.398482 120.236812 122.310816 120.220493L121.277419 120.033776C121.237571 120.026565 121.20038 120.029222 121.162049 120.039848L117.111954 121.209488C117.002277 121.240607 116.929412 121.335484 116.926755 121.449715L116.919165 121.849715C116.917647 121.921063 116.943074 121.983302 116.993169 122.034915 117.043643 122.085389 117.104364 122.110816 117.17723 122.110816z" transform="translate(0 35)"/>
</svg>
