<svg xmlns="http://www.w3.org/2000/svg" width="200" height="200" viewBox="0 0 200 200">
  <g fill="none" transform="translate(26)">
    <polygon fill="#FFF" points="147.288 17.388 147.288 21.172 73.871 8.305 .46 21.172 .46 17.388 73.871 4.436 147.288 17.388"/>
    <polygon fill="#33A457" points="147.288 13.518 147.288 17.388 73.871 4.436 .46 17.388 .46 13.518 73.871 .569 147.288 13.518"/>
    <path fill="#CC2131" d="M147.288136,21.1717514 L73.8711864,8.30508475 L0.459887006,21.1717514 L0.459887006,34.2271186 L1.09717514,33.8666667 C1.3559322,33.7220339 27.4056497,19.279096 74.0124294,19.279096 C120.622599,19.279096 146.368362,33.7254237 146.629379,33.8689266 L147.258757,34.2305085 L147.288136,21.1717514 Z"/>
    <path fill="#FFF22D" d="M74.0135593,21.8022599 C116.101695,21.8022599 140.746893,33.6463277 144.741243,35.7231638 L144.741243,73.3073446 C144.741243,93.7977401 139.915254,114.210169 130.40339,133.988701 C109.583051,177.188701 78.2542373,194.151412 73.8723164,196.364972 C69.4870056,194.151412 38.1344633,177.188701 17.319774,133.988701 C7.8079096,114.210169 2.98305085,93.7977401 2.98305085,73.3073446 L2.98305085,35.7276836 C7.01355932,33.6531073 31.9175141,21.8022599 74.0135593,21.8022599 Z"/>
    <path fill="#000" d="M1.09830508,33.8655367 L0.462146893,34.2259887 L0.462146893,73.3073446 C0.462146893,94.1819209 5.36949153,114.964972 15.0485876,135.076836 C37.7706215,182.251977 72.9977401,198.754802 73.3502825,198.916384 L73.8723164,199.154802 L74.3932203,198.916384 C74.7491525,198.754802 109.946893,182.247458 132.667797,135.076836 C142.351412,114.964972 147.259887,94.1819209 147.259887,73.3073446 L147.259887,34.2293785 L146.630508,33.8677966 C146.370621,33.7242938 120.623729,19.2779661 74.0135593,19.2779661 C27.4067797,19.2779661 1.35706215,33.720904 1.09830508,33.8655367 Z M74.0135593,21.8022599 C116.101695,21.8022599 140.746893,33.6463277 144.741243,35.7231638 L144.741243,73.3073446 C144.741243,93.7977401 139.915254,114.210169 130.40339,133.988701 C109.583051,177.188701 78.2542373,194.151412 73.8723164,196.364972 C69.4870056,194.151412 38.1344633,177.188701 17.319774,133.988701 C7.8079096,114.210169 2.98305085,93.7977401 2.98305085,73.3073446 L2.98305085,35.7276836 C7.01355932,33.6531073 31.9175141,21.8022599 74.0135593,21.8022599 Z"/>
    <path fill="#000" d="M85.0372881,159.944633 C86.259887,160.789831 85.3728814,162.257627 84.4677966,162.487006 C83.5254237,162.743503 82.719774,161.697175 82.2632768,162.844068 C82.0067797,163.459887 82.7028249,168.125424 87.4757062,168.125424 C91.9310734,168.125424 94.0564972,162.40565 94.4757062,161.544633 C94.8971751,160.685876 95.1683616,159.589831 94.7468927,159.589831 C92.7920904,159.589831 92.2225989,160.750282 92.2225989,160.750282 C92.2225989,160.750282 92.0745763,159.633898 93.0463277,158.79096 C93.8474576,158.102825 94.8983051,158.270056 95.2779661,158.270056 C96.0745763,158.270056 95.9491525,157.676836 96.4305085,156.502825 C97.5276836,153.740113 98.2824859,153.615819 98.9954802,152.355932 C99.5864407,151.329944 98.4700565,150.927684 96.2677966,150.720904 C94.0587571,150.510734 92.8757062,150.6 91.8892655,150.743503 C90.900565,150.884746 89.9163842,151.285876 89.3028249,152.79774 C88.9740113,153.616949 89.5762712,154.423729 90.7333333,154.214689 C91.8892655,153.99887 93.0022599,153.124294 93.0022599,153.124294 C93.0022599,153.124294 92.4813559,155.19435 90.7559322,155.622599 C89.1559322,156.015819 87.2666667,155.050847 87.520904,153.431638 C87.8519774,151.331073 89.3039548,149.79209 91.9525424,149.273446 C94.6056497,148.738983 97.2497175,149.148023 99.6079096,149.727684 C101.958192,150.320904 103.688136,149.961582 105.873446,149.833898 C110.585311,149.581921 113.505085,148.470056 113.505085,148.470056 C113.505085,148.470056 111.381921,150.19322 108.438418,150.989831 C105.494915,151.79322 102.870056,151.459887 102.020339,151.79322 C101.334463,152.087006 100.364972,153.448588 99.5661017,155.00452 C98.8316384,156.435028 98.0497175,158.083616 98.3875706,158.083616 C101.124294,158.187571 102.126554,157.588701 102.126554,157.588701 C102.126554,157.588701 101.585311,158.769492 100.281356,159.327684 C99.3762712,159.693785 97.840678,159.693785 97.840678,159.693785 C97.840678,159.693785 97.1502825,161.441808 96.3728814,163.019209 C95.5898305,164.59548 94.3073446,167.057627 91.9988701,168.275706 C89.6813559,169.491525 85.2497175,171.00791 82.4587571,166.99322 C79.5062147,162.781921 82.2011299,157.99096 85.0372881,159.944633 L85.0372881,159.944633 Z M50.7717514,160.493785 C51.3163842,161.888136 50.159322,162.614689 49.4870056,162.614689 C48.8124294,162.614689 47.9728814,162.114124 47.7977401,162.957062 C47.6372881,163.79322 49.5887006,168.106215 54.1288136,168.106215 C58.6711864,168.106215 60.7762712,165.477966 60.4564972,163.123164 C60.100565,160.494915 55.9254237,159.450847 52.5977401,157.700565 C50.9694915,156.846328 47.2892655,156.274576 47.2892655,152.829379 C47.2892655,145.473446 58.4836158,150.171751 58.4836158,150.171751 C58.4836158,150.171751 58.5073446,149.251977 59.0282486,149.20904 C59.280226,149.185311 59.7864407,149.085876 59.9548023,149.917514 C60.120904,150.755932 60.8610169,155.174011 60.8610169,155.174011 C60.8610169,155.174011 59.2158192,151.810169 54.700565,150.341243 C53.9016949,150.061017 50.4090395,149.39661 50.4293785,152.161582 C50.4711864,153.80339 52.4723164,154.540113 55.9412429,155.887006 C60.500565,157.674576 62.8361582,159.338983 61.759322,164.132203 C60.7344633,168.734463 56.2350282,169.491525 54.0474576,169.491525 C51.8644068,169.491525 46.840678,167.960452 46.840678,162.910734 C46.840678,159.340113 50.3435028,159.423729 50.7717514,160.493785 L50.7717514,160.493785 Z M74.6915254,132.835028 L76.5299435,133.706215 C77.5898305,134.116384 78.2666667,133.935593 78.5096045,133.833898 C78.7661017,133.723164 79.7367232,132.681356 79.9480226,131.79435 C80.0474576,131.432768 79.9943503,131.118644 79.8022599,130.887006 C79.0870056,130.039548 77.820339,126.146893 77.3502825,124.042938 C77.1762712,123.262147 77.3875706,121.107345 77.5514124,119.372881 C77.6949153,117.883616 77.7830508,116.958192 77.7084746,116.719774 C77.5830508,116.351412 77.0327684,115.99548 76.4,115.59435 L75.3977401,114.911864 C74.8632768,114.474576 74.839548,113.879096 74.8101695,113.239548 L74.7039548,112.246328 C74.4711864,111.322034 69.7672316,106.517514 69.0384181,106.473446 C67.9819209,106.40452 67.7073446,107.563842 67.639548,108.261017 C67.5977401,108.668927 68.0689266,110.490395 68.4937853,112.105085 L68.9627119,114.051977 C69.4440678,117.112994 72.6983051,122.503955 74.0858757,124.80452 L74.7446328,125.923164 C75.0293785,126.571751 74.9186441,127.083616 74.4124294,127.370621 C73.920904,127.653107 69.6915254,127.211299 67.6711864,126.745763 C66.8033898,126.546893 65.7322034,126.114124 64.6870056,125.690395 C63.4903955,125.213559 62.3559322,124.750282 61.700565,124.717514 C60.9355932,124.677966 60.5728814,124.832768 60.2915254,124.962712 L59.8327684,125.090395 L59.3762712,124.944633 C58.8158192,124.697175 57.7683616,124.245198 54.9084746,123.986441 C50.740113,123.59548 50.4271186,124.433898 50.2576271,124.887006 C50.0508475,125.463277 52.5988701,128.172881 53.0542373,128.535593 C53.6338983,129.00339 55.5084746,129.716384 56.6531073,129.526554 C57.9615819,129.316384 60.0949153,129.051977 60.359322,129.105085 L60.7887006,129.367232 L61.1875706,129.649718 C61.5491525,129.79774 63.879096,129.925424 64.5830508,129.962712 C65.3954802,130.00678 67.5288136,130.448588 69.0881356,130.775141 L70.8305085,131.126554 C71.5129944,131.251977 73.2711864,132.119774 74.6915254,132.835028 L74.6915254,132.835028 Z"/>
    <path fill="#000" d="M117.812429,78.7751412 C117.719774,78.6610169 117.642938,78.6542373 117.59435,78.6666667 C117.550282,78.6813559 117.490395,78.7231638 117.473446,78.8587571 C117.39661,79.439548 116.667797,80.9322034 116.089266,81.1525424 C114.917514,81.6056497 114.310734,82.979661 113.871186,83.980791 C113.646328,84.4971751 113.427119,84.9898305 113.253107,84.9966102 C113.178531,85.0022599 113.096045,84.9220339 113.00565,84.7548023 C112.283616,83.5096045 112.688136,81.6056497 113.012429,80.0711864 L113.087006,79.6949153 C113.351412,78.4011299 114.865537,76.5887006 115.770621,75.5016949 L116.170621,75.020339 C116.786441,74.2519774 116.941243,71.6485876 116.825989,71.4531073 C116.788701,71.4418079 116.763842,71.4632768 116.749153,71.4858757 C116.735077,71.4971683 116.723203,71.5109579 116.714124,71.5265537 L116.700565,71.5242938 L116.700565,71.5378531 C116.663277,71.5785311 116.631638,71.5830508 116.60113,71.7141243 C116.439548,72.5276836 114.952542,74.180791 112.412429,76.3774011 C111.891525,76.8282486 111.298305,77.6429379 110.812429,78.2971751 C110.499435,78.7265537 110.132203,79.2214689 110.035028,79.2451977 C109.40565,75.8870056 110.544633,73.9672316 111.085876,73.039548 L111.337853,72.5683616 C112.412429,69.6440678 115.179661,67.4293785 115.20904,67.4090395 C115.246328,67.3242938 115.246328,67.2338983 115.178531,67.1762712 C115.072316,67.0949153 114.877966,67.1299435 114.571751,67.2836158 L114.40452,67.3672316 C113.439548,67.8361582 110.528814,69.2542373 108.743503,72.6689266 C107.461017,75.1276836 106.964972,77.8757062 106.964972,79.9480226 C106.964972,81.0056497 107.092655,81.8824859 107.309605,82.4632768 C107.936723,84.1355932 109.035028,88.2915254 109.372881,89.9231638 C109.583051,90.9344633 109.615819,94.4067797 109.615819,96.5830508 C109.615819,97.6463277 109.611299,98.3909605 109.611299,98.419209 C109.60452,98.419209 109.057627,100.184181 109.057627,100.184181 C109.055367,100.20226 108.79096,101.580791 106.537853,103.884746 C104.268927,106.20226 101.742373,106.938983 101.719774,106.948023 C100.705085,107.027119 99.779661,106.985311 99.7468927,106.853107 C99.7468927,104.20452 95.2112994,98.0429379 92.8903955,96.0101695 C90.5220339,93.9344633 88.6293785,92.4474576 85.4135593,90.4903955 C82.1389831,88.4971751 78.4971751,80.1412429 78.4553672,80.059887 L78.140113,78.9310734 C78.140113,78.9310734 77.9638418,76.6768362 77.9152542,76.0903955 C78.0338983,76.1581921 78.1887006,76.2542373 78.1887006,76.2542373 L79.3050847,76.9039548 L80.5875706,77.3966102 C80.5988701,77.4 82.2666667,77.7265537 82.2666667,77.7265537 C82.2666667,77.7299435 83.2,78.2079096 83.2,78.2079096 L84.0655367,78.7706215 L85.4112994,79.7423729 L86.7932203,80.4689266 C86.8214689,80.4768362 88.4531073,80.560452 88.4531073,80.560452 L88.4903955,80.4259887 C88.4903955,80.4259887 86.6011299,79.5389831 86.5966102,79.5389831 C86.5966102,79.5118644 85.9163842,78.3480226 85.9163842,78.3480226 C85.6518889,77.9683083 85.3878585,77.5882704 85.1242938,77.2079096 C85.0983051,77.1898305 84.1423729,76.619209 84.1423729,76.619209 C83.7377283,76.5575942 83.3324317,76.5003404 82.9265537,76.4474576 C82.9265537,76.4372881 82.6881356,76.2327684 82.5649718,76.1220339 C82.6711864,76.059887 82.8711864,75.9355932 82.8711864,75.9355932 C82.8711864,75.9502825 84.1728814,76.100565 84.1774011,76.100565 C84.1774011,76.1141243 85.3355932,76.9016949 85.3355932,76.9016949 L86.6,77.8757062 C86.620339,77.8858757 87.7966102,78.3423729 87.7966102,78.3423729 L87.9514124,78.4033898 L87.4350282,77.059887 C87.1122113,76.7505662 86.7871556,76.4435901 86.459887,76.1389831 L85.0271186,74.920904 C85.0158192,74.9107345 83.9016949,74.3367232 83.9016949,74.3367232 C83.8903955,74.3344633 82.7016949,73.9333333 82.7016949,73.9333333 C82.7016949,73.9310734 81.4440678,73.1288136 81.4440678,73.1288136 C81.4440678,73.1288136 81.4576271,73.0429379 81.4666667,72.9694915 C81.6259887,73.0305085 83.2079096,73.6655367 83.2079096,73.6655367 C83.2169492,73.6666667 84.7242938,74.0768362 84.7242938,74.0768362 C84.7220339,74.0711864 85.9887006,74.560452 85.9887006,74.560452 C85.9841808,74.5559322 87.8067797,75.4451977 87.8067797,75.4451977 C87.8225989,75.4531073 89.3322034,75.780791 89.3322034,75.780791 C89.3581921,75.7819209 91.1943503,75.4531073 91.1943503,75.4531073 C91.2180791,75.4418079 92.9683616,74.2237288 92.9683616,74.2237288 C92.9887006,74.1909605 93.3107345,73.4666667 93.3107345,73.4666667 L93.379661,73.299435 L92.8169492,73.5322034 C92.8124294,73.5322034 91.2282486,74.3367232 91.2259887,74.3367232 L90.1288136,74.5819209 C90.1288136,74.5762712 88.8903955,74.3333333 88.8881356,74.3333333 L88.8903955,74.3333333 C88.8903955,74.3186441 87.8858757,73.3841808 87.8858757,73.3841808 L86.459887,72.0033898 L85.1706215,71.3435028 C85.1525424,71.3355932 83.6451977,71.0915254 83.6451977,71.0915254 C83.6451977,71.0881356 82.7276836,70.6214689 82.7118644,70.6135593 C82.7163842,70.6135593 82.7186441,70.5966102 82.7186441,70.5728814 C82.7186441,70.4621469 82.6903955,70.220339 82.679096,70.1073446 L84.5751412,70.2666667 L86.6519774,70.099435 C86.6519774,70.1050847 87.8214689,70.3435028 87.8214689,70.3435028 L89.0045198,70.8316384 L90.2158192,70.9954802 L90.4338983,71.0248588 L89.0836158,69.7333333 C89.0700565,69.7265537 87.7220339,68.7525424 87.7220339,68.7525424 C87.7062147,68.7446328 86.5920904,68.3367232 86.5920904,68.3367232 C86.5717514,68.3322034 84.7141243,68.1751412 84.6768362,68.1717514 C84.6926554,68.1706215 84.6949153,68.1389831 84.6949153,68.0926554 C84.6949153,67.979661 84.6768362,67.819209 84.6666667,67.7367232 L85.5446328,67.5875706 C85.5446328,67.5932203 86.9502825,67.9096045 86.9502825,67.9096045 C86.9502825,67.9141243 88.2813559,68.7129944 88.2813559,68.7129944 L89.719774,69.2045198 C89.7615819,69.2056497 91.820339,68.8824859 91.820339,68.8824859 L91.9435028,68.8655367 L91.3163842,68.0372881 C91.2813559,68.0101695 90.2463277,67.6881356 90.2440678,67.6881356 C90.2440678,67.6824859 89.3898305,67.0508475 89.3898305,67.0508475 L88.1163842,66.1559322 C88.0983051,66.1457627 87.1480226,65.8225989 87.1480226,65.8225989 C87.1322034,65.8169492 85.6338983,65.5774011 85.6293785,65.5762712 C85.6293785,65.560452 84.8926554,64.8824859 84.8768362,64.8711864 C84.899435,64.8666667 84.9457627,64.6305085 84.9627119,64.5231638 L85.7548023,64.7446328 L86.7740113,65.2305085 L88.2214689,65.6892655 L87.9016949,65.0508475 L87.3389831,64.4632768 L86.8463277,63.8282486 L87.059887,63.7751412 C87.059887,63.7943503 88.6,64.579661 88.6,64.579661 L89.8,64.9887006 C89.8,64.9954802 90.7265537,65.8644068 90.7265537,65.8644068 C90.740113,65.8757062 92.4937853,66.8655367 92.4937853,66.8655367 L92.6700565,66.9649718 L92.3502825,66.1084746 C92.3412429,66.0892655 91.3898305,64.8723164 91.3898305,64.8723164 L90.5977401,63.5028249 C90.5909605,63.4870056 89.1570621,62.0282486 89.1570621,62.0282486 C89.1435028,62.0146893 87.3186441,61.039548 87.3141243,61.039548 C87.3141243,61.0316384 86.619209,60.2440678 86.619209,60.2440678 C86.193868,59.8113879 85.7693851,59.3778654 85.3457627,58.9435028 C85.3457627,58.9265537 85.2158192,58.4813559 85.1491525,58.2553672 C85.3649718,58.3242938 86.3853107,58.6632768 86.3853107,58.6632768 L87.8135593,59.0666667 C87.8135593,59.0700565 88.8327684,59.7050847 88.8327684,59.7050847 C88.8327684,59.7118644 89.6824859,60.7435028 89.6824859,60.7435028 C89.7129944,60.7672316 91.0666667,61.3367232 91.0666667,61.3367232 L94.5163842,61.7841808 L94.7175141,61.8090395 L93.7706215,60.8124294 C93.7468927,60.7943503 91.9186441,59.9819209 91.9186441,59.9819209 L90.8214689,59.1819209 C90.8214689,59.1672316 90.2079096,58.0666667 90.2079096,58.0666667 L89.5683616,56.9322034 C89.5570621,56.9152542 88.5242938,55.9423729 88.5242938,55.9423729 C88.5084746,55.9310734 87.2372881,55.2011299 87.2372881,55.2011299 L85.979661,54.1548023 C85.979661,54.1446328 85.6768362,53.5175141 85.4836158,53.099435 L86.3570621,53.9412429 L88.0259887,55.4022599 C88.0463277,55.4146893 89.319774,55.9830508 89.319774,55.9830508 L90.4101695,56.8644068 L91.6768362,58.1570621 C91.720904,58.1774011 93.700565,58.4564972 93.700565,58.4564972 L93.9480226,58.4926554 L91.9378531,56.7514124 C91.9378531,56.719774 91.4836158,55.3242938 91.4836158,55.3242938 C91.1359018,54.9859886 90.7848489,54.6511323 90.4305085,54.319774 L89.8836158,53.6768362 C89.8836158,53.659887 89.3389831,52 89.3389831,52 C88.964582,51.6102669 88.5871696,51.223438 88.2067797,50.839548 C88.2067797,50.8305085 86.3909605,49.1367232 86.3864407,49.1299435 L86.3864407,49.1265537 C86.3864407,49.100565 86.3220339,48.8418079 86.2847458,48.6711864 C86.4237288,48.7412429 86.6135593,48.8418079 86.6135593,48.8418079 L88.280226,49.8124294 C88.2960452,49.820339 90.280226,50.3875706 90.280226,50.3875706 L92.3502825,50.8779661 L94.7423729,51.259887 L94.179661,50.1220339 C94.140113,50.0858757 92.9502825,49.6011299 92.9502825,49.6011299 L91.8463277,48.9570621 C91.8350282,48.9536723 90.4870056,48.3841808 90.4870056,48.3841808 L89.299435,47.8983051 C89.299435,47.8870056 88.5288136,46.8926554 88.099435,46.3435028 C88.5118644,46.620339 89.1480226,47.0531073 89.1480226,47.0531073 C89.1785311,47.0632768 90.2180791,47.1457627 90.2180791,47.1457627 L93.4779661,47.1468927 C93.4779661,47.1559322 94.7977401,47.8689266 94.7977401,47.8711864 C94.7977401,47.8757062 95.9231638,49.0892655 95.9231638,49.0892655 L96.0711864,49.2485876 L95.9344633,47.879096 C95.920904,47.839548 95.2056497,46.9457627 95.2056497,46.9457627 C95.1853107,46.9299435 93.2745763,45.8745763 93.2745763,45.8745763 L91.7559322,45.3028249 C91.7446328,45.299435 89.4564972,44.8949153 89.4451977,44.8949153 L89.4451977,44.8915254 C89.4451977,44.8700565 89.0079096,44.3491525 89.0079096,44.3491525 C88.9988701,44.3446328 87.3333333,42.8033898 87.3333333,42.8033898 C87.0641521,42.6627126 86.7940903,42.5237268 86.5231638,42.3864407 C86.5231638,42.3819209 86.2689266,42.120904 86.1107345,41.9559322 L86.9672316,41.9559322 C86.9672316,41.9694915 88.280226,42.7581921 88.280226,42.7581921 C88.2915254,42.7661017 90.0440678,43.3310734 90.0440678,43.3310734 L92.280226,43.6576271 L92.2779661,43.6576271 C92.2779661,43.6813559 93.1073446,44.6101695 93.1073446,44.6101695 L94.3163842,45.3525424 C94.7750003,45.4371561 95.2341431,45.5188903 95.6937853,45.5977401 L95.8858757,45.6282486 L93.0564972,42.1615819 C93.0384181,42.1446328 91.6858757,41.4158192 91.6858757,41.4158192 C91.6745763,41.4090395 90.0881356,40.9220339 90.0881356,40.9220339 C90.0881356,40.9050847 88.6915254,39.320904 88.6915254,39.320904 C88.6757062,39.3039548 86.9265537,38.2519774 86.9265537,38.2519774 C86.5037557,38.1449908 86.08001,38.0417851 85.6553672,37.9423729 C85.7344633,37.8146893 85.9977401,37.380791 85.9977401,37.3785311 C86.0022599,37.3909605 87.3988701,36.759322 87.3988701,36.759322 C87.3988701,36.7627119 89.4463277,36.359322 89.4463277,36.359322 C89.5016949,36.3118644 89.6564972,35.8225989 89.6564972,35.8225989 C89.6305085,35.740113 88.7559322,35.1728814 88.7559322,35.1728814 C88.4069836,35.0595816 88.0574497,34.9480923 87.7073446,34.8384181 C87.6429379,34.8463277 87.0892655,35.1706215 87.0892655,35.1728814 C87.0892655,35.1627119 85.3762712,35.240678 85.3762712,35.240678 C85.3762712,35.239548 83.3288136,34.7581921 83.3288136,34.7559322 C83.3288136,34.7457627 81.219209,32.9875706 81.219209,32.9875706 C80.8963287,32.8213074 80.5727856,32.6563344 80.2485876,32.4926554 C80.2248588,32.4881356 76.740113,32.080226 76.7310734,32.080226 C76.7310734,32.0361582 75.9118644,30.8135593 75.9118644,30.8135593 L74.7909605,29.5887006 C74.7864407,29.5819209 73.3638418,28.2983051 73.3638418,28.2983051 L73.319774,28.3920904 L72.8429379,29.4474576 C72.8451977,29.4372881 72.3728814,30.1672316 72.3728814,30.1672316 L72.3728814,30.1853107 C72.3728814,30.319774 72.439548,31.0248588 72.439548,31.0248588 C72.459887,31.0689266 72.920904,31.5412429 72.9310734,31.5548023 C72.9073446,31.5548023 72.7570621,32.2892655 72.7570621,32.2949153 C72.7525424,32.2440678 70.8451977,32.3220339 70.8418079,32.3220339 C70.8418079,32.3129944 69.2836158,31.5977401 69.2836158,31.5977401 C69.2734463,31.5909605 68.079096,31.1864407 68.079096,31.1864407 C68.0553672,31.1785311 65.2768362,31.2644068 65.2768362,31.2644068 C65.2158192,31.2960452 64.7446328,32.0259887 64.7446328,32.0259887 L64.6813559,32.1220339 L65.9039548,32.2983051 C65.9039548,32.3028249 66.0847458,32.4180791 66.1853107,32.4824859 L65.8723164,32.7378531 C65.8723164,32.7220339 64.1717514,32.6440678 64.1717514,32.6440678 C64.1435028,32.6485876 62.9468927,33.1333333 62.9468927,33.1333333 L62.8225989,33.1864407 L63.4158192,33.5853107 C63.4531073,33.5988701 65.9943503,33.679096 65.9943503,33.679096 L67.8813559,34.1649718 L67.8813559,34.1672316 C67.8813559,34.1932203 68.240678,34.7062147 68.240678,34.7062147 C68.240678,34.7062147 68.4960452,35.0666667 68.5920904,35.2079096 L67.7841808,35.6531073 C67.7943503,35.6519774 65.4881356,36.6248588 65.4881356,36.6248588 L60.720904,39.3016949 C60.7163842,39.2971751 57.5819209,39.7649718 57.5819209,39.7649718 C57.5581921,39.7728814 56.3548023,40.4429379 56.3548023,40.4429379 C56.3288136,40.4610169 55.3627119,41.8 55.3627119,41.8 C55.3525424,41.8169492 54.8056497,43.4836158 54.8056497,43.4836158 C54.7627119,46.3152542 54.8757062,46.380791 54.9163842,46.4033898 C55.0101695,46.4621469 55.8282486,46.9254237 56.4610169,46.5864407 C57.1774011,46.1966102 58.7107345,45.8135593 59.5073446,45.6440678 C59.900565,45.5638418 60.0847458,45.7050847 60.1175141,45.8508475 C60.160452,46.0101695 60.0418079,46.2271186 59.7480226,46.3073446 L59.5830508,46.3559322 C58.1977401,46.7322034 56.7841808,47.1875706 56.8305085,47.7220339 L57.0745763,48.1299435 C57.6926554,48.580791 59.299435,48.3672316 60.1525424,48.1740113 L61.0429379,47.9242938 C61.8112994,47.6903955 62.6847458,47.4293785 63.4305085,47.5129944 C63.8610169,47.5627119 64.240678,47.7480226 64.6892655,47.959322 C65.2971751,48.2531073 65.9920904,48.5864407 67.0282486,48.6542373 C68.7559322,48.7740113 69.9355932,49.1231638 70.0282486,49.2248588 C70.259887,49.6960452 70.1107345,50.3932203 69.9943503,50.9536723 L69.9050847,51.4610169 C69.4214689,55.8463277 64.5254237,60.8045198 62.1661017,63.1830508 C61.5288136,63.8271186 61.1073446,64.2519774 61.0169492,64.4293785 L60.7457627,65.0564972 C60.5163842,65.6384181 60.3299435,66.140113 59.5819209,66.440678 C59.1491525,66.6090395 58.140113,67.3683616 56.9694915,68.2451977 C55.279096,69.5062147 53.1830508,71.0745763 52.6056497,71.0067797 C51.639548,70.8926554 47.1276836,67.7864407 46.9378531,67.5954802 C42.5435028,63.3435028 40.7050847,64.2158192 39.6045198,64.7355932 L39.4305085,64.8169492 C38.119774,65.4135593 36.7435028,69.1265537 36.619209,69.9231638 L36.0881356,72.2101695 L35.680226,73.8903955 C35.559322,74.4587571 35.0180791,75.8553672 34.5016949,77.2045198 L33.4418079,80.1423729 C33.2666667,80.8225989 32.8418079,81.7785311 32.4960452,82.5514124 L32.0271186,83.6960452 C31.700565,85.039548 31.6949153,92.3977401 32.2632768,93.0485876 L32.2881356,93.0757062 L32.4,93.1084746 C32.9706215,93.0497175 34.1954802,91.7875706 34.7830508,91.1785311 L34.9186441,91.0372881 C35.4158192,90.5378531 35.9435028,89.2045198 35.9435028,88.6440678 C35.9435028,88.0949153 35.6870056,86.9468927 35.5853107,86.6338983 C34.7898305,84.2045198 35.0903955,81.8892655 35.2350282,80.779661 L35.2926554,80.2847458 C35.3344633,79.7694915 35.8508475,79.1988701 36.3525424,78.6519774 L36.9864407,77.9186441 C37.3344633,77.4553672 37.720904,77.3016949 38.0655367,77.1649718 L38.6316384,76.8418079 L38.719774,76.7502825 C39.0949153,76.3740113 39.7242938,75.7389831 40,74.8892655 L40.5378531,72.5627119 L40.6553672,71.9412429 C40.6824859,71.8169492 40.7457627,71.7480226 40.8508475,71.7254237 C41.0644068,71.6779661 41.3841808,71.8474576 41.520904,72.0293785 L45.4101695,76.5423729 C46.4067797,77.3909605 47.4305085,78.4033898 47.4305085,78.6259887 L47.4293785,78.6451977 C47.4293785,78.6418079 47.4056497,78.6463277 47.4056497,78.6463277 C46.8610169,78.7028249 44.120904,78.1186441 43.6655367,77.9887006 C39.9423729,76.8971751 38.2429379,77.0892655 36.9322034,78.7299435 C35.4384181,80.6090395 35.9084746,86.3638418 36.2135593,86.9943503 C36.4937853,87.5661017 37.8564972,94.5774011 37.9175141,95.5118644 C37.9785311,96.4282486 38.3333333,98.0666667 38.7039548,98.4429379 L38.8056497,98.5468927 C39.2644068,99.0011299 40.4734463,100.215819 40.6870056,101.413559 C40.9175141,102.717514 43.6870056,106.20904 44.7435028,106.522034 C44.9041867,106.568574 45.0774492,106.53493 45.2090395,106.431638 C46.0146893,105.859887 46.380791,103.065537 46.4248588,101.885876 C46.4768362,100.415819 45.9491525,99.7050847 45.3887006,98.9446328 L45.1740113,98.6474576 C44.7615819,98.0847458 44.0350282,97.880226 43.5559322,97.7457627 C43.3514124,97.6881356 43.0711864,97.620339 43.0711864,97.5570621 C43.0711864,97.5355932 43.0146893,95.3819209 42.3276836,94.9661017 C41.7932203,94.6372881 41.2463277,92.559322 41.1819209,91.7683616 C41.119774,90.9830508 40.8158192,89.0870056 40.4079096,88.2542373 C39.9954802,87.4180791 39.6485876,85.8768362 39.8248588,84.6881356 C39.8983051,84.1774011 40.2621469,84.0169492 40.5581921,83.9706215 C41.0689266,83.8892655 41.6587571,84.1096045 41.7502825,84.2881356 C41.9536723,84.6971751 45.880226,87.0655367 47.2045198,87.5740113 C48.0271186,87.8858757 49.140113,88.8259887 50.1231638,89.6644068 C50.8225989,90.2508475 51.4237288,90.7559322 51.7988701,90.9355932 C52.3050847,91.179661 53.740113,91.2079096 54.8926554,91.2305085 C55.5039548,91.240678 56.1389831,91.2553672 56.2248588,91.3062147 C55.7570621,91.4937853 55.7627119,92.3141243 55.8011299,92.5785311 C56.279096,95.9717514 68.6237288,105.292655 69.5785311,105.815819 C70.6836158,106.40904 74.6474576,110.548023 74.9943503,111.110734 C75.3536723,111.666667 75.7028249,112.271186 75.6361582,112.736723 C75.5412429,113.424859 75.8169492,114.211299 76.3683616,114.853107 C76.8960452,115.450847 77.5841808,115.811299 78.220339,115.811299 C78.7717514,115.811299 79.140113,115.316384 79.4124294,114.959322 L79.4700565,114.884746 C80.2067797,113.909605 81.299435,112.481356 81.440678,110.247458 C81.5909605,107.957062 82.6372881,107.047458 82.9785311,106.987571 C83.1310734,106.959322 83.2429379,107.00565 83.2836158,107.106215 C83.3254237,107.210169 83.2745763,107.384181 83.0677966,107.520904 C82.6158192,107.827119 82.3333333,108.840678 82.0237288,109.924294 C82.0214689,109.933333 81.9084746,111.030508 81.9084746,111.030508 C81.8824859,111.849718 81.8508475,112.778531 81.0327684,113.679096 C79.8079096,115.00565 78.4022599,118.064407 78.0384181,121.926554 C77.8180791,124.253107 78.8655367,127.60452 81.1502825,131.875706 L81.3096045,132.180791 L81.9276836,133.218079 C82.5525424,134.222599 83.5966102,135.892655 83.5480226,136.283616 C83.4813559,136.835028 83.4293785,137.267797 82.4779661,138.462147 C81.4316384,139.775141 77.6135593,144.218079 77.240678,144.288136 C76.4813559,144.288136 76.3536723,144.385311 75.7423729,144.848588 L75.0983051,145.338983 C74.3932203,145.839548 74.2700565,146.214689 74.1514124,146.545763 C74.0644068,146.79548 73.9819209,147.013559 73.6542373,147.258757 L73.4090395,147.423729 C73.3581921,147.467797 73.220339,147.662147 71.6858757,149.19774 C69.9265537,150.936723 69.1412429,152.905085 69.4124294,154.861017 C69.499435,155.472316 70.0259887,155.685876 71.5875706,155.757062 C73.1468927,155.829379 76.7220339,153.327684 76.8813559,152.512994 L76.9367232,152.20226 C77.0734463,151.467797 77.3028249,150.229379 77.7073446,150.050847 C78.1954802,149.837288 79.0316384,148.872316 79.6451977,148.170621 L79.7638418,148.038418 C80.0903955,147.661017 80.1694915,147.285876 80.2474576,146.928814 C80.3141243,146.646328 80.3751412,146.361582 80.560452,146.101695 C80.7062147,145.911864 80.919774,145.80791 81.1672316,145.693785 C81.6418079,145.466667 82.239548,145.177401 82.6700565,144.096045 C83.0983051,143.036158 85.6542373,141.20226 87.520904,139.867797 C88.4745763,139.189831 89.2225989,138.647458 89.4011299,138.40904 C89.6463277,138.089266 89.7966102,137.473446 89.7966102,136.820339 C89.7966102,136.045198 89.5887006,135.220339 89.1016949,134.761582 C88.3932203,134.103955 87.7265537,132.146893 87.5276836,131.533333 L87.5276836,131.519774 C87.5276836,131.265537 87.5039548,130.8 87.4655367,129.933333 C87.4610169,129.893785 87.4610169,129.851977 87.4610169,129.814689 C87.4610169,127.522034 90.8689266,125.279096 92.340113,124.312994 L93.0112994,123.849718 C98.3457627,119.144633 99.3898305,115.567232 99.5875706,114.585311 L99.6960452,113.40904 C99.7288136,112.59435 99.7559322,111.818079 100.247458,111.716384 C100.439548,111.679096 100.759322,111.833898 100.953672,112.065537 C101.064407,112.19096 101.227119,112.451977 101.118644,112.753672 C100.875706,113.413559 100.79435,120.047458 100.79209,120.323164 C100.810169,120.369492 101.366102,121.024859 101.366102,121.024859 L101.467797,121.143503 L101.498305,120.988701 C101.505085,120.911864 101.811299,119.103955 101.811299,118.464407 C101.811299,117.749153 102.961582,114.685876 103.239548,114.632768 C103.239548,114.641808 103.257627,114.667797 103.257627,114.667797 C103.39209,115.091525 103.563842,116.137853 103.563842,117.240678 C103.563842,118.324294 103.4,119.463277 102.873446,120.123164 C102.074576,121.111864 101.438418,122.676836 101.023729,123.709605 L100.639548,124.587571 C100.59619,124.709223 100.577372,124.838263 100.584181,124.967232 C100.584181,125.80791 101.016949,127.6 101.301695,127.933333 C101.376271,128.012429 101.436158,128.012429 101.477966,127.99774 C101.570621,127.962712 101.654237,127.842938 101.654237,127.138983 C101.654237,124.457627 103.907345,122.512994 103.934463,122.498305 C105.920904,120.922034 106.353672,117.99887 106.353672,115.771751 C106.353672,114.085876 106.106215,112.79887 106.099435,112.763842 C105.785324,112.297983 105.467422,111.834691 105.145763,111.374011 C105.19209,111.39661 105.450847,111.184181 105.536723,111.115254 C105.622599,111.225989 106.527684,112.425989 106.527684,112.425989 C106.680226,112.639548 107.066667,113.262147 107.066667,113.509605 C107.066667,114.889266 107.279096,115.833898 107.430508,116.526554 L107.467797,116.690395 C107.627119,117.424859 108.620339,119.771751 108.664407,119.872316 L108.770621,120.119774 L108.80339,119.850847 C108.80339,119.839548 108.960452,118.612429 108.80339,117.562712 C108.712994,116.974011 108.825989,116.251977 108.940113,115.472316 L109.120904,113.682486 C109.120904,112.228249 108.912994,111.309605 108.39435,110.473446 L108.129944,110.072316 C108.025989,109.908475 107.924294,109.748023 107.935593,109.715254 L108.129944,109.631638 C112.325424,108.20791 114.277966,105.118644 115.073446,103.40791 C115.907345,101.59548 115.951412,98.8045198 115.951412,98.2677966 C115.951412,97.5683616 115.920904,93.9412429 115.311864,92.0779661 C114.954802,90.9785311 115.068927,89.7977401 115.188701,88.5231638 L115.318644,86.3412429 C115.318644,84.8485876 116.103955,83.740113 116.865537,82.6689266 L117.772881,81.2632768 C118.366102,80.0926554 118.050847,79.0677966 117.812429,78.7751412 L117.812429,78.7751412 Z"/>
    <path fill="#000" d="M70.8508475,32.0554031 C70.920904,32.059887 71.8124294,31.6361582 71.8124294,31.6361582 C71.8519774,31.5559322 71.6451977,30.7118644 71.6451977,30.7118644 C71.0017134,29.9486799 70.3550033,29.1882211 69.7050847,28.4305085 L69.6090395,28.3186441 L69.5762712,28.4587571 L69.3683616,29.3728814 C69.3694915,29.3638418 68.7525424,30.839548 68.7525424,30.839548 L68.7242938,30.9016949 L70.0237288,31.5661017 L70.8508475,32.0554031 L70.8508475,32.0554031 Z"/>
    <path fill="#FFF" d="M71.2372881,37.9118644 C71.4429379,37.9887006 71.7536723,37.9548023 72.0474576,37.8237288 C72.4971751,37.6124294 72.7627119,37.2508475 72.6485876,36.9920904 L72.4418079,36.8056497 C72.2384181,36.7276836 71.9276836,36.7627119 71.6384181,36.8960452 C71.2531073,37.0677966 71.0067797,37.3536723 71.0067797,37.5966102 C71.0067797,37.640678 71.019209,37.6881356 71.0338983,37.7254237 L71.2372881,37.9118644 L71.2372881,37.9118644 Z M78.9988701,34.7084746 L79.3694915,34.9084746 C79.4297337,35.038424 79.5456907,35.1340157 79.6847458,35.1683616 C79.8447571,35.2017982 80.0112716,35.1601696 80.1367232,35.0553672 C80.2361582,34.9774011 80.259887,34.8316384 80.1966102,34.6474576 C80.0971751,34.3412429 79.7774011,34.0067797 79.4327684,34.0067797 C78.9887006,34.0067797 78.5830508,34.0576271 78.5830508,34.3853107 C78.5841808,34.5694915 78.7954802,34.639548 78.9988701,34.7084746 L78.9988701,34.7084746 Z M79.4429379,36.0180791 C79.2711864,36.1446328 79.1954802,36.3152542 79.2440678,36.4881356 L79.279096,36.6316384 C79.3231638,36.8011299 79.3389831,36.8361582 79.4949153,36.8542373 L79.7774011,36.9050847 C80.1389831,36.9977401 80.7107345,36.7728814 80.840678,36.4836158 C80.8847458,36.3898305 80.919774,36.2079096 80.6734463,36.0361582 C80.2497175,35.7536723 79.7276836,35.8146893 79.4429379,36.0180791 L79.4429379,36.0180791 Z M80.5988701,41.0474576 C80.4949153,40.9977401 80.5389831,40.8327684 80.619209,40.5932203 C80.6836158,40.3977401 80.7423729,40.2101695 80.6418079,40.1073446 C80.5536723,40.0225989 80.3966102,40.0293785 80.1299435,40.1288136 C79.1694915,40.4745763 79.0225989,41.4531073 78.9163842,42.1683616 L78.8836158,42.3887006 C78.8282486,42.7073446 78.9920904,42.8158192 79.0937853,42.8519774 C79.4248588,42.9694915 80.0225989,42.6689266 80.1570621,42.439548 C80.3073446,42.1920904 81.1367232,41.9661017 81.7412429,41.8011299 L81.9728814,41.7378531 C82.2531073,41.6610169 82.3966102,41.5536723 82.4169492,41.4079096 C82.4474576,41.2169492 82.2361582,41.0429379 82.0485876,40.9310734 C81.8745763,40.8282486 81.6158192,40.9016949 81.3446328,40.979661 C81.0757062,41.0531073 80.7864407,41.1288136 80.5988701,41.0474576 L80.5988701,41.0474576 Z M70.4474576,41.4146893 C70.659887,41.3932203 70.8259887,41.3107345 70.9310734,41.159322 C71.2372881,40.7028249 71.2531073,40.0564972 70.9559322,39.4700565 C70.6689266,38.9107345 70.1774011,38.5525424 69.6757062,38.5344633 L69.6824859,38.5367232 L69.5728814,38.5220339 L68.6485876,38.5943503 C68.160452,38.7028249 67.7073446,39.0632768 67.5977401,39.4180791 C67.5423729,39.5977401 67.5740113,39.7615819 67.6971751,39.8847458 C68.4384181,40.6700565 69.7186441,41.4700565 70.4474576,41.4146893 Z M61.3457627,40.6711864 C61.4564972,40.9435028 61.9638418,40.9740113 62.7084746,40.7525424 L62.8723164,40.7028249 L64.2067797,40.180791 L66.140113,38.9096045 C66.1966102,38.8655367 66.7016949,38.4858757 66.5977401,38.2429379 C66.5242938,38.0836158 66.2723164,38.1118644 66.0903955,38.1457627 C65.5570621,38.2429379 65.0338983,38.499435 64.4768362,38.7706215 L63.6903955,39.1355932 L63.3435028,39.2779661 C62.1468927,39.7728814 61.1661017,40.2169492 61.3457627,40.6711864 L61.3457627,40.6711864 Z M57.280226,42.0858757 C56.8779661,42.0858757 56.6971751,42.3039548 56.5502825,42.4971751 L56.3706215,42.700565 C56.0610169,42.9661017 55.9661017,43.6079096 56.0045198,44.0960452 C56.020339,44.299435 56.0779661,44.6677966 56.2779661,44.7853107 C56.6610169,45.0214689 56.8440678,44.8553672 57.2350282,44.4836158 L57.5378531,44.2237288 C57.9220339,43.9016949 58.3683616,43.5367232 58.4237288,42.9751412 C58.4508475,42.7378531 58.3943503,42.5423729 58.2621469,42.3954802 C58.0271186,42.140113 57.5977401,42.0858757 57.280226,42.0858757 Z M59.5039548,42.2632768 C59.3887006,42.2384181 59.319774,42.2745763 59.2836158,42.3118644 C59.1672316,42.4259887 59.2146893,42.6700565 59.2508475,42.8655367 L59.2734463,43.0022599 L59.2497175,43.0847458 C59.2237288,43.1548023 59.1943503,43.2440678 59.2497175,43.319774 C59.299435,43.3954802 59.420339,43.4282486 59.6259887,43.4282486 C59.8870056,43.4305085 59.9129944,43.4033898 60.0011299,43.1706215 L60.0711864,42.9909605 C60.1344633,42.8327684 60.1355932,42.6903955 60.0757062,42.5774011 C59.9683616,42.3785311 59.7016949,42.3028249 59.5039548,42.2632768 Z M61.6542373,45.7480226 C61.9377169,45.7349362 62.1608207,45.5012956 62.1608207,45.2175141 C62.1608207,44.9337327 61.9377169,44.700092 61.6542373,44.6870056 C61.5148915,44.6878968 61.3816592,44.7443429 61.284084,44.8438271 C61.1865088,44.9433114 61.1326546,45.0776123 61.1344633,45.2169492 C61.1344633,45.5096045 61.3661017,45.7480226 61.6542373,45.7480226 L61.6542373,45.7480226 Z M71.3412429,44.4553672 C71.1891002,44.4270673 71.0337985,44.4853598 70.9378531,44.6067797 C70.7943503,44.7740113 69.920904,45.3728814 69.2824859,45.8112994 L68.4587571,46.3966102 L68.3920904,46.4610169 C68.2892655,46.5581921 68.2384181,46.6180791 68.3050847,46.819209 L68.4056497,46.960452 L68.6225989,46.9163842 L68.9435028,46.7977401 L69.4056497,46.7254237 C69.8610169,46.6666667 70.359322,46.5988701 70.5943503,46.3581921 L70.900565,45.8576271 L71.3559322,45.1265537 C71.5740113,44.8858757 71.5853107,44.720904 71.5548023,44.6271186 C71.5189346,44.5361768 71.4377614,44.4708947 71.3412429,44.4553672 L71.3412429,44.4553672 Z M72.2983051,47.4090395 C72.2983051,47.679096 72.4327684,47.7853107 72.5084746,47.8225989 C72.7129944,47.9310734 73.0067797,47.8259887 73.1819209,47.5819209 L73.7740113,47.0666667 C74.0949153,46.8361582 74.4531073,46.5762712 74.7706215,46.1728814 C75.0644068,45.7943503 74.9378531,45.5615819 74.8327684,45.4621469 C74.6316384,45.2655367 74.2180791,45.220339 74.0779661,45.3355932 L73.9073446,45.4519774 C73.519774,45.7039548 72.6022599,46.299435 72.3717514,47.0237288 C72.3262219,47.1472459 72.3014058,47.2774349 72.2983051,47.4090395 L72.2983051,47.4090395 Z M76.1559322,47.1175141 C76.0350282,46.9412429 75.8271186,46.8677966 75.6723164,46.9435028 L75.2553672,47.259887 C74.9615819,47.499435 74.5954802,47.8033898 74.2779661,47.8926554 C73.5073446,48.099435 72.4621469,48.4440678 72.3977401,48.9728814 L72.3966102,49.0418079 C72.3966102,49.1875706 72.4621469,49.2745763 72.5254237,49.3231638 C72.8180791,49.5615819 73.5288136,49.420339 74.0429379,49.2259887 C74.8316384,48.9344633 75.3107345,48.5785311 75.9299435,48.0158192 C76.3107345,47.6689266 76.2937853,47.3220339 76.1559322,47.1175141 L76.1559322,47.1175141 Z M73.159322,53.2079096 L72.9084746,53.179661 C72.259887,53.3525424 71.1525424,55.259887 70.3751412,56.6813559 L70.2361582,56.9276836 L67.9062147,61.300565 L67.1751412,62.6926554 C67.0937853,62.819209 67.1220339,63.0045198 67.2440678,63.1254237 C67.3570621,63.2384181 67.5548023,63.300565 67.7943503,63.1491525 C68.1830508,62.8903955 69.6011299,61.4836158 70.2587571,60.3785311 L71.1344633,59.1706215 C71.6960452,58.4372881 72.3355932,57.6169492 72.7107345,56.639548 L72.8429379,56.3028249 C73.7322034,53.9966102 73.8711864,53.6440678 73.159322,53.2079096 Z M81.920904,44.8022599 C81.7869376,44.7992293 81.6572576,44.8495582 81.5604094,44.942168 C81.4635611,45.0347778 81.4074833,45.1620774 81.4045198,45.2960452 C81.4045198,45.5683616 81.6361582,45.7898305 81.920904,45.7898305 C82.2056497,45.7898305 82.4327684,45.5683616 82.4327684,45.2960452 C82.4306917,45.1625833 82.3755167,45.0354509 82.2794522,44.9427794 C82.1833877,44.8501079 82.0543542,44.7995381 81.920904,44.8022599 L81.920904,44.8022599 Z M81.6757062,46.8621469 C81.6757062,47.1355932 81.9073446,47.3570621 82.1920904,47.3570621 C82.3247451,47.3585682 82.4525485,47.3072345 82.5473047,47.2143861 C82.6420609,47.1215378 82.6959831,46.9948048 82.6971751,46.8621469 C82.694071,46.5861307 82.4681126,46.3647218 82.1920904,46.3672316 C81.9134124,46.3627979 81.6831033,46.5835318 81.6757062,46.8621469 L81.6757062,46.8621469 Z M82.1502825,47.9570621 C81.8282486,47.9570621 81.5615819,48.1706215 81.5615819,48.4259887 C81.5615819,48.6847458 81.8282486,48.8960452 82.1502825,48.8960452 C82.4768362,48.8960452 82.7412465,48.6858757 82.7412465,48.4259887 C82.7423729,48.1706215 82.4768362,47.9570621 82.1502825,47.9570621 Z M82.1265537,49.3265537 C81.7559322,49.3265537 81.459887,49.560452 81.459887,49.8485876 C81.459887,50.1344633 81.7559322,50.3683616 82.1265537,50.3683616 C82.4971751,50.3683616 82.7887006,50.1333333 82.7887006,49.8485876 C82.7887006,49.560452 82.4971751,49.3265537 82.1265537,49.3265537 Z M82.1502825,51.0644068 C81.7423729,51.0644068 81.4045198,51.3073446 81.4045198,51.6135593 C81.4045198,51.9152542 81.7423729,52.1581921 82.1502825,52.1581921 C82.560452,52.1581921 82.8915254,51.9152542 82.8915254,51.6135593 C82.8915254,51.3073446 82.560452,51.0644068 82.1502825,51.0644068 Z M81.8983051,53.9774011 C82.3615819,53.9367232 82.7016949,53.6824859 82.6757062,53.3887006 L82.5299435,53.1220339 C82.3706215,52.9875706 82.0926554,52.919774 81.8101695,52.9457627 C81.3627119,52.9864407 81.0316384,53.2282486 81.0316384,53.5050847 L81.0338983,53.5333333 L81.1841808,53.7988701 C81.3468927,53.9367232 81.6124294,54.0045198 81.8983051,53.9774011 Z M81.8723164,55.8067797 C82.3909605,55.7299435 82.7570621,55.4451977 82.7152542,55.1514124 L82.5627119,54.9073446 C82.3819209,54.7683616 82.0576271,54.7129944 81.7265537,54.7615819 C81.2169492,54.8327684 80.8418079,55.1231638 80.8836158,55.4169492 L81.040678,55.659887 C81.2237288,55.8 81.5412429,55.8531073 81.8723164,55.8067797 L81.8723164,55.8067797 Z M80.9988701,56.6892655 C80.9988701,57.0090395 81.3875706,57.2644068 81.8971751,57.2644068 C82.4045198,57.2644068 82.7887006,57.0090395 82.7887006,56.6892655 C82.7887006,56.3694915 82.4045198,56.1175141 81.8971751,56.1175141 C81.3864407,56.1186441 80.9988701,56.3694915 80.9988701,56.6892655 Z M82.5875706,58.559322 C82.5875706,58.220339 82.1242938,57.9615819 81.5322034,57.9615819 C80.9468927,57.9615819 80.4836158,58.220339 80.4836158,58.559322 C80.4836158,58.8960452 80.9468927,59.159322 81.5322034,59.159322 C82.1242938,59.159322 82.5875706,58.8960452 82.5875706,58.559322 Z M81.9141243,60.1378531 C81.9141243,59.8067797 81.5672316,59.5389831 81.1480226,59.5389831 C80.7220339,59.5389831 80.3751412,59.8067797 80.3751412,60.1378531 C80.3751412,60.4689266 80.7220339,60.7378531 81.1480226,60.7378531 C81.5683616,60.7378531 81.9141243,60.4689266 81.9141243,60.1378531 Z M81.5525424,62.1118644 C81.5525424,61.740113 81.1864407,61.4338983 80.7310734,61.4338983 C80.2813559,61.4338983 79.9163842,61.740113 79.9163842,62.1118644 C79.9163842,62.4870056 80.280226,62.7887006 80.7310734,62.7887006 C81.1864407,62.7887006 81.5525424,62.4870056 81.5525424,62.1118644 Z M80.8858757,64.0327684 C80.8858757,63.6983051 80.5853107,63.4327684 80.219209,63.4327684 C79.8553672,63.4327684 79.5480226,63.6971751 79.5480226,64.0327684 C79.5480226,64.3615819 79.8542373,64.630512 80.219209,64.630512 C80.5853107,64.6316384 80.8858757,64.3615819 80.8858757,64.0327684 Z M79.7310734,65.1694915 C79.3785311,65.1694915 79.0870056,65.4372881 79.0870056,65.7694915 C79.0870056,66.0983051 79.3785311,66.3661017 79.7310734,66.3661017 C80.0824859,66.3661017 80.3706248,66.0971751 80.3706248,65.7694915 C80.3717514,65.4372881 80.0824859,65.1694915 79.7310734,65.1694915 Z M79.1864407,68.0519774 C79.5480226,68.0519774 79.8553672,67.819209 79.8553672,67.5310734 C79.8553672,67.2429379 79.5491525,67.0135593 79.1864407,67.0135593 C78.8225989,67.0135593 78.5242938,67.2440678 78.5242938,67.5310734 C78.5242938,67.8180791 78.8225989,68.0519774 79.1864407,68.0519774 Z M78.5728814,69.3141243 C78.9084746,69.3141243 79.1841808,69.1186441 79.1841808,68.8723164 C79.1841808,68.6271186 78.9129944,68.4327684 78.5728814,68.4327684 C78.2214689,68.4327684 77.9548023,68.6259887 77.9548023,68.8723164 C77.9548023,69.1186441 78.2305085,69.3141243 78.5728814,69.3141243 Z M77.9774011,70.5276836 C78.2971751,70.5276836 78.5683616,70.3299435 78.5683616,70.0847458 C78.5683616,69.8418079 78.2971751,69.6440678 77.9774011,69.6440678 C77.6485876,69.6440678 77.3886969,69.8418079 77.3886969,70.0847458 C77.3875706,70.3299435 77.6485876,70.5276836 77.9774011,70.5276836 Z M60.5559322,69.4531073 L60.6621469,69.4734463 L61.4666667,69.3288136 C62.180791,69.1706215 63.2564972,68.9299435 64.579661,68.8949153 C65.5468927,68.8689266 66.5954802,69.2067797 67.3570621,69.4553672 C68.0485876,69.6858757 68.3932203,69.7853107 68.5242938,69.6429379 C68.6067797,69.5491525 68.5559322,69.4124294 68.5107345,69.3163842 C68.3028249,68.8677966 67.3920904,67.3932203 64.420339,67.3254237 C62.4892655,67.2813559 60.9152542,68.5943503 60.5785311,69.1491525 C60.5118644,69.2621469 60.4937853,69.3457627 60.5276836,69.4079096 L60.5559322,69.4531073 L60.5559322,69.4531073 Z M71.6067797,75.039548 C71.7954802,74.9186441 71.8768362,74.7050847 71.8644068,74.3988701 C71.8011299,73.1966102 71.479096,73.059887 70.8158192,73.059887 C70.1435028,73.059887 69.6576271,73.7344633 69.6576271,74.0847458 C69.6576271,74.4135593 69.899435,74.7016949 70.3683616,74.9367232 C70.6338983,75.0768362 71.2451977,75.2768362 71.6067797,75.039548 Z M80.7242938,89.7367232 C81.6824859,90.1841808 82.019209,90.3435028 82.1627119,90.3875706 C82.1672316,90.3875706 82.1717514,90.4011299 82.1717514,90.4011299 C82.1717514,90.4011299 82.1785311,90.3954802 82.1785311,90.3932203 C82.2451977,90.4135593 82.2666667,90.4056497 82.2824859,90.3830508 C82.2734463,90.3762712 82.2361582,90.319774 82.2158192,90.3039548 C82.2271186,90.2949153 82.2384181,90.2711864 82.2384181,90.2711864 C82.2384181,90.2711864 82.1785311,90.2463277 82.1740113,90.240678 C81.540113,89.440678 77.7231638,84.0135593 76.9107345,80.4418079 C76.7830508,79.8531073 76.6327684,79.3050847 76.2485876,79.0858757 C76.0327684,78.9649718 75.760452,78.9559322 75.4293785,79.0666667 L75.4271186,79.0666667 C75.3502825,79.0892655 75.2949153,79.1525424 75.259887,79.2451977 C75.2270635,79.3457364 75.2128947,79.4514282 75.2180791,79.5570621 C75.2180791,80.8327684 76.5774011,84.3446328 77.0214689,85.0666667 C79.4779661,89.0542373 80.6779661,89.7096045 80.7242938,89.7367232 Z M111.924294,91.2881356 L111.778531,91.3163842 C111.783051,91.3389831 111.815819,92.4045198 111.815819,93.7728814 C111.815819,95.7683616 111.746893,98.4293785 111.40113,99.6248588 C111.120904,100.59322 109.836158,102.447458 108.79887,103.931073 C108.79887,103.931073 107.59209,105.741243 107.59209,105.743503 C107.557628,105.804039 107.540066,105.872724 107.541187,105.942373 C107.541187,106.120904 107.631638,106.289266 107.79096,106.39435 C107.911864,106.477966 108.349153,106.692655 108.958192,105.966102 L109.728814,105.151412 C110.757062,104.125424 112.035028,102.851977 112.935593,100.040678 C113.923164,96.9548023 111.941243,91.3412429 111.924294,91.2881356 L111.924294,91.2881356 Z M79.7785311,101.342373 C79.8711864,101.435028 80.0214689,101.461017 80.1785311,101.40452 C80.425623,101.318987 80.5989054,101.095625 80.620339,100.835028 C80.6576271,100.448588 80.9265537,99.9299435 81.3265537,99.4870056 C81.7597753,98.9945921 81.7258252,98.2476906 81.2497175,97.7966102 L80.7378531,97.5920904 C80.4090395,97.6033898 80.1638418,97.8666667 80.1502825,97.8745763 C79.9787313,98.6956128 79.8111211,99.5174678 79.6474576,100.340113 L79.6474576,100.337853 C79.5988701,100.474576 79.5548023,101.127684 79.7785311,101.342373 L79.7785311,101.342373 Z M96.4225989,110.442938 L96.3966102,110.431638 L96.3706215,110.442938 C96.3502825,110.458757 95.920904,110.658757 95.7988701,111.077966 C95.7152542,111.360452 95.8711864,111.60565 95.9932203,111.80791 L96.1367232,112.076836 L96.1988701,112.613559 L96.2960452,113.40339 C96.3457555,113.57163 96.5051326,113.683194 96.680226,113.672316 C96.8813559,113.665537 97.1152542,113.510734 97.1920904,113.19774 C97.2960452,112.774011 97.3468927,112.2 97.3468927,111.436158 C97.3446328,110.738983 96.4621469,110.451977 96.4225989,110.442938 L96.4225989,110.442938 Z M70.5898305,104.016949 C70.5322034,103.950282 64.4305085,97.3288136 63.1118644,95.5943503 C61.7683616,93.8169492 61.1265537,93.6824859 60.4689266,94.0463277 C60.3705189,94.1025689 60.3059251,94.2034704 60.2960452,94.3163842 C60.2011299,95.0384181 61.7254237,96.7853107 63.059887,98.0677966 C64.9254237,99.8632768 70.4361582,104.083616 70.4926554,104.125424 L70.5898305,104.016949 L70.5898305,104.016949 Z M46.6745763,84.4745763 C45.4384181,83.7073446 43.2983051,83.2813559 43.2768362,83.2723164 L43.220339,83.4022599 L45.5943503,85.1920904 C45.9853107,85.5129944 47.7129944,86.5853107 48.2711864,86.1468927 C48.344535,86.0915538 48.3859471,86.0036587 48.3819209,85.9118644 C48.3638418,85.5898305 47.7649718,85.159322 46.6745763,84.4745763 L46.6745763,84.4745763 Z M46.0949153,74.3446328 L46.2621469,74.2734463 C46.4757062,74.0327684 45.9841808,73.3491525 45.3864407,72.7966102 C44.8474576,72.299435 44.299435,71.9785311 44.0124294,71.9943503 L43.8497175,72.0644068 C43.814834,72.1069066 43.7971005,72.160913 43.8,72.2158192 C43.8,72.5276836 44.2271186,73.079096 44.7231638,73.5423729 C45.2632768,74.039548 45.8158192,74.3627119 46.0949153,74.3446328 Z M52.4384181,73.480226 L52.1954802,73.4949153 C51.7344633,73.6881356 51.0022599,74.859887 50.4180791,76.3435028 C50.0067797,77.3909605 49.6960452,78.5333333 49.6960452,79.2214689 C49.6960452,79.5480226 49.7661017,79.7694915 49.9220339,79.8350282 L50.1615819,79.820339 C50.6225989,79.6237288 51.3525424,78.4497175 51.9435028,76.9706215 C52.3536723,75.920904 52.6610169,74.7785311 52.6610169,74.0892655 C52.6610169,73.7649718 52.5943503,73.5423729 52.4384181,73.480226 L52.4384181,73.480226 Z M41.019209,66.2440678 C40.4237288,66.2440678 39.9491525,66.5265537 39.9491525,66.8836158 C39.9491525,67.2384181 40.4237288,67.5175141 41.019209,67.5175141 C41.6237288,67.5175141 42.0937853,67.2384181 42.0937853,66.8836158 C42.0937853,66.5265537 41.6237288,66.2440678 41.019209,66.2440678 Z M37.2214689,74.1502825 L37.4067797,74.1333333 C37.7288136,73.9751412 38.2158192,73.099435 38.5830508,72.0067797 C38.9717514,70.8440678 39.1841808,69.5954802 38.8079096,69.4621469 L38.6259887,69.4813559 C38.2983051,69.6429379 37.8124294,70.5163842 37.4485876,71.6079096 C37.0531073,72.7717514 36.8531073,74.020339 37.2214689,74.1502825 L37.2214689,74.1502825 Z M38.2158192,80.1649718 C38.5322034,79.7412429 38.5954802,79.2644068 38.360452,79.0858757 L38.0870056,79.0271186 C37.8587571,79.0564972 37.5864407,79.2485876 37.3830508,79.5322034 C37.0666667,79.9559322 37.0033898,80.4316384 37.2372881,80.6067797 L37.5118644,80.6711864 C37.7389831,80.6361582 38.0146893,80.4463277 38.2158192,80.1649718 Z M37.8519774,86.7525424 L37.8259887,86.7367232 L37.7073446,86.7242938 C37.280226,86.8237288 37.580791,88.6836158 37.8011299,89.6621469 C38.1141243,91.0282486 38.5378531,92.1310734 38.8316384,92.3141243 L38.8564972,92.3322034 L38.9728814,92.3446328 C39.4067797,92.2451977 39.099435,90.3762712 38.880226,89.4067797 C38.5694915,88.0327684 38.1502825,86.9367232 37.8519774,86.7525424 L37.8519774,86.7525424 Z M33.5491525,89.2497175 C33.2045198,89.2497175 32.9265537,89.5050847 32.9265537,89.8237288 C32.9265537,90.1265537 33.2045198,90.3819209 33.5491525,90.3819209 C33.8915254,90.3819209 34.1785344,90.1265537 34.1785344,89.8237288 C34.179661,89.5050847 33.8926554,89.2497175 33.5491525,89.2497175 Z M44.120904,102.750282 C43.7241303,102.748383 43.3999254,103.066538 43.3943503,103.463277 C43.3943503,103.847458 43.720904,104.164972 44.120904,104.164972 C44.515902,104.17191 44.8421984,103.858241 44.8508475,103.463277 C44.8452669,103.065206 44.5189956,102.746511 44.120904,102.750282 L44.120904,102.750282 Z M79.859887,121.559322 C79.8824859,121.59435 79.9480226,121.711864 80.0474576,121.700565 L80.0892655,121.698305 L80.1661017,121.583051 L80.8214689,119.585311 L81.3333333,118.254237 L81.7706215,117.241808 C81.9050847,116.901695 81.9050847,116.674576 81.7728814,116.542373 C81.5627119,116.350282 81.1288136,116.514124 81.0757062,116.533333 C81.040678,116.561582 79.8440678,118.559322 79.8440678,118.559322 C79.6101695,118.916384 79.5220339,119.39774 79.5220339,119.892655 C79.5220339,120.59774 79.6983051,121.301695 79.859887,121.559322 L79.859887,121.559322 Z M82.8497175,131.538983 L82.8734463,131.337853 C82.8892655,131.219209 83.2485876,128.440678 82.3943503,127.367232 C82.217984,127.131946 81.9504007,126.982149 81.6576271,126.954802 C81.4011299,126.931073 81.2248588,127.00565 81.1276836,127.167232 C80.6067797,128.019209 82.6508475,131.228249 82.7412429,131.367232 L82.8497175,131.538983 L82.8497175,131.538983 Z M87.6350282,136.824859 C87.4380466,136.822448 87.2482078,136.898548 87.1074341,137.036354 C86.9666605,137.174159 86.8865328,137.362334 86.8847458,137.559322 C86.8847458,137.971751 87.220339,138.291525 87.6350282,138.291525 C88.0400371,138.291525 88.3683616,137.963201 88.3683616,137.558192 C88.3683616,137.153183 88.0400371,136.824859 87.6350282,136.824859 L87.6350282,136.824859 Z M76.3683616,127.875706 C76.0169492,127.875706 75.7175141,128.149153 75.7175141,128.487006 C75.7175141,128.833898 76.0180791,129.100565 76.3683616,129.100565 C76.7276836,129.100565 77.0169492,128.833898 77.0169492,128.487006 C77.0169492,128.149153 76.7276836,127.875706 76.3683616,127.875706 Z M84.5785311,138.711864 L84.499435,138.693785 C84.1107345,138.693785 82.639548,139.980791 81.3853107,141.264407 C81.2745763,141.381921 78.5514124,144.175141 78.9118644,144.538983 L78.9322034,144.561582 L79.020339,144.579661 C79.4135593,144.579661 80.8824859,143.288136 82.1299435,142.011299 C82.2474576,141.892655 84.9751412,139.109605 84.6033898,138.732203 L84.5785311,138.711864 L84.5785311,138.711864 Z M76.4011299,146.263277 C76.1740113,146.263277 75.8180791,146.475706 75.500565,146.79322 C75.120904,147.172881 74.8451977,147.698305 75.0485876,147.914124 L75.0621469,147.927684 L75.0485876,147.914124 L75.2497175,147.986441 C75.4813559,147.986441 75.8384181,147.778531 76.1548023,147.454237 C76.5254237,147.070056 76.8101695,146.555932 76.5988701,146.337853 L76.4011299,146.263277 L76.4011299,146.263277 Z M72.8135593,151.432768 C72.5344633,151.432768 72.140113,151.662147 71.7954802,152.011299 C71.4350282,152.372881 71.2282486,152.772881 71.2282486,153.050847 C71.2282486,153.157062 71.2564972,153.242938 71.3231638,153.302825 L71.5774011,153.4 C71.8519774,153.4 72.2576271,153.177401 72.5954802,152.825989 C73.0960452,152.314124 73.2971751,151.766102 73.0700565,151.528814 L72.8135593,151.432768 Z M54.0576271,125.39548 C53.519774,125.39548 53.0824859,125.701695 53.0824859,126.088136 C53.0824859,126.472316 53.520904,126.768362 54.0576271,126.768362 C54.6,126.768362 55.0327706,126.472316 55.0327706,126.088136 C55.0338983,125.701695 54.6,125.39548 54.0576271,125.39548 Z M62.0011299,125.951412 C61.619209,125.951412 61.3220339,126.157062 61.3220339,126.428249 C61.3220339,126.682486 61.619209,126.891525 62.0011299,126.891525 C62.3694915,126.891525 62.6745763,126.681356 62.6745763,126.428249 C62.6745763,126.162712 62.3694915,125.951412 62.0011299,125.951412 Z M71.6960452,129.19548 L71.7548023,129.105085 C71.8644068,128.648588 69.5774011,127.935593 68.3548023,127.625989 C66.8870056,127.250847 65.1423729,126.950282 64.7570621,127.181921 L64.7299435,127.2 L64.6677966,127.294915 C64.5570621,127.755932 66.8429379,128.459887 68.0677966,128.779661 C69.5344633,129.148023 71.279096,129.439548 71.6700565,129.210169 L71.6960452,129.19548 Z"/>
  </g>
</svg>
