<svg xmlns="http://www.w3.org/2000/svg" xmlns:xlink="http://www.w3.org/1999/xlink" width="200" height="200" viewBox="0 0 200 200">
  <defs>
    <path id="fiat-a" d="M184.799203,107.20976 C184.833074,106.870379 184.873317,106.550448 184.910542,106.209054 C186.00649,95.2925004 186.509191,98.2137985 184.799203,107.20976 Z M21.5334799,153.014213 C21.5334799,153.014213 30.2212483,161.026572 36.4243538,166.929532 C36.4246891,166.929532 28.1520932,162.29221 21.5334799,153.014213 Z M19.2215261,46.6864721 C24.1405482,36.7639179 28.9807613,30.3066115 28.9807613,30.3066115 C28.9807613,30.3066115 24.3682559,37.2642711 19.2215261,46.6864721 Z M180.359742,142.05138 L178.742984,146.762145 L193.180455,141.629836 L179.212485,148.78871 L193.398102,157.206851 L177.808008,150.814939 L180.303067,166.404027 L175.241518,151.345139 L171.573044,152.381394 C163.87961,163.819428 153.309481,169.543643 140.009542,175.923482 C115.286996,187.785743 82.3357855,184.640091 82.3357855,184.640091 C82.3357855,184.640091 121.236907,184.145104 150.993502,166.506982 C157.139597,162.86433 162.263187,157.812842 166.51619,152.104053 L160.094096,151.749916 L167.454855,150.810915 C168.148754,149.833657 168.818663,148.839585 169.463981,147.829588 L160.91874,142.893127 L170.137714,146.763487 C171.085164,145.228931 171.98568,143.665889 172.838012,142.076532 L169.192677,130.664991 L173.501013,140.821289 C179.886888,128.471083 183.250523,115.350896 184.799203,107.20976 C183.012084,124.251281 179.89326,136.398932 175.485994,145.510927 L175.808272,146.267493 C175.808272,146.267493 191.938627,125.184245 189.045163,90.605881 C186.150358,56.0275166 177.877762,43.7987097 169.603825,35.3651422 L169.192006,39.582932 C169.192006,39.582932 157.19862,3.73792283 97.6388136,4.58302343 C38.078001,5.42745332 33.5285428,24.8218415 33.5285428,24.8218415 L30.2199069,26.5120427 C30.2199069,26.5120427 16.1580364,37.4721926 7.47194488,66.5701467 C-1.2148174,95.6660885 7.05777852,119.280279 7.05777852,119.280279 C7.05777852,119.280279 2.50865562,99.8832076 5.81762692,80.0645924 C7.53197385,69.7939372 13.6851111,56.8159418 19.2211908,46.6868074 C15.1576654,54.8799237 11.0377999,65.435968 9.54042922,76.6912325 C6.22978114,101.570726 7.05777852,118.437525 11.1934058,131.086871 C15.329033,143.736216 17.8116837,149.21998 17.8116837,149.21998 C17.8116837,149.21998 0.440842002,128.977808 0.0270109922,85.9672177 C-0.386820018,42.9546151 36.0098521,13.4381351 52.1402068,7.11228881 C68.2712323,0.78744858 119.144947,-7.64477744 149.751003,13.8586733 C180.359407,35.3648069 178.290252,40.8452172 188.216495,60.667186 C198.146427,80.4858012 194.008788,120.545247 180.359742,142.05138 L180.359742,142.05138 Z M173.115688,149.938986 C173.082487,149.993984 173.052305,150.048983 173.018434,150.101299 L173.327633,150.062397 L173.115688,149.938986 Z M174.537267,147.40033 C174.363217,147.729987 174.189167,148.066686 174.011092,148.388964 L174.983293,148.7981 L174.537267,147.40033 Z M28.9807613,149.219644 C31.4610645,153.436763 44.2827833,161.026907 44.2827833,161.026907 C44.2827833,161.026907 37.2506744,156.808446 29.3935863,147.531791 C21.5334799,138.255805 32.2890619,148.37555 46.7657694,158.075091 C61.2411354,167.772621 81.5077881,166.928862 81.5077881,166.928862 C81.5077881,166.928862 74.8915223,171.98974 49.6605743,163.976711 L74.063525,174.519341 C74.063525,174.519341 36.8398616,166.507317 26.0852857,151.327365 C15.3293684,136.147414 26.4974399,145.002525 28.9807613,149.219644 L28.9807613,149.219644 Z M153.483866,150.553025 C158.04741,145.813755 161.334247,141.629836 161.334247,141.629836 C161.334247,141.629836 159.989464,145.892564 153.483866,150.553025 L153.483866,150.553025 Z M12.0217385,88.496483 C16.5711967,43.7983743 35.5980332,24.8215061 35.5980332,24.8215061 C35.5980332,24.8215061 50.0733993,10.4853134 95.1568336,8.37759222 C140.238591,6.26953571 154.717646,23.9790884 155.959139,26.930904 C157.199291,29.8827197 150.16584,25.2453978 148.098362,26.089157 C146.030884,26.930904 154.717646,42.5344123 154.717646,42.5344123 C150.167182,25.6669421 157.199291,45.0640131 161.747408,42.9546151 C166.297872,40.8482354 152.648156,35.3651422 157.199291,31.1480231 C161.747408,26.930904 171.257472,56.8706051 177.465273,70.3650508 C183.669049,83.8581551 181.600229,97.7738097 181.188075,106.629592 C180.775921,115.485374 178.70643,119.280279 178.70643,119.280279 L177.465608,98.1943478 C177.465608,98.1943478 178.294276,95.2445443 171.673986,110.004293 L166.298207,124.340486 C162.576076,58.5571174 147.683525,33.6762824 147.683525,33.6762824 C147.683525,33.6762824 142.307746,17.2330393 98.8786298,16.8101536 C55.4511902,16.3912922 49.2457372,27.77634 49.2457372,27.77634 C35.1842022,46.3296518 26.9116063,85.967553 28.981432,112.110338 C31.0485749,138.255135 28.981432,145.425411 47.5924253,153.437099 C66.2047601,161.447781 94.3291716,162.292881 94.3291716,162.292881 C128.110727,163.242613 145.093895,156.566989 153.484537,150.553696 C152.402999,151.679317 151.296606,152.78079 150.166176,153.857302 C143.9624,159.759927 86.4704067,171.990411 56.2781815,160.183483 C26.0852857,148.37622 24.0171367,136.991508 26.0852857,102.412808 C28.1541054,67.834444 38.9076752,39.1613878 46.3522737,28.1965428 C53.7968723,17.2330393 80.2683073,13.8590086 80.2683073,13.8590086 C44.2837894,14.7034385 40.1481622,33.6762824 38.0796778,37.0533313 C36.0111935,40.4266912 29.8070819,47.1744171 28.566595,41.6906532 C27.3264434,36.2095721 16.2056572,69.7295486 18.2741415,71.4170669 C20.3412844,73.1039145 33.1160532,54.3396629 33.1160532,54.3396629 C33.1160532,54.3396629 28.566595,63.618331 24.0171367,89.7617864 C19.4673431,115.905242 26.4977753,128.977473 21.948317,129.821232 C17.3988588,130.664991 27.6061314,91.2437307 14.5758203,89.4904823 C10.8630787,88.9901291 13.944007,124.355913 15.6003371,131.524177 C17.253649,138.694117 19.0548535,140.786412 19.0548535,140.786412 C19.0548535,140.786412 7.4726156,133.194256 12.0217385,88.496483"/>
    <linearGradient id="fiat-b" x1=".775%" x2="49.364%" y1="5.384%" y2="49.747%">
      <stop offset="0%" stop-color="#8C8C8C"/>
      <stop offset="50%" stop-color="#464646"/>
      <stop offset="75%" stop-color="#FFF"/>
      <stop offset="100%" stop-color="#FFF"/>
    </linearGradient>
    <radialGradient id="fiat-d" cx="50%" cy="49.994%" r="50.515%" fx="50%" fy="49.994%" gradientTransform="matrix(1 0 0 .93495 0 .033)">
      <stop offset="0%" stop-color="#E60A47"/>
      <stop offset="100%" stop-color="#7C0626"/>
    </radialGradient>
    <radialGradient id="fiat-e" cx="50%" cy="58.411%" r="93.773%" fx="50%" fy="58.411%" gradientTransform="matrix(.73071 0 0 .7986 .135 .118)">
      <stop offset="0%" stop-color="#FFF"/>
      <stop offset="50%" stop-color="#E3E3E3"/>
      <stop offset="100%" stop-color="#D3D3D3"/>
    </radialGradient>
  </defs>
  <g fill="none" fill-rule="evenodd">
    <path fill="#231F20" fill-rule="nonzero" d="M199.939007,99.9776361 C199.939007,155.186061 155.184706,199.939007 99.9789915,199.939007 C44.7725994,199.939007 0.0189754607,155.186061 0.0189754607,99.9776361 C0.0189754607,44.7732771 44.7725994,0.0189754607 99.9789915,0.0189754607 C155.184706,0.0189754607 199.939007,44.7732771 199.939007,99.9776361"/>
    <path fill="#BDBCBC" fill-rule="nonzero" d="M196.431258,99.9776361 C196.431258,153.249886 153.247853,196.431936 99.9783138,196.431936 C46.7080964,196.431936 3.52401412,153.249886 3.52401412,99.9776361 C3.52401412,46.7094518 46.7087741,3.52604721 99.9789915,3.52604721 C153.248531,3.52604721 196.431258,46.7094518 196.431258,99.9776361"/>
    <path fill="#231F20" fill-rule="nonzero" d="M22.4045975,51.397746 C22.4045975,51.477714 11.7031154,53.1055374 11.7139502,53.1563646 C11.766141,53.422021 11.159604,108.206887 20.9326439,105.450023 C27.3673581,102.422082 23.9050143,66.7244966 23.9050143,71.5259659 C23.9050143,78.2182042 24.5549238,89.1948305 27.1227102,106.434714 C30.016468,125.853387 28.7966169,128.273436 30.1459077,132.455492 C27.0068244,129.40722 22.123354,128.035565 22.123354,128.035565 L29.0480418,151.441118 L34.1476969,151.388936 C34.1476969,151.388936 34.2208879,149.816683 34.2879797,149.742137 C34.4255518,149.740782 39.3252868,150.104704 42.691398,156.265629 C62.1710638,191.917131 113.456312,178.208039 100.031174,178.981289 L121.163738,176.437222 C59.2712068,187.025529 47.6609356,158.488469 44.5489601,152.791087 C42.5992315,149.933925 36.994016,146.940546 33.4700018,148.644949 C33.4700018,148.644949 42.0713071,148.98854 41.6890871,146.708096 C44.3768255,149.318578 35.0056588,142.483346 35.0056588,142.483346 L35.4773345,143.965465 C36.9309903,144.112524 36.2763369,142.542983 37.80725,142.286814 L35.9069931,141.416654 C35.6637006,141.118468 36.962842,139.567224 32.3226642,108.427138 C29.7731755,91.3173714 30.287546,77.9972757 30.287546,71.3687406 C30.287546,64.9469026 29.8680528,64.4928469 29.8802513,64.4454083 L26.1088785,61.9819869 L25.3857779,61.8356047 C24.3461937,61.6241639 23.3160973,61.2914156 22.8694963,61.044057 C23.101268,60.6991102 23.2347739,60.239633 23.2347739,59.4812922 C23.2347739,58.7473485 23.1561613,57.7911208 23.0538293,56.5563605 C22.918968,54.90414 22.9853821,48.9851517 22.7569989,50.9626658 C10.739433,155.25993 27.3748128,39.2886913 25.3315623,41.5169525 L26.5005862,40.1927365 C32.1613727,33.658401 51.9365135,18.3980645 102.961527,17.2053213 C156.920283,15.9407423 157.164931,35.6501467 157.349941,35.9381671 L171.327401,42.8614995 C171.143746,42.5653467 152.987619,12.4329929 98.1905543,13.7158696 C46.5522266,14.9248775 31.2234428,32.6133953 25.4528697,39.273782 L24.3116313,40.5695349 C21.9396987,43.1569745 19.2167201,43.1806938 19.2167201,46.9927283 C19.2167201,49.0285242 16.9349209,51.739982 17.0738484,53.4233764 C23.7355905,65.1251364 21.4361713,59.3410094 22.4045975,51.397746 Z M169.961846,46.3807697 C168.784012,46.8863302 168.962246,48.7960748 169.207571,51.43773 C169.387838,53.406434 169.59589,55.6380837 169.207571,57.1961046 L170.554829,57.5356298 C171.000752,55.7471926 170.779824,53.3894917 170.588714,51.3082902 C170.467406,49.9854296 170.279685,47.9835185 170.561606,47.6284063 C170.595491,47.6738118 170.984488,62.5329529 174.046991,66.0752648 C178.91623,71.712332 176.488049,68.4688836 176.488049,78.292073 C176.488049,83.1342039 180.110329,88.7780481 179.96598,90.7542068 C178.161956,88.4696969 177.64894,82.5934033 177.189463,77.3222914 C176.652051,71.1844076 176.192574,65.8855102 174.010396,64.1248585 C176.700167,61.7658022 167.352042,49.4053226 167.990431,57.7755339 C168.429577,60.7031764 166.997608,51.2018921 164.918439,47.9672538 C158.550817,38.0559641 145.356773,26.4755115 99.5107042,24.8836059 C57.4834473,23.4245285 36.6544907,40.6745776 31.3007001,45.9368795 L31.9960152,44.7366816 L25.1668824,41.2167336 L23.2347739,61.6627925 L26.1576725,57.0497225 C26.1576725,57.0497225 30.8757853,48.4938228 30.9625302,48.2932251 C31.6991847,47.4250978 51.613253,24.6186271 99.4612325,26.2803353 C150.46456,28.0504747 159.77609,42.5389166 163.754159,48.7255945 C165.669325,51.708808 166.172175,55.0423898 166.618776,57.9835862 C167.201594,61.857291 167.758659,65.514811 172.108106,64.9299602 C172.507946,64.8777777 172.83595,64.9672334 173.141591,65.2145921 C174.864969,66.6031892 175.341389,72.1142052 175.807643,77.4422434 C176.417569,84.4923048 177.001742,91.1499807 180.240446,92.7818703 L181.143136,93.2372814 L181.240046,92.2241273 C181.362031,90.9304075 184.154813,60.4558177 175.525722,50.4645599 C172.127759,46.5305403 170.876056,45.9863512 169.961846,46.3807697 L169.961846,46.3807697 Z M188.408704,71.641174 C187.534964,67.5891614 186.223847,63.6439952 184.498404,59.875033 C185.478351,62.1337906 187.044504,66.1599767 188.408704,71.641174 L188.408704,71.641174 Z M184.499082,59.875033 C184.303389,59.4180538 184.100052,58.9643862 183.889156,58.5142214 C184.113473,58.9696325 184.294418,59.4202997 184.499082,59.875033 L184.499082,59.875033 Z M180.153024,49.7855095 C191.555242,60.7804336 189.509281,89.1507804 189.509281,89.1507804 L183.963025,82.7065784 L183.963025,110.195244 L180.123205,117.925033 C173.29475,154.434497 157.083607,186.64873 93.5110701,184.930096 C29.9405661,183.212139 20.1288976,149.280627 14.155016,117.067071 C8.18181202,84.8541939 16.7146701,49.6337058 16.7146701,49.6337058 C-2.05883748,105.469677 20.1288976,147.561992 20.1288976,147.561992 C20.1288976,147.561992 30.7937842,187.077034 96.4990275,186.64873 C162.200882,186.219749 172.442887,149.710285 172.442887,149.710285 L173.636986,158.925582 C173.636986,158.925582 188.898678,144.964387 193.59036,115.757087 C195.968392,100.971137 186.779525,56.1741405 180.153024,49.7855095 L180.153024,49.7855095 Z M183.888479,58.5142214 C183.66755,58.0500003 183.532689,57.7945093 183.532689,57.7945093 C183.657385,58.0357687 183.771237,58.2756728 183.888479,58.5142214"/>
    <g transform="matrix(1 0 0 -1 3.349 192.184)">
      <mask id="fiat-c" fill="#fff">
        <use xlink:href="#fiat-a"/>
      </mask>
      <path fill="url(#fiat-b)" fill-rule="nonzero" d="M21.5334799,153.014213 C21.5334799,153.014213 30.2212483,161.026572 36.4243538,166.929532 C36.4246891,166.929532 28.1520932,162.29221 21.5334799,153.014213 Z M19.2215261,46.6864721 C24.1405482,36.7639179 28.9807613,30.3066115 28.9807613,30.3066115 C28.9807613,30.3066115 24.3682559,37.2642711 19.2215261,46.6864721 Z M180.359742,142.05138 L178.742984,146.762145 L193.180455,141.629836 L179.212485,148.78871 L193.398102,157.206851 L177.808008,150.814939 L180.303067,166.404027 L175.241518,151.345139 L171.573044,152.381394 C163.87961,163.819428 153.309481,169.543643 140.009542,175.923482 C115.286996,187.785743 82.3357855,184.640091 82.3357855,184.640091 C82.3357855,184.640091 121.236907,184.145104 150.993502,166.506982 C157.139597,162.86433 162.263187,157.812842 166.51619,152.104053 L160.094096,151.749916 L167.454855,150.810915 C168.148754,149.833657 168.818663,148.839585 169.463981,147.829588 L160.91874,142.893127 L170.137714,146.763487 C171.085164,145.228931 171.98568,143.665889 172.838012,142.076532 L169.192677,130.664991 L173.501013,140.821289 C179.886888,128.471083 183.250523,115.350896 184.799203,107.20976 C183.012084,124.251281 179.89326,136.398932 175.485994,145.510927 L175.808272,146.267493 C175.808272,146.267493 191.938627,125.184245 189.045163,90.605881 C186.150358,56.0275166 177.877762,43.7987097 169.603825,35.3651422 L169.192006,39.582932 C169.192006,39.582932 157.19862,3.73792283 97.6388136,4.58302343 C38.078001,5.42745332 33.5285428,24.8218415 33.5285428,24.8218415 L30.2199069,26.5120427 C30.2199069,26.5120427 16.1580364,37.4721926 7.47194488,66.5701467 C-1.2148174,95.6660885 7.05777852,119.280279 7.05777852,119.280279 C7.05777852,119.280279 2.50865562,99.8832076 5.81762692,80.0645924 C7.53197385,69.7939372 13.6851111,56.8159418 19.2211908,46.6868074 C15.1576654,54.8799237 11.0377999,65.435968 9.54042922,76.6912325 C6.22978114,101.570726 7.05777852,118.437525 11.1934058,131.086871 C15.329033,143.736216 17.8116837,149.21998 17.8116837,149.21998 C17.8116837,149.21998 0.440842002,128.977808 0.0270109922,85.9672177 C-0.386820018,42.9546151 36.0098521,13.4381351 52.1402068,7.11228881 C68.2712323,0.78744858 119.144947,-7.64477744 149.751003,13.8586733 C180.359407,35.3648069 178.290252,40.8452172 188.216495,60.667186 C198.146427,80.4858012 194.008788,120.545247 180.359742,142.05138 L180.359742,142.05138 Z M173.115688,149.938986 C173.082487,149.993984 173.052305,150.048983 173.018434,150.101299 L173.327633,150.062397 L173.115688,149.938986 Z M174.537267,147.40033 C174.363217,147.729987 174.189167,148.066686 174.011092,148.388964 L174.983293,148.7981 L174.537267,147.40033 Z M28.9807613,149.219644 C31.4610645,153.436763 44.2827833,161.026907 44.2827833,161.026907 C44.2827833,161.026907 37.2506744,156.808446 29.3935863,147.531791 C21.5334799,138.255805 32.2890619,148.37555 46.7657694,158.075091 C61.2411354,167.772621 81.5077881,166.928862 81.5077881,166.928862 C81.5077881,166.928862 74.8915223,171.98974 49.6605743,163.976711 L74.063525,174.519341 C74.063525,174.519341 36.8398616,166.507317 26.0852857,151.327365 C15.3293684,136.147414 26.4974399,145.002525 28.9807613,149.219644 L28.9807613,149.219644 Z M153.483866,150.553025 C158.04741,145.813755 161.334247,141.629836 161.334247,141.629836 C161.334247,141.629836 159.989464,145.892564 153.483866,150.553025 L153.483866,150.553025 Z M12.0217385,88.496483 C16.5711967,43.7983743 35.5980332,24.8215061 35.5980332,24.8215061 C35.5980332,24.8215061 50.0733993,10.4853134 95.1568336,8.37759222 C140.238591,6.26953571 154.717646,23.9790884 155.959139,26.930904 C157.199291,29.8827197 150.16584,25.2453978 148.098362,26.089157 C146.030884,26.930904 154.717646,42.5344123 154.717646,42.5344123 C150.167182,25.6669421 157.199291,45.0640131 161.747408,42.9546151 C166.297872,40.8482354 152.648156,35.3651422 157.199291,31.1480231 C161.747408,26.930904 171.257472,56.8706051 177.465273,70.3650508 C183.669049,83.8581551 181.600229,97.7738097 181.188075,106.629592 C180.775921,115.485374 178.70643,119.280279 178.70643,119.280279 L177.465608,98.1943478 C177.465608,98.1943478 178.294276,95.2445443 171.673986,110.004293 L166.298207,124.340486 C162.576076,58.5571174 147.683525,33.6762824 147.683525,33.6762824 C147.683525,33.6762824 142.307746,17.2330393 98.8786298,16.8101536 C55.4511902,16.3912922 49.2457372,27.77634 49.2457372,27.77634 C35.1842022,46.3296518 26.9116063,85.967553 28.981432,112.110338 C31.0485749,138.255135 28.981432,145.425411 47.5924253,153.437099 C66.2047601,161.447781 94.3291716,162.292881 94.3291716,162.292881 C128.110727,163.242613 145.093895,156.566989 153.484537,150.553696 C152.402999,151.679317 151.296606,152.78079 150.166176,153.857302 C143.9624,159.759927 86.4704067,171.990411 56.2781815,160.183483 C26.0852857,148.37622 24.0171367,136.991508 26.0852857,102.412808 C28.1541054,67.834444 38.9076752,39.1613878 46.3522737,28.1965428 C53.7968723,17.2330393 80.2683073,13.8590086 80.2683073,13.8590086 C44.2837894,14.7034385 40.1481622,33.6762824 38.0796778,37.0533313 C36.0111935,40.4266912 29.8070819,47.1744171 28.566595,41.6906532 C27.3264434,36.2095721 16.2056572,69.7295486 18.2741415,71.4170669 C20.3412844,73.1039145 33.1160532,54.3396629 33.1160532,54.3396629 C33.1160532,54.3396629 28.566595,63.618331 24.0171367,89.7617864 C19.4673431,115.905242 26.4971045,128.977473 21.9473109,129.821232 C17.3975173,130.664991 27.6061314,91.2437307 14.5758203,89.4904823 C10.8630787,88.9901291 13.944007,124.355913 15.6003371,131.524177 C17.253649,138.694117 19.0548535,140.786412 19.0548535,140.786412 C19.0548535,140.786412 7.4726156,133.194256 12.0217385,88.496483" mask="url(#fiat-c)"/>
    </g>
    <path fill="url(#fiat-d)" fill-rule="nonzero" stroke="#6D0115" stroke-width="16.949" d="M106.119586,172.598757 C106.190066,172.595369 116.484931,172.090486 125.464391,170.066888 C133.267371,168.310303 140.172406,164.953002 140.241531,164.919795 L140.266605,164.906241 L140.294391,164.893365 C140.333019,164.8771 144.180294,163.21607 146.546805,160.954601 C148.945845,158.660604 150.036257,155.65977 150.0471,155.629951 C150.095894,155.499834 154.296248,144.30499 157.472604,132.347061 C160.396181,121.343327 162.40148,109.178024 162.422489,109.056716 C162.453663,108.89678 164.875745,96.6047479 165.55615,83.5299778 C166.128125,72.541153 164.992308,60.0647876 164.978754,59.9394141 C164.971977,59.8452145 164.387127,52.4569833 161.422211,47.6256955 C158.757514,43.2850589 153.613131,41.1530303 153.560949,41.1313441 L153.516221,41.113724 L153.472848,41.0906824 C153.413211,41.0608638 147.440007,38.0681626 136.108269,35.6027081 C127.070528,33.6367148 114.508773,32.2332084 104.106832,32.0305776 C92.2153173,31.7967728 79.4488984,32.6262715 69.9611681,34.2479957 C58.5819909,36.1929804 51.1890159,39.082672 51.1144695,39.1118129 L51.0527992,39.1348545 L50.9890959,39.1517969 C50.9152271,39.1714501 43.5419053,41.1930143 39.6661674,46.1144356 C35.7280816,51.1137918 35.0903706,59.3267778 35.0842714,59.4094566 L35.0795275,59.459606 C35.0680067,59.5436402 34.2425742,66.6269086 34.2425742,75.3081818 C34.2425742,76.8641696 34.2683266,78.4716622 34.3320299,80.1001633 C34.7759201,91.6629958 36.7974844,104.478209 36.8171376,104.606293 C36.8408569,104.733022 39.5794225,119.777852 42.7029188,132.457525 C45.0165696,141.857155 48.0296017,150.173151 48.060098,150.255152 L48.0797512,150.314789 L48.0953381,150.375782 C48.106859,150.417799 49.1335669,154.637128 50.8034075,157.581713 C52.257741,160.1434 54.3985796,161.649916 54.4209435,161.662793 L54.4561836,161.68719 L54.4907461,161.715653 C54.5063331,161.727174 55.9633774,162.903652 58.1997709,164.129602 C60.775012,165.539208 64.2258351,167.051823 64.3722172,167.112816 C64.6155097,167.208371 72.2226364,170.120426 82.2511673,171.443965 C92.7242662,172.826463 105.98608,172.60079 106.119586,172.598757 L106.119586,172.598757 Z"/>
    <path fill="#6D0115" fill-rule="nonzero" d="M60.670647,164.541641 C60.2165913,164.333589 59.9692326,164.213637 59.9692326,164.213637 C59.9434802,164.202116 59.8140405,164.145867 59.6046327,164.049634 L59.5287309,163.598967 C57.7328391,153.696488 54.9915627,135.604063 54.0949722,113.54238 C52.9862631,87.5988588 53.0289579,55.8027636 53.1340006,40.4014665 L53.1340006,39.2873359 C53.4369303,39.1856817 53.7507031,39.082672 54.0746413,38.9789847 L54.0793852,40.0951484 C53.9729871,55.3649727 53.9221599,87.4023272 55.037646,113.503751 C55.9491458,135.950366 58.7737786,154.26914 60.559505,164.001518 L60.670647,164.541641 L60.670647,164.541641 Z"/>
    <path fill="#6D0115" fill-rule="nonzero" d="M63.6355627,165.811641 C63.2723182,165.664582 62.9307599,165.522943 62.6135986,165.390115 L62.5254983,164.695478 C61.2175469,155.369717 58.9032184,136.35766 57.8033194,112.037219 C56.6349731,86.1831539 56.8457363,53.6856444 57.0287139,38.9118929 L57.030747,38.0817165 C57.3377429,37.9936161 57.6521934,37.9055158 57.9727431,37.8167377 L57.9747762,38.7329814 C57.7917985,53.4050786 57.5749361,86.051681 58.7459931,111.996557 C59.8709669,136.867287 62.2672965,156.170752 63.5528839,165.217981 L63.6355627,165.811641 L63.6355627,165.811641 Z M85.811777,34.0778943 C86.0489702,62.717286 86.7334422,145.332376 86.9333622,169.264498 L86.95166,171.286062 C86.6453419,171.253532 86.3315691,171.218292 86.0144078,171.181697 L85.9906885,169.261109 C85.7914461,145.346607 85.1076519,62.9456692 84.8697809,34.2032678 L84.8460616,33.3656368 C85.1632228,33.338529 85.4810618,33.3120989 85.7982231,33.2877019 L85.811777,34.0778943 Z M98.0895777,33.7058397 L98.5368564,169.945581 L98.5436334,171.856681 C98.2129182,171.860747 97.895757,171.864813 97.593505,171.864813 L97.593505,169.696189 C97.4986277,141.263495 97.2255166,58.035091 97.1448709,33.3961331 L97.140127,32.7550336 L98.0617922,32.7441905 L98.0895777,33.7058397 Z M102.803624,33.8305356 L102.127962,169.947614 L102.126607,171.790945 C101.79928,171.799755 101.482797,171.807209 101.168346,171.813986 L101.1819,170.318991 C101.300497,146.140866 101.720668,61.4743933 101.859595,33.6462025 L101.837231,32.7475789 C102.165913,32.7509674 102.49324,32.7543559 102.819889,32.7597774 L102.803624,33.8305356 Z M115.547002,169.458318 C116.223341,158.257375 117.502152,134.511619 118.027365,107.642367 C118.562744,80.2580663 118.325551,49.0935829 118.158838,34.4574035 L118.1053,33.5154074 C118.48752,33.5492921 118.866352,33.5831769 119.243828,33.618417 L119.29601,34.8247142 C119.459335,49.6228627 119.690429,80.5000034 119.160471,107.663375 C118.638646,134.308988 117.378133,157.887354 116.69705,169.220447 L116.597429,170.839461 C116.200977,170.886899 115.857386,170.932305 115.454157,170.975 L115.547002,169.458318 Z M147.752424,158.356318 C147.305747,158.962037 146.809308,159.529429 146.268272,160.052589 L146.720973,157.649483 C148.69171,147.440685 151.239843,131.649035 152.511877,113.105944 C154.023137,91.0618803 154.216957,60.9200388 154.185783,43.7926524 L154.206114,42.1519528 C154.573425,42.3552613 154.946157,42.5707683 155.317534,42.80254 L155.320245,44.9894618 C155.341931,62.3140574 155.12168,91.6121687 153.643627,113.182524 C152.394635,131.38609 149.918338,146.952067 147.958444,157.212369 L147.752424,158.356318 Z M158.646372,121.376534 C159.548462,114.283744 160.244972,107.166319 160.735028,100.033207 C161.874911,83.2216266 161.904052,64.1763634 161.759025,52.0551102 L161.734628,50.0321905 C162.194184,51.0690325 162.584047,52.1353821 162.901619,53.2241341 L162.923983,55.1040601 C163.025637,67.2402226 162.916528,84.6197114 161.866779,100.108431 C161.651269,103.289302 161.392366,106.467084 161.09014,109.640889 L160.743838,113.047662 C159.90624,117.255262 159.018623,121.45275 158.081174,125.639236 L158.646372,121.376534 L158.646372,121.376534 Z"/>
    <path fill="#6D0115" fill-rule="nonzero" d="M143.74047,162.042302 C143.381292,162.286272 142.952311,162.564127 142.467759,162.856213 L142.812028,160.92275 C144.700764,150.523519 147.641282,131.649035 148.79743,109.716114 C150.06472,85.6220224 150.069464,56.981953 149.963066,42.3193434 L149.919015,40.2435636 C150.242276,40.3574164 150.623818,40.4976992 151.046022,40.6664453 L151.098882,42.6005869 C151.20257,57.3607845 151.190371,85.811777 149.928503,109.773718 C148.804885,131.103491 145.995839,149.552382 144.098971,160.163053 L143.739792,162.041624 L143.74047,162.042302 Z M129.830102,166.810564 C130.723304,157.12088 132.361293,137.063141 133.148097,112.865362 C134.031133,85.700635 134.034522,53.5094437 133.969463,37.9597314 L133.935578,35.7477348 C134.329319,35.8290582 134.718316,35.9103816 135.099858,35.9930604 L135.103925,38.133899 C135.168983,53.7601908 135.161529,85.8239755 134.281203,112.901958 C133.49982,136.9398 131.878774,156.901307 130.980828,166.690612 L130.86562,167.879967 C130.491532,167.990431 130.116767,168.104284 129.699984,168.22017 L129.830102,166.810564 L129.830102,166.810564 Z M125.916413,167.725452 C126.897038,159.496879 128.503853,143.547327 129.167316,122.803082 C130.133709,92.6205789 130.014435,54.5571602 129.888384,36.9425111 L129.86602,34.9832948 C130.241463,35.0469981 130.612162,35.1113792 130.97744,35.178471 L131.020134,37.2264653 C131.146186,54.9739426 131.260038,92.8042342 130.297034,122.839678 C129.643736,143.264728 128.077583,159.055022 127.088825,167.429977 L126.905848,168.946659 C126.529727,169.038147 126.127176,169.139802 125.730047,169.231291 L125.916413,167.725452 L125.916413,167.725452 Z M122.74209,168.392304 C123.509918,159.692733 124.833456,142.460304 125.45558,121.495808 C126.324386,92.1970195 126.100068,55.0966054 125.890661,35.7538341 L125.868297,34.3713362 C126.254583,34.422841 126.636125,34.4770566 127.011568,34.5319499 L127.031899,36.3813797 C127.237918,55.9030625 127.448004,92.5318008 126.588009,121.52766 C125.97605,142.168217 124.683686,159.197338 123.911791,168.04939 L123.770831,169.65485 C123.380478,169.735496 123.013168,169.81072 122.609261,169.887977 L122.74209,168.392982 L122.74209,168.392304 Z M119.059495,169.132347 C119.710082,158.969632 120.939421,137.73677 121.476155,114.961473 C122.191124,84.6861255 122.225008,50.9138717 122.193834,35.1046022 L122.161983,33.9145698 C122.545558,33.9579422 122.926423,34.000637 123.305932,34.0446872 L123.328973,35.3865234 C123.35947,51.3184557 123.321519,84.880624 122.610617,114.987225 C122.079304,137.490766 120.874362,158.490502 120.216998,168.810442 L120.11941,170.333223 C119.714826,170.400992 119.388855,170.457919 118.972072,170.520944 L119.059495,169.131669 L119.059495,169.132347 Z M115.164104,34.5753224 C115.11531,50.7546134 114.953341,87.4599313 114.429482,118.768764 C114.139755,135.587669 113.654718,152.402642 112.974471,169.210282 L112.887049,171.214904 C112.567854,171.242012 112.245949,171.269119 111.926077,171.294872 L112.019599,169.513212 C112.416051,159.79642 113.117465,140.670511 113.485453,118.753177 C114.014055,87.2905075 114.175347,50.3757819 114.223463,34.3279637 L114.23024,33.2172216 C114.547401,33.2395855 114.865918,33.2605941 115.181724,33.2836357 L115.164104,34.5753224 L115.164104,34.5753224 Z M110.500207,33.8305356 C110.63168,48.1095697 110.826856,76.0529686 110.652688,102.386164 C110.462933,130.891372 109.846231,158.107604 109.553467,169.826307 L109.518227,171.466329 C109.196999,171.48666 108.877127,171.50699 108.557933,171.52461 L108.601305,170.133303 C108.892714,158.60571 109.518227,131.149574 109.708659,102.378032 C109.882827,76.2000285 109.691039,48.4253756 109.559566,34.0778943 L109.550078,32.9542759 C109.864529,32.9685075 110.178979,32.9827391 110.492074,32.9983261 L110.500207,33.8305356 L110.500207,33.8305356 Z M106.796603,33.7681876 C106.989746,50.1446879 107.259469,79.4556754 107.128674,107.098855 C107.006689,132.817382 106.455723,157.449563 106.12433,170.318991 L106.095867,171.650662 L105.145061,171.691323 L105.184367,170.132625 C105.516437,157.221857 106.061304,132.696752 106.183289,107.094789 C106.314762,79.5891813 106.049106,50.4340637 105.85393,34.016224 L105.832243,32.82077 L106.783049,32.8478778 L106.796603,33.7688653 L106.796603,33.7681876 Z M73.4458759,169.052379 C73.1171938,168.971056 72.7912225,168.887021 72.4672843,168.799599 L72.4110356,168.186963 C71.6181324,159.636484 70.0241937,140.406888 69.3654741,117.834222 C68.5230992,89.0396384 68.8029873,53.0513218 69.0096843,36.1042024 L69.0022296,35.3621263 C69.3173578,35.3079107 69.6331637,35.2536951 69.9537134,35.2008349 L69.9557465,35.9523987 C69.7497272,52.8209055 69.4650953,88.935951 70.3088256,117.80847 C70.9770329,140.671867 72.6048564,160.09935 73.3842056,168.452619 L73.4451982,169.052379 L73.4458759,169.052379 Z M67.0497903,167.10875 C66.7095874,166.986765 66.3768391,166.866813 66.0529009,166.747538 L65.9756436,166.040025 C64.5321532,154.004161 61.7420828,128.003714 60.8576908,100.420171 C60.1088378,77.0830651 60.7560366,51.0365345 61.1917945,37.9380451 L61.2087368,36.9777513 C61.5218319,36.9018494 61.8389932,36.8252699 62.1602207,36.7500457 L62.1480221,37.5775114 C61.7129419,50.5316517 61.0454123,76.843161 61.8010423,100.392385 C62.6976328,128.364925 65.5575058,154.707608 66.9772769,166.472394 L67.0504679,167.10875 L67.0497903,167.10875 Z M40.1886703,119.135397 C39.0365888,113.524082 38.3629599,109.425382 38.3507614,109.353547 L38.1887923,106.895547 C37.5246512,98.4989055 36.9269241,89.0924986 36.7879967,81.071978 C36.6233168,71.5883138 36.6931194,62.1060051 36.8022283,55.0139266 L36.7629219,54.1098815 C37.046845,52.9893897 37.3980766,51.8870383 37.8147046,50.808829 L37.7333812,55.85088 C37.631727,62.8379157 37.5734452,71.9461368 37.7333812,81.0577464 C37.9089042,91.204874 38.820404,103.577552 39.6729444,113.303831 L40.1886703,119.135397 Z M48.3928463,149.080707 C47.7388706,147.16283 46.9900176,144.901361 46.2133791,142.430485 L45.638016,139.112491 C44.1674178,130.416986 42.8621772,121.18068 42.4928334,114.086569 C40.5688572,90.5027819 40.4712691,63.2797728 40.5925765,48.7886201 L40.6162959,46.1225679 C40.9151594,45.7952412 41.224866,45.4855346 41.5399942,45.1961588 L41.5454157,47.717862 C41.4105544,61.8850765 41.4640923,89.8664263 43.4341518,114.024221 C43.8644881,122.296166 45.5729573,133.492366 47.3288651,143.336564 L48.3928463,149.080707 L48.3928463,149.080707 Z M53.030991,154.042112 C51.0921055,144.482546 48.6998421,130.382423 47.4616933,114.261414 C45.5404279,89.2443023 45.606842,59.8065858 45.7959189,45.2429198 L45.8182829,42.2346316 C45.5431387,42.3762698 45.2144566,42.5538259 44.8498567,42.7672999 L44.8512121,45.2747714 C44.6628128,59.8716446 44.5991095,89.3073279 46.5203749,114.331894 C47.7537798,130.390556 50.1297786,144.451372 52.0679864,154.040079 L53.2742835,159.729329 C53.4830136,159.964489 53.7039422,160.196938 53.9384246,160.420578 C54.1078484,160.581869 54.2867599,160.742483 54.4704152,160.89903 L53.030991,154.042112 Z M70.1061948,167.602789 C69.2285798,159.71713 67.6780135,143.746569 67.0362364,124.471567 C65.9790321,92.7595064 65.903808,53.1780508 65.9248165,36.7371695 L65.9160065,35.9354563 C65.5941013,35.998482 65.2755847,36.0642184 64.9618119,36.1292771 L64.9807873,36.827303 C64.9597788,53.3305322 65.037036,92.8360859 66.0922072,124.502741 C66.7211082,143.34944 68.2161034,159.044857 69.1052393,167.133147 L69.179108,167.82914 C69.5016908,167.934182 69.8296952,168.037192 70.1617658,168.137491 L70.1061948,167.602112 L70.1061948,167.602789 Z"/>
    <path fill="#6D0115" fill-rule="nonzero" d="M50.0477775,40.3926565 C49.6994423,40.5261624 49.3788925,40.6522137 49.0861283,40.7701326 L49.0685082,42.1878706 C48.7520246,56.9887299 48.3372753,86.5802831 49.5130761,106.024709 C51.1815613,133.598764 54.6378059,153.144166 56.3455974,161.538774 L56.5048557,162.365562 C56.8674225,162.593268 57.2794611,162.83656 57.619664,163.029026 L57.4075455,162.014516 C55.7607465,154.055666 52.1676075,134.251384 50.4564276,105.969138 C49.2724944,86.3952724 49.7041861,56.5055334 50.019992,41.8456346 L50.0477775,40.356061 M74.0164951,34.5766778 L73.0623005,34.7135722 L73.0778875,35.5064754 C72.914563,50.9213264 72.7051552,81.4081147 73.2032611,108.099133 C73.6776476,133.478812 75.2349907,156.622097 76.1126058,168.081242 L76.2244255,169.674503 C76.5463306,169.739562 76.8682358,169.803943 77.1908186,169.865613 L77.0878089,168.459396 C76.2176485,157.177129 74.627776,133.77632 74.1466125,108.081513 C73.6464736,81.3599984 73.8579145,50.8311929 74.0219167,35.4441274 L74.0164951,34.5766778 L74.0164951,34.5766778 Z M78.0237058,34.0568857 C77.7011229,34.0955143 77.3798955,34.134143 77.0600234,34.174127 L77.0573127,34.9466993 C76.8133425,47.5159089 76.4507756,73.5211 76.9800554,99.4144715 C77.55203,128.86032 79.0931085,156.660048 79.8378954,168.872112 L79.9226072,170.349487 C80.2479008,170.40167 80.569806,170.453852 80.8917111,170.502646 L80.7846353,168.887699 C80.0418816,156.722396 78.4960592,128.885395 77.9240846,99.395496 C77.3954825,73.4628183 77.7594047,47.4162877 78.0033749,34.8857067 L78.0237058,34.0568857 Z M81.8845343,33.6373925 C81.5707615,33.6672111 81.2556333,33.7004181 80.9418605,33.7322698 L80.9350836,34.5143299 C80.8300409,48.0038493 80.6843364,76.363353 81.0082747,103.878449 C81.3227251,130.560657 82.1278268,156.939936 82.5317331,169.020527 L82.5886595,170.752038 C82.9078538,170.796088 83.2256928,170.839461 83.5374325,170.8808 L83.4750845,169.015106 C83.071856,156.948746 82.2653989,130.558624 81.9516261,103.866928 C81.6256548,76.2264586 81.7747477,47.7314159 81.8797905,34.3259306 L81.8845343,33.6373925 L81.8845343,33.6373925 Z M90.0724456,32.9996815 C89.7437635,33.0186569 89.4150814,33.0369547 89.087077,33.0572856 L89.1107964,33.5838546 C89.2741209,58.3122683 89.8338969,142.622273 90.0141638,169.947614 L90.0297508,171.582892 C90.3638545,171.612033 90.6810157,171.638463 90.9792015,171.661505 L90.9588707,170.009284 C90.7772484,142.736126 90.21815,58.1997709 90.0541478,33.5215067 L90.0724456,32.9996815 L90.0724456,32.9996815 Z M94.0464492,32.8228031 C93.7265772,32.8329685 93.4053497,32.845167 93.0834446,32.8560101 L93.1071639,33.7675099 L93.3538449,169.570816 L93.3389356,171.822803 C93.5842612,171.838383 93.762495,171.847193 93.864827,171.852615 C93.9190426,171.852615 94.0654247,171.858036 94.2965187,171.858036 L94.2985518,169.509823 C94.2511131,144.116591 94.0993094,59.9211163 94.0505154,33.7675099 L94.0464492,32.8228031 L94.0464492,32.8228031 Z M133.032889,165.525654 C134.397089,154.048889 136.874064,130.325497 137.921103,101.879926 C138.702485,80.7033119 138.082394,52.2950142 137.674422,38.0891711 L137.601908,36.5602911 C137.99836,36.6538131 138.383291,36.7480127 138.760089,36.8415346 L138.817016,38.413787 C139.224988,52.7470368 139.829492,80.889678 139.053531,101.920588 C138.006492,130.330918 135.536294,154.040079 134.168028,165.572415 L134.004703,166.887143 C133.609263,167.022556 133.212335,167.153586 132.813993,167.280207 L133.032889,165.526332 L133.032889,165.525654 Z"/>
    <path fill="#6D0115" fill-rule="nonzero" d="M137.765233,163.88631 C138.86852,153.894374 140.804695,134.144308 141.970331,109.510094 C143.091238,85.8558272 143.032956,55.3161786 142.897417,39.1246891 L142.873698,37.9468552 C142.50842,37.8411347 142.127556,37.7333812 141.730426,37.6229169 L141.764311,39.0196464 C141.900528,55.1684411 141.960843,85.7738261 140.840613,109.457912 C139.660068,134.390312 137.691364,154.309802 136.597564,164.154677 L136.386801,165.939726 C136.725649,165.784534 137.126166,165.600878 137.563957,165.396892 L137.765233,163.88631 Z M141.236387,161.693966 C142.571446,152.751781 144.387669,138.128477 145.419798,119.450525 C146.953422,91.6677397 147.229922,56.2249676 147.273972,40.3791026 L147.251608,39.3273199 C146.931736,39.2155002 146.557648,39.0901267 146.130023,38.9478107 L146.142899,40.0117919 C146.102237,55.65977 145.833192,91.4149594 144.288725,119.388177 C143.216612,138.826503 141.29128,153.855746 139.948089,162.640029 L139.686498,164.366796 C140.101966,164.159399 140.514938,163.94704 140.925325,163.729762 L141.236387,161.693966 L141.236387,161.693966 Z M151.149032,150.104026 C151.149032,150.104026 152.165574,147.302435 153.419988,143.295224 L153.89573,140.181216 C155.440874,129.846367 157.071409,116.956607 158.151655,102.989313 C159.590401,84.3960721 159.275273,61.7488598 158.876111,48.1163467 L158.788688,45.5431387 C158.41284,45.1580341 158.017448,44.7925002 157.604077,44.4479835 L157.695566,46.5420611 C158.113704,59.9190832 158.514221,83.6085905 157.020582,102.905279 C155.766846,119.124554 153.769001,133.886107 152.026647,144.866799 L151.149032,150.104026 L151.149032,150.104026 Z"/>
    <g fill-rule="nonzero" transform="translate(50.827 63.623)">
      <path fill="#1A1A1A" d="M20.3132306,44.4791575 L20.3132306,34.6681666 L11.8989692,34.6681666 L11.9301432,9.97295997 L22.9155795,9.97295997 L22.8566201,0.056926382 L0.0189754607,0.056926382 L2.0832345,75.9526698 L12.1185424,75.9526698 L11.8989692,44.4805129 L20.3132306,44.4791575 Z M26.8238467,0.056248687 L28.0931695,75.9519921 L38.4551264,75.9519921 L38.6652119,0.056248687 L26.8238467,0.056248687 Z M93.3782419,75.9519921 L95.5062043,9.61784778 L103.624991,9.61784778 L103.562643,0.056248687 L75.4023814,0.056248687 L75.4023814,9.62936859 L83.5875819,9.62936859 L83.351744,75.9519921 L93.3782419,75.9519921 Z M54.2935368,35.1818595 L54.4073896,9.40234076 L60.192872,9.40234076 C62.8155517,15.143773 64.5009793,22.736668 65.8224846,35.1818595 L54.2935368,35.1818595 Z M45.0477436,75.9506367 L54.6411944,75.9506367 L54.7482702,44.5665801 L66.2426555,44.5665801 C67.1467006,50.1053816 67.3676292,67.2056601 67.4218448,75.9506367 L76.7272752,75.9506367 C77.6055679,37.2034237 74.8771678,15.3016759 67.3418768,0.0555709919 L44.1701286,0.0555709919 L45.0477436,75.9506367 L45.0477436,75.9506367 Z" transform="translate(0 1.355)"/>
      <path fill="url(#fiat-e)" d="M22.8948049,0 L22.9542915,9.91712484 L11.9407639,9.91712484 L11.9096042,34.6129521 L20.3453772,34.6129521 L20.3453772,44.4235617 L11.9096042,44.4235617 L12.1296104,75.8959975 L2.06975759,75.8959975 L-9.59232693e-14,0 L22.8948049,0 Z M38.743747,0 L38.5331831,75.8959975 L28.1447374,75.8959975 L26.871912,0 L38.743747,0 Z M103.803253,0 L103.865572,9.56170047 L95.7272327,9.56170047 L93.5932673,75.8959975 L83.5419126,75.8959975 L83.7779707,9.5729126 L75.5716463,9.5729126 L75.5716463,0 L103.803253,0 Z M67.4909047,0 C75.046653,15.246248 77.7811503,37.1480136 76.9020698,75.8948763 L76.9020698,75.8948763 L67.5730529,75.8948763 C67.5182875,67.1494185 67.2963928,50.0509274 66.3908739,44.5110163 L66.3908739,44.5110163 L54.8674607,44.5110163 L54.7598182,75.8948763 L45.1418662,75.8948763 L44.2618416,0 Z M60.3241802,9.34642767 L54.5237601,9.34642767 L54.4104522,35.1264674 L65.9678577,35.1264674 C64.6430996,22.6810083 62.9538677,15.088157 60.3241802,9.34642767 L60.3241802,9.34642767 Z" transform="translate(1.196 .052)"/>
    </g>
  </g>
</svg>
