<svg xmlns="http://www.w3.org/2000/svg" width="200" height="200" viewBox="0 0 200 200">
  <path fill="#295BA7" d="M0.569491525,68.7751412 L8.25649718,68.7751412 L8.25649718,77.2271186 L21.9887006,77.2271186 L21.9887006,68.7751412 L29.579661,68.7751412 L29.579661,92.4960452 L21.9887006,92.4960452 L21.9887006,82.5084746 L8.15819209,82.5084746 L8.15819209,92.4011299 L0.569491525,92.4011299 L0.569491525,68.7751412 Z M30.4429379,68.7751412 L37.9333333,68.7751412 L45.8101695,77.899435 L53.5909605,68.7751412 L60.9864407,68.7751412 L49.5559322,83.2768362 L49.5559322,92.4960452 L41.9683616,92.4960452 L41.9683616,82.6045198 L30.4429379,68.7751412 L30.4429379,68.7751412 Z M61.9468927,68.7751412 L69.5355932,68.7751412 L69.5355932,87.1186441 L81.7333333,87.1186441 C83.6542373,87.1186441 84.9028249,85.2011299 84.9028249,83.1819209 L84.9028249,68.7751412 L92.4892655,68.7751412 L92.4892655,87.6960452 C92.4892655,90.6723164 89.1288136,92.4011299 87.2067797,92.4011299 L61.9468927,92.4011299 L61.9468927,68.7751412 Z M94.1220339,68.7751412 L119.385311,68.7751412 C122.362712,68.7751412 124.763842,70.5977401 124.763842,74.299435 L124.763842,92.4485876 L117.176271,92.4960452 L117.176271,78.0903955 C117.176271,76.0768362 116.502825,74.8757062 113.909605,74.8757062 L102.480226,74.8757062 L102.480226,92.5491525 L94.1220339,92.5491525 L94.1220339,68.7751412 L94.1220339,68.7751412 Z M127.070056,68.7751412 L149.159322,68.7751412 C153.579661,68.7751412 156.989831,72.3276836 156.989831,75.0644068 L156.989831,85.9661017 C156.941243,87.8858757 154.250847,92.4949153 150.890395,92.4949153 L127.071186,92.4949153 L127.071186,68.7751412 L127.070056,68.7751412 L127.070056,68.7751412 Z M134.80113,87.2158192 L146.459887,87.2158192 C148.138983,87.2158192 149.437288,85.9672316 149.437288,84.4282486 L149.437288,77.5141243 C149.437288,75.8327684 148.055367,74.8282486 146.281356,74.8282486 L134.80113,74.8282486 L134.80113,87.2158192 L134.80113,87.2158192 Z M166.355932,68.6745763 L190.031638,68.6745763 L190.031638,92.4960452 L181.577401,92.4960452 L181.577401,86.3525424 L167.024859,86.3525424 L167.024859,92.4960452 L158.477966,92.4960452 L158.477966,77.0316384 C158.284746,71.8474576 162.897175,68.6745763 166.355932,68.6745763 L166.355932,68.6745763 Z M166.928814,77.1333333 L166.928814,80.9706215 L181.529944,80.9706215 L181.529944,74.9175141 L169.232768,74.9175141 C167.79435,74.9186441 166.928814,75.7853107 166.928814,77.1333333 Z M191.567232,68.7276836 L199.154802,68.7276836 L199.154802,93.2169492 L191.567232,93.2169492 L191.567232,68.7276836 Z M100.324294,0.0937853107 C68.8372881,0.0937853107 43.3107345,12.6971751 43.3107345,28.239548 C43.3107345,43.7830508 68.8372881,56.3875706 100.324294,56.3875706 C131.80904,56.3875706 157.336723,43.7841808 157.336723,28.239548 C157.336723,12.6983051 131.80791,0.0937853107 100.324294,0.0937853107 Z M94.9152542,6.35819209 C101.422599,4.05762712 120.755932,6.35819209 128.265537,9.96497175 C130.668927,12.2700565 117.549153,19.6757062 101.927684,22.8858757 C79.5932203,27.3898305 90.2079096,10.1638418 94.9152542,6.35819209 Z M56.559322,39.7084746 C51.6497175,36.2079096 42.0361582,26.1898305 57.9615819,15.7751412 C66.3740113,10.8689266 71.080226,9.76384181 76.8881356,8.56384181 C79.6937853,7.96045198 81.6960452,8.66327684 79.1920904,10.7672316 C73.8847458,16.2757062 62.8677966,34.499435 61.8677966,38.5084746 C61.0644068,41.2146893 59.4632768,41.9118644 56.559322,39.7084746 L56.559322,39.7084746 Z M102.424859,51.3288136 C93.0124294,52.3276836 72.0824859,49.2248588 71.680226,46.5242938 C72.0824859,40.0101695 104.929944,29.1943503 110.837288,35.2033898 C113.343503,39.9096045 108.536723,51.0271186 102.424859,51.3288136 L102.424859,51.3288136 Z M150.298305,32.3954802 C147.892655,37.9050847 139.781921,44.1175141 122.758192,48.3242938 C120.151412,48.920904 119.250847,47.320904 120.952542,45.8180791 C123.759322,44.1163842 137.279096,21.4836158 138.980791,16.9740113 C139.983051,14.6689266 141.884746,15.5740113 143.088136,16.4734463 C148.497175,19.9774011 152.60226,25.6870056 150.298305,32.3954802 L150.298305,32.3954802 Z" transform="translate(0 53)"/>
</svg>
