<svg xmlns="http://www.w3.org/2000/svg" width="200" height="200" viewBox="0 0 200 200">
  <path fill="#223D7D" d="M173.949412,0.905882353 C177.372941,0.905882353 180.617647,1.08588235 183.32,1.44588235 C190.887059,2.34705882 197.012941,8.29294118 198.274118,15.6811765 C198.455294,16.9423529 198.814118,19.8247059 198.814118,22.7070588 C198.814118,25.7705882 198.455294,28.6541176 198.274118,29.7341176 C197.012941,37.3035294 190.887059,43.0682353 183.32,44.1505882 C180.617647,44.3294118 177.372941,44.6905882 173.949412,44.6905882 L172.869412,44.6905882 C169.264706,44.6905882 166.201176,44.3294118 163.32,44.1505882 C155.750588,43.0682353 149.807059,37.3035294 148.544706,29.7341176 C148.363529,28.6541176 148.002353,25.7705882 148.002353,22.7070588 C148.002353,19.8247059 148.363529,16.9423529 148.544706,15.6811765 C149.805882,8.29294118 155.750588,2.34705882 163.32,1.44588235 C166.201176,1.08588235 169.264706,0.905882353 172.688235,0.905882353 L173.949412,0.905882353 Z M173.408235,11.1752941 C172.507059,11.1752941 171.967059,11.1752941 171.245882,11.3552941 C168.001176,11.5352941 165.481176,13.8776471 165.12,16.9411765 C164.938824,18.5635294 164.938824,21.0858824 164.938824,22.8882353 C164.938824,24.6894118 164.938824,26.3117647 165.12,27.9317647 C165.66,31.7164706 168.543529,33.8788235 171.067059,33.8788235 L171.067059,33.8788235 L175.750588,33.8788235 C178.455294,33.8788235 181.157647,31.7164706 181.697647,27.9317647 C181.876471,26.3117647 181.876471,24.6905882 181.876471,22.7070588 L181.876336,22.2441959 C181.874993,20.6356928 181.860214,18.4161497 181.697647,16.9423529 C181.336471,13.8788235 178.995294,11.5364706 175.750588,11.3564706 L175.750588,11.3564706 Z M108.903529,22.7070588 C108.903529,20.3647059 109.084706,18.0235294 109.624706,15.6811765 C110.885882,8.29294118 116.832941,2.34705882 124.4,1.44588235 C127.102353,1.08588235 130.347059,0.905882353 133.770588,0.905882353 C137.552941,0.905882353 140.976471,1.08588235 143.86,1.44588235 C144.94,1.62588235 145.661176,2.52705882 145.661176,3.60823529 L145.661176,10.0941176 C145.661176,11.3552941 144.76,12.2564706 143.677647,12.2564706 C143.677647,12.2564706 140.254118,12.0764706 138.452941,12.0764706 C136.292941,12.0764706 134.489412,12.0764706 132.508235,12.2564706 C129.263529,12.4364706 126.922353,14.7788235 126.561176,17.8423529 C126.38,19.4635294 126.2,21.0858824 126.2,22.7058824 L126.2,22.8870588 C126.2,24.5094118 126.378824,26.1294118 126.561176,27.7517647 C126.922353,30.8152941 129.084706,33.1564706 132.508235,33.5164706 C134.309412,33.6976471 136.471765,33.8776471 138.452941,33.8776471 C140.254118,33.8776471 143.677647,33.6988235 143.677647,33.6988235 C144.76,33.6988235 145.661176,34.6 145.661176,35.8611765 L145.661176,42.3482353 C145.661176,43.4282353 144.94,44.3294118 143.86,44.5105882 C140.976471,44.5105882 137.552941,44.6894118 133.770588,44.6894118 C130.347059,44.6894118 127.102353,44.3282353 124.4,44.1494118 C116.832941,43.0670588 110.887059,37.3023529 109.624706,29.7329412 C109.084706,27.5729412 108.903529,25.2294118 108.903529,22.8882353 L108.903529,22.7070588 Z M104.038824,33.3388235 C105.3,33.3388235 106.201176,34.4188235 106.201176,35.5011765 L106.201176,41.9882353 C106.201176,43.2494118 105.3,44.1505935 104.038824,44.1505935 L78.2729412,44.1505935 C76.0260556,44.15309 73.8704945,43.2615453 72.2818159,41.672646 C70.6931372,40.0837466 69.801892,37.9280617 69.8046992,35.6811765 L69.8046992,10.0952941 C69.8022047,7.84861264 70.693588,5.69323032 72.2822327,4.10458563 C73.8708774,2.51594094 76.0262597,1.62455765 78.2729412,1.62705357 L104.038824,1.62705357 C105.3,1.62705357 106.201176,2.52823529 106.201176,3.60941176 L106.201176,9.91529412 C106.201176,11.1764706 105.3,12.0776471 104.038824,12.0776471 L88.1835294,12.0776471 C86.9223529,12.0776471 86.0211765,12.7988235 86.0211765,14.06 L86.0211765,18.0235294 L99.5341176,17.8435294 C100.614118,17.8435294 101.696471,18.9235294 101.696471,20.0047059 L101.696471,25.4117647 C101.696471,26.6705882 100.614118,27.5741176 99.5341176,27.5741176 L86.0211765,27.5741176 L86.0211765,31.1764706 C86.0211765,32.4376471 86.9223529,33.3388235 88.1835294,33.3388235 L104.038824,33.3388235 L104.038824,33.3388235 Z M38.4541176,44.1494118 C34.6705882,44.1494118 31.4258824,41.6258824 30.3447059,38.2023529 L21.5164706,4.14823529 L21.5164706,3.60823529 C21.5164706,2.52705882 22.4176471,1.62588235 23.6788235,1.62588235 L36.8317647,1.62588235 C37.9129412,1.62588235 38.8141176,2.34588235 38.9941176,3.24705882 L45.8411765,31.7164706 C45.8411765,32.0776471 46.2011765,32.4376471 46.7423529,32.4376471 C47.1023529,32.4376471 47.4623529,32.0764706 47.4623529,31.7164706 L54.4894118,3.24705882 C54.6694118,2.34588235 55.5705882,1.62588235 56.4717647,1.62588235 L63.8588235,1.62588235 C65.12,1.62588235 66.0211765,2.52705882 66.0211765,3.60823529 L66.0211765,4.14823529 L57.5529412,37.4811765 C56.6517647,41.2658824 53.5882353,44.1494118 49.2647059,44.1494118 L38.4541176,44.1494118 L38.4541176,44.1494118 Z M2.23647059,1.62588235 L15.0294118,1.62588235 C16.2905882,1.62588235 17.1917647,2.52705882 17.1917647,3.60823529 L17.1917647,41.9870588 C17.1917647,43.2482353 16.2905882,44.1494118 15.0294118,44.1494118 L2.23647059,44.1494118 C1.15529412,44.1494118 0.0741176471,43.2482353 0.0741176471,41.9870588 L0.0741176471,3.60823529 C0.0752941176,2.52705882 1.15647059,1.62588235 2.23647059,1.62588235 L2.23647059,1.62588235 Z" transform="translate(1 78)"/>
</svg>
