<svg xmlns="http://www.w3.org/2000/svg" width="200" height="200" viewBox="0 0 200 200">
  <g fill="none" fill-rule="evenodd" transform="translate(0 49)">
    <path fill="#01422D" fill-rule="nonzero" d="M126.68408,89.4199005 C125.483333,94.3995025 121.727114,96.4970149 115.439055,96.4970149 C111.171393,96.4970149 107.417413,95.6400498 105.486318,93.7037313 C103.392289,91.65 103.076866,88.8166667 103.076866,85.788806 L103.076866,70.9400498 L107.854975,70.9400498 L107.854975,85.5348259 C107.854975,88.8318408 108.126119,90.7982587 109.414428,92.2465174 C110.877114,93.9445274 113.40398,94.4412935 115.535075,94.4412935 C120.042537,94.4412935 123.045274,92.9813433 123.860448,89.0151741 C124.048756,88.1014925 124.195274,86.9820896 124.195274,85.2539801 L124.195274,70.9400498 L127.136319,70.9400498 L127.136319,84.2537313 C127.136567,86.739801 126.992786,88.1437811 126.68408,89.4199005"/>
    <path stroke="#01422D" stroke-width=".185" d="M126.68408,89.4199005 C125.483333,94.3995025 121.727114,96.4970149 115.439055,96.4970149 C111.171393,96.4970149 107.417413,95.6400498 105.486318,93.7037313 C103.392289,91.65 103.076866,88.8166667 103.076866,85.788806 L103.076866,70.9400498 L107.854975,70.9400498 L107.854975,85.5348259 C107.854975,88.8318408 108.126119,90.7982587 109.414428,92.2465174 C110.877114,93.9445274 113.40398,94.4412935 115.535075,94.4412935 C120.042537,94.4412935 123.045274,92.9813433 123.860448,89.0151741 C124.048756,88.1014925 124.195274,86.9820896 124.195274,85.2539801 L124.195274,70.9400498 L127.136319,70.9400498 L127.136319,84.2537313 C127.136567,86.739801 126.992786,88.1437811 126.68408,89.4199005"/>
    <path fill="#01422D" fill-rule="nonzero" d="M150.894279,75.680597 L145.35995,87.2206468 L156.155473,87.2206468 L150.894279,75.680597 M160.095522,95.9430348 L156.944776,88.9206468 L144.543035,88.9206468 L141.168159,95.9430348 L138.135572,95.9430348 L150.60796,70.9395522 L153.579851,70.9395522 L165.783831,95.9430348 L160.095522,95.9430348 Z"/>
    <path stroke="#01422D" stroke-width=".185" d="M150.894279,75.680597 L145.35995,87.2206468 L156.155473,87.2206468 L150.894279,75.680597 M160.095522,95.9430348 L156.944776,88.9206468 L144.543035,88.9206468 L141.168159,95.9430348 L138.135572,95.9430348 L150.60796,70.9395522 L153.579851,70.9395522 L165.783831,95.9430348 L160.095522,95.9430348 Z"/>
    <path fill="#01422D" fill-rule="nonzero" d="M37.0669154,75.680597 L31.5370647,87.2206468 L42.3350746,87.2206468 L37.0669154,75.680597 M46.2726368,95.9430348 L43.1266169,88.9206468 L30.7221393,88.9206468 L27.3427861,95.9430348 L24.3116915,95.9430348 L36.7843284,70.9395522 L39.7539801,70.9395522 L51.9629353,95.9430348 L46.2726368,95.9430348 Z"/>
    <path stroke="#01422D" stroke-width=".185" d="M37.0669154,75.680597 L31.5370647,87.2206468 L42.3350746,87.2206468 L37.0669154,75.680597 M46.2726368,95.9430348 L43.1266169,88.9206468 L30.7221393,88.9206468 L27.3427861,95.9430348 L24.3116915,95.9430348 L36.7843284,70.9395522 L39.7539801,70.9395522 L51.9629353,95.9430348 L46.2726368,95.9430348 Z"/>
    <path fill="#01422D" fill-rule="nonzero" d="M77.9910448,96.4947761 C69.7340796,96.4947761 61.8868159,93.6542289 61.8868159,84.0524876 C61.8868159,80.9320896 63.2716418,77.7338308 65.3631841,75.4445274 C68.6415423,71.8858209 73.6196517,70.4666667 78.3206468,70.4666667 C81.1631841,70.4666667 84.4559701,71.1114428 87.0179104,72.4139303 L87.0179104,75.3835821 C84.6960199,73.65199 81.6390547,72.4579602 78.6579602,72.4579602 C71.8656716,72.4579602 67.1813433,76.7069652 67.1813433,83.7368159 C67.1813433,90.0997512 71.3149254,94.4549751 77.6733831,94.4549751 C79.2915423,94.4549751 81.5310945,94.1671642 83.071393,93.5766169 L83.071393,84.4482587 L87.8495025,84.4482587 L87.8495025,94.6410448 C85.0465174,95.9032338 81.0686567,96.4947761 77.9910448,96.4947761"/>
    <path stroke="#01422D" stroke-width=".185" d="M77.9910448,96.4947761 C69.7340796,96.4947761 61.8868159,93.6542289 61.8868159,84.0524876 C61.8868159,80.9320896 63.2716418,77.7338308 65.3631841,75.4445274 C68.6415423,71.8858209 73.6196517,70.4666667 78.3206468,70.4666667 C81.1631841,70.4666667 84.4559701,71.1114428 87.0179104,72.4139303 L87.0179104,75.3835821 C84.6960199,73.65199 81.6390547,72.4579602 78.6579602,72.4579602 C71.8656716,72.4579602 67.1813433,76.7069652 67.1813433,83.7368159 C67.1813433,90.0997512 71.3149254,94.4549751 77.6733831,94.4549751 C79.2915423,94.4549751 81.5310945,94.1671642 83.071393,93.5766169 L83.071393,84.4482587 L87.8495025,84.4482587 L87.8495025,94.6410448 C85.0465174,95.9032338 81.0686567,96.4947761 77.9910448,96.4947761"/>
    <path fill="#01422D" fill-rule="nonzero" d="M186.241542,72.6756219 L182.727861,72.6756219 L182.727861,84.6370647 L185.800995,84.6370647 C188.377612,84.6370647 189.918408,84.1562189 191.119154,83.1885572 C192.386567,82.1708955 193.144776,80.6099502 193.144776,78.5 C193.144279,74.2746269 190.073383,72.6756219 186.241542,72.6756219 M194.362189,95.9432836 L187.736816,86.341791 L182.727861,86.341791 L182.727861,95.9432836 L177.947015,95.9432836 L177.947015,70.9400498 L186.990299,70.9400498 C190.659453,70.9400498 194.331343,71.4721393 196.375622,73.7308458 C197.444776,74.9109453 198.026368,76.5524876 198.026368,78.6646766 C198.026368,82.5291045 195.112935,84.8699005 192.51791,85.790796 L199.865672,95.9432836 L194.362189,95.9432836 L194.362189,95.9432836 Z"/>
    <path stroke="#01422D" stroke-width=".185" d="M186.241542,72.6756219 L182.727861,72.6756219 L182.727861,84.6370647 L185.800995,84.6370647 C188.377612,84.6370647 189.918408,84.1562189 191.119154,83.1885572 C192.386567,82.1708955 193.144776,80.6099502 193.144776,78.5 C193.144279,74.2746269 190.073383,72.6756219 186.241542,72.6756219 M194.362189,95.9432836 L187.736816,86.341791 L182.727861,86.341791 L182.727861,95.9432836 L177.947015,95.9432836 L177.947015,70.9400498 L186.990299,70.9400498 C190.659453,70.9400498 194.331343,71.4721393 196.375622,73.7308458 C197.444776,74.9109453 198.026368,76.5524876 198.026368,78.6646766 C198.026368,82.5291045 195.112935,84.8699005 192.51791,85.790796 L199.865672,95.9432836 L194.362189,95.9432836 L194.362189,95.9432836 Z"/>
    <path fill="#01422D" fill-rule="nonzero" d="M4.11666667,101.082836 C2.85472637,101.676119 1.4721393,102.069154 0.0495024876,102.069154 C3.32537313,99.7004975 4.710199,97.2910448 5.18358209,93.3014925 C5.46144279,91.0878109 5.46144279,88.8738806 5.46144279,86.6624378 L5.46144279,70.9402985 L10.2422887,70.9402985 L10.2422887,89.8631841 C10.2427861,94.4835821 8.46442786,98.9512438 4.11666667,101.082836"/>
    <path stroke="#01422D" stroke-width=".185" d="M4.11666667,101.082836 C2.85472637,101.676119 1.4721393,102.069154 0.0495024876,102.069154 C3.32537313,99.7004975 4.710199,97.2910448 5.18358209,93.3014925 C5.46144279,91.0878109 5.46144279,88.8738806 5.46144279,86.6624378 L5.46144279,70.9402985 L10.2422887,70.9402985 L10.2422887,89.8631841 C10.2427861,94.4835821 8.46442786,98.9512438 4.11666667,101.082836"/>
    <path fill="#241F20" fill-rule="nonzero" d="M34.1723881,4.19253731 C35.8890547,4.24427861 37.3634328,3.60373134 37.3684167,3.5119403 C37.3731343,3.42014925 35.4676617,3.23880597 35.4676617,3.23880597 C33.7226368,3.31169154 33.011194,3.95920398 33.0017413,4.03482587 C32.9900498,4.10746269 33.4564677,4.16865672 34.1723881,4.19253731"/>
    <path fill="#241F20" fill-rule="nonzero" d="M22.5029851,7.14800995 C22.5029851,7.14800995 22.6067164,6.78283582 22.6514925,6.70298507 C22.6962687,6.62039801 22.9460199,5.77736318 24.1514925,5.68557214 C24.1514925,5.68557214 24.7589552,5.63134328 25.4587065,5.84800995 C25.4587065,5.84800995 25.0559701,6.88656716 23.4077114,7.05845771 C23.4074627,7.05845771 22.7594527,7.15522388 22.5029851,7.14800995 M183.903234,53.969403 C183.493781,54.9813433 181.739055,56.270398 179.678358,56.9597015 C177.502488,57.6870647 172.958955,57.7059701 170.635075,56.9338308 C170.635075,56.9338308 170.145274,56.4012438 168.510448,55.9211443 C164.709453,54.8029851 163.480348,54.0233831 161.551244,52.2263682 C160.18806,50.9572139 158.687065,49.3651741 157.232338,47.8646766 C156.584577,47.1960199 155.008955,45.6179104 152.239552,45.1375622 C149.350249,44.6383085 142.258706,44.0965174 139.647264,43.1733831 C137.890299,42.5495025 135.80796,41.3649254 133.194527,37.4554726 C131.941542,35.578607 130.992289,35.0320896 129.183582,33.8781095 C129.183582,33.8781095 130.56393,34.968408 131.289552,36.2920398 C132.337313,38.2139303 132.839055,39.5965174 133.411194,40.6181592 C133.987562,41.6475124 134.654726,42.5639303 135.695522,43.3997512 C136.98607,44.4360697 137.8199,44.6644279 139.277612,44.9587065 C140.671642,45.2415423 145.431343,45.4512438 149.515174,45.611194 C153.530348,45.7666667 155.247264,47.010199 156.502488,48.0631841 C157.656468,49.0378109 159.495771,51.8221393 160.786567,52.9614428 C162.512438,54.4783582 162.557463,54.4995025 164.561692,55.7569652 C165.574129,56.3925373 166.466915,56.8089552 167.289055,57.1042289 C169.128358,58.1848259 168.367662,60.071393 168.367662,60.071393 C167.840299,61.5743781 165.942289,62.1129353 163.726119,61.7995025 C160.376866,61.5034826 157.494279,58.7099502 155.059204,56.7057214 C153.719154,55.600995 153.245522,55.0497512 150.66194,53.2549751 C146.731343,50.5283582 137.495025,50.7542289 137.495025,50.7542289 L130.726368,50.7116915 C117.542537,50.9049751 112.718905,40.2977612 111.402736,38.0718905 C110.948259,37.2972637 110.526866,36.6731343 110.126119,36.1619403 C109.511443,35.3328358 106.202985,31.0139303 102.658209,29.471393 C102.658209,29.471393 106.061194,32.4151741 105.7199,34.0261194 C104.989801,34.0166667 104.160697,34.0636816 103.171393,34.0920398 C89.8890547,34.4808458 87.1288557,33.7457711 85.030597,33.3266169 C82.929602,32.9049751 79.4089552,31.8594527 75.9873134,30.2838308 C75.9873134,30.2838308 76.3689055,27.0104478 75.0099502,24.2902985 C75.0099502,24.2902985 85.9731343,28.1619403 94.6957711,27.0646766 C94.6957711,27.0646766 80.6174129,26.3768657 71.8355721,19.3781095 C71.8355721,19.3781095 74.0024876,26.7753731 72.2900498,29.881592 C72.2900498,29.881592 69.9823383,35.5218905 58.1477612,31.7584577 C58.1477612,31.7584577 52.7049751,29.6412935 48.4728856,29.6412935 C48.4728856,29.6412935 45.2865672,29.7731343 44.9054726,31.4335821 C44.9054726,31.4335821 44.6977612,32.2271144 45.5293532,32.6039801 C45.5293532,32.6039801 46.4524876,32.8679104 46.0166667,33.5529851 C45.2985075,34.6858209 44.3017413,35.5619403 43.3129353,36.0562189 C40.011194,35.8937811 40.2559701,33.1830846 40.2559701,33.1830846 C40.3149254,32.2221393 40.6258706,31.550995 40.9201493,30.8893035 C42.9947761,26.2475124 50.2860697,25.5738806 50.2860697,25.5738806 C58.0437811,24.7992537 66.1758706,26.6619403 66.1758706,26.6619403 C60.3587065,25.2746269 58.380597,24.2572139 56.7176617,22.8701493 C54.4778607,21.0002488 52.3845771,14.7171642 52.3845771,14.7171642 C51.4920398,17.7975124 52.5967662,20.9109453 53.3432836,22.5099502 C52.240796,20.7507463 50.6701493,19.2649254 49.2689055,18.1412935 C45.6868159,15.2701493 40.4865672,14.3425373 40.4865672,14.3425373 C38.9838308,14.0855721 38.3880597,12.5291045 38.3880597,12.5291045 C36.4614428,8.98233831 34.2808458,8.81517413 34.2808458,8.81517413 C35.3544776,10.2870647 35.2415423,12.3007463 35.2415423,12.3007463 C35.2415423,16.0124378 30.4681592,17.2442786 30.4681592,17.2442786 C26.8975124,20.7932836 26.2783582,20.7176617 25.5810945,20.7696517 C24.8838308,20.8191542 24.368408,20.0960199 24.368408,20.0960199 C24.1420398,19.7567164 24.5189055,19.4529851 24.5189055,19.4529851 C25.1216418,19.0761194 25.691791,18.5840796 25.691791,18.5840796 C29.1726368,15.7885572 29.6624378,14.359204 29.3798507,12.4089552 C28.8121891,8.51343284 25.6706468,8.80099502 25.6706468,8.80099502 C24.1937811,8.80099502 23.4639303,9.92661692 23.4639303,9.92661692 C22.8940299,10.6049751 21.64801,12.7266169 21.64801,12.7266169 C20.5504975,14.5402985 19.5686567,14.2738806 19.5686567,14.2738806 C18.358209,14.3517413 17.4820896,13.2776119 17.4820896,13.2776119 C17.4348259,13.2355721 17.3995025,13.1858209 17.3597015,13.1435323 C16.4626866,12.1800995 17.2348259,11.0169154 17.2348259,11.0169154 C18.7119403,8.40746269 21.2597015,8.15099502 21.6059701,8.12960199 C21.9542289,8.10845771 23.129602,8.02114428 23.129602,8.02114428 C26.0069652,7.81169154 27.8865672,5.06094527 27.8865672,5.06094527 C26.6738806,4.47462687 24.5074627,4.78557214 24.5074627,4.78557214 C22.3972637,4.92686567 21.8412935,7.16641791 21.8368159,7.16641791 C20.009204,7.43507463 20.100995,6.03134328 20.4920398,5.66169154 C20.8004975,5.29900498 21.8883085,3.53731343 28.8853234,2.48706468 C28.8853234,2.48706468 32.5970149,1.75223881 39.188806,2.47537313 C39.4313433,2.50124378 39.6666667,2.71343284 39.3559701,3.08059701 C38.5268657,4.05348259 35.9340796,6.21044776 31.7748756,5.16716418 C31.7748756,5.16716418 31.6997512,6.82985075 36.2355721,7.66119403 C36.2355721,7.66119403 40.3263682,8.53233831 47.0052239,13.8972637 C47.0052239,13.8972637 43.7671642,7.90845771 38.1691542,6.08308458 C38.1691542,6.08308458 37.7544776,5.81940299 38.1313433,5.44029851 C38.1313433,5.44029851 40.780597,3.06616915 45.4554726,3.3159204 C45.4554726,3.3159204 60.9141791,4.10970149 69.6044776,13.1788557 C69.6044776,13.1788557 69.3032338,11.6669154 67.979602,9.47437811 C67.979602,9.47437811 67.7134328,9.21293532 67.8664179,9.02238806 C67.8664179,9.02238806 67.979602,8.64303483 69.4915423,8.94676617 C69.4915423,8.94676617 75.0094527,9.85373134 87.818408,14.5400498 C87.818408,14.5400498 97.4201493,17.9054726 102.655721,20.0768657 C110.526368,23.3385572 130.244776,31.3365672 142.699005,38.2298507 C144.922388,39.459204 154.184826,44.0350746 154.184826,44.0350746 C161.108706,48.3328358 167.479353,51.4440299 167.479353,51.4440299 C173.753234,54.3432836 178.314925,53.0149254 178.314925,53.0149254 C179.772388,52.4659204 182.556716,50.9544776 183.64204,52.0278607 C184.195025,52.5773632 184.227861,53.2927861 183.903234,53.969403 L183.903234,53.969403 Z M185.464428,51.5363184 C184.644279,49.6266169 182.004478,50.0950249 182.004478,50.0950249 C180.797015,50.1681592 179.273383,51.4323383 177.155721,51.8679104 C172.600995,52.8077114 169.11791,51.2584577 169.11791,51.2584577 C162.406468,48.2534826 157.863184,44.9798507 154.907463,43.288806 C151.952239,41.59801 141.012935,35.8514925 130.071144,30.3524876 C130.071144,30.3524876 117.537313,23.9278607 98.9932836,16.2619403 C98.9932836,16.2619403 63.2149254,0.0277296621 37.4813433,0.0277296621 C37.4813433,0.0277296621 24.1517413,-0.139054726 19.6373134,4.99054726 C19.6373134,4.99054726 18.8412935,5.65 19.229602,6.46243781 C19.229602,6.46243781 19.2838308,6.68631841 19.1166667,6.82985075 C19.1166667,6.82985075 17.1313433,8.13457711 15.5154229,10.0067164 C15.5154229,10.0067164 14.6492537,10.8922886 15.3457711,12.2134328 C15.3457711,12.2134328 16.2077114,13.7159204 16.75199,14.3614428 C17.3007463,15.0042289 18.39801,16.1300995 20.0746269,15.9629353 C20.8164179,15.8875622 20.8375622,15.7017413 20.8375622,15.7017413 C21.6077114,16.4788557 22.9524876,16.5258706 22.9524876,16.5258706 C22.8181592,16.04801 22.3047264,15.100995 22.2599502,14.55 C22.2104478,13.9330846 22.4504975,13.3606965 22.4504975,13.3606965 C22.7308458,12.6823383 23.2562189,11.8415423 23.7910448,11.4223881 C24.2666667,11.0502488 25.4462687,10.6641791 26.3271144,11.2810945 C27.0340796,11.7758706 27.7848259,13.3606965 26.9373134,15.4472637 C26.9373134,15.4472637 25.9835821,17.0957711 25.1027363,17.2793532 L24.858209,17.2910448 C24.3539801,17.281592 23.2308458,16.6624378 23.2308458,16.6624378 C23.2308458,16.6624378 23.1838308,16.7967662 23.3084577,17.3644279 C23.3813433,17.6868159 23.4850746,18.0450249 23.5723881,18.320398 L23.3390547,18.5087065 C23.3390547,18.5087065 22.6300995,19.0788557 22.9435323,19.9007463 C22.9435323,19.9007463 23.6335821,22.4960199 25.5599502,22.4960199 C27.2629353,22.5527363 28.6803483,20.9370647 28.6803483,20.9370647 C32.3333333,16.9970149 37.4813433,16.4671642 37.4813433,16.4671642 C43.1873134,16.0783582 51.3412935,21.921393 53.5619403,23.6077114 C45.1119403,23.5159204 41.7017413,26.7587065 41.7017413,26.7587065 C36.9422886,30.4634328 38.7952736,34.9333333 38.7952736,34.9333333 C39.141791,35.9057214 40.1166667,36.6146766 40.7385572,36.8878109 C41.6353234,37.278607 42.3728856,37.2950249 43.0676617,37.2174129 C43.569403,37.1631841 44.1199005,36.9771144 44.4002488,36.7840796 C45.04801,36.4022388 46.2042289,35.6465174 46.7624378,34.8432836 C47.1348259,34.4405473 47.5089552,33.4539801 47.2616915,32.5141791 C47.2616915,32.5141791 47.1114428,31.758209 47.791791,31.6049751 C47.791791,31.6049751 50.0310945,31.0375622 54.5532338,33.0348259 C54.5532338,33.0348259 59.4659204,35.8985075 65.8385572,36.4661692 C65.8385572,36.4661692 73.0853234,37.200995 74.8353234,33.2773632 C74.8353234,33.2773632 78.9987562,34.9800995 85.0915423,35.6773632 C85.0915423,35.6773632 91.0283582,36.291791 100.658706,35.5666667 C102.55398,35.4228856 104.779602,35.5808458 104.779602,35.5808458 C107.862438,35.9504975 109.821891,37.5544776 110.594279,38.8097015 C113.750498,43.9340796 117.51592,53.9880597 132.934826,53.5902985 L139.912935,53.3987562 C144.154726,53.3987562 147.608955,53.4343284 151.000498,55.2475124 C152.481592,56.0412935 156.39403,59.9243781 158.802736,61.2360697 C165.936318,66.0432836 170.057463,63.8084577 170.057463,63.8084577 C172.485572,62.3932836 172.294776,59.8751244 171.703483,58.4651741 C170.973383,58.2335821 180.54204,59.8681592 184.621642,54.5109453 C185.586816,53.3166667 185.75597,52.2218905 185.464428,51.5363184 L185.464428,51.5363184 Z"/>
  </g>
</svg>
