<svg xmlns="http://www.w3.org/2000/svg" width="200" height="200" viewBox="0 0 200 200">
  <g fill="#CC2229" transform="translate(0 50)">
    <path d="M65.893617,49.3606383 L80.1393617,28.5106383 C80.6851064,27.6914894 80.0297872,26.7638298 78.8840426,26.7638298 L67.8861702,26.6819149 C67.0670213,26.6819149 65.4297872,27.7191489 64.7202128,28.6191489 L59.7542553,35.087234 L52.85,44.1202128 L52.9042553,28.5095745 C52.9042553,27.4457447 51.7851064,26.762766 51.1031915,26.762766 L38.493617,26.762766 C37.6202128,26.762766 36.8287234,27.0904255 36.8018599,28.7 C36.7755319,30.2829787 38.7393617,30.6106383 38.7393617,31.0468085 L38.7393617,72.7744681 C38.7393617,73.5659574 39.8308511,74.7659574 40.5957447,74.7659574 L51.4021277,74.7117021 C52.1670213,74.6840426 52.8212766,73.5925532 52.8212766,72.8553191 L52.8478723,55.4712766 L59.7521277,64.012766 L67.0659574,73.0191489 C67.6659574,73.7287234 68.8393617,74.7117021 70.0680851,74.7117021 L81.8031915,74.6297872 C82.9223404,74.6297872 82.812766,73.2648936 82.5404255,72.9106383 C76.9612645,65.0820471 71.4122872,57.2319888 65.893617,49.3606383 L65.893617,49.3606383 Z M106.391489,26.7648936 L93.9202128,26.7648936 C92.4468085,26.7648936 92.1191489,27.6382979 91.8734043,28.5659574 C92.1457447,30.2574468 93.9202128,30.7212766 93.9202128,30.7489362 L93.9202128,72.8574468 C93.9202128,73.9765957 94.6031915,74.7138298 95.5585106,74.7138298 L100.034043,74.6861702 L106.692553,74.6319149 C107.920213,74.6319149 108.246809,73.8957447 108.246809,72.8574468 L108.246809,28.5106383 C108.246809,27.4468085 107.346809,26.7648936 106.391489,26.7648936 L106.391489,26.7648936 Z"/>
    <path d="M144.352128,5.25957447 C131.089362,1.90319149 116.162766,0.020212766 100.388298,0.020212766 C100.278723,0.020212766 100.169149,0.0468085106 100.034043,0.0468085106 C85.7340426,0.0468085106 72.0882979,1.62978723 59.7531915,4.44042553 C25.1212766,12.3553191 0.887234043,30.0393617 0.887234043,50.4797872 C0.887234043,70.9212766 25.1212766,88.6042553 59.7521277,96.5180851 C72.087234,99.3297872 85.7319149,100.911702 100.032979,100.911702 L100.387234,100.911702 C116.161702,100.911702 131.088298,99.056383 144.351064,95.7 C177.23617,87.4585106 199.914894,70.2659574 199.914894,50.4797872 C199.917021,30.6946809 177.238298,13.5010638 144.352128,5.25957447 Z M144.352128,84.7021277 C131.280851,87.7319149 116.297872,89.4510638 100.388298,89.4510638 C100.278723,89.4510638 100.169149,89.4244681 100.034043,89.4244681 C85.6244681,89.4244681 71.9521277,87.9776596 59.7531915,85.4393617 C29.2148936,79.0808511 8.14680851,65.7904255 8.14680851,50.4808511 C8.14680851,35.1712766 29.2148936,21.8808511 59.7531915,15.5223404 C71.9521277,12.9840426 85.6244681,11.537234 100.034043,11.5106383 L100.388298,11.5106383 C116.297872,11.5106383 131.280851,13.2297872 144.352128,16.2585106 C173.088298,22.862766 192.656383,35.743617 192.656383,50.4797872 C192.656383,65.2159574 173.088298,78.0978723 144.352128,84.7021277 Z"/>
    <path d="M152.947872,28.5659574 C152.540426,27.637234 151.829787,26.7648936 150.901064,26.7648936 L134.03617,26.7648936 C133.43617,26.7648936 132.617021,27.256383 132.617021,28.0744681 C132.590426,30.4755319 135.102128,30.3946809 134.964894,30.7489362 L120.746809,72.693617 C120.502128,73.4031915 121.128723,74.712766 122.002128,74.712766 L131.908511,74.6308511 C132.780851,74.6308511 134.009574,73.8946809 134.364894,72.8297872 L139.058511,58.7489362 C140.641489,54.0542553 142.225532,49.3606383 143.779787,44.6670213 C143.862766,44.4765957 144.108511,44.3670213 144.353191,44.3670213 C144.735106,44.3670213 145.144681,44.5031915 145.225532,44.7765957 L154.423404,72.9946809 C154.614894,73.6223404 155.896809,74.6319149 156.57766,74.6319149 L166.893617,74.7138298 C167.493617,74.7138298 168.204255,73.512766 168.01383,72.9670213 L152.947872,28.5659574 L152.947872,28.5659574 Z"/>
  </g>
</svg>
