<svg xmlns="http://www.w3.org/2000/svg" width="200" height="200" viewBox="0 0 200 200">
  <defs>
    <linearGradient id="land-rover-a" x1="36.852%" x2="63.137%" y1="35.812%" y2="64.184%">
      <stop offset="0%" stop-color="#008948"/>
      <stop offset="4.2%" stop-color="#008847"/>
      <stop offset="9.6%" stop-color="#008244"/>
      <stop offset="15.7%" stop-color="#00793F"/>
      <stop offset="22.2%" stop-color="#006A37"/>
      <stop offset="29.1%" stop-color="#00572B"/>
      <stop offset="31.9%" stop-color="#004E24"/>
      <stop offset="100%"/>
    </linearGradient>
  </defs>
  <g fill="none" fill-rule="evenodd" transform="translate(0 47)">
    <path fill="#58595B" fill-rule="nonzero" d="M99.8717949,0 C44.7008547,0 0,23.4615385 0,52.4358974 C0,81.3675214 44.7008547,104.871795 99.8717949,104.871795 C155,104.871795 199.74359,81.4102564 199.74359,52.4358974 C199.74359,23.4615385 155,0 99.8717949,0"/>
    <path fill="#595A5C" fill-rule="nonzero" d="M99.8717949,0 C44.7008547,0 0,23.4615385 0,52.4358974 C0,81.3675214 44.7008547,104.82906 99.8290598,104.82906 C154.957265,104.82906 199.700855,81.3675214 199.700855,52.4358974 C199.700855,23.4615385 155,0 99.8717949,0"/>
    <path fill="#5A5B5D" fill-rule="nonzero" d="M99.8717949,0.0427350427 C44.7435897,0.0427350427 0.0427350427,23.5042735 0.0427350427,52.4358974 C0.0427350427,81.3675214 44.7435897,104.82906 99.8717949,104.82906 C155,104.82906 199.700855,81.3675214 199.700855,52.4358974 C199.700855,23.5042735 155,0.0427350427 99.8717949,0.0427350427"/>
    <path fill="#5B5C5E" fill-rule="nonzero" d="M99.8717949,0.0427350427 C44.7435897,0.0427350427 0.0427350427,23.5042735 0.0427350427,52.4358974 C0.0427350427,81.3675214 44.7435897,104.82906 99.8717949,104.82906 C155,104.82906 199.700855,81.3675214 199.700855,52.4358974 C199.700855,23.5042735 155,0.0427350427 99.8717949,0.0427350427"/>
    <path fill="#5C5C5F" fill-rule="nonzero" d="M99.8717949,0.0427350427 C44.7435897,0.0427350427 0.0427350427,23.5042735 0.0427350427,52.4358974 C0.0427350427,81.3675214 44.7435897,104.82906 99.8717949,104.82906 C155,104.82906 199.700855,81.3675214 199.700855,52.4358974 C199.700855,23.5042735 155,0.0427350427 99.8717949,0.0427350427"/>
    <path fill="#5C5D60" fill-rule="nonzero" d="M99.8717949,0.0427350427 C44.7435897,0.0427350427 0.0427350427,23.5042735 0.0427350427,52.4358974 C0.0427350427,81.3675214 44.7435897,104.82906 99.8290598,104.82906 C154.957265,104.82906 199.65812,81.3675214 199.65812,52.4358974 C199.65812,23.5042735 155,0.0427350427 99.8717949,0.0427350427"/>
    <path fill="#5D5E60" fill-rule="nonzero" d="M99.8717949,0.0427350427 C44.7435897,0.0427350427 0.0854700855,23.5042735 0.0854700855,52.4358974 C0.0854700855,81.3675214 44.7863248,104.786325 99.8717949,104.786325 C155,104.786325 199.65812,81.3247863 199.65812,52.4358974 C199.65812,23.5042735 155,0.0427350427 99.8717949,0.0427350427"/>
    <path fill="#5E5F61" fill-rule="nonzero" d="M99.8717949,0.0854700855 C44.7435897,0.0854700855 0.0854700855,23.5042735 0.0854700855,52.4358974 C0.0854700855,81.3675214 44.7435897,104.786325 99.8717949,104.786325 C155,104.786325 199.65812,81.3247863 199.65812,52.4358974 C199.65812,23.5042735 154.957265,0.0854700855 99.8717949,0.0854700855"/>
    <path fill="#5F6062" fill-rule="nonzero" d="M99.8717949,0.0854700855 C44.7863248,0.0854700855 0.0854700855,23.5042735 0.0854700855,52.4358974 C0.0854700855,81.3247863 44.7435897,104.786325 99.8717949,104.786325 C154.957265,104.786325 199.65812,81.3675214 199.65812,52.4358974 C199.65812,23.5042735 154.957265,0.0854700855 99.8717949,0.0854700855"/>
    <path fill="#606163" fill-rule="nonzero" d="M99.8717949,0.0854700855 C44.7863248,0.0854700855 0.128205128,23.5470085 0.128205128,52.4358974 C0.128205128,81.3247863 44.7863248,104.786325 99.8717949,104.786325 C154.957265,104.786325 199.65812,81.3675214 199.65812,52.4358974 C199.65812,23.5470085 154.957265,0.0854700855 99.8717949,0.0854700855"/>
    <path fill="#616264" fill-rule="nonzero" d="M99.8717949,0.128205128 C44.7863248,0.128205128 0.128205128,23.5470085 0.128205128,52.4358974 C0.128205128,81.3247863 44.7863248,104.74359 99.8717949,104.74359 C154.957265,104.74359 199.615385,81.3247863 199.615385,52.4358974 C199.615385,23.5470085 154.957265,0.128205128 99.8717949,0.128205128"/>
    <path fill="#616265" fill-rule="nonzero" d="M99.8717949,0.128205128 C44.7863248,0.128205128 0.128205128,23.5470085 0.128205128,52.4358974 C0.128205128,81.3247863 44.7863248,104.74359 99.8717949,104.74359 C154.957265,104.74359 199.615385,81.3247863 199.615385,52.4358974 C199.615385,23.5470085 154.957265,0.128205128 99.8717949,0.128205128"/>
    <path fill="#626366" fill-rule="nonzero" d="M99.8717949,0.128205128 C44.7863248,0.128205128 0.128205128,23.5470085 0.128205128,52.4358974 C0.128205128,81.3247863 44.7863248,104.74359 99.8717949,104.74359 C154.957265,104.74359 199.615385,81.3247863 199.615385,52.4358974 C199.615385,23.5470085 154.957265,0.128205128 99.8717949,0.128205128"/>
    <path fill="#636467" fill-rule="nonzero" d="M99.8717949,0.128205128 C44.7863248,0.128205128 0.170940171,23.5470085 0.170940171,52.4358974 C0.170940171,81.3247863 44.8290598,104.74359 99.8717949,104.74359 C154.957265,104.74359 199.615385,81.3247863 199.615385,52.4358974 C199.615385,23.5470085 154.957265,0.128205128 99.8717949,0.128205128"/>
    <path fill="#646567" fill-rule="nonzero" d="M99.8717949,0.128205128 C44.8290598,0.128205128 0.170940171,23.5470085 0.170940171,52.4358974 C0.170940171,81.3247863 44.8290598,104.700855 99.8717949,104.700855 C154.957265,104.700855 199.57265,81.3247863 199.57265,52.4358974 C199.57265,23.5470085 154.957265,0.128205128 99.8717949,0.128205128"/>
    <path fill="#656668" fill-rule="nonzero" d="M99.8717949,0.170940171 C44.8290598,0.170940171 0.170940171,23.5470085 0.170940171,52.4358974 C0.170940171,81.3247863 44.8290598,104.700855 99.8717949,104.700855 C154.91453,104.700855 199.57265,81.3247863 199.57265,52.4358974 C199.57265,23.5470085 154.91453,0.170940171 99.8717949,0.170940171"/>
    <path fill="#656769" fill-rule="nonzero" d="M99.8717949,0.170940171 C44.8290598,0.170940171 0.170940171,23.5897436 0.170940171,52.4358974 C0.170940171,81.2820513 44.8290598,104.700855 99.8717949,104.700855 C154.91453,104.700855 199.57265,81.2820513 199.57265,52.4358974 C199.57265,23.5897436 154.91453,0.170940171 99.8717949,0.170940171"/>
    <path fill="#66686A" fill-rule="nonzero" d="M99.8717949,0.170940171 C44.8290598,0.170940171 0.213675214,23.5897436 0.213675214,52.4358974 C0.213675214,81.2820513 44.8290598,104.700855 99.8717949,104.700855 C154.91453,104.700855 199.57265,81.2820513 199.57265,52.4358974 C199.57265,23.5897436 154.91453,0.170940171 99.8717949,0.170940171"/>
    <path fill="#67686B" fill-rule="nonzero" d="M99.8717949,0.170940171 C44.8290598,0.170940171 0.213675214,23.5897436 0.213675214,52.4358974 C0.213675214,81.2820513 44.8290598,104.700855 99.8717949,104.700855 C154.91453,104.700855 199.57265,81.2820513 199.57265,52.4358974 C199.57265,23.5897436 154.91453,0.170940171 99.8717949,0.170940171"/>
    <path fill="#68696C" fill-rule="nonzero" d="M99.8717949,0.213675214 C44.8290598,0.213675214 0.213675214,23.5897436 0.213675214,52.4358974 C0.213675214,81.2820513 44.8290598,104.65812 99.8717949,104.65812 C154.91453,104.65812 199.529915,81.2820513 199.529915,52.4358974 C199.529915,23.5897436 154.91453,0.213675214 99.8717949,0.213675214"/>
    <path fill="#696A6C" fill-rule="nonzero" d="M99.8717949,0.213675214 C44.8717949,0.213675214 0.256410256,23.5897436 0.256410256,52.4358974 C0.256410256,81.2820513 44.8717949,104.65812 99.9145299,104.65812 C154.957265,104.65812 199.57265,81.2820513 199.57265,52.4358974 C199.529915,23.5897436 154.91453,0.213675214 99.8717949,0.213675214"/>
    <path fill="#696B6D" fill-rule="nonzero" d="M99.8717949,0.213675214 C44.8717949,0.213675214 0.256410256,23.5897436 0.256410256,52.4358974 C0.256410256,81.2820513 44.8717949,104.65812 99.8717949,104.65812 C154.91453,104.65812 199.529915,81.2820513 199.529915,52.4358974 C199.529915,23.5897436 154.91453,0.213675214 99.8717949,0.213675214"/>
    <path fill="#6A6C6E" fill-rule="nonzero" d="M99.8717949,0.213675214 C44.8717949,0.213675214 0.256410256,23.5897436 0.256410256,52.4358974 C0.256410256,81.2820513 44.8717949,104.615385 99.8717949,104.615385 C154.871795,104.615385 199.48721,81.2393162 199.48721,52.4358974 C199.529915,23.5897436 154.91453,0.213675214 99.8717949,0.213675214"/>
    <path fill="#6B6C6F" fill-rule="nonzero" d="M99.8717949,0.256410256 C44.8717949,0.256410256 0.256410256,23.6324786 0.256410256,52.4358974 C0.256410256,81.2393162 44.8717949,104.615385 99.8717949,104.615385 C154.871795,104.615385 199.487179,81.2393162 199.487179,52.4358974 C199.487179,23.6324786 154.91453,0.256410256 99.8717949,0.256410256"/>
    <path fill="#6C6D70" fill-rule="nonzero" d="M99.8717949,0.256410256 C44.8717949,0.256410256 0.299145299,23.6324786 0.299145299,52.4358974 C0.299145299,81.2393162 44.9145299,104.615385 99.9145299,104.615385 C154.91453,104.615385 199.529915,81.2393162 199.529915,52.4358974 C199.487179,23.6324786 154.871795,0.256410256 99.8717949,0.256410256"/>
    <path fill="#6D6E70" fill-rule="nonzero" d="M99.8717949,0.256410256 C44.8717949,0.256410256 0.299145299,23.6324786 0.299145299,52.4358974 C0.299145299,81.2393162 44.8717949,104.615385 99.8717949,104.615385 C154.871795,104.615385 199.487179,81.2393162 199.487179,52.4358974 C199.487179,23.6324786 154.871795,0.256410256 99.8717949,0.256410256"/>
    <path fill="#6D6F71" fill-rule="nonzero" d="M99.8717949,0.256410256 C44.8717949,0.256410256 0.299145299,23.5897436 0.299145299,52.4358974 C0.299145299,81.2393162 44.8717949,104.615385 99.8717949,104.615385 C154.871795,104.615385 199.444475,81.2393162 199.444475,52.4358974 C199.487179,23.6324786 154.871795,0.256410256 99.8717949,0.256410256"/>
    <path fill="#6E7072" fill-rule="nonzero" d="M99.8717949,0.299145299 C44.8717949,0.299145299 0.299145299,23.6324786 0.299145299,52.4358974 C0.299145299,81.2393162 44.8717949,104.57265 99.8717949,104.57265 C154.871795,104.57265 199.444444,81.2393162 199.444444,52.4358974 C199.444444,23.6324786 154.871795,0.299145299 99.8717949,0.299145299"/>
    <path fill="#6F7073" fill-rule="nonzero" d="M99.8717949,0.299145299 C44.8717949,0.299145299 0.299145299,23.6324786 0.299145299,52.4358974 C0.299145299,81.2393162 44.8717949,104.57265 99.8717949,104.57265 C154.871795,104.57265 199.444444,81.2393162 199.444444,52.4358974 C199.444444,23.6324786 154.871795,0.299145299 99.8717949,0.299145299"/>
    <path fill="#707174" fill-rule="nonzero" d="M99.8717949,0.299145299 C44.9145299,0.299145299 0.341880342,23.6324786 0.341880342,52.4358974 C0.341880342,81.2393162 44.9145299,104.57265 99.8717949,104.57265 C154.82906,104.57265 199.444444,81.2393162 199.444444,52.4358974 C199.444444,23.6324786 154.871795,0.299145299 99.8717949,0.299145299"/>
    <path fill="#707274" fill-rule="nonzero" d="M99.8717949,0.299145299 C44.9145299,0.299145299 0.341880342,23.6752137 0.341880342,52.4358974 C0.341880342,81.1965812 44.9145299,104.57265 99.8717949,104.57265 C154.82906,104.57265 199.40174,81.2393162 199.40174,52.4358974 C199.444444,23.6752137 154.871795,0.299145299 99.8717949,0.299145299"/>
    <path fill="#717375" fill-rule="nonzero" d="M99.9145299,0.341880342 C44.9145299,0.341880342 0.384615385,23.6752137 0.384615385,52.4358974 C0.384615385,81.1965812 44.957265,104.529915 99.9145299,104.529915 C154.871795,104.529915 199.444444,81.1965812 199.444444,52.4358974 C199.444444,23.6752137 154.871795,0.341880342 99.9145299,0.341880342"/>
    <path fill="#727476" fill-rule="nonzero" d="M99.9145299,0.341880342 C44.957265,0.341880342 0.384615385,23.6752137 0.384615385,52.4358974 C0.384615385,81.1965812 44.957265,104.529915 99.9145299,104.529915 C154.871795,104.529915 199.444444,81.1965812 199.444444,52.4358974 C199.401709,23.6752137 154.871795,0.341880342 99.9145299,0.341880342"/>
    <path fill="#737477" fill-rule="nonzero" d="M99.9145299,0.341880342 C44.957265,0.341880342 0.384615385,23.6752137 0.384615385,52.4358974 C0.384615385,81.1965812 44.9145299,104.529915 99.8717949,104.529915 C154.82906,104.529915 199.401709,81.1965812 199.401709,52.4358974 C199.401709,23.6752137 154.82906,0.341880342 99.9145299,0.341880342"/>
    <path fill="#747578" fill-rule="nonzero" d="M99.9145299,0.341880342 C44.957265,0.341880342 0.384615385,23.6752137 0.384615385,52.4358974 C0.384615385,81.1965812 44.9145299,104.529915 99.8717949,104.529915 C154.82906,104.529915 199.359005,81.1965812 199.359005,52.4358974 C199.401709,23.6752137 154.82906,0.341880342 99.9145299,0.341880342"/>
    <path fill="#747678" fill-rule="nonzero" d="M99.9145299,0.384615385 C44.957265,0.384615385 0.427350427,23.6752137 0.427350427,52.4358974 C0.427350427,81.1965812 44.957265,104.529915 99.9145299,104.529915 C154.871795,104.529915 199.401709,81.1965812 199.401709,52.4786325 C199.401709,23.6752137 154.82906,0.384615385 99.9145299,0.384615385"/>
    <path fill="#757779" fill-rule="nonzero" d="M99.9145299,0.384615385 C44.957265,0.384615385 0.427350427,23.6752137 0.427350427,52.4358974 C0.427350427,81.1965812 44.957265,104.487179 99.9145299,104.487179 C154.82906,104.487179 199.401709,81.1965812 199.401709,52.4358974 C199.358974,23.6752137 154.82906,0.384615385 99.9145299,0.384615385"/>
    <path fill="#76777A" fill-rule="nonzero" d="M99.9145299,0.384615385 C44.957265,0.384615385 0.427350427,23.7179487 0.427350427,52.4358974 C0.427350427,81.1965812 44.957265,104.487179 99.9145299,104.487179 C154.82906,104.487179 199.401709,81.1965812 199.401709,52.4358974 C199.358974,23.7179487 154.82906,0.384615385 99.9145299,0.384615385"/>
    <path fill="#77787B" fill-rule="nonzero" d="M99.9145299,0.384615385 C45,0.384615385 0.47008547,23.7179487 0.47008547,52.4358974 C0.47008547,81.1538462 45,104.487179 99.9145299,104.487179 C154.82906,104.487179 199.358974,81.1965812 199.358974,52.4358974 C199.358974,23.7179487 154.82906,0.384615385 99.9145299,0.384615385"/>
    <path fill="#77797B" fill-rule="nonzero" d="M99.9145299,0.427350427 C45,0.427350427 0.47008547,23.7179487 0.47008547,52.4358974 C0.47008547,81.1538462 45,104.444444 99.9145299,104.444444 C154.82906,104.444444 199.358974,81.1538462 199.358974,52.4358974 C199.358974,23.7179487 154.82906,0.427350427 99.9145299,0.427350427"/>
    <path fill="#787A7C" fill-rule="nonzero" d="M99.9145299,0.427350427 C45,0.427350427 0.47008547,23.7179487 0.47008547,52.4358974 C0.47008547,81.1538462 45,104.444444 99.9145299,104.444444 C154.82906,104.444444 199.358974,81.1538462 199.358974,52.4358974 C199.358974,23.7179487 154.82906,0.427350427 99.9145299,0.427350427"/>
    <path fill="#797A7D" fill-rule="nonzero" d="M99.9145299,0.427350427 C45,0.427350427 0.47008547,23.7179487 0.47008547,52.4358974 C0.47008547,81.1538462 45,104.444444 99.8717949,104.444444 C154.786325,104.444444 199.316239,81.1538462 199.316239,52.4358974 C199.316239,23.7179487 154.82906,0.427350427 99.9145299,0.427350427"/>
    <path fill="#7A7B7E" fill-rule="nonzero" d="M99.9145299,0.427350427 C45,0.427350427 0.512820513,23.7179487 0.512820513,52.4358974 C0.512820513,81.1538462 45,104.444444 99.9145299,104.444444 C154.82906,104.444444 199.316239,81.1538462 199.316239,52.4358974 C199.316239,23.7179487 154.786325,0.427350427 99.9145299,0.427350427"/>
    <path fill="#7A7C7F" fill-rule="nonzero" d="M99.9145299,0.47008547 C45,0.47008547 0.512820513,23.7179487 0.512820513,52.4358974 C0.512820513,81.1538462 45,104.401709 99.9145299,104.401709 C154.786325,104.401709 199.316239,81.1111111 199.316239,52.4358974 C199.316239,23.7179487 154.786325,0.47008547 99.9145299,0.47008547"/>
    <path fill="#7B7D7F" fill-rule="nonzero" d="M99.9145299,0.47008547 C45.042735,0.47008547 0.512820513,23.7179487 0.512820513,52.4358974 C0.512820513,81.1538462 45,104.401709 99.9145299,104.401709 C154.786325,104.401709 199.316239,81.1111111 199.316239,52.4358974 C199.316239,23.7179487 154.786325,0.47008547 99.9145299,0.47008547"/>
    <path fill="#7C7D80" fill-rule="nonzero" d="M99.9145299,0.47008547 C45.042735,0.47008547 0.555555556,23.7606838 0.555555556,52.4358974 C0.555555556,81.1538462 45.042735,104.401709 99.9145299,104.401709 C154.786325,104.401709 199.273504,81.1538462 199.273504,52.4358974 C199.273504,23.7606838 154.786325,0.47008547 99.9145299,0.47008547"/>
    <path fill="#7C7E81" fill-rule="nonzero" d="M99.9145299,0.47008547 C45.042735,0.47008547 0.555555556,23.7606838 0.555555556,52.4358974 C0.555555556,81.1111111 45.042735,104.401709 99.9145299,104.401709 C154.786325,104.401709 199.273504,81.1538462 199.273504,52.4358974 C199.273504,23.7606838 154.786325,0.47008547 99.9145299,0.47008547"/>
    <path fill="#7D7F82" fill-rule="nonzero" d="M99.9145299,0.512820513 C45.042735,0.512820513 0.555555556,23.7606838 0.555555556,52.4358974 C0.555555556,81.1111111 45.042735,104.401709 99.9145299,104.401709 C154.786325,104.401709 199.273504,81.1538462 199.273504,52.4358974 C199.273504,23.7606838 154.786325,0.512820513 99.9145299,0.512820513"/>
    <path fill="#7E8082" fill-rule="nonzero" d="M99.9145299,0.512820513 C45.042735,0.512820513 0.555555556,23.7606838 0.555555556,52.4358974 C0.555555556,81.1111111 45.042735,104.358974 99.9145299,104.358974 C154.786325,104.358974 199.273504,81.1111111 199.273504,52.4358974 C199.273504,23.7606838 154.786325,0.512820513 99.9145299,0.512820513"/>
    <path fill="#7F8083" fill-rule="nonzero" d="M99.9145299,0.512820513 C45.042735,0.512820513 0.598290598,23.7606838 0.598290598,52.4358974 C0.598290598,81.1111111 45.0854701,104.358974 99.9145299,104.358974 C154.786325,104.358974 199.273504,81.1111111 199.273504,52.4358974 C199.230769,23.7606838 154.786325,0.512820513 99.9145299,0.512820513"/>
    <path fill="#7F8184" fill-rule="nonzero" d="M99.9145299,0.512820513 C45.0854701,0.512820513 0.598290598,23.7606838 0.598290598,52.4358974 C0.598290598,81.1111111 45.0854701,104.358974 99.9145299,104.358974 C154.786325,104.358974 199.230769,81.1111111 199.230769,52.4358974 C199.230769,23.7606838 154.74359,0.512820513 99.9145299,0.512820513"/>
    <path fill="#808285" fill-rule="nonzero" d="M99.9145299,0.555555556 C45.0854701,0.555555556 0.598290598,23.7606838 0.598290598,52.4358974 C0.598290598,81.1111111 45.042735,104.358974 99.9145299,104.358974 C154.74359,104.358974 199.230769,81.1111111 199.230769,52.4358974 C199.230769,23.7606838 154.74359,0.555555556 99.9145299,0.555555556"/>
    <path fill="#818385" fill-rule="nonzero" d="M99.9145299,0.555555556 C45.0854701,0.555555556 0.641025641,23.8034188 0.641025641,52.4358974 C0.641025641,81.1111111 45.0854701,104.316239 99.957265,104.316239 C154.786325,104.316239 199.273504,81.0683761 199.273504,52.4358974 C199.230769,23.8034188 154.74359,0.555555556 99.9145299,0.555555556"/>
    <path fill="#828386" fill-rule="nonzero" d="M99.9145299,0.555555556 C45.0854701,0.555555556 0.641025641,23.8034188 0.641025641,52.4358974 C0.641025641,81.0683761 45.0854701,104.316239 99.9145299,104.316239 C154.74359,104.316239 199.188065,81.0683761 199.188065,52.4358974 C199.230769,23.8034188 154.74359,0.555555556 99.9145299,0.555555556"/>
    <path fill="#828487" fill-rule="nonzero" d="M99.9145299,0.555555556 C45.0854701,0.555555556 0.641025641,23.8034188 0.641025641,52.4358974 C0.641025641,81.0683761 45.0854701,104.316239 99.9145299,104.316239 C154.74359,104.316239 199.188034,81.0683761 199.188034,52.4358974 C199.188034,23.8034188 154.74359,0.555555556 99.9145299,0.555555556"/>
    <path fill="#838588" fill-rule="nonzero" d="M99.9145299,0.598290598 C45.0854701,0.598290598 0.641025641,23.8034188 0.641025641,52.4358974 C0.641025641,81.0683761 45.0854701,104.316239 99.9145299,104.316239 C154.74359,104.316239 199.188034,81.1111111 199.188034,52.4358974 C199.188034,23.8034188 154.74359,0.598290598 99.9145299,0.598290598"/>
    <path fill="#848688" fill-rule="nonzero" d="M99.9145299,0.598290598 C45.1282051,0.598290598 0.683760684,23.8034188 0.683760684,52.4358974 C0.683760684,81.0683761 45.1282051,104.273504 99.9145299,104.273504 C154.74359,104.273504 199.188034,81.0683761 199.188034,52.4358974 C199.188034,23.8034188 154.74359,0.598290598 99.9145299,0.598290598"/>
    <path fill="#858689" fill-rule="nonzero" d="M99.9145299,0.598290598 C45.1282051,0.598290598 0.683760684,23.8034188 0.683760684,52.4358974 C0.683760684,81.0683761 45.1282051,104.273504 99.9145299,104.273504 C154.74359,104.273504 199.14533,81.0683761 199.14533,52.4358974 C199.188034,23.8034188 154.74359,0.598290598 99.9145299,0.598290598"/>
    <path fill="#85878A" fill-rule="nonzero" d="M99.9145299,0.598290598 C45.1282051,0.598290598 0.683760684,23.8034188 0.683760684,52.4358974 C0.683760684,81.0683761 45.1282051,104.273504 99.9145299,104.273504 C154.74359,104.273504 199.145299,81.0683761 199.145299,52.4358974 C199.145299,23.8034188 154.74359,0.598290598 99.9145299,0.598290598"/>
    <path fill="#86888B" fill-rule="nonzero" d="M99.9145299,0.641025641 C45.1282051,0.641025641 0.683760684,23.8461538 0.683760684,52.4358974 C0.683760684,81.0683761 45.1282051,104.273504 99.9145299,104.273504 C154.700855,104.273504 199.145299,81.0683761 199.145299,52.4358974 C199.145299,23.8461538 154.700855,0.641025641 99.9145299,0.641025641"/>
    <path fill="#87898B" fill-rule="nonzero" d="M99.9145299,0.641025641 C45.1282051,0.641025641 0.726495726,23.8461538 0.726495726,52.4358974 C0.726495726,81.0683761 45.1282051,104.230828 99.9145299,104.230828 C154.700855,104.273504 199.145299,81.0683761 199.145299,52.4358974 C199.145299,23.8461538 154.700855,0.641025641 99.9145299,0.641025641"/>
    <path fill="#88898C" fill-rule="nonzero" d="M99.9145299,0.641025641 C45.1282051,0.641025641 0.726495726,23.8461538 0.726495726,52.4358974 C0.726495726,81.0683761 45.1282051,104.273504 99.9145299,104.273504 C154.700855,104.273504 199.145299,81.0683761 199.145299,52.4358974 C199.145299,23.8461538 154.700855,0.641025641 99.9145299,0.641025641"/>
    <path fill="#888A8D" fill-rule="nonzero" d="M99.9145299,0.641025641 C45.1282051,0.641025641 0.726495726,23.8461538 0.726495726,52.4786325 C0.726495726,81.0683761 45.1282051,104.273504 99.9145299,104.273504 C154.700855,104.273504 199.102564,81.0683761 199.102564,52.4786325 C199.102564,23.8461538 154.700855,0.641025641 99.9145299,0.641025641"/>
    <path fill="#898B8E" fill-rule="nonzero" d="M99.9145299,0.683760684 C45.1709402,0.683760684 0.769230769,23.8461538 0.769230769,52.4786325 C0.769230769,81.0683761 45.1709402,104.273504 99.957265,104.273504 C154.74359,104.273504 199.145299,81.0683761 199.145299,52.4786325 C199.102564,23.8461538 154.700855,0.683760684 99.9145299,0.683760684"/>
    <path fill="#8A8C8E" fill-rule="nonzero" d="M99.9145299,0.683760684 C45.1709402,0.683760684 0.769230769,23.8461538 0.769230769,52.4786325 C0.769230769,81.0683761 45.1709402,104.230769 99.9145299,104.230769 C154.700855,104.230769 199.102564,81.0683761 199.102564,52.4786325 C199.102564,23.8461538 154.700855,0.683760684 99.9145299,0.683760684"/>
    <path fill="#8A8C8F" fill-rule="nonzero" d="M99.9145299,0.683760684 C45.1709402,0.683760684 0.769230769,23.8461538 0.769230769,52.4358974 C0.769230769,81.025641 45.1709402,104.188034 99.9145299,104.188034 C154.65812,104.188034 199.05986,81.025641 199.05986,52.4358974 C199.102564,23.8461538 154.700855,0.683760684 99.9145299,0.683760684"/>
    <path fill="#8B8D90" fill-rule="nonzero" d="M99.9145299,0.683760684 C45.1709402,0.683760684 0.769230769,23.8461538 0.769230769,52.4358974 C0.769230769,81.025641 45.1709402,104.188034 99.9145299,104.188034 C154.65812,104.188034 199.05986,81.025641 199.05986,52.4358974 C199.102564,23.8888889 154.700855,0.683760684 99.9145299,0.683760684"/>
    <path fill="#8C8E91" fill-rule="nonzero" d="M99.9145299,0.726495726 C45.1709402,0.726495726 0.769230769,23.8888889 0.769230769,52.4786325 C0.769230769,81.0683761 45.1709402,104.230769 99.9145299,104.230769 C154.65812,104.230769 199.059829,81.0683761 199.059829,52.4786325 C199.059829,23.8888889 154.700855,0.726495726 99.9145299,0.726495726"/>
    <path fill="#8D8F91" fill-rule="nonzero" d="M99.9145299,0.726495726 C45.1709402,0.726495726 0.811965812,23.8888889 0.811965812,52.4786325 C0.811965812,81.025641 45.2136752,104.188034 99.9145299,104.188034 C154.65812,104.188034 199.059829,81.025641 199.059829,52.4786325 C199.059829,23.8888889 154.65812,0.726495726 99.9145299,0.726495726"/>
    <path fill="#8D8F92" fill-rule="nonzero" d="M99.9145299,0.726495726 C45.2136752,0.726495726 0.811965812,23.8888889 0.811965812,52.4786325 C0.811965812,81.025641 45.1709402,104.188034 99.9145299,104.188034 C154.65812,104.188034 199.017125,81.025641 199.017125,52.4786325 C199.059829,23.8888889 154.65812,0.726495726 99.9145299,0.726495726"/>
    <path fill="#8E9093" fill-rule="nonzero" d="M99.9145299,0.726495726 C45.2136752,0.726495726 0.854700855,23.8888889 0.854700855,52.4786325 C0.854700855,81.025641 45.2136752,104.188034 99.957265,104.188034 C154.700855,104.188034 199.059829,81.025641 199.059829,52.4786325 C199.059829,23.8888889 154.65812,0.726495726 99.9145299,0.726495726"/>
    <path fill="#8F9194" fill-rule="nonzero" d="M99.9145299,0.769230769 C45.2136752,0.769230769 0.854700855,23.8888889 0.854700855,52.4786325 C0.854700855,81.025641 45.2136752,104.188034 99.957265,104.188034 C154.700855,104.188034 199.059829,81.025641 199.059829,52.4786325 C199.017094,23.8888889 154.65812,0.769230769 99.9145299,0.769230769"/>
    <path fill="#909294" fill-rule="nonzero" d="M99.957265,0.769230769 C45.2136752,0.769230769 0.854700855,23.8888889 0.854700855,52.4786325 C0.854700855,81.025641 45.2136752,104.188034 99.9145299,104.188034 C154.615385,104.188034 199.017094,81.025641 199.017094,52.4786325 C199.017094,23.8888889 154.65812,0.769230769 99.957265,0.769230769"/>
    <path fill="#909395" fill-rule="nonzero" d="M99.957265,0.769230769 C45.2136752,0.769230769 0.854700855,23.9316239 0.854700855,52.4786325 C0.854700855,81.025641 45.2136752,104.145299 99.9145299,104.145299 C154.615385,104.145299 198.97439,81.025641 198.97439,52.4786325 C199.017094,23.9316239 154.65812,0.769230769 99.957265,0.769230769"/>
    <path fill="#919396" fill-rule="nonzero" d="M99.957265,0.769230769 C45.2136752,0.769230769 0.897435897,23.9316239 0.897435897,52.4786325 C0.897435897,81.025641 45.2564103,104.145299 99.957265,104.145299 C154.65812,104.145299 199.017094,81.025641 199.017094,52.4786325 C199.017094,23.9316239 154.65812,0.769230769 99.957265,0.769230769"/>
    <path fill="#929497" fill-rule="nonzero" d="M99.957265,0.811965812 C45.2564103,0.811965812 0.897435897,23.9316239 0.897435897,52.4786325 C0.897435897,81.025641 45.2564103,104.145299 99.957265,104.145299 C154.65812,104.145299 199.017094,81.025641 199.017094,52.4786325 C199.017094,23.9316239 154.65812,0.811965812 99.957265,0.811965812"/>
    <path fill="#939597" fill-rule="nonzero" d="M99.957265,0.811965812 C45.2564103,0.811965812 0.897435897,23.9316239 0.897435897,52.4786325 C0.897435897,80.982906 45.2564103,104.145299 99.9145299,104.145299 C154.615385,104.145299 198.974359,81.025641 198.974359,52.4786325 C198.974359,23.9316239 154.615385,0.811965812 99.957265,0.811965812"/>
    <path fill="#939698" fill-rule="nonzero" d="M99.957265,0.811965812 C45.2564103,0.811965812 0.897435897,23.9316239 0.897435897,52.4786325 C0.897435897,80.982906 45.2136752,104.102564 99.9145299,104.102564 C154.615385,104.102564 198.931655,80.982906 198.931655,52.4786325 C198.974359,23.9316239 154.615385,0.811965812 99.957265,0.811965812"/>
    <path fill="#949699" fill-rule="nonzero" d="M99.957265,0.811965812 C45.2564103,0.811965812 0.94017094,23.9316239 0.94017094,52.4786325 C0.94017094,80.982906 45.2564103,104.102564 99.957265,104.102564 C154.65812,104.102564 198.974359,80.982906 198.974359,52.4786325 C198.974359,23.9316239 154.615385,0.811965812 99.957265,0.811965812"/>
    <path fill="#95979A" fill-rule="nonzero" d="M99.957265,0.854700855 C45.2564103,0.854700855 0.94017094,23.9316239 0.94017094,52.4786325 C0.94017094,80.982906 45.2564103,104.102564 99.957265,104.102564 C154.615385,104.102564 198.974359,80.982906 198.974359,52.4786325 C198.974359,23.9316239 154.615385,0.854700855 99.957265,0.854700855"/>
    <path fill="#96989A" fill-rule="nonzero" d="M99.957265,0.854700855 C45.2564103,0.854700855 0.94017094,23.974359 0.94017094,52.4786325 C0.94017094,80.982906 45.2564103,104.102564 99.9145299,104.102564 C154.57265,104.102564 198.931624,80.982906 198.931624,52.4786325 C198.931624,23.974359 154.615385,0.854700855 99.957265,0.854700855"/>
    <path fill="#97999B" fill-rule="nonzero" d="M99.957265,0.854700855 C45.2991453,0.854700855 0.982905983,23.974359 0.982905983,52.4786325 C0.982905983,80.982906 45.2991453,104.059829 99.957265,104.059829 C154.615385,104.059829 198.931624,80.9401709 198.931624,52.4786325 C198.931624,23.974359 154.615385,0.854700855 99.957265,0.854700855"/>
    <path fill="#97999C" fill-rule="nonzero" d="M99.957265,0.854700855 C45.2991453,0.854700855 0.982905983,23.974359 0.982905983,52.4786325 C0.982905983,80.982906 45.2991453,104.059829 99.957265,104.059829 C154.615385,104.059829 198.931624,80.9401709 198.931624,52.4786325 C198.931624,23.974359 154.615385,0.854700855 99.957265,0.854700855"/>
    <path fill="#989A9D" fill-rule="nonzero" d="M99.957265,0.897435897 C45.2991453,0.897435897 0.982905983,23.974359 0.982905983,52.4786325 C0.982905983,80.9401709 45.2991453,104.059829 99.957265,104.059829 C154.615385,104.059829 198.931624,80.982906 198.931624,52.4786325 C198.931624,23.974359 154.615385,0.897435897 99.957265,0.897435897"/>
    <path fill="#999B9E" fill-rule="nonzero" d="M99.957265,0.897435897 C45.2991453,0.897435897 0.982905983,23.974359 0.982905983,52.4786325 C0.982905983,80.9401709 45.2991453,104.059829 99.9145299,104.059829 C154.57265,104.059829 198.888889,80.982906 198.888889,52.4786325 C198.888889,23.974359 154.615385,0.897435897 99.957265,0.897435897"/>
    <path fill="#9A9C9E" fill-rule="nonzero" d="M99.957265,0.897435897 C45.2991453,0.897435897 1.02564103,23.974359 1.02564103,52.4786325 C1.02564103,80.9401709 45.3418803,104.017094 99.957265,104.017094 C154.615385,104.017094 198.888889,80.9401709 198.888889,52.4786325 C198.888889,23.974359 154.57265,0.897435897 99.957265,0.897435897"/>
    <path fill="#9A9C9F" fill-rule="nonzero" d="M99.957265,0.897435897 C45.2991453,0.897435897 1.02564103,23.974359 1.02564103,52.4786325 C1.02564103,80.9401709 45.2991453,104.017094 99.957265,104.017094 C154.57265,104.017094 198.888889,80.9401709 198.888889,52.4786325 C198.888889,23.974359 154.57265,0.897435897 99.957265,0.897435897"/>
    <path fill="#9B9DA0" fill-rule="nonzero" d="M99.957265,0.94017094 C45.3418803,0.94017094 1.02564103,24.017094 1.02564103,52.4786325 C1.02564103,80.9401709 45.2991453,104.017094 99.957265,104.017094 C154.57265,104.017094 198.888889,80.9401709 198.888889,52.4786325 C198.888889,24.017094 154.57265,0.94017094 99.957265,0.94017094"/>
    <path fill="#9C9EA1" fill-rule="nonzero" d="M99.957265,0.94017094 C45.3418803,0.94017094 1.06837607,24.017094 1.06837607,52.4786325 C1.06837607,80.9401709 45.3418803,104.017094 99.957265,104.017094 C154.57265,104.017094 198.888889,80.9401709 198.888889,52.4786325 C198.888889,24.017094 154.57265,0.94017094 99.957265,0.94017094"/>
    <path fill="#9D9FA1" fill-rule="nonzero" d="M99.957265,0.94017094 C45.3418803,0.94017094 1.06837607,24.017094 1.06837607,52.4786325 C1.06837607,80.9401709 45.3418803,103.974359 99.957265,103.974359 C154.57265,103.974359 198.846154,80.8974359 198.846154,52.4786325 C198.846154,24.017094 154.57265,0.94017094 99.957265,0.94017094"/>
    <path fill="#9DA0A2" fill-rule="nonzero" d="M99.957265,0.94017094 C45.3418803,0.94017094 1.06837607,24.017094 1.06837607,52.4786325 C1.06837607,80.9401709 45.3418803,103.974359 99.957265,103.974359 C154.57265,103.974359 198.846154,80.8974359 198.846154,52.4786325 C198.846154,24.017094 154.57265,0.94017094 99.957265,0.94017094"/>
    <path fill="#9EA0A3" fill-rule="nonzero" d="M99.957265,0.982905983 C45.3418803,0.982905983 1.06837607,24.017094 1.06837607,52.4786325 C1.06837607,80.8974359 45.3418803,103.974359 99.957265,103.974359 C154.57265,103.974359 198.846154,80.8974359 198.846154,52.4786325 C198.846154,24.017094 154.57265,0.982905983 99.957265,0.982905983"/>
    <path fill="#9FA1A4" fill-rule="nonzero" d="M99.957265,0.982905983 C45.3418803,0.982905983 1.11111111,24.017094 1.11111111,52.4786325 C1.11111111,80.8974359 45.3846154,103.974359 99.957265,103.974359 C154.57265,103.974359 198.846154,80.9401709 198.846154,52.4786325 C198.846154,24.017094 154.57265,0.982905983 99.957265,0.982905983"/>
    <path fill="#A0A2A4" fill-rule="nonzero" d="M99.957265,0.982905983 C45.3846154,0.982905983 1.11111111,24.017094 1.11111111,52.4786325 C1.11111111,80.8974359 45.3846154,103.974359 99.957265,103.974359 C154.57265,103.974359 198.803419,80.9401709 198.803419,52.4786325 C198.803419,24.017094 154.57265,0.982905983 99.957265,0.982905983"/>
    <path fill="#A1A3A5" fill-rule="nonzero" d="M99.957265,0.982905983 C45.3846154,0.982905983 1.11111111,24.0598291 1.11111111,52.4786325 C1.11111111,80.8974359 45.3846154,103.931624 99.957265,103.931624 C154.529915,103.931624 198.803419,80.8974359 198.803419,52.4786325 C198.803419,24.0598291 154.529915,0.982905983 99.957265,0.982905983"/>
    <path fill="#A1A3A6" fill-rule="nonzero" d="M99.957265,1.02564103 C45.3846154,1.02564103 1.11111111,24.0598291 1.11111111,52.4786325 C1.11111111,80.8974359 45.3418803,103.931624 99.957265,103.931624 C154.529915,103.931624 198.803419,80.8974359 198.803419,52.4786325 C198.803419,24.0598291 154.529915,1.02564103 99.957265,1.02564103"/>
    <path fill="#A2A4A7" fill-rule="nonzero" d="M99.957265,1.02564103 C45.3846154,1.02564103 1.15384615,24.0598291 1.15384615,52.4786325 C1.15384615,80.8974359 45.3846154,103.931624 99.957265,103.931624 C154.529915,103.931624 198.803419,80.8974359 198.803419,52.4786325 C198.803419,24.0598291 154.529915,1.02564103 99.957265,1.02564103"/>
    <path fill="#A3A5A8" fill-rule="nonzero" d="M99.957265,1.02564103 C45.3846154,1.02564103 1.15384615,24.0598291 1.15384615,52.4786325 C1.15384615,80.8974359 45.3846154,103.931624 99.957265,103.931624 C154.529915,103.931624 198.760684,80.8974359 198.760684,52.4786325 C198.760684,24.0598291 154.529915,1.02564103 99.957265,1.02564103"/>
    <path fill="#A4A6A8" fill-rule="nonzero" d="M99.957265,1.02564103 C45.3846154,1.02564103 1.15384615,24.0598291 1.15384615,52.4786325 C1.15384615,80.8974359 45.3846154,103.888889 99.957265,103.888889 C154.529915,103.888889 198.760684,80.8547009 198.760684,52.4786325 C198.760684,24.0598291 154.529915,1.02564103 99.957265,1.02564103"/>
    <path fill="#A4A7A9" fill-rule="nonzero" d="M99.957265,1.06837607 C45.4273504,1.06837607 1.1965812,24.0598291 1.1965812,52.4786325 C1.1965812,80.8547009 45.4273504,103.888889 100,103.888889 C154.57265,103.888889 198.803419,80.8547009 198.803419,52.4786325 C198.760684,24.0598291 154.529915,1.06837607 99.957265,1.06837607"/>
    <path fill="#A5A7AA" fill-rule="nonzero" d="M99.957265,1.06837607 C45.4273504,1.06837607 1.1965812,24.0598291 1.1965812,52.4786325 C1.1965812,80.8547009 45.4273504,103.888889 99.957265,103.888889 C154.529915,103.888889 198.760684,80.8547009 198.760684,52.4786325 C198.760684,24.0598291 154.529915,1.06837607 99.957265,1.06837607"/>
    <path fill="#A6A8AB" fill-rule="nonzero" d="M99.957265,1.06837607 C45.4273504,1.06837607 1.1965812,24.1025641 1.1965812,52.4786325 C1.1965812,80.8547009 45.4273504,103.846154 99.957265,103.846154 C154.487179,103.846154 198.71798,80.8547009 198.71798,52.4358974 C198.760684,24.1025641 154.529915,1.06837607 99.957265,1.06837607"/>
    <path fill="#A7A9AC" fill-rule="nonzero" d="M99.957265,1.06837607 C45.4273504,1.06837607 1.1965812,24.1025641 1.1965812,52.4786325 C1.1965812,80.8547009 45.4273504,103.846154 99.957265,103.846154 C154.529915,103.846154 198.717949,80.8547009 198.717949,52.4786325 C198.717949,24.1025641 154.529915,1.06837607 99.957265,1.06837607"/>
    <path fill="#A8AAAC" fill-rule="nonzero" d="M99.957265,1.11111111 C45.4273504,1.11111111 1.23931624,24.1025641 1.23931624,52.4786325 C1.23931624,80.8547009 45.4273504,103.846154 99.957265,103.846154 C154.487179,103.846154 198.717949,80.8547009 198.717949,52.4786325 C198.717949,24.1025641 154.487179,1.11111111 99.957265,1.11111111"/>
    <path fill="#A8ABAD" fill-rule="nonzero" d="M99.957265,1.11111111 C45.4273504,1.11111111 1.23931624,24.1025641 1.23931624,52.4786325 C1.23931624,80.8547009 45.4273504,103.846154 99.957265,103.846154 C154.487179,103.846154 198.717949,80.8547009 198.717949,52.4786325 C198.717949,24.1025641 154.487179,1.11111111 99.957265,1.11111111"/>
    <path fill="#A9ABAE" fill-rule="nonzero" d="M99.957265,1.11111111 C45.4273504,1.11111111 1.23931624,24.1025641 1.23931624,52.4786325 C1.23931624,80.8547009 45.4273504,103.846154 99.957265,103.846154 C154.487179,103.846154 198.675245,80.8547009 198.675245,52.4786325 C198.717949,24.1025641 154.487179,1.11111111 99.957265,1.11111111"/>
    <path fill="#AAACAF" fill-rule="nonzero" d="M99.957265,1.11111111 C45.4700855,1.11111111 1.28205128,24.1025641 1.28205128,52.4786325 C1.28205128,80.8119658 45.4700855,103.803419 100,103.803419 C154.529915,103.803419 198.717949,80.8119658 198.717949,52.4786325 C198.675214,24.1025641 154.487179,1.11111111 99.957265,1.11111111"/>
    <path fill="#ABADAF" fill-rule="nonzero" d="M99.957265,1.15384615 C45.4700855,1.15384615 1.28205128,24.1025641 1.28205128,52.4786325 C1.28205128,80.8119658 45.4700855,103.803419 100,103.803419 C154.529915,103.803419 198.717949,80.8119658 198.717949,52.4786325 C198.675214,24.1025641 154.487179,1.15384615 99.957265,1.15384615"/>
    <path fill="#ACAEB0" fill-rule="nonzero" d="M99.957265,1.15384615 C45.4700855,1.15384615 1.28205128,24.1452991 1.28205128,52.4786325 C1.28205128,80.8119658 45.4700855,103.803419 99.957265,103.803419 C154.444444,103.803419 198.675214,80.8119658 198.675214,52.4786325 C198.675214,24.1452991 154.487179,1.15384615 99.957265,1.15384615"/>
    <path fill="#ACAFB1" fill-rule="nonzero" d="M99.957265,1.15384615 C45.4700855,1.15384615 1.28205128,24.1452991 1.28205128,52.4786325 C1.28205128,80.8119658 45.4700855,103.803419 99.957265,103.803419 C154.444444,103.803419 198.63251,80.8119658 198.63251,52.4786325 C198.675214,24.1452991 154.487179,1.15384615 99.957265,1.15384615"/>
    <path fill="#ADAFB2" fill-rule="nonzero" d="M99.957265,1.15384615 C45.4700855,1.15384615 1.32478632,24.1452991 1.32478632,52.4786325 C1.32478632,80.8119658 45.5128205,103.760684 100,103.760684 C154.487179,103.760684 198.675214,80.7692308 198.675214,52.4786325 C198.632479,24.1452991 154.487179,1.15384615 99.957265,1.15384615"/>
    <path fill="#AEB0B3" fill-rule="nonzero" d="M100,1.1965812 C45.5128205,1.1965812 1.32478632,24.1452991 1.32478632,52.4786325 C1.32478632,80.8119658 45.5128205,103.760684 100,103.760684 C154.487179,103.760684 198.675214,80.8119658 198.675214,52.4786325 C198.632479,24.1452991 154.444444,1.1965812 100,1.1965812"/>
    <path fill="#AFB1B3" fill-rule="nonzero" d="M100,1.1965812 C45.5128205,1.1965812 1.32478632,24.1452991 1.32478632,52.4786325 C1.32478632,80.8119658 45.5128205,103.760684 99.957265,103.760684 C154.444444,103.760684 198.632479,80.8119658 198.632479,52.4786325 C198.632479,24.1452991 154.444444,1.1965812 100,1.1965812"/>
    <path fill="#B0B2B4" fill-rule="nonzero" d="M100,1.1965812 C45.5128205,1.1965812 1.36752137,24.1452991 1.36752137,52.4786325 C1.36752137,80.8119658 45.5128205,103.760684 100,103.760684 C154.487179,103.760684 198.632479,80.8119658 198.632479,52.4786325 C198.632479,24.1452991 154.444444,1.1965812 100,1.1965812"/>
    <path fill="#B1B3B5" fill-rule="nonzero" d="M100,1.1965812 C45.5128205,1.1965812 1.36752137,24.1452991 1.36752137,52.4786325 C1.36752137,80.7692308 45.5128205,103.760684 100,103.760684 C154.487179,103.760684 198.632479,80.8119658 198.632479,52.4786325 C198.632479,24.1452991 154.444444,1.1965812 100,1.1965812"/>
    <path fill="#B1B3B6" fill-rule="nonzero" d="M100,1.23931624 C45.5128205,1.23931624 1.36752137,24.1880342 1.36752137,52.4786325 C1.36752137,80.7692308 45.5128205,103.717949 100,103.717949 C154.444444,103.717949 198.632479,80.7692308 198.632479,52.4786325 C198.589744,24.1880342 154.444444,1.23931624 100,1.23931624"/>
    <path fill="#B2B4B7" fill-rule="nonzero" d="M100,1.23931624 C45.5128205,1.23931624 1.36752137,24.1880342 1.36752137,52.4786325 C1.36752137,80.7692308 45.5128205,103.717949 100,103.717949 C154.444444,103.717949 198.589744,80.7692308 198.589744,52.4786325 C198.589744,24.1880342 154.444444,1.23931624 100,1.23931624"/>
    <path fill="#B3B5B7" fill-rule="nonzero" d="M100,1.23931624 C45.5555556,1.23931624 1.41025641,24.1880342 1.41025641,52.4786325 C1.41025641,80.7692308 45.5555556,103.717949 100,103.717949 C154.444444,103.717949 198.589744,80.7692308 198.589744,52.4786325 C198.589744,24.1880342 154.444444,1.23931624 100,1.23931624"/>
    <path fill="#B4B6B8" fill-rule="nonzero" d="M100,1.23931624 C45.5555556,1.23931624 1.41025641,24.1880342 1.41025641,52.4786325 C1.41025641,80.7692308 45.5555556,103.717949 100,103.717949 C154.444444,103.717949 198.589744,80.7692308 198.589744,52.4786325 C198.589744,24.1880342 154.444444,1.23931624 100,1.23931624"/>
    <path fill="#B5B7B9" fill-rule="nonzero" d="M100,1.28205128 C45.5555556,1.28205128 1.41025641,24.1880342 1.41025641,52.4786325 C1.41025641,80.7692308 45.5555556,103.675214 100,103.675214 C154.444444,103.675214 198.589744,80.7264957 198.589744,52.4786325 C198.547009,24.1880342 154.444444,1.28205128 100,1.28205128"/>
    <path fill="#B5B7BA" fill-rule="nonzero" d="M100,1.28205128 C45.5555556,1.28205128 1.41025641,24.1880342 1.41025641,52.4786325 C1.41025641,80.7692308 45.5555556,103.675214 100,103.675214 C154.444444,103.675214 198.547009,80.7692308 198.547009,52.4786325 C198.547009,24.1880342 154.401709,1.28205128 100,1.28205128"/>
    <path fill="#B6B8BB" fill-rule="nonzero" d="M100,1.28205128 C45.5555556,1.28205128 1.45299145,24.1880342 1.45299145,52.4786325 C1.45299145,80.7692308 45.5555556,103.675214 100,103.675214 C154.444444,103.675214 198.547009,80.7692308 198.547009,52.4786325 C198.547009,24.1880342 154.401709,1.28205128 100,1.28205128"/>
    <path fill="#B7B9BB" fill-rule="nonzero" d="M100,1.28205128 C45.5555556,1.28205128 1.45299145,24.2307692 1.45299145,52.4786325 C1.45299145,80.7264957 45.5555556,103.675214 100,103.675214 C154.401709,103.675214 198.547009,80.7692308 198.547009,52.4786325 C198.547009,24.2307692 154.401709,1.28205128 100,1.28205128"/>
    <path fill="#B8BABC" fill-rule="nonzero" d="M100,1.32478632 C45.5982906,1.32478632 1.45299145,24.2307692 1.45299145,52.4786325 C1.45299145,80.7264957 45.5555556,103.632479 100,103.632479 C154.401709,103.632479 198.547009,80.7264957 198.547009,52.4786325 C198.547009,24.2307692 154.401709,1.32478632 100,1.32478632"/>
    <path fill="#B9BBBD" fill-rule="nonzero" d="M100,1.32478632 C45.5982906,1.32478632 1.4957265,24.2307692 1.4957265,52.4786325 C1.4957265,80.7264957 45.5982906,103.632479 100,103.632479 C154.401709,103.632479 198.504274,80.7264957 198.504274,52.4786325 C198.504274,24.2307692 154.401709,1.32478632 100,1.32478632"/>
    <path fill="#BABBBE" fill-rule="nonzero" d="M100,1.32478632 C45.5982906,1.32478632 1.4957265,24.2307692 1.4957265,52.4786325 C1.4957265,80.7264957 45.5982906,103.632479 100,103.632479 C154.401709,103.632479 198.504274,80.7264957 198.504274,52.4786325 C198.504274,24.2307692 154.401709,1.32478632 100,1.32478632"/>
    <path fill="#BABCBF" fill-rule="nonzero" d="M100,1.32478632 C45.5982906,1.32478632 1.4957265,24.2307692 1.4957265,52.4786325 C1.4957265,80.7264957 45.5982906,103.632479 100,103.632479 C154.401709,103.632479 198.504274,80.7264957 198.504274,52.4786325 C198.504274,24.2307692 154.401709,1.32478632 100,1.32478632"/>
    <path fill="#BBBDBF" fill-rule="nonzero" d="M100,1.36752137 C45.5982906,1.36752137 1.4957265,24.2307692 1.4957265,52.4786325 C1.4957265,80.7264957 45.5982906,103.589744 99.957265,103.589744 C154.358974,103.589744 198.461569,80.6837607 198.461569,52.4786325 C198.504274,24.2307692 154.401709,1.36752137 100,1.36752137"/>
    <path fill="#BCBEC0" fill-rule="nonzero" d="M100,1.36752137 C45.5982906,1.36752137 1.53846154,24.2307692 1.53846154,52.4786325 C1.53846154,80.7264957 45.6410256,103.589744 100,103.589744 C154.401709,103.589744 198.461538,80.6837607 198.461538,52.4786325 C198.461538,24.2307692 154.401709,1.36752137 100,1.36752137"/>
    <path fill="#BDBFC1" fill-rule="nonzero" d="M100,1.36752137 C45.6410256,1.36752137 1.53846154,24.2735043 1.53846154,52.4786325 C1.53846154,80.6837607 45.6410256,103.589744 100,103.589744 C154.358974,103.589744 198.461538,80.6837607 198.461538,52.4786325 C198.461538,24.2735043 154.358974,1.36752137 100,1.36752137"/>
    <path fill="#BEC0C2" fill-rule="nonzero" d="M100,1.36752137 C45.6410256,1.36752137 1.53846154,24.2735043 1.53846154,52.4786325 C1.53846154,80.6837607 45.5982906,103.589744 100,103.589744 C154.358974,103.589744 198.461538,80.7264957 198.461538,52.4786325 C198.461538,24.2735043 154.358974,1.36752137 100,1.36752137"/>
    <path fill="#BFC0C3" fill-rule="nonzero" d="M100,1.41025641 C45.6410256,1.41025641 1.58119658,24.2735043 1.58119658,52.4786325 C1.58119658,80.6837607 45.6410256,103.547009 100,103.547009 C154.358974,103.547009 198.461538,80.6837607 198.461538,52.4786325 C198.461538,24.2735043 154.358974,1.41025641 100,1.41025641"/>
    <path fill="#BFC1C3" fill-rule="nonzero" d="M100,1.41025641 C45.6410256,1.41025641 1.58119658,24.2735043 1.58119658,52.4786325 C1.58119658,80.6837607 45.6410256,103.547009 100,103.547009 C154.358974,103.547009 198.418803,80.6837607 198.418803,52.4786325 C198.418803,24.2735043 154.358974,1.41025641 100,1.41025641"/>
    <path fill="#C0C2C4" fill-rule="nonzero" d="M100,1.41025641 C45.6410256,1.41025641 1.58119658,24.2735043 1.58119658,52.4786325 C1.58119658,80.6837607 45.6410256,103.547009 100,103.547009 C154.358974,103.547009 198.418803,80.6837607 198.418803,52.4786325 C198.418803,24.2735043 154.358974,1.41025641 100,1.41025641"/>
    <path fill="#C1C3C5" fill-rule="nonzero" d="M100,1.41025641 C45.6410256,1.41025641 1.58119658,24.2735043 1.58119658,52.4786325 C1.58119658,80.6837607 45.6410256,103.547009 100,103.547009 C154.358974,103.547009 198.418803,80.6837607 198.418803,52.4786325 C198.418803,24.2735043 154.358974,1.41025641 100,1.41025641"/>
    <path fill="#C2C4C6" fill-rule="nonzero" d="M100,1.45299145 C45.6837607,1.45299145 1.62393162,24.2735043 1.62393162,52.4786325 C1.62393162,80.6837607 45.6837607,103.547009 100,103.547009 C154.358974,103.547009 198.418803,80.6837607 198.418803,52.4786325 C198.418803,24.2735043 154.358974,1.45299145 100,1.45299145"/>
    <path fill="#C3C4C7" fill-rule="nonzero" d="M100,1.45299145 C45.6837607,1.45299145 1.62393162,24.3162393 1.62393162,52.4786325 C1.62393162,80.6410256 45.6837607,103.504274 100,103.504274 C154.316239,103.504274 198.376099,80.6410256 198.376099,52.4786325 C198.418803,24.3162393 154.358974,1.45299145 100,1.45299145"/>
    <path fill="#C4C5C7" fill-rule="nonzero" d="M100,1.45299145 C45.6837607,1.45299145 1.62393162,24.3162393 1.62393162,52.4786325 C1.62393162,80.6410256 45.6837607,103.504274 100,103.504274 C154.316239,103.504274 198.376068,80.6410256 198.376068,52.4786325 C198.376068,24.3162393 154.316239,1.45299145 100,1.45299145"/>
    <path fill="#C4C6C8" fill-rule="nonzero" d="M100,1.45299145 C45.6837607,1.45299145 1.62393162,24.3162393 1.62393162,52.4786325 C1.62393162,80.6410256 45.6837607,103.504274 100,103.504274 C154.316239,103.504274 198.376068,80.6410256 198.376068,52.4786325 C198.376068,24.3162393 154.316239,1.45299145 100,1.45299145"/>
    <path fill="#C5C7C9" fill-rule="nonzero" d="M100,1.4957265 C45.6837607,1.4957265 1.66666667,24.3162393 1.66666667,52.4786325 C1.66666667,80.6410256 45.6837607,103.504274 100,103.504274 C154.316239,103.504274 198.376068,80.6837607 198.376068,52.4786325 C198.376068,24.3162393 154.316239,1.4957265 100,1.4957265"/>
    <path fill="#C6C8CA" fill-rule="nonzero" d="M100,1.4957265 C45.6837607,1.4957265 1.66666667,24.3162393 1.66666667,52.4786325 C1.66666667,80.6410256 45.6837607,103.461538 100,103.461538 C154.316239,103.461538 198.333364,80.6410256 198.333364,52.4786325 C198.376068,24.3162393 154.316239,1.4957265 100,1.4957265"/>
    <path fill="#C7C9CB" fill-rule="nonzero" d="M100,1.4957265 C45.7264957,1.4957265 1.66666667,24.3162393 1.66666667,52.4786325 C1.66666667,80.6410256 45.6837607,103.461538 100,103.461538 C154.316239,103.461538 198.333333,80.6410256 198.333333,52.4786325 C198.333333,24.3162393 154.316239,1.4957265 100,1.4957265"/>
    <path fill="#C8C9CB" fill-rule="nonzero" d="M100,1.4957265 C45.7264957,1.4957265 1.70940171,24.3162393 1.70940171,52.4786325 C1.70940171,80.6410256 45.7264957,103.461538 100,103.461538 C154.316239,103.461538 198.333333,80.6410256 198.333333,52.4786325 C198.333333,24.3162393 154.316239,1.4957265 100,1.4957265"/>
    <path fill="#C9CACC" fill-rule="nonzero" d="M100,1.53846154 C45.7264957,1.53846154 1.70940171,24.3162393 1.70940171,52.4786325 C1.70940171,80.6410256 45.7264957,103.461538 100,103.461538 C154.273504,103.461538 198.333333,80.6410256 198.333333,52.4786325 C198.333333,24.3162393 154.316239,1.53846154 100,1.53846154"/>
    <path fill="#C9CBCD" fill-rule="nonzero" d="M100,1.53846154 C45.7264957,1.53846154 1.70940171,24.3589744 1.70940171,52.4786325 C1.70940171,80.5982906 45.7264957,103.418803 100,103.418803 C154.273504,103.418803 198.290629,80.5982906 198.290629,52.4786325 C198.333333,24.3589744 154.316239,1.53846154 100,1.53846154"/>
    <path fill="#CACCCE" fill-rule="nonzero" d="M100,1.53846154 C45.7264957,1.53846154 1.70940171,24.3589744 1.70940171,52.4786325 C1.70940171,80.6410256 45.7264957,103.418803 100,103.418803 C154.273504,103.418803 198.290629,80.5982906 198.290629,52.4786325 C198.333333,24.3589744 154.316239,1.53846154 100,1.53846154"/>
    <path fill="#CBCDCE" fill-rule="nonzero" d="M100,1.53846154 C45.7264957,1.53846154 1.75213675,24.3589744 1.75213675,52.4786325 C1.75213675,80.5982906 45.7264957,103.418803 100,103.418803 C154.273504,103.418803 198.290598,80.5982906 198.290598,52.4786325 C198.290598,24.3589744 154.273504,1.53846154 100,1.53846154"/>
    <path fill="#CCCDCF" fill-rule="nonzero" d="M100,1.58119658 C45.7692308,1.58119658 1.75213675,24.3589744 1.75213675,52.4786325 C1.75213675,80.5982906 45.7692308,103.418803 100,103.418803 C154.273504,103.418803 198.290598,80.5982906 198.290598,52.4786325 C198.290598,24.3589744 154.273504,1.58119658 100,1.58119658"/>
    <path fill="#CDCED0" fill-rule="nonzero" d="M100,1.58119658 C45.7692308,1.58119658 1.75213675,24.3589744 1.75213675,52.4786325 C1.75213675,80.5982906 45.7692308,103.418803 100,103.418803 C154.273504,103.418803 198.290598,80.5982906 198.290598,52.4786325 C198.290598,24.3589744 154.273504,1.58119658 100,1.58119658"/>
    <path fill="#CECFD1" fill-rule="nonzero" d="M100,1.58119658 C45.7692308,1.58119658 1.79487179,24.3589744 1.79487179,52.4786325 C1.79487179,80.5982906 45.7692308,103.376068 100.042735,103.376068 C154.316239,103.376068 198.290598,80.5982906 198.290598,52.4786325 C198.290598,24.3589744 154.273504,1.58119658 100,1.58119658"/>
    <path fill="#CED0D2" fill-rule="nonzero" d="M100,1.58119658 C45.7692308,1.58119658 1.79487179,24.3589744 1.79487179,52.4786325 C1.79487179,80.5982906 45.7692308,103.376068 100.042735,103.376068 C154.316239,103.376068 198.290598,80.5982906 198.290598,52.4786325 C198.247863,24.3589744 154.273504,1.58119658 100,1.58119658"/>
    <path fill="#CFD1D2" fill-rule="nonzero" d="M100.042735,1.62393162 C45.7692308,1.62393162 1.79487179,24.4017094 1.79487179,52.4786325 C1.79487179,80.5982906 45.7692308,103.376068 100,103.376068 C154.230769,103.376068 198.247863,80.5982906 198.247863,52.4786325 C198.247863,24.4017094 154.273504,1.62393162 100.042735,1.62393162"/>
    <path fill="#D0D1D3" fill-rule="nonzero" d="M100.042735,1.62393162 C45.7692308,1.62393162 1.79487179,24.4017094 1.79487179,52.4786325 C1.79487179,80.5555556 45.7692308,103.333333 100,103.333333 C154.230769,103.333333 198.205159,80.5555556 198.205159,52.4786325 C198.247863,24.4017094 154.273504,1.62393162 100.042735,1.62393162"/>
    <path fill="#D1D2D4" fill-rule="nonzero" d="M100.042735,1.62393162 C45.8119658,1.62393162 1.83760684,24.4017094 1.83760684,52.4786325 C1.83760684,80.5555556 45.8119658,103.333333 100.042735,103.333333 C154.273504,103.333333 198.247863,80.5555556 198.247863,52.4786325 C198.247863,24.4017094 154.273504,1.62393162 100.042735,1.62393162"/>
    <path fill="#D2D3D5" fill-rule="nonzero" d="M100.042735,1.62393162 C45.8119658,1.62393162 1.83760684,24.4017094 1.83760684,52.4786325 C1.83760684,80.5555556 45.8119658,103.333333 100.042735,103.333333 C154.273504,103.333333 198.247863,80.5555556 198.247863,52.4786325 C198.205128,24.4017094 154.273504,1.62393162 100.042735,1.62393162"/>
    <path fill="#D2D4D6" fill-rule="nonzero" d="M100.042735,1.66666667 C45.8119658,1.66666667 1.83760684,24.4017094 1.83760684,52.4786325 C1.83760684,80.5555556 45.8119658,103.333333 100,103.333333 C154.230769,103.333333 198.205128,80.5555556 198.205128,52.4786325 C198.205128,24.4017094 154.230769,1.66666667 100.042735,1.66666667"/>
    <path fill="#D3D5D6" fill-rule="nonzero" d="M100.042735,1.66666667 C45.8119658,1.66666667 1.88034188,24.4017094 1.88034188,52.4786325 C1.88034188,80.5555556 45.8547009,103.290598 100.042735,103.290598 C154.273504,103.290598 198.205128,80.5128205 198.205128,52.4786325 C198.205128,24.4017094 154.230769,1.66666667 100.042735,1.66666667"/>
    <path fill="#D4D6D7" fill-rule="nonzero" d="M100.042735,1.66666667 C45.8119658,1.66666667 1.88034188,24.4017094 1.88034188,52.4786325 C1.88034188,80.5555556 45.8119658,103.290598 100.042735,103.290598 C154.273504,103.290598 198.205128,80.5128205 198.205128,52.4786325 C198.205128,24.4017094 154.230769,1.66666667 100.042735,1.66666667"/>
    <path fill="#D5D6D8" fill-rule="nonzero" d="M100.042735,1.66666667 C45.8119658,1.66666667 1.88034188,24.4444444 1.88034188,52.4786325 C1.88034188,80.5555556 45.8119658,103.290598 100.042735,103.290598 C154.230769,103.290598 198.205128,80.5555556 198.205128,52.4786325 C198.205128,24.4444444 154.230769,1.66666667 100.042735,1.66666667"/>
    <path fill="#D6D7D9" fill-rule="nonzero" d="M100.042735,1.70940171 C45.8547009,1.70940171 1.88034188,24.4444444 1.88034188,52.4786325 C1.88034188,80.5128205 45.8119658,103.290598 100,103.290598 C154.188034,103.290598 198.162393,80.5555556 198.162393,52.4786325 C198.162393,24.4444444 154.230769,1.70940171 100.042735,1.70940171"/>
    <path fill="#D7D8D9" fill-rule="nonzero" d="M100.042735,1.70940171 C45.8547009,1.70940171 1.92307692,24.4444444 1.92307692,52.4786325 C1.92307692,80.5128205 45.8547009,103.290598 100.042735,103.290598 C154.230769,103.290598 198.162393,80.5555556 198.162393,52.4786325 C198.162393,24.4444444 154.230769,1.70940171 100.042735,1.70940171"/>
    <path fill="#D7D9DA" fill-rule="nonzero" d="M100.042735,1.70940171 C45.8547009,1.70940171 1.92307692,24.4444444 1.92307692,52.4786325 C1.92307692,80.5128205 45.8547009,103.247863 100.042735,103.247863 C154.230769,103.247863 198.162393,80.5128205 198.162393,52.4786325 C198.162393,24.4444444 154.230769,1.70940171 100.042735,1.70940171"/>
    <path fill="#D8DADB" fill-rule="nonzero" d="M100.042735,1.70940171 C45.8547009,1.70940171 1.92307692,24.4444444 1.92307692,52.4786325 C1.92307692,80.5128205 45.8547009,103.247863 100.042735,103.247863 C154.230769,103.247863 198.162393,80.5128205 198.162393,52.4786325 C198.162393,24.4444444 154.230769,1.70940171 100.042735,1.70940171"/>
    <path fill="#D9DADC" fill-rule="nonzero" d="M100.042735,1.75213675 C45.8547009,1.75213675 1.92307692,24.4444444 1.92307692,52.4786325 C1.92307692,80.5128205 45.8547009,103.247863 100,103.247863 C154.188034,103.247863 198.119658,80.5128205 198.119658,52.4786325 C198.119658,24.4444444 154.230769,1.75213675 100.042735,1.75213675"/>
    <path fill="#DADBDD" fill-rule="nonzero" d="M100.042735,1.75213675 C45.8547009,1.75213675 1.96581197,24.4444444 1.96581197,52.4786325 C1.96581197,80.5128205 45.8974359,103.247863 100.042735,103.247863 C154.230769,103.247863 198.119658,80.5128205 198.119658,52.4786325 C198.119658,24.4444444 154.188034,1.75213675 100.042735,1.75213675"/>
    <path fill="#DBDCDD" fill-rule="nonzero" d="M100.042735,1.75213675 C45.8974359,1.75213675 1.96581197,24.4871795 1.96581197,52.4786325 C1.96581197,80.5128205 45.8974359,103.205128 100.042735,103.205128 C154.188034,103.205128 198.119658,80.4700855 198.119658,52.4786325 C198.119658,24.4871795 154.188034,1.75213675 100.042735,1.75213675"/>
    <path fill="#DCDDDE" fill-rule="nonzero" d="M100.042735,1.75213675 C45.8974359,1.75213675 1.96581197,24.4871795 1.96581197,52.4786325 C1.96581197,80.5128205 45.8547009,103.205128 100.042735,103.205128 C154.188034,103.205128 198.119658,80.4700855 198.119658,52.4786325 C198.119658,24.4871795 154.188034,1.75213675 100.042735,1.75213675"/>
    <path fill="#DCDEDF" fill-rule="nonzero" d="M100.042735,1.79487179 C45.8974359,1.79487179 2.00854701,24.4871795 2.00854701,52.4786325 C2.00854701,80.4700855 45.8974359,103.205128 100.042735,103.205128 C154.188034,103.205128 198.119658,80.5128205 198.119658,52.4786325 C198.076923,24.4871795 154.188034,1.79487179 100.042735,1.79487179"/>
    <path fill="#DDDEE0" fill-rule="nonzero" d="M100.042735,1.79487179 C45.8974359,1.79487179 2.00854701,24.4871795 2.00854701,52.4786325 C2.00854701,80.4700855 45.8974359,103.205128 100.042735,103.205128 C154.188034,103.205128 198.076923,80.5128205 198.076923,52.4786325 C198.076923,24.4871795 154.188034,1.79487179 100.042735,1.79487179"/>
    <path fill="#DEDFE0" fill-rule="nonzero" d="M100.042735,1.79487179 C45.8974359,1.79487179 2.00854701,24.4871795 2.00854701,52.4786325 C2.00854701,80.4700855 45.8974359,103.162393 100.042735,103.162393 C154.188034,103.162393 198.076923,80.4700855 198.076923,52.4786325 C198.076923,24.4871795 154.188034,1.79487179 100.042735,1.79487179"/>
    <path fill="#DFE0E1" fill-rule="nonzero" d="M100.042735,1.79487179 C45.8974359,1.79487179 2.00854701,24.4871795 2.00854701,52.4786325 C2.00854701,80.4700855 45.8974359,103.162393 100.042735,103.162393 C154.188034,103.162393 198.076923,80.4700855 198.076923,52.4786325 C198.076923,24.4871795 154.188034,1.79487179 100.042735,1.79487179"/>
    <path fill="#E0E1E2" fill-rule="nonzero" d="M100.042735,1.83760684 C45.9401709,1.83760684 2.05128205,24.4871795 2.05128205,52.4786325 C2.05128205,80.4700855 45.9401709,103.162393 100.042735,103.162393 C154.188034,103.162393 198.076923,80.4700855 198.076923,52.4786325 C198.076923,24.4871795 154.188034,1.83760684 100.042735,1.83760684"/>
    <path fill="#E0E2E3" fill-rule="nonzero" d="M100.042735,1.83760684 C45.9401709,1.83760684 2.05128205,24.5299145 2.05128205,52.4786325 C2.05128205,80.4700855 45.9401709,103.162393 100.042735,103.162393 C154.145299,103.162393 198.034188,80.4700855 198.034188,52.4786325 C198.034188,24.5299145 154.145299,1.83760684 100.042735,1.83760684"/>
    <path fill="#E1E2E3" fill-rule="nonzero" d="M100.042735,1.83760684 C45.9401709,1.83760684 2.05128205,24.5299145 2.05128205,52.4786325 C2.05128205,80.4700855 45.9401709,103.119658 100.042735,103.119658 C154.145299,103.119658 198.034188,80.4273504 198.034188,52.4786325 C198.034188,24.5299145 154.145299,1.83760684 100.042735,1.83760684"/>
    <path fill="#E2E3E4" fill-rule="nonzero" d="M100.042735,1.83760684 C45.9401709,1.83760684 2.09401709,24.5299145 2.09401709,52.5213675 C2.09401709,80.4700855 45.9401709,103.162393 100.08547,103.162393 C154.188034,103.162393 198.076923,80.4700855 198.076923,52.5213675 C198.034188,24.5299145 154.145299,1.83760684 100.042735,1.83760684"/>
    <path fill="#E3E4E5" fill-rule="nonzero" d="M100.042735,1.88034188 C45.9401709,1.88034188 2.09401709,24.5299145 2.09401709,52.5213675 C2.09401709,80.4700855 45.9401709,103.162393 100.042735,103.162393 C154.145299,103.162393 198.034188,80.4700855 198.034188,52.5213675 C198.034188,24.5299145 154.145299,1.88034188 100.042735,1.88034188"/>
    <path fill="#E4E5E6" fill-rule="nonzero" d="M100.042735,1.88034188 C45.9401709,1.88034188 2.09401709,24.5299145 2.09401709,52.5213675 C2.09401709,80.4700855 45.9401709,103.162393 100.042735,103.162393 C154.145299,103.162393 197.991453,80.4700855 197.991453,52.5213675 C197.991453,24.5299145 154.145299,1.88034188 100.042735,1.88034188"/>
    <path fill="#E5E6E7" fill-rule="nonzero" d="M100.042735,1.88034188 C45.982906,1.88034188 2.09401709,24.5299145 2.09401709,52.5213675 C2.09401709,80.4700855 45.9401709,103.119658 100.042735,103.119658 C154.145299,103.119658 197.991453,80.4700855 197.991453,52.5213675 C197.991453,24.5299145 154.145299,1.88034188 100.042735,1.88034188"/>
    <path fill="#E5E6E7" fill-rule="nonzero" d="M100.042735,1.88034188 C45.982906,1.88034188 2.13675214,24.5299145 2.13675214,52.5213675 C2.13675214,80.4700855 45.982906,103.119658 100.08547,103.119658 C154.188034,103.119658 198.034188,80.4700855 198.034188,52.5213675 C197.991453,24.5299145 154.145299,1.88034188 100.042735,1.88034188"/>
    <path fill="#E6E7E8" fill-rule="nonzero" d="M100.042735,1.92307692 C45.982906,1.92307692 2.13675214,24.5726496 2.13675214,52.5213675 C2.13675214,80.4700855 45.982906,103.119658 100.042735,103.119658 C154.102564,103.119658 197.991453,80.4700855 197.991453,52.5213675 C197.991453,24.5726496 154.145299,1.92307692 100.042735,1.92307692"/>
    <path d="M99.8717949,4.14529915 C46.8803419,4.14529915 3.93162393,25.7692308 3.93162393,52.4358974 C3.93162393,79.1025641 46.8803419,100.726496 99.8717949,100.726496 C152.863248,100.726496 195.811966,79.1025641 195.811966,52.4358974 C195.811966,25.7692308 152.863248,4.14529915 99.8717949,4.14529915"/>
    <path fill="url(#land-rover-a)" fill-rule="nonzero" d="M99.8717949,4.14529915 C46.8803419,4.14529915 3.93162393,25.7692308 3.93162393,52.4358974 C3.93162393,79.1025641 46.8803419,100.726496 99.8717949,100.726496 C152.863248,100.726496 195.811966,79.1025641 195.811966,52.4358974 C195.811966,25.7692308 152.863248,4.14529915 99.8717949,4.14529915"/>
    <path stroke="#004E24" stroke-width="2.894" d="M99.8717949,9.91452991 C50.2136752,9.91452991 9.95726496,29.1452991 9.95726496,52.8632479 C9.95726496,76.5811966 50.2136752,95.8119658 99.8717949,95.8119658 C149.529915,95.8119658 189.786325,76.5811966 189.786325,52.8632479 C189.786325,29.1452991 149.529915,9.91452991 99.8717949,9.91452991"/>
    <path stroke="#F5F0CC" stroke-width="5.487" d="M99.8717949,7.39316239 C48.8888889,7.39316239 7.56410256,27.6068376 7.56410256,52.4786325 C7.56410256,77.3931624 48.8888889,97.5641026 99.8717949,97.5641026 C150.854701,97.5641026 192.222222,77.3504274 192.222222,52.4786325 C192.179487,27.6068376 150.854701,7.39316239 99.8717949,7.39316239"/>
    <path fill="#F5F0CC" fill-rule="nonzero" d="M155.25641,31.965812 L140.17094,31.965812 L138.333333,37.4786325 L148.076923,37.4786325 L136.965812,41.4957265 L136.239316,43.7179487 L153.376068,37.8632479 L155.25641,31.965812 M60.6410256,41.1965812 L58.5897436,47.0512821 L43.8888889,47.0512821 C43.8888889,47.0512821 44.2307692,46.9230769 44.7008547,45.9401709 C45.1709402,44.957265 51.965812,25.1709402 51.965812,25.1709402 C51.965812,25.1709402 52.9059829,23.0769231 51.8376068,22.5641026 L60.3418803,22.5641026 C60.3418803,22.5641026 59.8717949,22.4358974 59.0598291,24.5299145 C58.5897436,25.7264957 52.9059829,41.6239316 52.9059829,41.6239316 L59.0598291,41.6239316 C59.0598291,41.6239316 60.4700855,41.7521368 60.6410256,41.1965812 M84.8290598,47.0512821 L91.7521368,47.0512821 C91.7521368,47.0512821 91.2820513,46.3247863 91.5811966,45.5128205 C91.965812,44.4017094 95.6410256,33.9316239 95.6410256,33.9316239 L97.2649573,47.0512821 L103.547009,47.0512821 L111.752137,23.7179487 C111.752137,23.7179487 112.094017,22.6068376 112.564103,22.6068376 L105.897436,22.6068376 C105.897436,22.6068376 106.068376,23.4188034 105.854701,24.017094 C105.598291,24.6581197 101.837607,35.2136752 101.837607,35.2136752 L100.34188,22.6068376 L93.1623932,22.6068376 C93.1623932,22.6068376 93.5470085,23.2478632 93.2905983,23.8888889 C93.0769231,24.4444444 85.6837607,45.6837607 85.6837607,45.6837607 C85.6837607,45.6837607 85.2564103,47.0512821 84.8290598,47.0512821 M124.358974,22.6068376 L116.495726,22.6068376 C116.495726,22.6068376 117.094017,23.5897436 116.324786,25.8974359 C115.555556,28.2051282 109.529915,45.2136752 109.529915,45.2136752 C109.529915,45.2136752 109.059829,46.8376068 108.418803,47.1367521 L117.905983,47.1367521 C117.905983,47.1367521 129.401709,47.6068376 132.948718,34.957265 C132.905983,34.9145299 137.393162,22.4786325 124.358974,22.6068376 L124.358974,22.6068376 Z M125.213675,35.982906 C123.205128,41.1111111 120.213675,41.4529915 118.632479,41.4529915 L117.521368,41.4529915 L122.136752,27.8632479 L123.931624,27.8632479 C123.888889,27.8632479 128.504274,27.6068376 125.213675,35.982906 Z M33.3760684,66.7948718 L48.4615385,66.7948718 L50.2991453,61.2820513 L40.5128205,61.2820513 L51.6666667,57.2649573 L52.3931624,55.042735 L35.2564103,60.9401709 L33.3760684,66.7948718 M76.3247863,61.6666667 C79.1452991,52.1794872 69.6153846,52.4358974 69.6153846,52.4358974 L59.8290598,52.4358974 C60.5555556,53.2478632 60,55 60,55 C60,55 53.9316239,73.1623932 53.4615385,74.5726496 C52.991453,75.982906 52.1367521,76.9230769 52.1367521,76.9230769 L59.8717949,76.9230769 C59.6153846,76.9230769 59.6153846,76.1111111 59.6153846,76.1111111 L62.3931624,68.4188034 C62.3931624,68.4188034 65.8547009,75.5128205 66.1111111,75.982906 C66.3247863,76.4957265 66.2393162,76.8803419 66.2393162,76.8803419 L74.4871795,76.8803419 C73.6752137,76.8803419 72.8632479,75.2991453 72.8632479,75.2991453 L68.7606838,67.5641026 C74.4444444,67.6495726 76.3247863,61.6666667 76.3247863,61.6666667 L76.3247863,61.6666667 Z M69.5726496,60.8119658 C68.5042735,63.2478632 65.5555556,62.9487179 65.5555556,62.9487179 L64.0598291,62.9487179 L65.6410256,58.034188 L67.2649573,58.034188 C70.8119658,58.034188 69.5726496,60.8119658 69.5726496,60.8119658 Z M161.666667,61.965812 C164.700855,52.008547 155.042735,52.5213675 155.042735,52.5213675 L145.34188,52.5213675 C146.068376,53.3333333 145.512821,55.0854701 145.512821,55.0854701 C145.512821,55.0854701 139.188034,73.3333333 138.717949,74.7008547 C138.247863,76.1111111 137.350427,77.008547 137.350427,77.008547 L145.42735,77.008547 C144.82906,77.008547 145.25641,75.5128205 145.25641,75.5128205 L147.735043,68.5042735 C147.735043,68.5042735 151.068376,75.5982906 151.324786,76.0683761 C151.581197,76.5811966 151.452991,76.965812 151.452991,76.965812 L160,76.965812 C159.188034,76.965812 158.333333,75.3846154 158.333333,75.3846154 L154.230769,67.6495726 C159.957265,67.7350427 161.666667,61.965812 161.666667,61.965812 Z M154.82906,60.9401709 C153.931624,63.2905983 151.025641,63.0769231 151.025641,63.0769231 L149.529915,63.0769231 L151.111111,58.2051282 L153.247863,58.2051282 C153.247863,58.2051282 155.854701,58.1196581 154.82906,60.9401709 Z M91.6666667,51.7948718 C84.1025641,51.7948718 79.1880342,57.7777778 77.9059829,65.2136752 C76.7521368,72.0512821 80.4273504,77.5213675 86.5384615,77.5213675 C95.0854701,77.5213675 100.17094,68.7606838 100.17094,62.4786325 C100.17094,55.8974359 97.5641026,51.7948718 91.6666667,51.7948718 L91.6666667,51.7948718 Z M92.7777778,65.4273504 C91.5384615,70.5555556 89.1880342,72.1367521 87.0940171,71.7521368 C84.1880342,71.1965812 84.7008547,66.4957265 85.1709402,64.3162393 C86.1965812,59.5726496 88.7179487,57.3076923 90.5982906,57.5213675 C91.1965812,57.6068376 94.6153846,57.6923077 92.7777778,65.4273504 L92.7777778,65.4273504 Z M102.179487,52.5213675 C102.179487,52.5213675 102.777778,52.8632479 102.777778,54.4017094 L102.777778,75.5982906 C102.777778,75.5982906 102.692308,76.7521368 102.264957,77.008547 L108.589744,77.008547 C108.589744,77.008547 108.589744,76.4957265 109.230769,75.6837607 C109.871795,74.8717949 123.034188,56.3675214 123.034188,56.3675214 C123.034188,56.3675214 126.025641,52.4786325 126.837607,52.4786325 L117.735043,52.4786325 C117.735043,52.4786325 118.461538,52.991453 117.905983,53.8888889 C117.350427,54.7863248 109.273504,67.4358974 109.273504,67.4358974 L109.401709,54.7008547 C109.401709,54.7008547 109.401709,52.6495726 110.17094,52.4786325 L102.179487,52.5213675 M140.555556,58.2905983 L142.606838,52.5213675 L127.222222,52.5213675 C127.222222,52.5213675 127.777778,53.034188 127.051282,55.0854701 C126.324786,57.1367521 120.08547,74.7008547 120.08547,74.7008547 C120.08547,74.7008547 118.974359,77.008547 118.675214,77.008547 L134.529915,77.008547 L136.410256,71.1538462 C136.410256,71.1538462 136.153846,71.4957265 134.65812,71.4957265 L127.948718,71.4957265 L129.358974,67.5213675 L134.615385,67.5213675 C134.615385,67.5213675 135.726496,67.4358974 135.940171,67.7777778 L138.076923,61.4957265 C138.076923,61.4957265 137.905983,62.0512821 136.495726,62.0512821 L131.452991,62.0512821 L132.948718,57.6923077 L139.358974,57.6923077 C139.358974,57.7350427 140.213675,57.6068376 140.555556,58.2905983 M84.017094,47.0940171 C84.017094,47.0940171 83.4615385,46.7521368 83.3333333,45.7692308 L82.3931624,24.2307692 C82.3931624,24.2307692 82.3504274,22.8632479 82.991453,22.5641026 L75.4700855,22.5641026 C75.4700855,22.5641026 75.982906,23.2478632 75,24.7863248 C73.974359,26.3247863 61.1538462,46.2393162 61.1538462,46.2393162 C61.1538462,46.2393162 60.8974359,46.7521368 60.2564103,47.0512821 L67.8632479,47.0512821 C67.8632479,47.0512821 67.8205128,46.4529915 68.034188,46.025641 C68.3760684,45.2991453 69.3162393,43.5897436 69.3162393,43.5897436 L76.965812,43.5897436 L76.965812,45.7264957 C76.965812,45.7264957 77.008547,46.4957265 76.4529915,47.0512821 L84.017094,47.0512821 L84.017094,47.0940171 Z M72.6068376,38.0769231 L76.8376068,30.8974359 L76.8803419,38.0769231 L72.6068376,38.0769231 Z"/>
  </g>
</svg>
