<svg xmlns="http://www.w3.org/2000/svg" width="200" height="200" viewBox="0 0 200 200">
  <path d="M101.748023,5.13220339 C97.7016949,10.1220339 86.160452,26.2316384 84.8451977,28.3175141 C82.3129944,32.3141243 82.0892655,34.2508475 82.0146893,35.5412429 C81.9412429,36.8079096 81.9412429,39.0915254 84.0011299,40.9536723 C87.4519774,44.0316384 92.2915254,43.5344633 96.5864407,43.5344633 L131.959322,43.5344633 C133.473446,43.5344633 133.920904,43.0870056 134.740113,41.9954802 C137.569492,37.6757062 138.836158,32.9841808 138.836158,28.7887006 C138.836158,19.8022599 133.00339,8.48361582 118.232768,3.36949153 L116.568362,5.75254237 C128.284746,11.3118644 133.126554,18.5853107 133.126554,28.7627119 C133.20113,31.4937853 132.480226,34.4474576 130.692655,37.1785311 L96.2870056,37.1785311 C94.2271186,37.1785311 93.9288136,34.8451977 94.6734463,33.5288136 C97.6231047,28.2793492 100.914961,23.2296477 104.527684,18.4124294 C108.00339,13.7706215 111.428249,9.4259887 115.028249,4.88361582 C115.99661,3.6180791 115.350282,2.40112994 113.414689,2.00451977 C109.39322,1.16045198 105.19887,0.564971751 100.109605,0.564971751 C71.8870056,0.564971751 61.559322,16.7740113 61.559322,28.7887006 C61.559322,41.8214689 71.960452,56.9389831 100.184181,56.9389831 C115.847458,56.9389831 126.100565,51.8983051 132.032768,45.420339 L126.049718,45.420339 C120.861017,50.2112994 111.949153,53.6135593 100.184181,53.6135593 C76.279096,53.6135593 67.4677966,40.1830508 67.4677966,28.6146893 C67.640678,18.2881356 77.0983051,4.03954802 100.780791,3.56836158 C101.674576,3.54350282 102.370621,4.36271186 101.748023,5.13220339 L101.748023,5.13220339 Z M186.644068,79.5265537 C188.058757,79.7254237 189.151412,80.8418079 189.151412,82.159322 C189.151412,83.6463277 187.811299,84.8384181 186.171751,84.8384181 L155.839548,84.8384181 L155.839548,65.0045198 L146.901695,65.0045198 L146.901695,84.8892655 L130.468927,84.8892655 C126.025989,84.8892655 125.108475,82.1830508 125.108475,79.700565 L125.108475,64.8813559 L110.289266,64.8813559 C108.823729,65.8745763 107.40904,66.9672316 105.894915,67.8847458 L97.1073446,73.2960452 L85.6892655,64.9559322 L67.9141243,64.9559322 L67.9141243,69.9457627 L74.3435028,69.9457627 L74.3435028,67.2135593 L89.4610169,78.0632768 L79.1344633,84.540113 L67.9141243,84.540113 L67.9141243,89.5299435 L80.8960452,89.5299435 C82.2858757,88.5875706 83.6022599,87.5943503 85.0418079,86.7254237 L94.0768362,81.239548 L105.544633,89.4316384 L118.60339,89.4316384 L101.349153,76.4485876 L110.212429,70.6666667 C112.099435,69.4237288 114.085876,68.3830508 116.021469,67.2418079 L116.021469,80.2983051 C116.021469,85.8090395 117.436158,89.6316384 128.532203,89.6316384 L191.211299,89.4836158 C196.050847,89.5559322 199.153672,86.2067797 199.153672,82.1615819 C199.153672,78.1378531 195.578531,74.8372881 191.211299,74.8372881 L168.572881,74.8372881 C168.871186,72.0824859 171.251977,69.7751412 173.659887,69.7751412 L196.571751,69.7751412 L196.499435,64.9841808 L172.19661,64.9841808 C164.500565,64.9841808 158.345763,71.3638418 158.171751,78.7864407 C158.148023,79.3073446 158.493785,79.6293785 159.065537,79.6293785 L186.644068,79.5265537 L186.644068,79.5265537 Z M67.9152542,79.4531073 L67.9152542,74.3638418 L72.3333333,74.3638418 L72.3333333,79.4531073 L67.9152542,79.4531073 Z M67.9152542,64.9559322 L51.1344633,64.9559322 C46.5920904,64.9559322 43.0915254,66.1480226 40.5107345,68.1819209 C35.8689266,71.8564972 34.379661,75.7276836 34.4293785,77.4666667 L40.4858757,77.4666667 C37.8293785,79.4531073 36.0418079,81.8338983 35.099435,84.5909605 L15.239548,84.5909605 C11.6655367,84.5909605 9.3559322,82.059887 9.3559322,79.6011299 L9.3559322,64.7819209 L0.569491525,64.7819209 L0.569491525,80.1728814 C0.569491525,85.7073446 5.83276836,89.5299435 14.2711864,89.5299435 L67.9152542,89.5299435 L67.9152542,84.540113 L46.6169492,84.540113 C46.7163842,82.0090395 49.4214689,79.4531073 51.879096,79.4531073 L67.9152542,79.4531073 L67.9152542,74.3638418 L46.3683616,74.3638418 C46.0711864,72.8745763 48.8508475,69.9457627 50.9853107,69.9457627 L67.9152542,69.9457627 L67.9152542,64.9559322 L67.9152542,64.9559322 Z" transform="translate(0 55)"/>
</svg>
