<svg xmlns="http://www.w3.org/2000/svg" width="200" height="200" viewBox="0 0 200 200">
  <g fill="none" fill-rule="evenodd" transform="translate(41)">
    <path fill="#000" fill-rule="nonzero" d="M0.0372340426,100.402128 C0.0372340426,73 6.58191489,48.1765957 17.1638298,30.193617 C27.8170213,12.087234 42.5755319,0.887234043 58.912766,0.887234043 C75.2489362,0.887234043 90.0074468,12.0861702 100.662766,30.193617 C111.242553,48.1755319 117.788298,72.9989362 117.788298,100.402128 C117.788298,127.805319 111.243617,152.628723 100.662766,170.611702 C90.0074468,188.718085 75.2489362,199.917021 58.912766,199.917021 C42.5755319,199.917021 27.8170213,188.718085 17.162766,170.611702 C6.58191489,152.628723 0.0372340426,127.805319 0.0372340426,100.402128 Z M1.59680851,100.402128 C1.59680851,127.528723 8.05744681,152.073404 18.5031915,169.824468 C28.8755319,187.452128 43.1648936,198.356383 58.912766,198.356383 C74.6617021,198.356383 88.95,187.454255 99.3223404,169.824468 C109.767021,152.073404 116.229787,127.528723 116.229787,100.402128 C116.229787,73.2744681 109.768085,48.7319149 99.3223404,30.9797872 C88.95,13.3521277 74.6606383,2.44787234 58.912766,2.44787234 C43.1648936,2.44787234 28.8755319,13.3521277 18.5031915,30.9797872 C8.05744681,48.7319149 1.59680851,73.2744681 1.59680851,100.402128 Z"/>
    <path fill="#AD3652" d="M58.912766,93.7287234 L31.1170213,93.7287234 L31.1170213,94.7691489 L86.6978723,94.7691489 L86.6978723,93.7287234 L58.912766,93.7287234 Z M58.912766,99.6308511 L31.1170213,99.6308511 L31.1170213,100.671277 L86.6978723,100.671277 L86.6978723,99.6308511 L58.912766,99.6308511 Z M58.912766,96.4457447 L28.1531915,96.4457447 L28.1531915,97.4851064 L89.662766,97.4851064 L89.662766,96.4457447 L58.912766,96.4457447 Z M58.912766,102.4 L28.4010638,102.4 L28.4010638,103.634043 L31.1180851,103.634043 C31.1180851,105.609574 32.3531915,108.078723 35.0691489,108.078723 C37.7861702,108.078723 38.7734043,106.35 38.7734043,103.881915 C41.4904255,103.881915 51.3691489,103.881915 51.3691489,115.73617 L66.4478723,115.73617 C66.4478723,103.881915 76.3255319,103.881915 79.043617,103.881915 C79.043617,106.35 80.0308511,108.078723 82.7478723,108.078723 C85.4638298,108.078723 86.6978723,105.610638 86.6978723,103.634043 L89.4159574,103.634043 L89.4159574,102.4 L58.912766,102.4 Z M69.3276596,117.093616 L48.4882979,117.093616 C48.2015798,117.093616 47.9691489,117.326048 47.9691489,117.612766 L47.9691489,121.759574 C47.9691489,122.046809 48.2021277,122.278725 48.4882979,122.278725 L69.3276596,122.278725 C69.4654331,122.279007 69.5976452,122.224402 69.695066,122.126981 C69.7924868,122.02956 69.8470917,121.897348 69.8468096,121.759574 L69.8468096,117.612766 C69.8470917,117.474992 69.7924868,117.34278 69.695066,117.24536 C69.5976452,117.147939 69.4654331,117.093334 69.3276596,117.093616 L69.3276596,117.093616 Z M66.45,123.458511 L51.3670213,123.458511 C51.0803032,123.458511 50.8478723,123.690942 50.8478723,123.97766 L50.8478723,134.402128 L66.9691489,134.402128 L66.9691489,123.97766 C66.9685637,123.691184 66.7364753,123.459096 66.45,123.458511 L66.45,123.458511 Z M99.8585106,43.1159574 C93.2574468,44.6159574 85.156383,51.6574468 81.856383,56.0180851 C84.5553191,55.1180851 86.9574468,53.3180851 89.3574468,52.4170213 C86.9574468,57.5180851 80.0553191,78.5819149 80.0553191,89.6255319 L73.4542553,89.6255319 C65.6521277,76.4223404 61.1521277,69.2202128 61.1521277,42.2148936 C65.3531915,44.6159574 66.8531915,46.4159574 71.3542553,47.3159574 C66.2531915,42.2148936 58.9138298,30.8117021 58.9138298,19.7085106 C58.9138298,30.8117021 51.5744681,42.2138298 46.4734043,47.3159574 C50.9744681,46.4159574 52.4744681,44.6148936 56.6755319,42.2148936 C56.6755319,69.2202128 52.1744681,76.4223404 44.3734043,89.6255319 L37.7723404,89.6255319 C37.7723404,78.5819149 30.8702128,57.5180851 28.4702128,52.4170213 C30.8712766,53.3180851 33.2712766,55.1180851 35.9723404,56.0180851 C32.6712766,51.6574468 24.5702128,44.6159574 17.9680851,43.1159574 C28.1702128,56.6191489 30.8702128,74.9223404 30.8702128,89.6265957 L28.1691489,89.6265957 L28.1691489,92.7180851 L89.6595745,92.7180851 L89.6595745,89.6265957 L86.9585106,89.6265957 C86.9574468,74.9234043 89.6585106,56.6191489 99.8585106,43.1159574 L99.8585106,43.1159574 Z M56.0744681,89.6265957 L49.7734043,89.6265957 C51.8744681,85.4255319 55.1744681,81.5244681 56.0744681,76.4234043 L56.0744681,89.6265957 Z M61.7521277,89.6265957 L61.7521277,76.4234043 C62.6521277,81.5244681 65.9510638,85.4255319 68.0521277,89.6265957 L61.7521277,89.6265957 Z"/>
    <path fill="#36377C" d="M109.844681,133.011702 C102.243617,169.325532 82.3095745,195.241489 58.912766,195.241489 C35.5212766,195.241489 15.5893617,169.332979 7.98404255,133.028723 L109.844681,133.011702 L109.844681,133.011702 Z"/>
    <path fill="#FFF" d="M18.1734043,157.617021 L18.1734043,141.597872 L21.5531915,141.597872 L23.5829787,148.589362 L25.5670213,141.597872 L28.9606383,141.597872 L28.9606383,157.617021 L26.8819149,157.617021 L26.8648936,145.007447 L23.4510638,155.011702 L20.2691489,145.007447 L20.2531915,157.617021 L18.1734043,157.617021 Z M34.7478723,152.72766 L36.2553191,146.780851 L37.8510638,152.72766 L34.7478723,152.72766 Z M37.4553191,141.597872 L35.043617,141.597872 L30.7148936,157.618085 L33.4968085,157.618085 L34.0648936,155.137234 L38.5755319,155.137234 L39.2021277,157.618085 L41.9904255,157.618085 L37.4553191,141.597872 L37.4553191,141.597872 Z M78.9893617,152.72766 L80.4957447,146.780851 L82.0914894,152.72766 L78.9893617,152.72766 Z M81.6946809,141.597872 L79.2840426,141.597872 L74.956383,157.618085 L77.7361702,157.618085 L78.3053191,155.137234 L82.8138298,155.137234 L83.4414894,157.618085 L86.2297872,157.618085 L81.6946809,141.597872 L81.6946809,141.597872 Z M49.9819149,145.058511 C49.006383,144.148936 48.3223404,143.830851 47.7106383,143.707447 C47.1606383,143.596809 46.4244681,143.72234 46.0595745,144.106383 C45.8223404,144.353191 45.7053191,144.68617 45.7053191,145.1 C45.7053191,145.47766 45.8170213,145.802128 46.0404255,146.070213 C46.3212766,146.412766 47.2691489,147.181915 48.2606383,147.776596 C49.3606383,148.437234 50.2659574,148.917021 50.7893617,149.315957 C52.0042553,150.242553 52.1053191,150.809574 52.2191489,151.075532 C52.5148936,151.767021 52.5489362,152.147872 52.5489362,153.165957 C52.5489362,154.08617 52.3542553,154.724468 51.9989362,155.528723 C51.643617,156.332979 51.1382979,156.930851 50.4851064,157.32234 C49.8308511,157.712766 49.0212766,157.908511 48.0553191,157.908511 C46.6393617,157.908511 45.5531915,157.439362 43.1489362,155.619149 L44.793617,153.528723 C46.8446809,154.902128 47.3893617,155.146809 48.0776596,155.146809 C48.8010638,155.146809 49.3457447,154.928723 49.7117021,154.488298 C50.0776596,154.047872 50.2606383,153.535106 50.2606383,152.946809 C50.2606383,152.569149 50.1840426,152.246809 50.0329787,151.982979 C49.8808511,151.717021 49.612766,151.48617 49.2297872,151.291489 C48.9617021,151.158511 48.2702128,150.751064 47.3829787,150.306383 C46.0638298,149.647872 45.1255319,148.843617 44.5234043,148.328723 C43.7531915,147.668085 42.9840426,146.626596 42.9840426,145.359574 C42.9840426,144.542553 43.2117021,143.759574 43.5340426,143.048936 C43.856383,142.340426 44.3617021,141.906383 44.9712766,141.534043 C45.5808511,141.161702 46.7478723,141.070213 47.6031915,141.070213 C49.0021277,141.070213 50.3893617,141.745745 51.756383,143.175532 L49.9819149,145.058511 L49.9819149,145.058511 Z M54.4585106,157.617021 L54.4585106,141.597872 L61.5861702,141.597872 L61.5861702,144.294681 L56.7329787,144.294681 L56.7329787,147.837234 L61.1617021,147.837234 L61.1617021,150.534043 L56.7329787,150.534043 L56.7329787,154.920213 L61.812766,154.920213 L61.812766,157.617021 L54.4585106,157.617021 L54.4585106,157.617021 Z M88.8691489,157.617021 L88.8691489,144.294681 L85.5553191,144.294681 L85.5553191,141.597872 L94.4585106,141.597872 L94.4585106,144.294681 L91.1425532,144.294681 L91.1425532,157.617021 L88.8691489,157.617021 L88.8691489,157.617021 Z M97.0393617,157.617021 L97.0393617,141.597872 L99.312766,141.597872 L99.312766,157.617021 L97.0393617,157.617021 Z M71.4659574,147.630851 C71.4659574,144.520213 69.2297872,143.994681 67.0553191,143.994681 L67.0531915,151.755319 C68.9117021,151.755319 71.4659574,151.381915 71.4659574,147.630851 L71.4659574,147.630851 Z M70.4042553,153.623404 L72.4319149,157.617021 L70.156383,157.617021 L68.3734043,154.065957 C67.9202128,154.111702 67.4755319,154.128723 67.0521277,154.128723 L67.056383,157.617021 L64.7808511,157.617021 L64.7808511,141.596809 L67.056383,141.596809 C70.4659574,141.596809 73.9670213,142.625532 73.9670213,147.502128 C73.9670213,151.248936 72.3382979,152.908511 70.4042553,153.623404 L70.4042553,153.623404 Z"/>
  </g>
</svg>
