<svg xmlns="http://www.w3.org/2000/svg" width="200" height="200" viewBox="0 0 200 200">
  <defs>
    <linearGradient id="mercedes-benz-a" x1="11.658%" x2="88.342%" y1="17.888%" y2="82.112%">
      <stop offset="0%" stop-color="#FFF"/>
      <stop offset="10%" stop-color="#E7E8E6"/>
      <stop offset="10%" stop-color="#CDD0D0"/>
      <stop offset="20%" stop-color="#B5BBBD"/>
      <stop offset="20%" stop-color="#A5ACAF"/>
      <stop offset="30%" stop-color="#9BA3A7"/>
      <stop offset="30%" stop-color="#98A0A4"/>
      <stop offset="40%" stop-color="#828A8F"/>
      <stop offset="50%" stop-color="#667075"/>
      <stop offset="60%" stop-color="#535C63"/>
      <stop offset="70%" stop-color="#475158"/>
      <stop offset="80%" stop-color="#434D54"/>
      <stop offset="100%" stop-color="#475157"/>
    </linearGradient>
    <linearGradient id="mercedes-benz-b" x1="11.685%" x2="88.216%" y1="17.787%" y2="82.073%">
      <stop offset="0%" stop-color="#0B1F2A"/>
      <stop offset="20%" stop-color="#333F47"/>
      <stop offset="50%" stop-color="#777F84"/>
      <stop offset="50%" stop-color="#81898D"/>
      <stop offset="70%" stop-color="#B3B8B8"/>
      <stop offset="80%" stop-color="#D2D5D3"/>
      <stop offset="80%" stop-color="#DEE0DD"/>
      <stop offset="100%" stop-color="#FBFBFB"/>
    </linearGradient>
    <linearGradient id="mercedes-benz-c" x1="67.089%" x2="32.87%" y1="96.973%" y2="2.913%">
      <stop offset="0%" stop-color="#E1E3E1"/>
      <stop offset="10%" stop-color="#C1C5C4"/>
      <stop offset="30%" stop-color="#9BA1A2"/>
      <stop offset="50%" stop-color="#7D8487"/>
      <stop offset="70%" stop-color="#687074" stop-opacity="0"/>
      <stop offset="80%" stop-color="#5B6469" stop-opacity="0"/>
      <stop offset="100%" stop-color="#576065" stop-opacity="0"/>
    </linearGradient>
    <linearGradient id="mercedes-benz-d" x1="25.002%" x2="74.998%" y1="6.705%" y2="93.295%">
      <stop offset="0%" stop-color="#E1E3E1"/>
      <stop offset="10%" stop-color="#C1C5C4"/>
      <stop offset="30%" stop-color="#9BA1A2"/>
      <stop offset="50%" stop-color="#7D8487"/>
      <stop offset="70%" stop-color="#687074" stop-opacity="0"/>
      <stop offset="80%" stop-color="#5B6469" stop-opacity="0"/>
      <stop offset="100%" stop-color="#576065" stop-opacity="0"/>
    </linearGradient>
    <linearGradient id="mercedes-benz-e" x1="50.361%" x2="43.393%" y1="49.303%" y2="55.915%">
      <stop offset="0%" stop-color="#27343C"/>
      <stop offset="100%" stop-color="#00111E" stop-opacity="0"/>
    </linearGradient>
    <linearGradient id="mercedes-benz-f" x1="52.905%" x2="51.304%" y1="91.188%" y2="74.583%">
      <stop offset="10%" stop-color="#02131F"/>
      <stop offset="90%" stop-color="#02131F" stop-opacity="0"/>
    </linearGradient>
    <linearGradient id="mercedes-benz-g" x1="100.333%" x2="83.26%" y1="42.115%" y2="44.914%">
      <stop offset="20%" stop-color="#02131F"/>
      <stop offset="90%" stop-color="#02131F" stop-opacity="0"/>
    </linearGradient>
    <linearGradient id="mercedes-benz-h" x1="53.127%" x2="50.595%" y1="55.002%" y2="51.341%">
      <stop offset="0%" stop-color="#02131F"/>
      <stop offset="10%" stop-color="#02131F"/>
      <stop offset="100%" stop-color="#02131F" stop-opacity="0"/>
    </linearGradient>
    <linearGradient id="mercedes-benz-i" x1="50.821%" x2="48.757%" y1="48.563%" y2="50%">
      <stop offset="30%" stop-color="#02131F"/>
      <stop offset="30%" stop-color="#02131F"/>
      <stop offset="80%" stop-color="#02131F" stop-opacity="0"/>
    </linearGradient>
    <linearGradient id="mercedes-benz-j" x1="50.885%" x2="49.488%" y1="48.358%" y2="49.436%">
      <stop offset="40%" stop-color="#27343C"/>
      <stop offset="100%" stop-color="#3B474E" stop-opacity="0"/>
    </linearGradient>
    <linearGradient id="mercedes-benz-k" x1="33.235%" x2="71.544%" y1="31.839%" y2="71.789%">
      <stop offset="0%" stop-color="#24303A" stop-opacity="0"/>
      <stop offset="0%" stop-color="#25323B" stop-opacity="0"/>
      <stop offset="10%" stop-color="#27343C"/>
    </linearGradient>
    <linearGradient id="mercedes-benz-l" x1="50%" x2="50%" y1="102.109%" y2=".874%">
      <stop offset="30%" stop-color="#A5ABAF"/>
      <stop offset="100%" stop-color="#A5ABAF" stop-opacity="0"/>
    </linearGradient>
    <linearGradient id="mercedes-benz-m" x1="50%" x2="50%" y1="0%" y2="100%">
      <stop offset="0%" stop-color="#DEE0DD"/>
      <stop offset="0%" stop-color="#C5C9C7"/>
      <stop offset="0%" stop-color="#9EA4A5"/>
      <stop offset="0%" stop-color="#82898C"/>
      <stop offset="0%" stop-color="#71797D"/>
      <stop offset="0%" stop-color="#6B7378"/>
      <stop offset="20%" stop-color="#333F47"/>
      <stop offset="50%" stop-color="#27343C"/>
      <stop offset="80%" stop-color="#333F47"/>
      <stop offset="100%" stop-color="#434D54"/>
    </linearGradient>
    <linearGradient id="mercedes-benz-n" x1="35%" x2="65%" y1="50%" y2="50%">
      <stop offset="0%" stop-color="#DEE0DD"/>
      <stop offset="0%" stop-color="#C5C9C7"/>
      <stop offset="0%" stop-color="#9EA4A5"/>
      <stop offset="0%" stop-color="#82898C"/>
      <stop offset="0%" stop-color="#71797D"/>
      <stop offset="0%" stop-color="#6B7378"/>
      <stop offset="20%" stop-color="#333F47"/>
      <stop offset="50%" stop-color="#27343C"/>
      <stop offset="80%" stop-color="#333F47"/>
      <stop offset="100%" stop-color="#434D54"/>
    </linearGradient>
    <linearGradient id="mercedes-benz-o" x1="64.346%" x2="43.048%" y1="12.208%" y2="60.619%">
      <stop offset="70%" stop-color="#27343C"/>
      <stop offset="70%" stop-color="#2B373F"/>
      <stop offset="70%" stop-color="#36424A"/>
      <stop offset="70%" stop-color="#49545B"/>
      <stop offset="80%" stop-color="#646D73" stop-opacity="0"/>
      <stop offset="80%" stop-color="#868D92" stop-opacity="0"/>
      <stop offset="80%" stop-color="#B0B5B8" stop-opacity="0"/>
      <stop offset="80%" stop-color="#E1E3E4" stop-opacity="0"/>
      <stop offset="80%" stop-color="#FFF" stop-opacity="0"/>
    </linearGradient>
  </defs>
  <g fill="none" transform="translate(0 37)">
    <path fill="#091923" d="M128.136752,13.3760684 L135.528205,13.3760684 L135.528205,15.0871795 L128.136752,15.0871795 L128.136752,13.3760684 Z M5.19316239,2.9982906 L4.53247863,20.1726496 L4.53247863,20.4709402 C4.53247863,21.9247863 4.96068376,22.2247863 7.27863248,22.3888889 L7.27863248,23.1846154 C5.59145299,23.0547009 4.92735043,23.0213675 4.0025641,23.0213675 C3.07521368,23.0213675 2.41367521,23.0547009 0.693162393,23.1846154 L0.693162393,22.3888889 C3.00854701,22.2247863 3.34102564,21.9589744 3.40683761,20.1726496 L4.1017094,3.92649573 L4.1017094,3.73076923 C4.1017094,2.20598291 3.63760684,1.87606838 1.35641026,1.74444444 L1.35641026,0.915384615 C2.64444444,1.01538462 3.14102564,1.04871795 4.06837607,1.04871795 C5.11886739,1.05823544 6.16896232,1.00371842 7.21282051,0.885470085 L13.3649573,17.625641 L19.617094,0.885470085 C21.108547,1.01538462 21.8025641,1.04871795 22.7957265,1.04871795 C23.6196581,1.04871795 24.1512821,1.01538462 25.4076923,0.915384615 L25.4076923,1.74444444 C23.1589744,1.87606838 22.6598291,2.20598291 22.6598291,3.69487179 L22.6598291,3.92649573 L23.0247863,20.1726496 C23.0606838,21.9589744 23.3564103,22.2222222 25.7393162,22.3888889 L25.7393162,23.1846154 C23.6555556,22.9863248 22.8598291,22.9179487 21.6034188,22.9179487 C20.3444444,22.9179487 19.5504274,22.982906 17.4666667,23.1846154 L17.4666667,22.3888889 C19.7153846,22.2581197 20.2119658,21.8923077 20.2119658,20.3401709 L20.2119658,20.1769231 L19.917094,3.03589744 L14.4555556,17.791453 L14.0598291,18.8846154 L13.5965812,20.1068376 L13.1641026,21.3683761 L12.8008547,22.4589744 L12.3042735,22.4589744 L11.9418803,21.4008547 L11.4769231,20.1068376 L11.0145299,18.8179487 L10.617094,17.6606838 L5.19316239,2.9982906 L5.19316239,2.9982906 Z M30.0367521,13.6854701 C30.3683761,9.88119658 31.6239316,7.93162393 33.7418803,7.93162393 C35.8931624,7.93162393 36.9846154,9.78376068 37.1820513,13.6854701 L30.0367521,13.6854701 Z M34.3393162,22.3538462 C31.3282051,22.3538462 30.0025641,20.0376068 29.9726496,14.8760684 L39.8324786,14.8760684 C39.7649573,9.78119658 37.6803419,7.06752137 33.7752137,7.06752137 C29.8076923,7.06752137 27.3247863,10.2777778 27.3247863,15.3735043 C27.3247863,20.4683761 29.808547,23.4452991 34.074359,23.4452991 C37.317094,23.4452991 39.4358974,21.425641 39.8632479,18.0188034 L38.5384615,18.0188034 C38.1418803,20.8307692 36.6863248,22.3538462 34.3393162,22.3538462 L34.3393162,22.3538462 Z M41.8008547,8.29145299 L41.8008547,7.6974359 C43.6854701,7.53247863 44.8119658,7.33418803 46.1675214,6.93589744 C46.3333333,8.16153846 46.3991453,8.68888889 46.4649573,9.68290598 L46.4649573,10.0478632 C47.1948718,8.16153846 48.6145299,7.06837607 50.3367521,7.06837607 C51.9897436,7.06837607 53.2153846,8.16153846 53.2153846,9.75128205 C53.2153846,10.7111111 52.6529915,11.3384615 51.825641,11.3384615 C51.0649573,11.3384615 50.4700855,10.874359 50.4700855,10.2145299 C50.4700855,10.1487179 50.5042735,10.0188034 50.534188,9.88119658 L50.6,9.55213675 L50.6,9.25128205 C50.6,8.78803419 50.2025641,8.45811966 49.6068376,8.45811966 C47.8888889,8.45811966 46.7974359,10.5418803 46.7974359,13.8179487 L46.7974359,20.7316239 C46.7974359,22.157265 47.1264957,22.4213675 49.1461538,22.5196581 L49.1461538,23.1820513 C47.3239316,23.0188034 46.6299145,22.9820513 45.4717949,22.9820513 C44.2811966,22.9820513 43.5871795,23.0188034 41.7683761,23.1820513 L41.7683761,22.5196581 C43.7846154,22.4213675 44.1487179,22.157265 44.1487179,20.7316239 L44.1487179,9.91623932 C44.117094,8.49230769 43.9495726,8.32905983 42.2316239,8.29401709 L41.8008547,8.29145299 L41.8008547,8.29145299 Z M65.8726496,6.77264957 L65.8726496,12.2333333 L65.142735,12.2333333 C64.5470085,9.35213675 63.3239316,7.96324786 61.3068376,7.96324786 C58.8230769,7.96324786 57.3692308,10.6452991 57.3692308,15.3760684 C57.3692308,20.0068376 58.6589744,22.3564103 61.2059829,22.3564103 C63.257265,22.3564103 64.4811966,20.9017094 64.8786325,17.991453 L66.234188,17.991453 C65.8034188,21.5324786 63.9179487,23.4504274 60.9418803,23.4504274 C57.1034188,23.4504274 54.491453,20.2068376 54.491453,15.3786325 C54.491453,10.4461538 57.1367521,7.07264957 61.0410256,7.07264957 C62.4641026,7.07264957 63.357265,7.43760684 64.4179487,8.46324786 L65.308547,6.77521368 L65.8735043,6.77521368 L65.8735043,6.77264957 L65.8726496,6.77264957 Z M71.3051282,13.6854701 C71.6358974,9.88119658 72.891453,7.93162393 75.0102564,7.93162393 C77.1606838,7.93162393 78.2521368,9.78376068 78.4487179,13.6854701 L71.3051282,13.6854701 Z M75.6059829,22.3538462 C72.5948718,22.3538462 71.2726496,20.0376068 71.2393162,14.8760684 L81.0974359,14.8760684 C81.0316239,9.78119658 78.9452991,7.06752137 75.0444444,7.06752137 C71.0717949,7.06752137 68.5897436,10.2777778 68.5897436,15.3735043 C68.5897436,20.4683761 71.0709402,23.4452991 75.3418803,23.4452991 C78.5837607,23.4452991 80.7017094,21.425641 81.1299145,18.0188034 L79.8068376,18.0188034 C79.4102564,20.8307692 77.9547009,22.3538462 75.6059829,22.3538462 Z M90.2598291,22.5547009 C87.8777778,22.5547009 86.6213675,20.0709402 86.6213675,15.342735 C86.6213675,10.5478632 87.7786325,8.1974359 90.1615385,8.1974359 C92.6111111,8.1974359 93.8683761,10.7111111 93.8683761,15.5777778 C93.8675214,20.1717949 92.642735,22.5547009 90.2598291,22.5547009 L90.2598291,22.5547009 Z M96.4794872,19.7401709 L96.4794872,0.639316239 C94.825641,1.08205128 93.3384615,1.34444444 91.4863248,1.54273504 L91.4863248,2.10683761 C93.5700855,2.10683761 93.8350427,2.33846154 93.8350427,4.05811966 L93.8350427,9.84700855 C92.6111111,7.86324786 91.6512821,7.26581197 89.8641026,7.26581197 C86.3247863,7.26581197 83.8418803,10.6068376 83.8418803,15.3709402 C83.8418803,20.1358974 86.3547009,23.474359 89.9632479,23.474359 C91.8487179,23.474359 93.1393162,22.6145299 94.0649573,20.7632479 C94.1965812,22.0205128 94.1965812,22.1521368 94.5290598,23.4076923 C95.8837607,22.9769231 96.4478632,22.8452991 98.4,22.6145299 L98.8957265,22.5495726 L98.8957265,21.9871795 C96.6786325,21.9213675 96.4794872,21.7581197 96.4794872,19.7401709 L96.4794872,19.7401709 Z M102.863248,13.6854701 C103.194017,9.88119658 104.450427,7.93162393 106.569231,7.93162393 C108.719658,7.93162393 109.809402,9.78376068 110.007692,13.6854701 L102.863248,13.6854701 Z M107.164957,22.3538462 C104.152137,22.3538462 102.831624,20.0376068 102.796581,14.8760684 L112.655556,14.8760684 C112.588889,9.78119658 110.505128,7.06752137 106.602564,7.06752137 C102.629915,7.06752137 100.149573,10.2777778 100.149573,15.3735043 C100.149573,20.4683761 102.629915,23.4452991 106.9,23.4452991 C110.14188,23.4452991 112.258974,21.425641 112.687179,18.0188034 L111.363248,18.0188034 C110.969231,20.8307692 109.511111,22.3538462 107.164957,22.3538462 L107.164957,22.3538462 Z M115.464957,23.4794872 L115.464957,17.9521368 L116.193162,17.9205128 C116.787179,20.9324786 118.177778,22.3888889 120.494872,22.3888889 C122.444444,22.3888889 123.901709,21.0974359 123.901709,19.4136752 C123.901709,18.2888889 123.274359,17.5290598 121.650427,16.7991453 L120.394017,16.2350427 L118.87265,15.5410256 C116.454701,14.417094 115.694872,13.4897436 115.694872,11.5700855 C115.694872,8.95555556 117.744444,7.17179487 120.65812,7.17179487 C121.948718,7.17179487 122.910256,7.46923077 124.033333,8.22649573 L124.594017,6.87094017 L125.189744,6.87094017 L125.189744,11.9991453 L124.42735,11.9991453 C124.12735,9.35128205 123.037607,8.0965812 120.954701,8.0965812 C119.201709,8.0965812 117.84188,9.28803419 117.84188,10.842735 C117.84188,12.1649573 118.338462,12.5974359 121.349573,13.9196581 L122.740171,14.517094 C125.252137,15.6051282 126.148718,16.6666667 126.148718,18.6196581 C126.148718,21.3991453 123.930769,23.3811966 120.823932,23.3811966 C119.300855,23.3811966 118.109402,22.9837607 116.852991,21.9923077 L116.055556,23.4794872 L115.464103,23.4794872 L115.464957,23.4794872 Z M144.548718,12.0641026 C146.300855,12.0641026 147.293162,12.3632479 148.055556,13.1222222 C148.817094,13.8863248 149.248718,15.3076923 149.248718,16.8931624 C149.248718,20.2017094 147.592308,22.0564103 144.648718,22.0564103 L143.45812,22.0564103 C141.703419,22.0564103 141.406838,21.7897436 141.406838,20.334188 L141.406838,12.0615385 L144.548718,12.0641026 L144.548718,12.0641026 Z M141.404274,2.03846154 L144.217094,2.03846154 C146.996581,2.03846154 148.219658,3.3974359 148.219658,6.47264957 C148.219658,7.99401709 147.85641,9.08803419 147.12906,9.94529915 C146.400855,10.7752137 145.508547,11.0367521 143.657265,11.0367521 L141.406838,11.0367521 L141.406838,2.03760684 L141.404274,2.03760684 L141.404274,2.03846154 L141.404274,2.03846154 Z M151.163248,6.40598291 C151.163248,4.68547009 150.436752,3.16581197 149.178632,2.2034188 C148.055556,1.37692308 146.766667,1.01452991 144.612821,1.01452991 L135.911966,1.01452991 L135.911966,1.84102564 C138.295726,1.97435897 138.624786,2.23846154 138.624786,4.02478632 L138.624786,20.0700855 C138.624786,21.857265 138.35812,22.0863248 135.911966,22.2880342 L135.911966,23.0837607 L144.282051,23.0837607 C146.72906,23.0837607 148.054701,22.7837607 149.445299,21.9239316 C151.098291,20.865812 152.189744,18.8470085 152.189744,16.7666667 C152.189744,14.9760684 151.428205,13.3564103 150.138462,12.3675214 C149.445299,11.8384615 148.716239,11.5367521 147.523932,11.3076923 C149.908547,10.4102564 151.163248,8.72222222 151.163248,6.40598291 L151.163248,6.40598291 Z M157.590598,13.6854701 C157.923077,9.88119658 159.179487,7.93162393 161.298291,7.93162393 C163.447009,7.93162393 164.540171,9.78376068 164.736752,13.6854701 L157.590598,13.6854701 Z M161.894017,22.3538462 C158.882906,22.3538462 157.557265,20.0376068 157.525641,14.8760684 L167.386325,14.8760684 C167.319658,9.78119658 165.234188,7.06752137 161.329915,7.06752137 C157.359829,7.06752137 154.877778,10.2777778 154.877778,15.3735043 C154.877778,20.4683761 157.359829,23.4452991 161.626496,23.4452991 C164.868376,23.4452991 166.986325,21.425641 167.416239,18.0188034 L166.092308,18.0188034 C165.698291,20.8307692 164.242735,22.3538462 161.894017,22.3538462 L161.894017,22.3538462 Z M169.135897,8.42307692 L169.135897,7.86324786 C171.055556,7.5965812 172.180342,7.33418803 173.501709,6.87008547 C173.669231,7.63418803 173.769231,8.49145299 173.833333,9.74871795 C175.025641,7.96068376 176.380342,7.16923077 178.300855,7.16923077 C180.287179,7.16923077 182.005128,8.19059829 182.669231,9.81367521 C183.001709,10.6094017 183.166667,11.534188 183.166667,12.7897436 L183.166667,20.7307692 C183.166667,22.1547009 183.497436,22.4188034 185.513675,22.517094 L185.513675,23.1794872 C183.760684,23.0128205 183.1,22.9811966 181.908547,22.9811966 C180.682051,22.9811966 180.022222,23.0128205 178.3,23.1794872 L178.3,22.517094 C180.086325,22.4538462 180.517094,22.1213675 180.517094,20.7982906 L180.517094,12.691453 C180.517094,9.81367521 179.657265,8.65384615 177.541026,8.65384615 C175.288889,8.65384615 174.099145,10.0786325 174.099145,12.7897436 L174.099145,20.7982906 C174.099145,22.1213675 174.531624,22.4538462 176.252991,22.517094 L176.252991,23.1794872 C174.531624,23.0128205 173.87094,22.9811966 172.678632,22.9811966 C171.520513,22.9811966 170.823932,23.0128205 169.104274,23.1794872 L169.104274,22.517094 C171.120513,22.4188034 171.452991,22.1547009 171.452991,20.7307692 L171.452991,10.0136752 C171.419658,8.65384615 171.221368,8.45811966 169.568376,8.45811966 C169.465812,8.45811966 169.302564,8.42307692 169.135897,8.42307692 L169.135897,8.42307692 Z M186.799145,23.0837607 L195.764957,8.32649573 L191.694872,8.32649573 C189.546154,8.32649573 189.013675,8.78803419 187.823932,11.7666667 L187.164957,11.7666667 L187.926496,7.46581197 L199.307692,7.46581197 L190.307692,22.2222222 L194.176923,22.2222222 C196.42906,22.2222222 197.353846,21.3307692 198.347009,18.3179487 L199.04188,18.3179487 L198.182906,23.0837607 L186.799145,23.0837607 Z" transform="translate(0 102)"/>
    <g transform="translate(53)">
      <path fill="url(#mercedes-benz-a)" d="M92.971875,47 C92.971875,72.409375 72.409375,92.971875 47,92.971875 C21.590625,92.971875 1.028125,72.409375 1.028125,47 C1.028125,21.590625 21.590625,1.028125 47,1.028125 C72.409375,1.028125 92.971875,21.590625 92.971875,47 Z M47,3.81875 C23.059375,3.81875 3.81875,23.059375 3.81875,47 C3.81875,70.940625 23.20625,90.18125 47,90.18125 C70.940625,90.18125 90.18125,70.79375 90.18125,47 C90.18125,23.059375 70.940625,3.81875 47,3.81875 Z"/>
      <path fill="url(#mercedes-benz-b)" d="M47,3.81875 C23.059375,3.81875 3.81875,23.059375 3.81875,47 C3.81875,70.940625 23.20625,90.18125 47,90.18125 C70.940625,90.18125 90.18125,70.79375 90.18125,47 C90.18125,23.059375 70.940625,3.81875 47,3.81875 Z M47,87.390625 C24.675,87.390625 6.609375,69.325 6.609375,47 C6.609375,24.675 24.675,6.609375 47,6.609375 C69.325,6.609375 87.390625,24.675 87.390625,47 C87.390625,69.325 69.325,87.390625 47,87.390625 Z"/>
      <path fill="url(#mercedes-benz-c)" d="M47,92.971875 C72.409375,92.971875 92.971875,72.409375 92.971875,47 C92.971875,21.590625 72.409375,1.028125 47,1.028125 C21.590625,1.028125 1.028125,21.590625 1.028125,47 C1.028125,72.409375 21.590625,92.971875 47,92.971875 Z M47,0 C72.85,0 94,21.15 94,47 C94,72.85 72.85,94 47,94 C21.15,94 0,72.85 0,47 C0,21.15 21.15,0 47,0 Z" opacity=".4"/>
      <path fill="#FFF" d="M3.23125,47.146875 C3.23125,23.059375 22.765625,3.23125 47,3.23125 C71.234375,3.23125 90.76875,22.9125 90.76875,47.146875 C90.76875,71.234375 71.234375,90.76875 47,90.76875 C22.765625,90.76875 3.23125,71.234375 3.23125,47.146875 Z M16.890625,16.890625 C9.10625,24.675 4.259375,35.396875 4.259375,47.146875 C4.259375,58.896875 9.10625,69.61875 16.74375,77.25625 C24.528125,84.89375 35.25,89.740625 47,89.740625 C58.75,89.740625 69.471875,85.040625 77.109375,77.25625 C84.89375,69.61875 89.59375,58.896875 89.59375,47.146875 C89.59375,35.396875 84.746875,24.675 77.109375,16.890625 C69.471875,9.10625 58.75,4.259375 47,4.259375 C35.25,4.259375 24.528125,9.10625 16.890625,16.890625 Z"/>
      <path fill="url(#mercedes-benz-d)" d="M47,87.5375 C36.13125,87.5375 25.996875,83.278125 18.359375,75.640625 C10.721875,68.003125 6.4625,57.86875 6.4625,47 C6.4625,36.13125 10.721875,25.996875 18.359375,18.359375 C25.996875,10.721875 36.13125,6.4625 47,6.4625 C57.86875,6.4625 68.003125,10.721875 75.640625,18.359375 C83.278125,25.996875 87.5375,36.13125 87.5375,47 C87.5375,57.86875 83.278125,68.003125 75.640625,75.640625 C68.003125,83.278125 57.86875,87.5375 47,87.5375 Z M47,86.3625 C57.428125,86.3625 67.415625,82.25 74.759375,74.90625 C82.25,67.415625 86.215625,57.575 86.215625,47.146875 C86.215625,36.71875 82.103125,26.73125 74.759375,19.3875 C67.26875,11.896875 57.428125,7.93125 47,7.93125 C36.571875,7.93125 26.584375,12.04375 19.240625,19.3875 C11.75,26.584375 7.6375,36.571875 7.6375,47 C7.6375,57.428125 11.75,67.415625 19.09375,74.759375 C26.584375,82.25 36.571875,86.3625 47,86.3625 Z" opacity=".4"/>
      <path fill="#FFF" d="M82.690625,66.09375 C81.95625,65.50625 53.609375,43.034375 53.609375,43.034375 L47,5.2875 C46.559375,5.434375 45.971875,5.875 45.678125,6.4625 L40.978125,43.18125 L11.75,65.653125 C11.75,65.653125 11.1625,66.3875 10.86875,66.828125 C10.721875,67.121875 10.721875,67.5625 10.721875,68.003125 L46.853125,53.16875 L82.984375,68.003125 C83.278125,67.26875 82.984375,66.534375 82.690625,66.09375 Z"/>
      <path fill="#565F64" d="M47.29375,48.175 L47,54.93125 L80.19375,68.296875 C81.36875,68.884375 82.25,68.590625 83.13125,68.003125 L47.734375,48.028125 C47.5875,47.88125 47.29375,48.028125 47.29375,48.175 L47.29375,48.175 Z"/>
      <path fill="url(#mercedes-benz-e)" d="M47.29375,48.175 C47.29375,48.175 49.203125,51.553125 51.40625,53.903125 C54.490625,57.28125 58.603125,59.63125 58.603125,59.63125 L80.19375,68.296875 C81.36875,68.884375 82.25,68.590625 83.13125,68.003125 L47.734375,48.028125 C47.5875,47.88125 47.29375,48.028125 47.29375,48.175 L47.29375,48.175 Z"/>
      <path fill="#A4AAAE" fill-opacity=".6" d="M82.984375,66.68125 C82.984375,66.534375 82.8375,66.3875 82.690625,66.09375 L52.434375,43.915625 L48.321875,46.559375 C48.321875,46.559375 48.615625,46.70625 48.7625,46.559375 C49.203125,46.4125 50.084375,46.265625 50.965625,46.559375 C51.7,46.853125 82.984375,66.828125 82.984375,66.68125 C82.984375,66.828125 82.984375,66.828125 82.984375,66.68125 Z"/>
      <path fill="#333E46" d="M81.95625,65.359375 L53.75625,43.034375 L52.434375,43.915625 L82.690625,66.240625 C82.54375,65.946875 82.25,65.653125 81.95625,65.359375 L81.95625,65.359375 Z"/>
      <path fill="#565F64" d="M47.734375,45.971875 L47.5875,46.11875 C47.5875,46.11875 47.5875,46.4125 47.88125,46.265625 C48.028125,46.11875 52.2875,43.915625 53.75625,43.034375 L48.615625,7.784375 C48.46875,6.4625 47.88125,5.875 46.853125,5.434375 L47.440625,46.265625 L47.734375,45.971875 L47.734375,45.971875 Z"/>
      <path fill="#A4AAAE" fill-opacity=".6" d="M45.2375,7.784375 L45.2375,9.69375 L42.00625,42.153125 C42.00625,42.59375 42.153125,43.034375 42.59375,43.328125 L44.503125,44.796875 L45.825,8.959375 L45.971875,6.16875 C45.53125,6.4625 45.384375,7.05 45.2375,7.784375 Z M43.475,45.384375 L41.7125,43.915625 L11.896875,65.50625 C11.896875,65.50625 11.015625,66.09375 10.86875,66.68125 L11.896875,66.09375 L43.18125,46.4125 C43.76875,46.11875 43.915625,45.825 43.475,45.384375 L43.475,45.384375 Z"/>
      <path fill="#565F64" d="M46.559375,48.175 C46.559375,48.028125 46.4125,47.88125 46.265625,48.028125 L10.721875,68.15 C11.603125,68.7375 12.484375,68.884375 13.659375,68.44375 L46.853125,55.078125 L46.559375,48.175 L46.559375,48.175 Z"/>
      <path fill="url(#mercedes-benz-f)" d="M47.5875,46.11875 L47.734375,45.971875 L47.5875,46.11875 C47.5875,46.11875 47.5875,46.265625 47.734375,46.265625 L47.88125,46.265625 C48.028125,46.11875 52.2875,43.915625 53.75625,43.034375 L53.16875,38.775 L48.615625,7.784375 C48.615625,7.196875 48.46875,6.75625 48.175,6.4625 C48.175,6.4625 50.378125,36.13125 50.378125,39.3625 C50.378125,43.621875 47.5875,46.11875 47.5875,46.11875 L47.5875,46.11875 Z"/>
      <path fill="url(#mercedes-benz-g)" fill-opacity=".8" d="M46.559375,48.175 C46.559375,48.028125 46.4125,47.88125 46.265625,48.028125 L10.721875,68.15 C11.603125,68.7375 12.484375,68.884375 13.659375,68.44375 L46.853125,55.078125 L46.559375,48.175 L46.559375,48.175 Z"/>
      <path fill="url(#mercedes-benz-h)" d="M13.659375,68.296875 L46.853125,54.93125 L46.559375,48.46875 C45.971875,50.23125 44.94375,52.140625 42.153125,53.609375 C40.096875,54.784375 20.415625,64.478125 13.365625,67.85625 C12.925,68.15 12.3375,68.296875 12.04375,68.44375 C12.63125,68.7375 13.071875,68.590625 13.659375,68.296875 Z" opacity=".8"/>
      <path fill="url(#mercedes-benz-i)" d="M47.734375,45.971875 L47.5875,46.11875 C47.5875,46.11875 47.5875,46.4125 47.88125,46.265625 C48.028125,46.11875 52.2875,43.915625 53.75625,43.034375 L48.615625,7.784375 C48.46875,6.4625 47.88125,5.875 46.853125,5.434375 L47.440625,46.265625 L47.734375,45.971875 L47.734375,45.971875 Z"/>
      <path fill="url(#mercedes-benz-j)" d="M47.734375,45.971875 L47.5875,46.11875 C47.5875,46.11875 47.5875,46.4125 47.88125,46.265625 C48.028125,46.11875 52.2875,43.915625 53.75625,43.034375 L48.615625,7.784375 C48.46875,6.4625 47.88125,5.875 46.853125,5.434375 L47.440625,46.265625 L47.734375,45.971875 L47.734375,45.971875 Z"/>
      <path fill="url(#mercedes-benz-k)" d="M7.490625,65.2125 C6.4625,62.8625 0.5875,51.40625 7.05,29.375 L4.553125,29.375 C3.23125,33.78125 2.203125,36.425 1.615625,40.390625 C1.615625,40.390625 1.321875,41.859375 1.175,43.475 C1.028125,45.090625 1.028125,45.971875 1.028125,47 C1.028125,55.8125 3.23125,60.953125 3.23125,60.953125 C5.58125,68.296875 9.69375,74.90625 15.275,79.9 C20.121875,84.159375 27.6125,87.390625 33.78125,88.565625 C32.753125,88.41875 15.128125,80.928125 7.490625,65.2125 Z"/>
      <path fill="url(#mercedes-benz-l)" d="M47.5875,47.88125 L46.265625,47.88125 C46.4125,47.88125 46.559375,47.88125 46.559375,48.028125 L46.853125,54.784375 L47,54.784375 L47.29375,48.028125 C47.29375,47.88125 47.440625,47.734375 47.5875,47.88125 L47.5875,47.88125 Z"/>
      <path fill="url(#mercedes-benz-m)" d="M61.6875,3.378125 C77.109375,9.253125 91.65,25.409375 91.65,45.825 C91.65,70.5 71.96875,90.621875 47,90.621875 L47,92.971875 C71.96875,92.971875 92.971875,72.409375 92.971875,47 C92.971875,26.73125 80.046875,9.69375 61.6875,3.378125 Z"/>
      <path fill="url(#mercedes-benz-n)" d="M47.440625,1.028125 L47,1.028125 L47.440625,1.028125 Z"/>
      <path fill="url(#mercedes-benz-o)" d="M86.3625,29.66875 C76.08125,6.021875 52.875,4.7 51.553125,4.553125 L51.40625,4.553125 C69.178125,7.784375 80.4875,19.3875 84.453125,31.578125 L84.453125,31.725 C86.215625,36.425 87.096875,41.41875 87.24375,46.853125 C87.390625,51.99375 86.215625,57.721875 84.0125,63.009375 C83.865625,63.74375 83.71875,64.625 83.571875,64.625 L85.921875,64.625 C92.971875,51.40625 89.8875,38.040625 86.3625,29.66875 Z"/>
      <path fill="#FBFBFB" d="M3.23125,47.146875 C3.23125,23.059375 22.765625,3.23125 47,3.23125 C71.234375,3.23125 90.76875,22.9125 90.76875,47.146875 C90.76875,71.234375 71.234375,90.76875 47,90.76875 C22.765625,90.76875 3.23125,71.234375 3.23125,47.146875 Z M16.890625,16.890625 C9.10625,24.675 4.259375,35.396875 4.259375,47.146875 C4.259375,58.896875 9.10625,69.61875 16.74375,77.25625 C24.528125,84.89375 35.25,89.740625 47,89.740625 C58.75,89.740625 69.471875,85.040625 77.109375,77.25625 C84.89375,69.61875 89.59375,58.896875 89.59375,47.146875 C89.59375,35.396875 84.746875,24.675 77.109375,16.890625 C69.471875,9.10625 58.75,4.259375 47,4.259375 C35.25,4.259375 24.528125,9.10625 16.890625,16.890625 Z"/>
      <path fill="#333F47" d="M11.603125,65.8 L41.565625,44.209375 C43.18125,45.090625 45.825,46.265625 46.11875,46.265625 C46.4125,46.4125 46.4125,46.11875 46.4125,46.11875 L42.740625,43.034375 C42.3,42.740625 42.153125,42.3 42.153125,41.859375 L45.678125,6.4625 C45.53125,6.609375 45.53125,6.903125 45.384375,7.05 C45.2375,7.34375 45.2375,7.490625 45.2375,7.784375 L40.096875,43.18125 L11.896875,65.359375 C11.75,65.50625 11.603125,65.653125 11.603125,65.8 Z"/>
    </g>
  </g>
</svg>
