<svg xmlns="http://www.w3.org/2000/svg" width="200" height="200" viewBox="0 0 200 200">
  <g fill="none" transform="translate(0 58)">
    <path fill="#000" d="M136.320588,20.9558824 C128.75,8.02647059 114.735294,0 99.6529412,0 C84.5705882,0 70.5558824,8.02647059 62.9852941,20.9558824 L0,20.9558824 L0.552941176,21.7323529 C0.747058824,22.0058824 20.4441176,49.3882353 51.4588235,69.5029412 L51.5823529,69.5794118 L67.9882353,69.5794118 C76.0529412,78.55 87.5735294,83.6970588 99.6558824,83.6970588 C111.738235,83.6970588 123.261765,78.55 131.326471,69.5794118 L147.508824,69.5794118 L147.632353,69.5029412 C178.647059,49.3882353 198.338235,22.0029412 198.535294,21.7323529 L199.088235,20.9558824 L136.320588,20.9558824 Z"/>
    <path fill="#FFF" d="M192.108824,28.2823529 L139.185294,28.2823529 C140.008824,30.6205882 140.617647,33.0558824 141.005882,35.5617647 L142.4,35.5617647 C142.04253,33.6915567 141.554072,31.8487822 140.938235,30.0470588 C140.938235,30.0470588 185.647059,28.9970588 192.011765,28.4029412 C188.144272,33.0145024 184.085833,37.4624973 179.847059,41.7352941 L141.535294,41.7352941 L141.541176,41.8470588 C141.541176,44.3 141.282353,46.6852941 140.867647,49.0176471 L142.864706,49.0176471 C143.108824,47.2470588 143.288235,45.4529412 143.288235,43.6147059 L143.285294,43.5029412 C143.285294,43.5029412 174.141176,42.5029412 179.691176,41.8911765 C174.999309,46.6233322 170.091125,51.1359949 164.982353,55.4147059 L139.185294,55.4147059 C138.293723,57.9464308 137.15592,60.384579 135.788235,62.6941176 L138.473529,62.6941176 C139.405882,60.9176471 140.264706,59.0970588 140.938235,57.1794118 C140.938235,57.1794118 160.011765,56.25 164.726471,55.6264706 C159.147209,60.2913835 153.297851,64.6234047 147.208824,68.6 L130.897059,68.6 L130.75,68.7617647 C122.850526,77.6385357 111.534179,82.7164697 99.6514706,82.7164697 C87.7687622,82.7164697 76.4524155,77.6385357 68.5529412,68.7617647 L68.4058824,68.6 L51.8705882,68.6 C45.779304,64.6204727 39.9270658,60.2865363 34.3441176,55.6205882 C39.2470588,56.2382353 60.0294118,57.1794118 60.0294118,57.1794118 C60.9411765,59.1235294 62.2470588,60.9411765 63.4205882,62.6941176 L63.5147059,62.6941176 C62.1455199,60.3849515 61.0067077,57.9467507 60.1147059,55.4147059 L34.1,55.4147059 C28.9905138,51.1368084 24.0822937,46.6241117 19.3911765,41.8911765 C25.0617647,42.5117647 57.2205882,43.5794118 57.2205882,43.6147059 C57.2205882,45.35 57.8676471,47.05 58.3911765,48.7205882 C57.985619,46.4515698 57.7750463,44.1519981 57.7617647,41.8470588 L57.7676471,41.7352941 L19.2411765,41.7352941 C14.9744104,37.4305463 10.8885267,32.9502041 6.99411765,28.3058824 L58.9382353,30.0470588 C58.6558824,31.7941176 58.5,33.6647059 58.2823529,35.5617647 L58.3,35.5617647 C58.6882353,33.0558824 59.2941176,30.6205882 60.1176471,28.2823529 L6.97647059,28.2823529 C5.23617482,26.2126214 3.55222474,24.09616 1.92647059,21.9352941 L63.5294118,21.9352941 L63.6705882,21.6911765 C71.0294118,8.91764706 84.8176471,0.982352941 99.65,0.982352941 C114.482353,0.982352941 128.270588,8.91764706 135.632353,21.6911765 L135.773529,21.9352941 L197.158824,21.9352941 C195.535013,24.0976631 193.851021,26.2141775 192.108824,28.2823529 L192.108824,28.2823529 Z"/>
    <path fill="#000" d="M99.6529412,5.78529412 C79.4823529,5.78529412 63.1294118,21.9294118 63.1294118,41.85 C63.1294118,61.7647059 79.4823529,77.9147059 99.6529412,77.9147059 C119.823529,77.9147059 136.179412,61.7647059 136.179412,41.85 C136.179412,21.9294118 119.823529,5.78529412 99.6529412,5.78529412 L99.6529412,5.78529412 Z"/>
    <path fill="#FFF" d="M99.6529412,75.7058824 C80.7147059,75.7058824 65.3617647,60.5470588 65.3617647,41.8470588 C65.3617647,23.1470588 80.7147059,7.98823529 99.6529412,7.98823529 C118.591176,7.98823529 133.941176,23.1470588 133.941176,41.8470588 C133.941176,60.5470588 118.591176,75.7058824 99.6529412,75.7058824 Z"/>
    <path fill="#000" d="M131.935294,41.85 C131.935294,59.4529412 117.482353,73.7235294 99.6529412,73.7235294 C81.8235294,73.7235294 67.3705882,59.4529412 67.3705882,41.85 C67.3705882,24.2470588 81.8235294,9.97647059 99.6529412,9.97647059 C117.482353,9.97647059 131.935294,24.2470588 131.935294,41.85 Z"/>
    <path fill="#FFF" d="M123,33.1441176 L127.317647,33.1441176 L127.317647,51.1 L123,51.1 L123,33.1441176 L123,33.1441176 Z M95.2382353,33.1441176 L99.5558824,33.1441176 L99.5558824,51.1 L95.2382353,51.1 L95.2382353,33.1441176 L95.2382353,33.1441176 Z M115.347059,33.1441176 L115.347059,44.0352941 L107.45,33.1441176 L103.379412,33.1441176 L103.379412,51.1 L107.45,51.1 L107.45,40.2088235 L115.347059,51.1 L119.420588,51.1 L119.420588,33.1441176 L115.347059,33.1441176 L115.347059,33.1441176 Z M86.0411765,33.1441176 L81.3,44.3470588 L76.5588235,33.1441176 L71.6294118,33.1441176 L71.6294118,51.1 L75.7029412,51.1 L75.7029412,40.9294118 L79.9176471,51.0647059 L79.9323529,51.1 L82.5029412,51.1 L82.5205882,51.0676471 L87.1441176,39.95 L87.1441176,51.1 L91.2147059,51.1 L91.2147059,33.1441176 L86.0411765,33.1441176 L86.0411765,33.1441176 Z"/>
  </g>
</svg>
