<svg xmlns="http://www.w3.org/2000/svg" width="200" height="200" viewBox="0 0 200 200">
  <g fill="none" transform="translate(10)">
    <path fill="#CC2229" d="M89.3234043,106.574468 L29.6734043,106.574468 L0.106382979,158.488298 L59.9287234,158.488298 L89.3234043,106.574468 Z M119.630851,53.3180851 L89.806383,0.888297872 L59.8957447,53.3180851 L89.806383,105.834043 L119.630851,53.3180851 Z M119.6,158.488298 L179.421277,158.488298 L149.854255,106.574468 L90.2042553,106.574468 L119.6,158.488298 Z"/>
    <path fill="#000" d="M116.946809,199.165957 L121.41383,199.165957 L121.41383,175.302128 L116.946809,175.302128 L116.946809,199.165957 Z M167.045745,199.165957 L171.51383,199.165957 L171.51383,175.302128 L167.045745,175.302128 L167.045745,199.165957 Z M32.987234,199.165957 L37.4542553,199.165957 L37.4542553,175.302128 L32.987234,175.302128 L32.987234,199.165957 Z M54.5287234,175.302128 L40.712766,175.302128 L40.712766,179.348936 L45.3180851,179.348936 L45.3180851,199.165957 L49.9234043,199.165957 L49.9234043,179.348936 L54.5287234,179.348936 L54.5287234,175.302128 L54.5287234,175.302128 Z M158.101064,184.373404 L148.042553,184.373404 L148.042553,175.302128 L143.575532,175.302128 L143.575532,199.165957 L148.042553,199.165957 L148.042553,188.420213 L158.101064,188.420213 L158.101064,199.165957 L162.565957,199.165957 L162.565957,175.302128 L158.101064,175.302128 L158.101064,184.373404 Z M18.5680851,185.97766 L14.3808511,175.302128 L9.21702128,175.302128 L9.21702128,199.165957 L13.6829787,199.165957 L13.6829787,184.373404 L18.5680851,196.235106 L23.312766,184.234043 L23.312766,199.165957 L27.7776596,199.165957 L27.7776596,175.302128 L22.7542553,175.302128 L18.5680851,185.97766 Z M92.3744681,175.304255 L87.9489362,175.304255 L87.9489362,192.329787 C87.9489362,194.182979 85.8734043,195.684043 84.0202128,195.684043 C82.1680851,195.684043 80.0925532,194.182979 80.0925532,192.329787 L80.0925532,175.304255 L75.5851064,175.304255 L75.6510638,192.121277 C75.6510638,196.426596 79.7138298,199.917021 84.0191489,199.917021 C88.3255319,199.917021 92.3882979,196.426596 92.3882979,192.121277 L92.3744681,175.304255 Z M109.598936,186.257447 C110.226596,185.838298 112.598936,184.442553 112.598936,181.443617 C112.598936,177.255319 109.25,175.37234 107.015957,175.303191 L96.6702128,175.303191 L96.6702128,199.167021 L105.828723,199.167021 C109.458511,199.167021 113.364894,197.42234 113.364894,192.817021 C113.365957,188.839362 111.484043,187.303191 109.598936,186.257447 L109.598936,186.257447 Z M106.040426,195.119149 L101.139362,195.119149 L101.139362,179.348936 L105.830851,179.348936 C107.088298,179.348936 108.064894,180.395745 108.064894,181.652128 C108.064894,182.908511 107.576596,184.373404 105.902128,184.373404 L103.951064,184.373404 L103.951064,188.421277 L106.041489,188.421277 C107.298936,188.421277 109.041489,189.607447 108.973404,192.048936 C108.911702,194.141489 107.226596,195.119149 106.040426,195.119149 L106.040426,195.119149 Z M56.3170213,191.421277 C56.2819149,191.664894 56.3170213,191.944681 56.3329787,192.397872 C56.3329787,196.512766 59.6680851,199.639362 63.7829787,199.639362 C67.8978723,199.639362 71.2329787,196.862766 71.2329787,192.746809 C71.2329787,190.581915 70.3851064,188.909574 68.9117021,187.547872 C67.7085106,186.437234 64.2808511,184.771277 62.9457447,183.954255 C61.6893617,183.18617 61.0968085,182.594681 61.0670213,181.47766 C61.0670213,179.842553 62.1478723,178.691489 63.7829787,178.691489 C65.4180941,178.691489 66.743617,180.017012 66.743617,181.652128 C66.7734043,182.071277 66.7840426,182.489362 66.7840426,182.768085 L70.7404255,182.768085 L70.7404255,181.652128 C70.7404255,177.810638 68.3191489,174.764894 63.7829787,174.764894 C59.9414894,174.764894 56.8255319,177.395745 56.8255319,181.652128 C56.8393617,183.53617 57.7117021,185.35 59.8755319,186.780851 C62.2,188.317021 65.1085106,189.465957 66.0851064,190.443617 C66.6744681,191.032979 67.0393617,191.846809 67.0393617,192.745745 C67.0393617,194.543617 65.5808511,195.82766 63.7819149,195.82766 C61.9829787,195.82766 60.537234,194.245745 60.3159574,192.745745 C60.2691489,192.362766 60.1531915,191.7 60.1882979,191.420213 L56.3170213,191.420213 L56.3170213,191.421277 L56.3170213,191.421277 Z M131.746809,183.954255 C130.489362,183.18617 129.897872,182.594681 129.865957,181.47766 C129.865957,179.842553 130.948936,178.691489 132.584043,178.691489 C134.218327,178.692664 135.542554,180.017843 135.542553,181.652128 C135.573404,182.071277 135.584043,182.489362 135.584043,182.768085 L139.540426,182.768085 L139.540426,181.652128 C139.540426,177.810638 137.118085,174.764894 132.584043,174.764894 C128.740426,174.764894 125.625532,177.395745 125.625532,181.652128 C125.640426,183.53617 126.512766,185.35 128.675532,186.780851 C131.001064,188.317021 133.909574,189.465957 134.88617,190.443617 C135.474468,191.032979 135.839362,191.846809 135.839362,192.745745 C135.839362,194.543617 134.380851,195.82766 132.582979,195.82766 C130.784043,195.82766 129.337234,194.245745 129.114894,192.745745 C129.069149,192.362766 128.953191,191.7 128.988298,191.420213 L125.114894,191.420213 C125.079787,191.66383 125.114894,191.943617 125.131915,192.396809 C125.131915,196.511702 128.467021,199.638298 132.582979,199.638298 C136.696809,199.638298 140.031915,196.861702 140.031915,192.745745 C140.031915,190.580851 139.184043,188.908511 137.710638,187.546809 C136.508511,186.437234 133.080851,184.771277 131.746809,183.954255 L131.746809,183.954255 Z"/>
  </g>
</svg>
