<svg xmlns="http://www.w3.org/2000/svg" width="200" height="200" viewBox="0 0 200 200">
  <defs>
    <linearGradient id="nissan-a" x1="50%" x2="50%" y1="-116.469%" y2="160.538%">
      <stop offset="19.4%" stop-color="#FFF"/>
      <stop offset="20.8%" stop-color="#F8F8F8"/>
      <stop offset="36.6%" stop-color="#AEAEAE"/>
      <stop offset="51.3%" stop-color="#707070"/>
      <stop offset="64.7%" stop-color="#404040"/>
      <stop offset="76.4%" stop-color="#1D1D1D"/>
      <stop offset="86%" stop-color="#080808"/>
      <stop offset="92.2%"/>
    </linearGradient>
    <radialGradient id="nissan-b" cx="16.861%" cy="-52.161%" r="211.292%" fx="16.861%" fy="-52.161%" gradientTransform="matrix(.38733 0 0 1 .103 0)">
      <stop offset="20.2%" stop-color="#FFF"/>
      <stop offset="38.2%" stop-color="#FDFDFD"/>
      <stop offset="48.7%" stop-color="#F4F4F4"/>
      <stop offset="57.3%" stop-color="#E6E6E6"/>
      <stop offset="64.8%" stop-color="#D2D2D2"/>
      <stop offset="68.9%" stop-color="#C4C4C4"/>
      <stop offset="100%" stop-color="#333"/>
    </radialGradient>
    <radialGradient id="nissan-c" cx="215.329%" cy="127.208%" r="446.654%" fx="215.329%" fy="127.208%" gradientTransform="matrix(.38254 0 0 1 1.33 0)">
      <stop offset="20.2%" stop-color="#FFF"/>
      <stop offset="36.8%" stop-color="#E4E4E4"/>
      <stop offset="59.4%" stop-color="#C4C4C4"/>
      <stop offset="100%" stop-color="#333"/>
    </radialGradient>
    <radialGradient id="nissan-d" cx="34.109%" cy="210.536%" r="167.463%" fx="34.109%" fy="210.536%" gradientTransform="matrix(.3684 0 0 1 .215 0)">
      <stop offset="20.2%" stop-color="#FFF"/>
      <stop offset="36.8%" stop-color="#E4E4E4"/>
      <stop offset="59.4%" stop-color="#C4C4C4"/>
      <stop offset="100%" stop-color="#333"/>
    </radialGradient>
    <radialGradient id="nissan-e" cx="84.027%" cy="210.001%" r="323.587%" fx="84.027%" fy="210.001%" gradientTransform="matrix(.3632 0 0 1 .535 0)">
      <stop offset="20.2%" stop-color="#FFF"/>
      <stop offset="36.8%" stop-color="#E4E4E4"/>
      <stop offset="59.4%" stop-color="#C4C4C4"/>
      <stop offset="100%" stop-color="#333"/>
    </radialGradient>
    <radialGradient id="nissan-f" cx="50%" cy="-79.109%" r="279.126%" fx="50%" fy="-79.109%" gradientTransform="matrix(0 1 -.22906 0 .319 -1.291)">
      <stop offset="0%" stop-color="#FFF"/>
      <stop offset="39.7%" stop-color="#FDFDFD"/>
      <stop offset="51%" stop-color="#F4F4F4"/>
      <stop offset="60.3%" stop-color="#E6E6E6"/>
      <stop offset="68.4%" stop-color="#D2D2D2"/>
      <stop offset="72.8%" stop-color="#C4C4C4"/>
      <stop offset="100%" stop-color="#4D4D4D"/>
    </radialGradient>
    <radialGradient id="nissan-g" cx="50.89%" cy="-193.324%" r="403.067%" fx="50.89%" fy="-193.324%" gradientTransform="matrix(.14199 0 0 1 .437 0)">
      <stop offset="11.1%" stop-color="#4D4D4D"/>
      <stop offset="24.8%" stop-color="#494949"/>
      <stop offset="35.5%" stop-color="#404040"/>
      <stop offset="45.1%" stop-color="#2F2F2F"/>
      <stop offset="54.1%" stop-color="#181818"/>
      <stop offset="61.1%"/>
    </radialGradient>
  </defs>
  <g fill="none" transform="translate(0 14)">
    <path fill="url(#nissan-a)" d="M193.119,64.965 C191.271,64.449 189.213,64.205 184.878,63.67 C166.936,62.934 122.596,61.21 100.001,61.21 C77.407,61.21 33.066,62.933 15.126,63.67 C10.789,64.205 8.729,64.449 6.882,64.965 C1.241,66.295 0,68.32 0,72.36 L0,100.049 C0,104.09 4.329,106.813 7.313,107.362 C10.299,107.915 12.188,108.136 15.329,108.435 C31.376,109.429 68.606,111.501 100,111.534 C131.395,111.504 168.623,109.43 184.671,108.435 C187.811,108.136 189.701,107.914 192.688,107.362 C195.671,106.812 200,104.09 200,100.049 L200,72.36 C200,68.32 198.76,66.295 193.119,64.965 Z"/>
    <path fill="url(#nissan-b)" d="M28.05,66.054 C36.878,35.344 65.885,12.811 100.318,12.811 C134.652,12.811 163.6,35.22 172.514,65.807 C172.542,65.915 172.561,65.971 172.592,66.075 C177.71,65.5 182.295,64.612 185.535,63.747 C185.476,63.55 185.461,63.51 185.41,63.316 C175.279,26.881 141.021,0.07 100.318,0.07 C59.478,0.07 25.13,27.055 15.124,63.67 C19.625,64.903 22.922,65.42 28.05,66.054 Z"/>
    <path fill="url(#nissan-c)" d="M172.303,106.304 C172.214,106.577 172.115,106.878 172.069,107.027 C162.682,136.879 134.112,158.591 100.319,158.591 C66.259,158.591 37.509,136.544 28.35,106.333 C22.752,107.324 20.861,107.701 15.329,108.437 C25.579,144.694 59.743,171.332 100.319,171.332 C140.912,171.332 175.088,144.666 185.319,108.379 C180.445,107.777 177.574,107.322 172.303,106.304 L172.303,106.304 Z"/>
    <path fill="url(#nissan-d)" d="M29.852,65.988 C31.977,65.11 34.033,63.71 37.238,62.809 C46.793,37.984 71.427,20.306 100.317,20.306 C129.117,20.306 153.69,37.875 163.305,62.58 C163.339,62.664 163.374,62.766 163.401,62.829 C165.055,63.402 169.928,65.378 171.444,66.039 C171.659,66.044 172.118,66.06 172.592,66.073 C172.564234,65.9841902 172.538229,65.8948393 172.514,65.805 C163.596,35.228 134.649,12.826 100.317,12.826 C65.893,12.826 36.886,35.349 28.055,66.053 C28.565,66.054 29.536,66.01 29.852,65.988 L29.852,65.988 Z"/>
    <path fill="#FFF" d="M99.769,14.903 C131.982,14.903 160.537,34.111 171.353,65.772 L171.441,66.041 C171.609,66.041 172.222,66.063 172.589,66.075 C172.56,65.96 172.53,65.893 172.511,65.807 C163.593,35.23 134.646,12.828 100.314,12.828 C65.89,12.828 36.883,35.351 28.052,66.055 C28.74,66.044 29.071,66.044 29.851,65.989 C39.521,35.931 67.793,14.903 99.769,14.903 L99.769,14.903 Z"/>
    <path fill="url(#nissan-e)" d="M170.477,106.391 C168.163,107.684 165.282,108.928 162.979,109.655 C162.948,109.729 162.817,110.057 162.789,110.134 C152.827,134.156 128.61,151.113 100.318,151.113 C71.848,151.113 47.507,133.95 37.661,109.69 C35.012,108.955 31.052,107.149 29.553,106.395 C28.992,106.368 28.69,106.352 28.345,106.334 C37.504,136.541 66.259,158.592 100.319,158.592 C134.225,158.592 162.869,136.743 172.162,106.749 C172.182,106.691 172.285,106.361 172.307,106.305 C171.77,106.326 170.949,106.391 170.477,106.391 L170.477,106.391 Z"/>
    <path fill="url(#nissan-f)" d="M171.948,66.055 C171.422,66.036 170.887,66.02 170.344,66.001 C149.354,65.281 117.824,64.319 100,64.319 C82.177,64.319 50.648,65.281 29.655,66.001 C29.113,66.02 28.58,66.036 28.055,66.055 C16.477,66.454 13.238,66.392 8.485,66.97 C3.733,67.553 0,69.634 0,73.173 L0,98.85 C0,102.391 4.497,105.258 8.484,105.258 C8.484,105.258 59.23,108.391 100,108.428 C140.771,108.391 191.516,105.258 191.516,105.258 C195.503,105.258 200,102.391 200,98.85 L200,73.173 C200,69.634 196.268,67.553 191.516,66.97 C186.764,66.392 183.524,66.454 171.948,66.055 Z"/>
    <path fill="#FFF" d="M170.477,106.391 C160.518,135.934 132.51,156.514 100.873,156.514 C68.914,156.514 40.556,137.608 29.55,106.391 C29.146,106.37 28.746,106.354 28.351,106.331 C37.508,136.539 66.268,158.59 100.329,158.59 C134.401,158.59 163.164,136.525 172.313,106.301 C171.711,106.329 171.1,106.362 170.477,106.391 L170.477,106.391 Z"/>
    <path fill="#8C8C8C" d="M170.535,106.389 L170.474,106.391 C168.16,107.684 165.281,108.928 162.976,109.655 C162.945,109.729 162.814,110.057 162.787,110.134 C159.635,117.736 155.055,124.63 149.365,130.505 C158.271,123.994 165.535,115.768 170.535,106.389 L170.535,106.389 Z"/>
    <path fill="#4D4D4D" d="M53.19,132.416 C46.492,126.036 41.16,118.313 37.66,109.688 C35.011,108.952 31.052,107.145 29.552,106.391 C31.1549127,109.713935 33.0447481,112.890652 35.2,115.885 C39.609,121.627 44.953,126.745 51.036,131.076 C51.744,131.54 52.462,131.986 53.19,132.416 L53.19,132.416 Z"/>
    <path fill="#252525" d="M28.348,106.335 L28.348,106.333 L28.325,106.337 C22.745,107.326 20.852,107.705 15.328,108.437 C15.773,110.017 16.266,111.574 16.803,113.115 L28.348,106.335 Z"/>
    <path fill="url(#nissan-g)" d="M140.637,78.342 C138.969,74.614 139.561,75.005 135.93,74.909 C135.635,74.809 134.848,74.809 133.77,74.809 C132.694,74.809 132.496,74.809 131.612,74.909 C128.18,74.909 128.768,74.713 127.592,77.165 C127.592,77.165 121.701,90.407 119.153,95.9 L119.055,96.096 C118.565,97.075 118.86,97.075 119.643,97.075 L124.942,97.075 C125.336,97.075 125.53,96.883 125.628,96.683 C125.628,96.683 126.413,95.015 127.394,92.662 L140.343,92.662 C141.325,94.919 142.011,96.585 142.011,96.683 C142.109,96.978 142.404,97.075 142.697,97.075 L148.191,97.075 C148.976,97.075 149.173,97.178 148.879,96.487 C147.896,94.134 141.52,80.399 140.637,78.342 L140.637,78.342 Z M129.354,87.954 C131.022,84.031 132.692,80.206 132.692,80.107 C132.791,79.91 132.987,79.812 133.28,79.812 C133.379,79.712 133.675,79.712 133.968,79.712 C134.165,79.712 134.457,79.712 134.556,79.812 C134.751,79.812 134.951,79.91 135.045,80.205 C135.441,81.282 136.909,84.619 138.282,87.954 L129.354,87.954 L129.354,87.954 Z M58.722,74.613 C59.212,74.613 59.311,74.808 59.311,75.201 L59.311,96.196 C59.311,96.684 59.212,96.884 58.625,96.884 L53.523,96.884 C52.936,96.884 52.838,96.784 52.838,96.196 L52.838,75.201 C52.838,74.808 52.936,74.613 53.327,74.613 L58.722,74.613 L58.722,74.613 Z M47.833,74.808 C48.42,74.808 48.521,75.003 48.521,75.496 L48.521,96.392 C48.521,96.982 48.42,97.08 47.833,97.08 L41.848,97.08 C38.318,97.08 38.023,97.08 36.847,95.12 C34.394,91.295 27.035,80.013 27.035,80.013 L27.035,96.394 C27.035,96.985 26.937,97.081 26.35,97.081 L21.934,97.081 C21.346,97.081 21.247,96.985 21.247,96.394 L21.247,75.496 C21.247,75.005 21.346,74.808 21.934,74.808 L27.035,74.808 C30.861,74.808 31.351,74.711 32.727,76.673 C33.805,78.44 42.732,92.173 42.732,92.173 L42.732,75.496 C42.732,75.005 42.83,74.808 43.42,74.808 L47.833,74.808 L47.833,74.808 Z M178.797,74.808 C179.389,74.808 179.485,75.003 179.485,75.496 L179.485,96.392 C179.485,96.982 179.387,97.08 178.797,97.08 L172.818,97.08 C169.283,97.08 168.988,97.08 167.812,95.12 C165.357,91.292 158,80.011 158,80.011 L158,96.393 C158,96.983 157.902,97.079 157.312,97.079 L152.9,97.079 C152.312,97.079 152.211,96.983 152.211,96.393 L152.211,75.496 C152.211,75.005 152.313,74.808 152.9,74.808 L158,74.808 C161.826,74.808 162.318,74.711 163.689,76.673 C164.867,78.44 173.697,92.173 173.697,92.173 L173.697,75.496 C173.697,75.005 173.796,74.808 174.385,74.808 L178.797,74.808 L178.797,74.808 Z M81.188,83.346 C85.113,83.737 87.959,84.423 88.743,88.152 C88.743,88.444 88.842,89.426 88.842,90.506 C88.842,91.194 88.842,92.074 88.645,92.86 C87.96,96.391 85.309,97.077 81.191,97.077 L64.707,97.077 C64.118,97.077 64.019,96.981 64.019,96.391 L64.019,92.86 C64.019,92.27 64.118,92.172 64.707,92.172 L81.382,92.172 C82.07,92.172 82.266,91.977 82.363,91.484 L82.363,90.601 L82.363,90.013 C82.264,89.619 82.167,89.031 81.285,88.935 C79.42,88.837 73.928,88.345 70.198,87.954 C65.391,87.463 64.215,85.405 64.018,83.638 C63.92,83.048 63.92,82.264 63.92,81.577 C63.92,80.988 63.92,80.106 64.018,79.418 C64.706,76.277 67.061,74.808 71.179,74.808 L87.169,74.808 C87.76,74.808 87.957,74.908 87.957,75.397 L87.957,79.028 C87.957,79.515 87.76,79.713 87.169,79.615 L71.474,79.615 C70.787,79.615 70.494,79.909 70.394,80.595 L70.394,81.478 C70.394,81.969 70.689,82.362 71.375,82.457 C73.243,82.657 79.029,83.147 81.188,83.346 L81.188,83.346 Z M109.537,83.346 C113.465,83.737 116.308,84.423 117.094,88.152 C117.094,88.444 117.192,89.426 117.192,90.506 C117.192,91.194 117.192,92.074 116.996,92.86 C116.311,96.391 113.663,97.077 109.541,97.077 L93.058,97.077 C92.469,97.077 92.37,96.981 92.37,96.391 L92.37,92.86 C92.37,92.27 92.469,92.172 93.058,92.172 L109.736,92.172 C110.422,92.172 110.615,91.977 110.716,91.484 L110.716,90.601 L110.716,90.013 C110.614,89.619 110.42,89.031 109.636,88.935 C107.773,88.837 102.279,88.345 98.552,87.954 C93.743,87.463 92.666,85.405 92.37,83.638 C92.272,83.048 92.272,82.264 92.272,81.577 C92.272,80.988 92.272,80.106 92.37,79.418 C93.058,76.277 95.412,74.808 99.531,74.808 L115.524,74.808 C116.11,74.808 116.309,74.908 116.309,75.397 L116.309,79.028 C116.309,79.515 116.11,79.713 115.524,79.615 L99.826,79.615 C99.14,79.615 98.847,79.909 98.747,80.595 L98.747,81.478 C98.747,81.969 98.944,82.362 99.73,82.457 C101.594,82.657 107.38,83.147 109.537,83.346 L109.537,83.346 Z"/>
  </g>
</svg>
