<svg xmlns="http://www.w3.org/2000/svg" width="200" height="200" viewBox="0 0 200 200">
  <g fill="#1A3B73" transform="translate(1 34)">
    <path d="M22.0830409,120.619883 C21.6444444,116.554386 10.651462,111.605848 10.651462,111.605848 C7.79298246,109.849123 9.00116959,107.653801 9.00116959,107.653801 C10.7614035,103.80117 19.994152,107.432749 19.994152,107.432749 L21.7497076,103.25731 C16.8573099,99.5695906 10.6116959,100.340351 10.6116959,100.340351 C2.93450292,101.217544 1.78830409,106.404678 1.78830409,106.404678 C0.0374269006,114.350877 6.16842105,116.236257 6.16842105,116.236257 C11.7578947,118.863158 13.4421053,119.94269 13.4421053,119.94269 C18.0233918,122.904094 13.980117,124.859649 13.980117,124.859649 C8.99766082,127.212865 2.73216374,123.981287 2.73216374,123.981287 L0.778947368,128.561404 C5.96725146,132.061988 13.980117,130.583626 13.980117,130.583626 C24.1520468,129.099415 22.0830409,120.619883 22.0830409,120.619883 L22.0830409,120.619883 Z"/>
    <path d="M38.4736842,122.243275 C38.1204678,118.950877 29.2210526,114.949708 29.2210526,114.949708 C26.9052632,113.523977 27.8865497,111.745029 27.8865497,111.745029 C29.3111111,108.631579 36.7859649,111.566082 36.7859649,111.566082 L38.2070175,108.185965 C34.2467836,105.203509 29.1918129,105.824561 29.1918129,105.824561 C22.9789474,106.534503 22.051462,110.735673 22.051462,110.735673 C20.6327485,117.167251 25.5929825,118.695906 25.5929825,118.695906 C30.1181287,120.821053 31.4818713,121.693567 31.4818713,121.693567 C35.1871345,124.092398 31.9169591,125.670175 31.9169591,125.670175 C27.8853801,127.581287 22.8116959,124.963743 22.8116959,124.963743 L21.2339181,128.672515 C25.4327485,131.507602 31.9169591,130.307602 31.9169591,130.307602 C40.1497076,129.106433 38.4736842,122.243275 38.4736842,122.243275 L38.4736842,122.243275 Z"/>
    <path d="M45.9157895,106.392982 L37.1321637,129.97076 L42.1918129,130.061988 L44.4807018,124.909942 L55.0783626,124.909942 L57.3695906,129.588304 L62.2350877,129.588304 L53.0736842,106.392982 L45.9157895,106.392982 L45.9157895,106.392982 Z M46.1988304,120.709942 L49.5403509,112.499415 L53.1672515,120.709942 L46.1988304,120.709942 Z M78.5578947,121.952047 L68.728655,106.584795 L62.2350877,106.584795 L62.2350877,129.588304 L67.0093567,129.681871 L67.0093567,114.602339 L77.5076023,130.352047 L83.5216374,130.352047 L83.5216374,106.676023 L78.5578947,106.676023 L78.5578947,121.952047 L78.5578947,121.952047 Z M104.899415,116.987135 L96.8818713,116.987135 L96.8818713,120.615205 L102.325146,120.615205 L102.325146,126.149708 C98.6011696,127.581287 94.6900585,126.05614 94.6900585,126.05614 C86.9567251,120.905263 91.1567251,114.506433 91.1567251,114.506433 C95.9309942,107.059649 107.288889,111.644444 107.288889,111.644444 L107.288889,107.348538 C93.445614,102.860819 87.5274854,110.40117 87.5274854,110.40117 C79.7040936,121.187135 89.4362573,128.253801 89.4362573,128.253801 C98.9836257,134.17076 108.148538,129.014035 108.148538,129.014035 L108.148538,120.518129 C107.956725,116.609357 104.899415,116.987135 104.899415,116.987135 L104.899415,116.987135 Z M195.691228,116.987135 L187.674854,116.987135 L187.674854,120.615205 L193.111111,120.615205 L193.111111,126.149708 C189.387135,127.581287 185.474854,126.05614 185.474854,126.05614 C177.74269,120.905263 181.94269,114.506433 181.94269,114.506433 C186.716959,107.059649 198.074854,111.644444 198.074854,111.644444 L198.074854,107.348538 C184.233918,102.860819 178.316959,110.40117 178.316959,110.40117 C170.488889,121.187135 180.222222,128.253801 180.222222,128.253801 C189.77076,134.17076 198.933333,129.014035 198.933333,129.014035 L198.933333,120.518129 C198.746199,116.609357 195.691228,116.987135 195.691228,116.987135 Z"/>
    <path d="M126.375439,101.332164 L119.024561,113.550877 L111.677193,101.623392 L105.284211,101.623392 L116.25731,119.471345 L110.149708,130.923977 L115.969591,130.923977 L132.867836,101.332164 L126.375439,101.332164 L126.375439,101.332164 Z M138.783626,106.066667 C131.85731,106.066667 126.242105,111.68538 126.242105,118.612865 C126.242105,125.540351 131.85731,131.156725 138.783626,131.156725 C145.712281,131.156725 151.333333,125.540351 151.333333,118.612865 C151.333333,111.68538 145.712281,106.066667 138.783626,106.066667 Z M138.783626,126.246784 C134.567251,126.246784 131.152047,122.82807 131.152047,118.611696 C131.152047,114.395599 134.569868,110.977778 138.785965,110.977778 C143.002061,110.977778 146.419883,114.395599 146.419883,118.611696 C146.419237,122.828628 143.000557,126.246784 138.783626,126.246784 Z M169.519298,121.665497 L159.687719,106.488889 L153.005848,106.488889 L153.005848,130.061988 L158.067836,129.97076 L158.067836,114.698246 L168.469006,130.252632 L174.575439,130.252632 L174.575439,106.392982 L169.519298,106.392982 L169.519298,121.665497 Z M163.735673,28.4421053 C160.080702,14.9461988 142.616374,8.14385965 142.616374,8.14385965 C137.956725,6.43859649 139.817544,9.11695906 139.817544,9.11695906 C139.817544,9.11695906 159.91345,18.3672515 159.91345,31.2432749 C159.91345,47.1906433 138.015205,51.9602339 138.015205,51.9602339 C157.932164,45.6233918 157.989474,32.1005848 157.989474,32.1005848 C157.639766,18.580117 139.817544,9.11695906 139.817544,9.11695906 C132.946199,5.21871345 129.218713,4.24327485 129.218713,4.24327485 C120.250292,1.23859649 123.160234,4.73099415 123.160234,4.73099415 C123.160234,4.73099415 150.216374,13.2561404 150.216374,32.0631579 C150.216374,51.2725146 112.504094,57.4432749 112.504094,57.4432749 C147.966082,50.8631579 147.973099,32.2222222 147.973099,32.2222222 C147.973099,15.4315789 123.160234,4.73099415 123.160234,4.73099415 C119.433918,2.70175439 113.11345,1.06666667 113.11345,1.06666667 C107.25848,-0.18128655 110.580117,2.37660819 110.580117,2.37660819 C134.34386,16.2643275 134.34386,31.6140351 134.34386,31.6140351 C134.34386,48.671345 118.705263,52.9333333 118.705263,52.9333333 C114.161404,54.7005848 105.369591,56.1146199 105.369591,56.1146199 C103.946199,56.5356725 102.950877,57.5146199 102.950877,58.6619883 C102.950877,59.1251462 103.063158,59.5836257 103.40117,59.9473684 C104.259649,60.8643275 107.149708,63.0140351 107.149708,63.0140351 C108.184795,63.9883041 108.789474,65.194152 108.789474,66.4994152 C108.789474,69.7017544 105.107602,72.3005848 100.533333,72.3602339 L100.196491,72.3602339 C95.6233918,72.3005848 91.9380117,69.702924 91.9380117,66.4994152 C91.9380117,65.194152 92.5461988,63.9883041 93.5789474,63.0140351 C93.5789474,63.0140351 96.4678363,60.8643275 97.3263158,59.9473684 C97.6643275,59.5836257 97.780117,59.1263158 97.780117,58.6619883 C97.780117,57.5146199 96.7824561,56.5356725 95.3602339,56.1146199 C95.3602339,56.1146199 86.5672515,54.7017544 82.0233918,52.9333333 C82.0233918,52.9333333 66.3847953,48.6725146 66.3847953,31.6140351 C66.3847953,31.6140351 66.3847953,16.2631579 90.148538,2.37660819 C90.148538,2.37660819 93.4690058,-0.18128655 87.6152047,1.06666667 C87.6152047,1.06666667 81.2947368,2.70175439 77.5684211,4.73099415 C77.5684211,4.73099415 52.7567251,15.4304094 52.7567251,32.2222222 C52.7567251,32.2222222 52.7614035,50.8631579 88.2269006,57.4432749 C88.2269006,57.4432749 50.5134503,51.2736842 50.5134503,32.0631579 C50.5134503,13.2561404 77.5684211,4.73099415 77.5684211,4.73099415 C77.5684211,4.73099415 80.4783626,1.23859649 71.5099415,4.24327485 C71.5099415,4.24327485 67.7824561,5.21754386 60.9099415,9.11695906 C60.9099415,9.11695906 43.0865497,18.580117 42.7380117,32.1005848 C42.7380117,32.1005848 42.7953216,45.6233918 62.7146199,51.9602339 C62.7146199,51.9602339 40.8152047,47.1894737 40.8152047,31.2432749 C40.8152047,18.3672515 60.9099415,9.11695906 60.9099415,9.11695906 C60.9099415,9.11695906 62.7730994,6.4374269 58.1146199,8.14385965 C58.1146199,8.14385965 40.6467836,14.9473684 36.994152,28.4421053 C36.994152,28.4421053 35.8865497,33.5263158 37.5076023,37.2397661 C39.4725146,41.7871345 44.5964912,49.3192982 57.6467836,53.5403509 C57.6467836,53.5403509 63.5883041,55.980117 87.3532164,60.7309942 L88.7532164,61.0502924 C88.7532164,61.0502924 89.7754386,61.4982456 89.0432749,62.3052632 L85.7695906,65.1192982 C85.7695906,65.1192982 80.9684211,68.8128655 87.8210526,71.9216374 C87.8210526,71.9216374 92.0023392,73.3461988 94.9497076,76.5017544 C94.9497076,76.5017544 96.845614,78.3052632 100.05614,78.3953216 L100.05614,78.4081871 L100.270175,78.4081871 C100.279532,78.4081871 100.287719,78.4116959 100.294737,78.4116959 L100.294737,78.4081871 L100.432749,78.4081871 L100.432749,78.4116959 L100.45731,78.4081871 L100.604678,78.4081871 L100.604678,78.4035088 C103.85731,78.3333333 105.776608,76.5017544 105.776608,76.5017544 C108.725146,73.3461988 112.904094,71.9216374 112.904094,71.9216374 C119.759064,68.8128655 114.955556,65.1192982 114.955556,65.1192982 L111.684211,62.3052632 C110.953216,61.4982456 111.974269,61.0502924 111.974269,61.0502924 L113.37193,60.7309942 C137.135673,55.980117 143.079532,53.5403509 143.079532,53.5403509 C156.129825,49.3192982 161.253801,41.7883041 163.221053,37.2397661 C164.843275,33.5263158 163.735673,28.4421053 163.735673,28.4421053 L163.735673,28.4421053 Z"/>
  </g>
</svg>
