<svg xmlns="http://www.w3.org/2000/svg" width="200" height="200" viewBox="0 0 200 200">
  <g fill="none" fill-rule="evenodd" transform="translate(0 63)">
    <path fill="#000" fill-rule="nonzero" d="M25.1888172,49 C31.6081397,49 30.8070046,55.7175219 30.9208022,55.9999402 L24.2716086,55.9999402 C24.2716086,55.9427841 24.2716086,53.9669765 22.4383293,53.9669765 L9.02728239,53.9669765 C6.39059205,53.9669765 6.39059205,58.4845492 8.79741124,58.5966199 C13.1535833,58.8218822 20.2602432,58.7647261 26.1060258,59.0471444 C28.8565138,59.217492 31.2644709,60.9669167 31.2644709,63.9020501 C31.2644709,64.0141209 31.3794065,68.9822181 31.3794065,68.9822181 C31.4363053,72.367876 28.4570842,73.9491946 25.5336239,73.9491946 L6.39059205,73.9491946 C3.1814998,73.9491946 0.544809466,71.6360539 0.086205148,68.5294522 C-0.0287350493,67.7813414 -0.0287350493,67.0204577 0.086205148,66.2723469 L6.7342608,66.2723469 C6.7342608,66.2723469 6.61932522,69.0942889 9.48474873,69.0942889 C14.5282583,69.0942889 17.3936818,69.2086011 21.978587,69.0942889 C25.4175504,69.0371328 25.9899523,64.1273124 21.978587,63.9020501 C17.1649486,63.6767879 13.496114,63.507561 7.42159829,63.3372135 C3.2952974,63.2251427 0.313800343,61.6449449 0.313800343,58.370237 L0.313800343,53.290069 C0.313800343,50.9197723 2.60682193,49 5.81591418,49 L25.1888172,49 Z M41.0089592,49.7900989 C40.8940236,49.9604465 41.0089592,59.7251726 41.0089592,67.176758 C41.0089592,68.2492753 41.6962967,69.0942889 43.0709717,69.0942889 L55.9096166,69.0942889 C57.2854296,69.0942889 57.6290983,67.9668569 57.6290983,67.0635665 C57.7440339,60.4032007 57.7440339,50.073638 57.6290983,49.9044111 L64.9644915,49.9044111 C64.9644915,49.9044111 65.0225282,62.3218523 65.079427,68.9822181 C65.1374638,71.9745076 62.5576723,73.8920385 58.8899757,73.9491946 C52.0120489,74.0635068 48.5730855,73.9491946 42.153763,73.9491946 C37.6826554,73.9491946 33.8431245,72.6514151 33.7850877,68.9822181 C33.7281889,61.4174412 33.5563545,49.9604465 33.6701521,49.7900989 L41.0089592,49.7900989 L41.0089592,49.7900989 Z M90.5268458,49.9044111 C97.289837,49.9044111 97.9771745,54.7593168 97.9771745,56.2263232 C97.9771745,60.1768178 94.5962479,61.8141717 94.4232755,61.8713278 C94.4813123,61.8713278 98.4357788,63.3383342 98.4357788,67.176758 C98.4357788,69.3217925 98.0921101,73.8920385 90.5257078,73.9491946 C81.8145017,74.0635068 67.7718782,73.9491946 67.7149794,73.9491946 L67.7149794,49.9044111 L90.5268458,49.9044111 L90.5268458,49.9044111 Z M88.6935665,59.8372434 C90.0682415,59.8372434 91.2153213,59.0471444 91.2153213,57.2416843 C91.2153213,55.6614865 89.8975451,54.7593168 88.4648333,54.7593168 C83.651195,54.7593168 75.2256208,54.6450046 75.0537865,54.7593168 L75.0537865,59.8372434 C75.2244829,59.9504348 83.4201858,59.8372434 88.6935665,59.8372434 Z M88.8073641,69.0942889 C90.2400759,69.0942889 91.6727876,68.3064314 91.6727876,66.4987299 C91.6727876,64.8042198 90.2400759,63.733944 88.6924285,63.7888587 C84.2213209,63.8460148 75.2233449,63.7888587 75.0515105,63.9031709 L75.0515105,69.0954096 C75.2244829,69.2074804 82.9615815,69.0942889 88.8073641,69.0942889 L88.8073641,69.0942889 Z M111.390497,49.9044111 L120.329299,49.9044111 L133.513888,73.9491946 L126.290017,73.9491946 L123.654464,69.0942889 L108.294065,69.0942889 L105.542439,73.9491946 L98.2070457,73.9491946 L111.390497,49.9044111 L111.390497,49.9044111 Z M115.744393,55.2098413 L110.930755,63.9020501 L120.790179,63.9020501 L115.744393,55.2098413 Z M156.324617,54.7593168 C158.157896,54.7593168 159.304976,56.9021099 159.304976,58.5966199 C159.304976,60.29113 158.099859,62.0965901 156.324617,62.0965901 C151.050098,62.0965901 143.026229,62.1537462 142.91357,62.0965901 L142.91357,54.7593168 C143.084266,54.6450046 151.508702,54.7593168 156.324617,54.7593168 L156.324617,54.7593168 Z M142.91357,66.4976092 C142.969331,66.4976092 151.739712,66.5547652 156.095884,66.4976092 C157.984924,66.4404531 159.532571,68.4173814 159.532571,70.1118915 L159.532571,73.9491946 L166.066829,73.9491946 L166.066829,70.2239622 C166.066829,66.7239921 162.342234,64.6921491 162.284197,64.6921491 C162.457169,64.634993 165.954169,62.3218523 165.954169,58.4845492 C165.954169,53.9669765 164.12089,49.9044111 157.356761,49.9044111 L135.577039,49.9044111 L135.577039,73.9491946 L142.91357,73.9491946 L142.91357,66.4976092 L142.91357,66.4976092 Z M175.926253,49.7900989 C175.753281,50.0153612 176.04005,59.7251726 176.04005,67.176758 C176.04005,68.2492753 176.61359,69.0942889 178.104339,69.0942889 L190.82691,69.0942889 C192.202723,69.0942889 192.54753,67.9668569 192.54753,67.0635665 C192.661328,60.4032007 192.776263,50.073638 192.661328,49.9044111 L199.885199,49.9044111 C199.885199,49.9044111 199.94096,62.3218523 199.998997,68.9822181 C200.057033,71.9745076 197.592177,73.8920385 193.924481,73.9491946 C186.931619,74.0635068 183.491517,73.9491946 177.188268,73.9491946 C172.718299,73.9491946 168.762694,72.7085712 168.706933,68.9822181 C168.59086,61.4174412 168.59086,49.9604465 168.706933,49.7900989 L175.926253,49.7900989 L175.926253,49.7900989 Z"/>
    <g transform="translate(64 .277)">
      <ellipse cx="35" cy="21" fill="#004999" rx="35" ry="21"/>
      <path fill="#FFF" fill-rule="nonzero" d="M25.1830508,12.9220339 L41.0293785,16.3672316 L25.3548023,19.6384181 L21.9107345,28.2497175 L18.4666667,19.4666667 L4,16.3672316 L18.4666667,13.2666667 L21.7389831,5 L25.1830508,12.9220339 Z M42.5785311,21.0158192 L49.2937853,22.3943503 L42.5785311,23.9446328 L41.1988701,27.560452 L39.6497175,23.7717514 L33.4497175,22.3943503 L39.6497175,21.0158192 L41.0293785,17.5717514 L42.5785311,21.0158192 L42.5785311,21.0158192 Z M58.940113,21.0158192 L65.6553672,22.3943503 L58.940113,23.9446328 L57.560452,27.560452 L56.0112994,23.7717514 L49.9819209,22.3943503 L56.0112994,21.0158192 L57.560452,17.5717514 L58.940113,21.0158192 L58.940113,21.0158192 Z M54.6350282,10.8553672 L61.3502825,12.2327684 L54.6350282,13.6101695 L53.2553672,17.4 L51.7062147,13.6101695 L45.5062147,12.2327684 L51.7062147,10.8553672 L53.0836158,7.41016949 L54.6350282,10.8553672 Z M48.2610169,29.1107345 L55.1514124,30.6610169 L48.4327684,32.0384181 L46.8836158,35.6553672 L45.3322034,32.0384181 L39.3050847,30.6610169 L45.3322034,29.2836158 L46.8836158,25.8384181 L48.2610169,29.1107345 Z M30.5220339,30.3163842 L37.239548,31.8666667 L30.5220339,33.2440678 L29.1435028,36.8610169 L27.5943503,33.0723164 L21.3943503,31.8666667 L27.5943503,30.4881356 L28.9717514,26.8723164 L30.5220339,30.3163842 Z"/>
    </g>
  </g>
</svg>
