<svg xmlns="http://www.w3.org/2000/svg" width="200" height="200" viewBox="0 0 200 200">
  <g fill="none" transform="translate(17)">
    <path fill="#D82910" d="M59.6634409,42.1010753 C61.1967742,37.0946237 65.0795699,39.6494624 65.0795699,39.6494624 C65.0795699,39.6494624 75.1419355,47.311828 102.74086,64.8741935 C130.339785,82.4365591 164.747312,58.0645161 164.747312,58.0645161 L83.0268817,0 C47.183871,37.9924731 1.30645161,51.6129032 1.30645161,51.6129032 L1.43655914,51.6634409 L105.895699,124.911828 C104.362366,129.91828 100.47957,127.364516 100.47957,127.364516 C100.47957,127.364516 90.4172043,119.701075 62.8182796,102.137634 C35.2193548,84.5752688 0.811827957,108.948387 0.811827957,108.948387 L82.5322581,167.012903 C118.375269,129.019355 164.252688,115.4 164.252688,115.4 L164.12043,115.348387 L59.6634409,42.1010753 Z"/>
    <path fill="#00327A" d="M0,18.0225806 L12.572043,18.0892473 C12.788172,19.272043 12.4483871,19.2677419 13.1096774,19.8849462 C14.1451613,20.8483871 15.7516129,21.0677419 17.1,20.8301075 C18.2043011,20.6365591 19.916129,20.2989247 19.9978495,18.927957 C20.0870968,17.4397849 19.0569892,16.9215054 17.7645161,16.7516129 C15.9774194,16.5182796 14.1741935,16.4569892 12.3924731,16.172043 C7.80215054,15.4182796 5.36129032,15.0806452 3.40645161,13.8344086 C1.4344086,12.5870968 1.26451613,9.87096774 1.26451613,7.93763441 C1.26451613,6.66666667 1.7688172,5.46774194 2.77741935,4.33548387 C3.78602151,3.20752688 5.30322581,2.31935484 7.32795699,1.67096774 C9.35376344,1.02473118 12.1290323,0.704301075 15.6569892,0.704301075 C19.983871,0.704301075 23.2860215,1.29032258 25.555914,2.46236559 C27.8290323,3.6344086 29.1806452,6.2483871 29.611828,8.80215054 L18.9225806,8.80215054 C19.0021505,8.65053763 18.7129032,7.96666667 18.6666667,7.79569892 C18.2569892,6.31290323 16.8258065,5.88064516 15.4548387,5.57741935 C14.3311828,5.32903226 13.0473118,5.30752688 12.0344086,5.92688172 C11.4182796,6.30537634 10.9397849,6.70430108 10.9397849,7.24623656 C10.9397849,7.63870968 11.1935484,7.99247312 11.7032258,8.30752688 C12.1989247,8.63225806 13.3698925,8.93655914 15.2182796,9.21612903 C19.7935484,9.93870968 23.0698925,10.6655914 25.0505376,11.4 C27.0290323,12.1397849 28.4688172,13.0505376 29.3709677,14.1397849 C30.2709677,15.2290323 30.7225806,16.4483871 30.7225806,17.7967742 C30.7225806,19.3817204 30.1215054,20.8419355 28.9193548,22.1774194 C27.7193548,23.5129032 26.0408602,24.5301075 23.8849462,25.2204301 C21.727957,25.911828 19.0107527,26.255914 15.7311828,26.255914 C9.97311828,26.255914 5.9827957,25.4473118 3.76666667,23.8301075 C1.54731183,22.2150538 0.292473118,20.5193548 0,18.0225806 Z M51.0096774,1.1688172 L60.3010753,1.1688172 L60.3010753,18.6376344 C60.3010753,22.2225806 58.0741935,24.7612903 53.6193548,26.2612903 C51.5580645,26.9451613 49.0870968,26.9709677 46.2892473,26.9709677 C43.7806452,26.9709677 41.5301075,27.0172043 39.4483871,26.4752688 C34.5451613,24.516129 32.0946237,21.9032258 32.0946237,18.6376344 L32.0946237,1.1688172 L41.4516129,1.1688172 L41.4516129,16.1290323 C41.4516129,18.8526882 41.8129032,20.8795699 46.2903226,20.8795699 C50.8580645,20.8795699 50.9494624,18.7645161 50.9494624,16.0408602 L51.0096774,1.1688172 L51.0096774,1.1688172 Z M111.76129,1.1688172 L121.053763,1.1688172 L121.053763,18.6376344 C121.053763,22.2225806 118.826882,24.7612903 114.372043,26.2612903 C112.311828,26.9451613 109.839785,26.9709677 107.041935,26.9709677 C104.533333,26.9709677 102.28172,27.0172043 100.201075,26.4752688 C95.2967742,24.516129 92.8462366,21.9032258 92.8462366,18.6376344 L92.8462366,1.1688172 L102.203226,1.1688172 L102.203226,16.1290323 C102.203226,18.8526882 102.565591,20.8795699 107.041935,20.8795699 C111.609677,20.8795699 111.701075,18.7645161 111.701075,16.0408602 L111.76129,1.1688172 L111.76129,1.1688172 Z M62.2129032,1.34946237 L90.9935484,1.34946237 L90.9935484,6.71935484 L76.9344086,19.3548387 L90.9946237,19.3548387 L90.9946237,26.388172 L62.2129032,26.388172 L62.2129032,20.3419355 L75.9483871,7.88602151 L62.2387097,7.88602151 L62.2129032,1.34946237 L62.2129032,1.34946237 Z M123.354839,26.344086 L123.354839,1.30645161 L132.57957,1.30645161 L132.577419,10.5741935 L142.526882,1.30645161 L154.072043,1.30645161 L140.823656,13.4408602 L154.623656,26.344086 L142.167742,26.344086 L132.668817,17.3849462 L132.75914,26.344086 L123.354839,26.344086 L123.354839,26.344086 Z M165.148387,1.30322581 L165.148387,26.344086 L155.941935,26.344086 L155.941935,1.30645161 L165.148387,1.30645161 L165.148387,1.30322581 L165.148387,1.30322581 Z" transform="translate(0 172.043)"/>
  </g>
</svg>
