<svg xmlns="http://www.w3.org/2000/svg" width="200" height="200" viewBox="0 0 200 200">
  <defs>
    <linearGradient id="toyota-a" x1="50%" x2="50%" y1="92.559%" y2="16.46%">
      <stop offset="0%" stop-color="#F0F3F5"/>
      <stop offset="5.6%" stop-color="#E2E5E8"/>
      <stop offset="13.8%" stop-color="#D4D8DD"/>
      <stop offset="24.2%" stop-color="#CCD0D6"/>
      <stop offset="44%" stop-color="#CACED4"/>
      <stop offset="56.8%" stop-color="#B3B7BD"/>
      <stop offset="83.5%" stop-color="#797C83"/>
      <stop offset="100%" stop-color="#52545C"/>
    </linearGradient>
    <linearGradient id="toyota-b" x1="50%" x2="50%" y1="122.592%" y2="27.082%">
      <stop offset="0%" stop-color="#F0F3F5"/>
      <stop offset="5.6%" stop-color="#E2E5E8"/>
      <stop offset="13.8%" stop-color="#D4D8DD"/>
      <stop offset="24.2%" stop-color="#CCD0D6"/>
      <stop offset="44%" stop-color="#CACED4"/>
      <stop offset="56.8%" stop-color="#B3B7BD"/>
      <stop offset="83.5%" stop-color="#797C83"/>
      <stop offset="100%" stop-color="#52545C"/>
    </linearGradient>
    <linearGradient id="toyota-c" x1="92.46%" x2="12.597%" y1="96.111%" y2="37.495%">
      <stop offset="0%" stop-color="#F0F3F5"/>
      <stop offset="5.6%" stop-color="#E2E5E8"/>
      <stop offset="13.8%" stop-color="#D4D8DD"/>
      <stop offset="24.2%" stop-color="#CCD0D6"/>
      <stop offset="44%" stop-color="#CACED4"/>
      <stop offset="56.8%" stop-color="#B3B7BD"/>
      <stop offset="83.5%" stop-color="#797C83"/>
      <stop offset="100%" stop-color="#52545C"/>
    </linearGradient>
    <linearGradient id="toyota-d" x1="74.172%" x2="18.512%" y1="60.64%" y2="15.453%">
      <stop offset="0%" stop-color="#F0F3F5"/>
      <stop offset="5.6%" stop-color="#E2E5E8"/>
      <stop offset="13.8%" stop-color="#D4D8DD"/>
      <stop offset="24.2%" stop-color="#CCD0D6"/>
      <stop offset="44%" stop-color="#CACED4"/>
      <stop offset="56.8%" stop-color="#B3B7BD"/>
      <stop offset="83.5%" stop-color="#797C83"/>
      <stop offset="100%" stop-color="#52545C"/>
    </linearGradient>
    <linearGradient id="toyota-e" x1="50.002%" x2="50.002%" y1="-20.464%" y2="136.875%">
      <stop offset="0%" stop-color="#F0F3F5"/>
      <stop offset="5.6%" stop-color="#E2E5E8"/>
      <stop offset="13.8%" stop-color="#D4D8DD"/>
      <stop offset="24.2%" stop-color="#CCD0D6"/>
      <stop offset="44%" stop-color="#CACED4"/>
      <stop offset="56.8%" stop-color="#B3B7BD"/>
      <stop offset="83.5%" stop-color="#797C83"/>
      <stop offset="100%" stop-color="#52545C"/>
    </linearGradient>
    <linearGradient id="toyota-f" x1="50.002%" x2="50.002%" y1="-20.464%" y2="136.875%">
      <stop offset="0%" stop-color="#F0F3F5"/>
      <stop offset="5.6%" stop-color="#E2E5E8"/>
      <stop offset="13.8%" stop-color="#D4D8DD"/>
      <stop offset="24.2%" stop-color="#CCD0D6"/>
      <stop offset="44%" stop-color="#CACED4"/>
      <stop offset="56.8%" stop-color="#B3B7BD"/>
      <stop offset="83.5%" stop-color="#797C83"/>
      <stop offset="100%" stop-color="#52545C"/>
    </linearGradient>
    <linearGradient id="toyota-g" x1="49.998%" x2="49.998%" y1="-89.758%" y2="72.813%">
      <stop offset="0%" stop-color="#F0F3F5"/>
      <stop offset="5.6%" stop-color="#E2E5E8"/>
      <stop offset="13.8%" stop-color="#D4D8DD"/>
      <stop offset="24.2%" stop-color="#CCD0D6"/>
      <stop offset="44%" stop-color="#CACED4"/>
      <stop offset="56.8%" stop-color="#B3B7BD"/>
      <stop offset="83.5%" stop-color="#797C83"/>
      <stop offset="100%" stop-color="#52545C"/>
    </linearGradient>
    <linearGradient id="toyota-h" x1="49.998%" x2="49.998%" y1="-89.759%" y2="72.811%">
      <stop offset="0%" stop-color="#F0F3F5"/>
      <stop offset="5.6%" stop-color="#E2E5E8"/>
      <stop offset="13.8%" stop-color="#D4D8DD"/>
      <stop offset="24.2%" stop-color="#CCD0D6"/>
      <stop offset="44%" stop-color="#CACED4"/>
      <stop offset="56.8%" stop-color="#B3B7BD"/>
      <stop offset="83.5%" stop-color="#797C83"/>
      <stop offset="100%" stop-color="#52545C"/>
    </linearGradient>
    <linearGradient id="toyota-i" x1="50%" x2="50%" y1="0%" y2="100%">
      <stop offset="0%" stop-color="#F0F3F5"/>
      <stop offset="25.3%" stop-color="#EDF0F3"/>
      <stop offset="40.6%" stop-color="#E5E8EA"/>
      <stop offset="53.1%" stop-color="#D7DADC"/>
      <stop offset="64.2%" stop-color="#C3C5C9"/>
      <stop offset="74.4%" stop-color="#A9ABAF"/>
      <stop offset="83.9%" stop-color="#888B90"/>
      <stop offset="92.6%" stop-color="#63656B"/>
      <stop offset="100%" stop-color="#3D3F46"/>
    </linearGradient>
    <linearGradient id="toyota-j" x1="49.999%" x2="49.999%" y1="-7.19%" y2="105.671%">
      <stop offset="0%" stop-color="#F0F3F5"/>
      <stop offset="25.3%" stop-color="#EDF0F3"/>
      <stop offset="40.6%" stop-color="#E5E8EA"/>
      <stop offset="53.1%" stop-color="#D7DADC"/>
      <stop offset="64.2%" stop-color="#C3C5C9"/>
      <stop offset="74.4%" stop-color="#A9ABAF"/>
      <stop offset="83.9%" stop-color="#888B90"/>
      <stop offset="92.6%" stop-color="#63656B"/>
      <stop offset="100%" stop-color="#3D3F46"/>
    </linearGradient>
    <linearGradient id="toyota-k" x1="50%" x2="50%" y1="-2.057%" y2="219.725%">
      <stop offset="0%" stop-color="#F0F3F5"/>
      <stop offset="25.3%" stop-color="#EDF0F3"/>
      <stop offset="40.6%" stop-color="#E5E8EA"/>
      <stop offset="53.1%" stop-color="#D7DADC"/>
      <stop offset="64.2%" stop-color="#C3C5C9"/>
      <stop offset="74.4%" stop-color="#A9ABAF"/>
      <stop offset="83.9%" stop-color="#888B90"/>
      <stop offset="92.6%" stop-color="#63656B"/>
      <stop offset="100%" stop-color="#3D3F46"/>
    </linearGradient>
    <linearGradient id="toyota-l" x1="50%" x2="50%" y1="-12.919%" y2="101.124%">
      <stop offset="0%" stop-color="#CACED4"/>
      <stop offset="100%" stop-color="#52545C"/>
    </linearGradient>
  </defs>
  <g fill="none" transform="translate(0 18)">
    <path fill="#AB002F" d="M99.5745613,146.856338 C99.5443662,137.035915 107.459155,129.11338 117.34507,129.096479 C126.988732,129.111972 134.909859,137.034507 135.104225,146.856338 C134.911972,156.566901 126.990845,164.489437 117.34507,164.626761 C107.459155,164.489437 99.5450704,156.566901 99.5745613,146.856338 Z M117.345775,158.080282 C122.682394,157.997887 127.100704,152.983099 127.155634,146.856338 C127.100704,140.611972 122.682394,135.597183 117.345775,135.632195 C111.778169,135.595775 107.349296,140.610563 107.525352,146.856338 C107.349296,152.982394 111.778169,157.997183 117.345775,158.080282 M155.20493,136.56831 L155.20493,163.691549 L147.730282,163.691549 L147.730282,136.56831 L136.974648,136.56831 L136.974648,130.5 L165.492958,130.5 L165.492958,136.56831 L155.20493,136.56831 M174.369718,156.201408 L171.571127,163.692254 L162.69507,163.692254 L176.716197,130.5 L186.061268,130.5 L199.623239,163.692254 L190.746479,163.692254 L187.941549,156.201408 L174.369718,156.201408 L174.369718,156.201408 Z M181.392958,150.597887 L186.061268,150.597887 L181.392958,138.438028 L176.716197,150.597887 L181.392958,150.597887 M17.7626761,136.56831 L17.7626761,163.691549 L10.2830986,163.691549 L10.2830986,136.56831 L0,136.56831 L0,130.5 L28.0507042,130.5 L28.0507042,136.56831 L17.7626761,136.56831 M29.9211268,146.856338 C29.9359155,137.035915 37.8464789,129.11338 47.6774648,129.096479 C57.3816901,129.111972 65.3042254,137.034507 65.4471831,146.856338 C65.3042254,156.566901 57.3816901,164.489437 47.6774648,164.626761 C37.8464789,164.489437 29.9352113,156.566901 29.9211268,146.856338 Z M47.6774648,158.080282 C53.0774648,157.997887 57.4922535,152.983099 57.4971831,146.856338 C57.4915493,140.611972 53.0774648,135.597183 47.6774648,135.632195 C42.1647887,135.595775 37.7422535,140.610563 37.8711268,146.856338 C37.7422535,152.982394 42.1647887,157.997183 47.6774648,158.080282 M82.2774648,163.691549 L86.0133803,163.691549 L86.0133803,151.064789 L99.1070423,130.5 L90.6950704,130.5 L82.2774648,144.51831 L74.3274648,130.5 L65.4478873,130.5 L78.5415493,151.064789 L78.5415493,163.691549 L82.2774648,163.691549"/>
    <path fill="#000" d="M6.01901408,57.4373239 C6.01901408,89.1077465 47.1992958,114.875352 97.8147887,114.875352 C148.429577,114.875352 189.610563,89.1077465 189.610563,57.4373239 C189.610563,25.7640845 148.429577,0 97.8140845,0 C47.1985915,0 6.01901408,25.7640845 6.01901408,57.4373239 Z M8.83591549,57.4373239 C8.83591549,27.3232394 48.7507042,2.82183099 97.8147887,2.82183099 C146.877465,2.82183099 186.793662,27.3232394 186.793662,57.4373239 C186.793662,87.5577465 146.877465,112.058451 97.8147887,112.058451 C48.7507042,112.058451 8.83591549,87.5584507 8.83591549,57.4373239 Z"/>
    <path fill="#000" d="M89.1408451,10.4415493 C67.656338,11.7535211 52.0514085,17.4478873 49.3915493,24.95 C49.1206815,25.7059371 48.9811104,26.5026361 48.9788732,27.3056338 C48.9788732,28.5711268 49.3366197,29.8366197 50.0464789,31.0464789 C53.028169,36.1267606 62.2838028,40.3161972 75.4549296,42.5633803 L76.8492958,42.7915493 L77.0830986,41.3985915 C79.2450704,28.2105634 83.9908451,17.8401408 90.1084507,12.943662 L93.5746479,10.1661972 L89.1408451,10.4415493 Z M52.478169,29.6260563 C52.0190141,28.8450704 51.7929577,28.0746479 51.7929577,27.315493 C51.7929577,26.8366197 51.8753521,26.3690141 52.0457746,25.8929577 C54.0760563,20.1619718 67.8683099,15.156338 85.4873239,13.5415493 C80.4612676,19.2267606 76.5964789,28.3880282 74.5802817,39.5183099 C63.1309859,37.4 54.8985915,33.7521127 52.478169,29.6260563 L52.478169,29.6260563 Z M85.2126761,42.2415493 L84.9373239,43.7739437 L86.4915493,43.8922535 C90.1774648,44.1676056 93.9880282,44.3161972 97.8112676,44.3161972 C101.638028,44.3161972 105.450704,44.1676056 109.137324,43.8922535 L110.688732,43.7739437 L110.412676,42.2415493 C108.293662,30.3415493 103.579577,23.2330986 97.8133803,23.2330986 C92.0429577,23.2330986 87.3309859,30.3415493 85.2126761,42.2415493 L85.2126761,42.2415493 Z M97.8140845,26.05 C101.756338,26.05 105.395775,31.9535211 107.31338,41.1690141 C104.195775,41.3725352 101.020423,41.4992958 97.8112676,41.4992958 C94.606338,41.4992958 91.4295775,41.3725352 88.315493,41.1690141 C90.2274648,31.9535211 93.8725352,26.05 97.8140845,26.05 L97.8140845,26.05 Z M105.516901,12.9450704 C111.632394,17.8415493 116.383099,28.2133803 118.54507,41.4 L118.776056,42.7929577 L120.16831,42.5647887 C133.34507,40.3176056 142.605634,36.1267606 145.576761,31.0471831 C146.732394,29.0950704 146.952113,26.9866197 146.237324,24.9521127 C143.578169,17.4507042 127.972535,11.756338 106.489437,10.4429577 L102.061268,10.1676056 L105.516901,12.9450704 L105.516901,12.9450704 Z M110.146479,13.5415493 C127.760563,15.156338 141.552113,20.1711268 143.576761,25.8929577 C143.752817,26.3690141 143.835211,26.8366197 143.835211,27.315493 C143.835211,28.0746479 143.604225,28.8450704 143.155634,29.6260563 C140.726761,33.7514085 132.491549,37.4 121.047887,39.5183099 C119.03169,28.3887324 115.172535,19.2274648 110.146479,13.5415493 Z M35.7971831,30.4788732 C26.1415493,38.5669014 21.0387324,48.1753521 21.0387324,58.2704225 C21.0387324,82.0183099 49.9964789,102.091549 88.3929577,104.952113 L92.6816901,105.273944 L89.4161972,102.484507 C81.0042254,95.2880282 75.7802817,78.2133803 75.7802817,57.9211268 L75.8683099,53.1267606 L74.6908451,52.8873239 C54.4943662,49.2676056 40.1260563,40.7753521 38.0802817,31.265493 L37.5908451,28.9823944 L35.7971831,30.4788732 L35.7971831,30.4788732 Z M23.8584507,58.2704225 C23.8584507,49.6140845 28.0809859,41.306338 36.0091549,34.0908451 C39.7028169,43.7 53.5042254,51.7049296 73.0126761,55.4295775 C72.9880282,56.5295775 72.9661972,57.9211268 72.9661972,57.9211268 C72.9661972,76.7366197 77.4309859,92.9859155 84.7950704,101.752817 C49.8091549,98.0197183 23.8584507,79.7457746 23.8584507,58.2704225 L23.8584507,58.2704225 Z M84.065493,55.7323944 L84.0570423,56.243662 C84.0570423,75.1056338 89.9711268,89.3359155 97.8140845,89.3359155 C105.654225,89.3359155 111.569014,75.1056338 111.569014,56.243662 L111.55,54.2084507 L110.037324,54.3380282 C106.048592,54.6873239 101.941549,54.8605634 97.815493,54.8605634 C93.6894366,54.8605634 89.5767606,54.6873239 85.5985915,54.3380282 L84.0802817,54.2007042 L84.065493,55.7323944 L84.065493,55.7323944 Z M108.735211,57.2443662 C108.523239,74.7943662 102.994366,86.5211268 97.8140845,86.5211268 C92.6288732,86.5211268 87.0992958,74.7943662 86.8929577,57.2443662 C90.4746479,57.5084507 94.1330986,57.6732394 97.8140845,57.6732394 C101.500704,57.6732394 105.148592,57.5084507 108.735211,57.2443662 Z M157.542958,31.265493 C155.499296,40.7753521 141.128169,49.2669014 120.938028,52.8873239 L119.75493,53.1070423 L119.848592,57.9204225 C119.848592,78.2126761 114.621831,95.2880282 106.212676,102.483803 L102.947183,105.273239 L107.230282,104.951408 C145.630282,102.090845 174.588732,82.0176056 174.588732,58.2697183 C174.588732,48.1746479 169.480282,38.5661972 159.824648,30.478169 L158.03662,28.9816901 L157.542958,31.265493 L157.542958,31.265493 Z M159.614085,34.0908451 C167.547887,41.306338 171.773239,49.6140845 171.773239,58.2704225 C171.773239,79.7457746 145.823944,98.0197183 110.834507,101.752817 C118.198592,92.9859155 122.66338,76.7366197 122.66338,57.9211268 C122.66338,57.9211268 122.635915,56.5288732 122.616901,55.4295775 C142.119014,51.7049296 155.919718,43.6992958 159.614085,34.0908451 L159.614085,34.0908451 Z"/>
    <path fill="url(#toyota-a)" d="M158.541549,24.0147887 C158.671127,24.3725352 158.789437,24.7373239 158.882394,25.1042254 C159.41338,27.2140845 159.303521,29.2859155 158.615493,31.3049296 C167.776056,38.8591549 173.176056,48.1760563 173.176056,58.2711268 C173.176056,83.4683099 139.433803,103.899296 97.8140845,103.899296 C56.1915493,103.899296 22.4521127,83.4683099 22.4521127,58.2711268 C22.4521127,48.184507 27.8577465,38.8598592 37.0070423,31.3049296 C36.3246479,29.2859155 36.2147887,27.2140845 36.7457746,25.1042254 C36.8556624,24.7038732 37.0020506,24.3144475 37.1830986,23.9408451 C24.6830986,32.8464789 17.1042254,44.5176056 17.1042254,57.3 C17.1042254,85.2098592 53.2366197,107.833099 97.8133803,107.833099 C142.384507,107.833099 178.522535,85.2098592 178.522535,57.3 C178.522535,44.5443662 170.975352,32.9 158.541549,24.0147887 Z"/>
    <path fill="url(#toyota-b)" d="M109.026761,42.4894366 C105.469718,42.756338 101.720423,42.9021127 97.8112676,42.9021127 C93.9049296,42.9021127 90.1584507,42.756338 86.6014085,42.4894366 L86.5901408,42.4894366 L84.265493,44.178169 C88.5542254,44.5521127 93.0830986,44.7640845 97.8133803,44.7640845 C102.544366,44.7640845 107.072535,44.5521127 111.364085,44.178169 L109.026761,42.4894366 Z M150.252817,24.784507 C147.419718,15.4204225 124.064789,8.54366197 97.8140845,8.54366197 C71.5676056,8.54366197 48.2133803,15.421831 45.3802817,24.784507 C42.9211268,32.9077465 56.3450704,40.4260563 77.5239437,43.4077465 L75.6838028,41.1676056 C58.5514085,38.2521127 48.3683099,32.0352113 50.7176056,25.4253521 C53.5647887,17.4 74.2450704,11.5887324 97.8119718,11.5887324 C121.378169,11.5887324 142.06338,17.4014085 144.907746,25.4253521 C147.254225,32.0359155 137.076056,38.2528169 119.939437,41.1676056 L118.105634,43.4077465 C139.276761,40.4260563 152.709859,32.9077465 150.252817,24.784507 Z"/>
    <path fill="url(#toyota-c)" d="M86.6295775,42.4894366 C88.5964789,31.5598592 92.8633803,24.7295775 97.8119718,24.7295775 C102.766197,24.7295775 107.029577,31.5598592 108.999296,42.4894366 L109.038732,42.4894366 L111.339437,44.1591549 C109.397183,29.7253521 104.077465,20.5014085 97.815493,20.5014085 C91.5492958,20.5014085 86.2316901,29.7253521 84.2922535,44.1591549 L86.5922535,42.4894366 L86.6295775,42.4894366 Z"/>
    <path fill="url(#toyota-d)" d="M112.03662,52.3373239 L110.15493,55.7401408 C110.15493,55.9880282 110.166197,56.2429577 110.166197,56.5014085 C110.166197,74.6183099 104.626056,88.3549296 97.8126761,88.3549296 C90.9929577,88.3549296 85.4640845,74.6169014 85.4640845,56.5014085 C85.4640845,56.215493 85.4697183,55.9316901 85.4753521,55.6577465 L83.5908451,52.3373239 C83.535416,53.7183166 83.5079456,55.1002898 83.5084439,56.4823944 C83.5084439,77.0225352 89.9126761,92.5816901 97.815493,92.5816901 C105.71831,92.5816901 112.128169,77.0225352 112.128169,56.4823944 C112.125325,55.1002316 112.094802,53.7182644 112.03662,52.3373239 L112.03662,52.3373239 Z"/>
    <path fill="url(#toyota-e)" d="M77.5542254,43.4161972 C80.2612676,23.3542254 88.3077465,8.54225352 97.8147887,8.54225352 C87.6225352,8.54225352 78.9352113,21.6647887 75.7112676,41.2070423 L77.5267606,43.4161972 L77.5542254,43.4161972 Z"/>
    <path fill="url(#toyota-f)" d="M118.077465,43.4161972 L118.096479,43.4161972 L119.911972,41.2070423 C116.693662,21.6647887 108.000704,8.54225352 97.8140845,8.54225352 C107.321127,8.54366197 115.373239,23.3542254 118.077465,43.4161972 Z"/>
    <path fill="url(#toyota-g)" d="M121.177465,54.2626761 L118.866901,51.5035211 L118.847887,51.5035211 C118.977465,53.6957746 119.051408,55.9239437 119.051408,58.1873239 C119.051408,85.6056338 109.541549,107.83169 97.8147887,107.83169 C110.96338,107.83169 121.252113,87.2176056 121.252113,58.1873239 C121.252113,56.8591549 121.224648,55.556338 121.177465,54.2626761 L121.177465,54.2626761 Z"/>
    <path fill="url(#toyota-h)" d="M76.5830986,58.1880282 C76.5830986,55.9246479 76.6570423,53.6964789 76.7838028,51.5042254 L76.7683099,51.5042254 L74.4521127,54.2549296 C74.4030357,55.5653987 74.3774448,56.8766421 74.3753521,58.1880282 C74.3753521,87.2183099 84.671831,107.832394 97.815493,107.832394 C86.0929577,107.832394 76.5830986,85.6056338 76.5830986,58.1880282 L76.5830986,58.1880282 Z"/>
    <path fill="#2D2F34" d="M158.615493,31.3042254 C162.117606,34.1929577 165.071831,37.3450704 167.382394,40.6929577 C166.582434,35.3684709 164.464246,30.328393 161.220423,26.0309859 C160.345106,25.3354024 159.45136,24.6633316 158.540141,24.015493 C158.670423,24.3732394 158.788732,24.7380282 158.880282,25.1049296 C159.41338,27.2140845 159.303521,29.2852113 158.615493,31.3042254 L158.615493,31.3042254 Z M37.0077465,31.3042254 C36.3253521,29.2852113 36.215493,27.2133803 36.7464789,25.1035211 C36.8563666,24.703169 37.0027548,24.3137433 37.1838028,23.9401408 C36.2444388,24.6179747 35.3191255,25.3150706 34.4084507,26.0309859 C31.1693738,30.3311229 29.0517106,35.3699511 28.2464789,40.6929577 C30.5570423,37.3450704 33.5056338,34.1922535 37.0077465,31.3042254 L37.0077465,31.3042254 Z"/>
    <path fill="url(#toyota-i)" d="M7.42746479,57.4373239 C7.42746479,26.4978873 47.8922535,1.41056338 97.8147887,1.41056338 C147.730282,1.41056338 188.195775,26.4978873 188.195775,57.4373239 C188.195775,88.3830986 147.730282,113.461268 97.8147887,113.461268 C47.8922535,113.461268 7.42746479,88.3838028 7.42746479,57.4373239 Z M97.8140845,107.832394 C142.385915,107.832394 178.523239,85.2091549 178.523239,57.2992958 C178.523239,29.3866197 142.385915,6.7556338 97.8140845,6.7556338 C53.2366197,6.7556338 17.1021127,29.3880282 17.1021127,57.2992958 C17.1021127,85.2091549 53.2373239,107.832394 97.8140845,107.832394 Z"/>
    <path fill="url(#toyota-j)" d="M76.5830986,58.1880282 C76.5830986,31.0577465 86.0929577,8.54366197 97.8140845,8.54366197 C109.540845,8.54366197 119.051408,31.0577465 119.051408,58.1880282 C119.051408,85.606338 109.540845,107.832394 97.8140845,107.832394 C86.0873239,107.832394 76.5830986,85.6056338 76.5830986,58.1880282 L76.5830986,58.1880282 Z M97.8140845,92.5816901 C105.717606,92.5816901 112.127465,77.0225352 112.127465,56.4908451 C112.127465,35.1830986 105.716901,20.5021127 97.8140845,20.5021127 C89.9112676,20.5021127 83.5070423,35.1830986 83.5070423,56.4908451 C83.5070423,77.0225352 89.9112676,92.5816901 97.8140845,92.5816901 L97.8140845,92.5816901 Z"/>
    <path fill="url(#toyota-k)" d="M36.7464789,25.1035211 C39.0760563,15.8802817 67.2492958,2.45633803 97.8140845,2.45633803 C128.376056,2.45633803 155.58169,12.0478873 158.882394,25.1035211 C162.576761,39.7373239 135.425352,52.9809859 97.8140845,52.9809859 C60.1964789,52.9809859 33.0464789,39.7380282 36.7464789,25.1035211 Z M97.8140845,8.54366197 C71.5676056,8.54366197 48.2133803,15.421831 45.3802817,24.784507 C42.2056338,35.2739437 65.5161972,44.7640845 97.8140845,44.7640845 C130.11831,44.7640845 153.424648,35.2725352 150.252817,24.784507 C147.419718,15.4204225 124.066197,8.54366197 97.8140845,8.54366197 Z"/>
    <path fill="url(#toyota-l)" d="M83.5619718,52.3098592 L83.578169,52.3211268 L85.5176056,55.7401408 C89.4647887,56.0774648 93.5697183,56.2704225 97.8140845,56.2704225 C102.078169,56.2704225 106.192958,56.078169 110.166197,55.7316901 L112.053521,52.3197183 L112.064789,52.3084507 C107.526056,52.7401408 102.766901,52.9795775 97.815493,52.9795775 C93.0563916,52.9823059 88.2998503,52.7588143 83.5619718,52.3098592 L83.5619718,52.3098592 Z M159.201408,28.2676056 C158.716901,38.7309859 142.633099,48.0014085 118.858451,51.4950704 L118.866901,51.5035211 L121.185915,54.2746479 C144.448592,50.0929577 159.752113,39.8211268 159.201408,28.2676056 Z M36.4274648,28.2676056 C35.8774648,39.8323944 51.1795775,50.0922535 74.4380282,54.2746479 L76.7626761,51.5035211 L76.7683099,51.4950704 C52.9894366,48.0021127 36.9169014,38.7316901 36.4274648,28.2676056 L36.4274648,28.2676056 Z"/>
  </g>
</svg>
