<svg xmlns="http://www.w3.org/2000/svg" width="200" height="200" viewBox="0 0 200 200">
  <g fill="none">
    <path fill="#295CA7" d="M99.889441,0.320496894 C154.690683,0.320496894 199.376398,45.0086957 199.376398,99.889441 C199.376398,154.607453 154.689441,199.37764 99.889441,199.37764 C45.089441,199.37764 0.320496894,154.607453 0.320496894,99.889441 C0.320496894,45.0074534 45.089441,0.320496894 99.889441,0.320496894 Z"/>
    <path fill="#FFF" d="M99.889441,12.9602484 C147.675776,12.9602484 186.73913,52.021118 186.73913,99.8906832 C186.73913,147.678261 147.677019,186.657143 99.889441,186.657143 C52.1018634,186.657143 13.042236,147.677019 13.042236,99.889441 C13.042236,52.021118 52.1018634,12.9602484 99.889441,12.9602484 Z M99.2360248,120.275776 L79.9913043,170.182609 L79.910559,171.732919 C86.2708075,173.525466 92.957764,174.423602 99.889441,174.423602 C106.412422,174.423602 112.691925,173.608696 118.725466,172.058385 L118.48323,170.182609 L99.2360248,120.275776 Z M169.69441,73.468323 L134.219876,166.024845 C158.03354,153.547826 174.42236,128.595031 174.42236,99.8906832 C174.42236,90.5937888 172.792547,81.7043478 169.69441,73.468323 Z M29.5142857,75.0993789 C26.7416149,82.8459627 25.2732919,91.1639752 25.2732919,99.889441 C25.2732919,127.941615 40.9304348,152.567702 64.089441,165.208696 L29.5142857,75.0993789 Z M62.7850932,35.1403727 C54.7118012,39.7888199 47.6173913,45.9055901 41.7453416,53.1627329 L72.8968944,133.976398 L84.3130435,104.455901 L114.240994,104.455901 L125.655901,133.976398 L157.134161,52.1838509 C151.579657,45.4824897 144.90162,39.7985711 137.398758,35.3863354 L115.545342,95.5677019 L84.7192547,95.5677019 L62.7850932,35.1403727 Z M99.889441,25.2732363 C93.5894196,25.2655767 87.3140735,26.0603788 81.2149068,27.6385093 L81.2149068,27.6385093 L100.134161,79.8285714 L118.971429,27.7192547 C112.854658,26.089441 106.412422,25.2732363 99.889441,25.2732363 Z"/>
  </g>
</svg>
